<svg width="210" height="210" viewBox="0 0 210 210" fill="none" xmlns="http://www.w3.org/2000/svg">
<path d="M0 7.00001C0 3.13401 3.13401 0 7 0L203 0C206.866 0 210 3.13401 210 7V203C210 206.866 206.866 210 203 210H7.00001C3.13401 210 0 206.866 0 203L0 7.00001Z" fill="#888888"/>
<path d="M76 177.6L75 179.9L73.8 182.1L72.4 184.1L70.7 185.9L68.7 187.5L66.6 188.8L64.3 189.8L62 190.4L59.5 190.8L57 191V179L58.3 178.9L59.4 178.7L60.4 178.4L61.2 178.1L61.8 177.7L62.5 177.2L63 176.6L63.6 175.8L64.2 174.7L64.7 173.5" fill="white"/>
<path d="M57 185V179H41V182" fill="white"/>
<path d="M59.8472 23V58H47.8333V21" fill="white"/>
<path d="M59.8472 23L62.8507 25L57.8449 28" fill="white"/>
<path d="M19.8009 54H93.8866V58H19.8009" fill="white"/>
<path d="M93.8866 54L69.8588 56L81.8727 44" fill="white"/>
<path d="M46.8322 89H75.8657V93H46.8322" fill="white"/>
<path d="M81.7726 90.9L81.9728 103.7L81.7726 126.4L81.3721 136.4L80.8715 145.5L80.2708 153.6L79.4699 160.9L78.4688 167.3L77.2674 172.8L75.8657 177.6L64.5527 173.5L65.5538 169.9L66.6551 165.1L67.5561 159.3L68.2569 152.5L68.9578 144.7L69.3582 135.9L69.7587 126.1L69.9589 103.7L69.8588 91" fill="white"/>
<path d="M69.8588 89L75.8657 84L86.8785 93L81.8727 96L69.8588 101" fill="white"/>
<path d="M52.8391 60V85H40.8252V58" fill="white"/>
<path d="M52.8391 60L55.8426 62L50.8368 65" fill="white"/>
<path d="M40.8252 85L43.228 88.6L46.8322 91L50.4363 88.6L52.8391 85" fill="white"/>
<path d="M52.8391 85L52.2384 98.9L51.037 112.1L49.3351 124.7L47.0324 136.5L44.1291 147.7L40.625 158.2L36.6204 168L31.9149 177L26.5087 185.2L20.5017 192.5L19 191.4L23.305 183.2L27.1094 174.6L30.5133 165.6L33.4167 155.9L35.9196 145.7L37.9219 134.8L39.3235 123.3L40.3247 111.2L40.8252 98.4L40.8252 85" fill="white"/>
<path d="M106.902 35H176.983V39H106.902" fill="white"/>
<path d="M176.983 35L152.955 37L164.969 25" fill="white"/>
<path d="M95.8889 59H192V63H95.8889" fill="white"/>
<path d="M192 59L171.977 61L181.988 50" fill="white"/>
<path d="M107.903 84H176.983V88H107.903" fill="white"/>
<path d="M176.983 84L152.955 86L164.969 74" fill="white"/>
<path d="M107.903 110H176.983V114H107.903" fill="white"/>
<path d="M176.983 110L152.955 112L164.969 100" fill="white"/>
<path d="M115.912 135V187L103.898 193V129" fill="white"/>
<path d="M109.905 135H174.98V139H109.905" fill="white"/>
<path d="M180.987 137V181L168.973 187V137" fill="white"/>
<path d="M168.973 135L174.98 130L185.993 139L180.987 143L168.973 137" fill="white"/>
<path d="M110 171H175V175H110" fill="white"/>
</svg>
