<svg xmlns="http://www.w3.org/2000/svg" xmlns:xlink="http://www.w3.org/1999/xlink" version="1.1" baseProfile="full" viewBox="0 0 200 200" width="96" height="96"><path d="M 38.3,12.8 L 40.9,14.3 43.6,15.5 46.1,16.9 48.5,18.5 50.8,20.3 52.8,22.2 54.8,24.2 56.6,26.4 58.2,28.7 59.6,31.1 48.3,35.1 48,33.2 47.5,31.2 46.8,29.1 46,27.1 45,25 43.9,22.9 42.6,20.7 41,18.5 39.4,16.2 37.3,14.3" fill="black"/><path d="M 59.6,31.1 L 59.3,35.7 56,38.8 51.4,38.5 48.3,35.1" fill="black"/><path d="M 16,45 L 89,45 89,49 16,49" fill="black"/><path d="M 89,45 L 65,47 77,35" fill="black"/><path d="M 46.5,62.5 L 44.4,68.3 42.1,73.9 39.5,79.5 36.6,85 33.4,90.4 29.9,95.7 26.1,100.9 22,106 17.5,110.9 12.7,115.5 11.2,114.4 14.5,108.6 17.6,102.9 20.6,97.4 23.4,91.9 25.9,86.4 28.2,81 30.2,75.6 32,70.2 33.6,64.7 34.9,59.3" fill="black"/><path d="M 34.6,60.3 L 46.5,62.5 35.4,57.7" fill="black"/><path d="M 46.5,62.5 L 48.8,65.2 43.2,66.8" fill="black"/><path d="M 59.3,57.9 L 62.8,59.9 66.3,62.2 69.5,64.8 72.7,67.7 75.6,70.8 78.5,74.2 81.2,77.8 83.7,81.6 86.1,85.6 88.3,89.9 77.3,94.5 75.8,90.4 74.3,86.5 72.7,82.7 70.9,79 69.1,75.5 67.1,72.1 65,68.8 62.9,65.6 60.6,62.3 58.2,59.3" fill="black"/><path d="M 88.3,89.9 L 88.3,94.4 85.1,97.7 80.5,97.7 77.3,94.5" fill="black"/><path d="M 71.6,96.1 L 68.5,109.1 64.8,121.3 60.6,132.8 55.9,143.4 50.6,153.2 44.9,162.2 38.6,170.2 31.8,177.4 24.4,183.6 16.5,188.7 15.4,187.2 21.8,180.7 27.8,173.8 33.4,166.2 38.5,158.1 43.2,149.2 47.4,139.6 51.2,129.3 54.5,118.2 57.4,106.4 59.9,93.8" fill="black"/><path d="M 59.7,94.8 L 71.6,96.1 60.2,91.9" fill="black"/><path d="M 71.6,96.1 L 74.2,98.6 68.7,100.6" fill="black"/><path d="M 27.3,107.8 L 34,111.5 40.4,115.8 46.4,120.8 52.1,126.2 57.5,132.1 62.5,138.4 67.3,145.2 71.6,152.4 75.7,160 79.4,168 68.3,172.4 65.3,164.7 62.1,157.3 58.6,150.3 54.8,143.6 50.8,137.2 46.4,131.2 41.8,125.4 36.8,119.8 31.7,114.5 26.3,109.3" fill="black"/><path d="M 79.4,168 L 79.3,172.5 76.1,175.7 71.5,175.6 68.3,172.4" fill="black"/><path d="M 141,14 L 141,52 129,52 129,12" fill="black"/><path d="M 141,14 L 144,16 139,19" fill="black"/><path d="M 135,30 L 180,30 180,34 135,34" fill="black"/><path d="M 180,30 L 160,32 170,21" fill="black"/><path d="M 100,48 L 178,48 178,52 100,52" fill="black"/><path d="M 183.8,51.4 L 182.7,53.8 181.6,56.2 180.4,58.7 179.1,61.1 177.7,63.5 176.3,65.8 174.7,68.2 173.1,70.6 171.2,72.9 169.8,75.3 168.1,74.6 169,71.9 169.4,69 169.8,66.3 170.3,63.6 170.7,60.9 171.1,58.4 171.4,55.8 171.7,53.3 171.9,50.9 172.1,48.5" fill="black"/><path d="M 172,48 L 178,43 189,52 184,55 172,60" fill="black"/><path d="M 106,48 L 106,118 94,118 94,42" fill="black"/><path d="M 94,118 L 96.4,121.6 100,124 103.6,121.6 106,118" fill="black"/><path d="M 106,118 L 105.4,128.3 104.2,138 102.5,147 100.3,155.3 97.4,162.9 94,169.8 90,175.9 85.4,181.1 80.2,185.4 74.5,188.7 73.4,187.2 77.6,182.6 81.3,177.7 84.4,172.3 87.2,166.4 89.5,160 91.3,152.9 92.7,145.2 93.6,136.8 94,127.7 94,118" fill="black"/><path d="M 106.6,84 L 167.6,72 168.3,75.9 107.3,87.9" fill="black"/><path d="M 167.6,72 L 144.4,78.6 153.9,64.5" fill="black"/><path d="M 140,60 L 140,91 128,91 128,58" fill="black"/><path d="M 140,60 L 143,62 138,65" fill="black"/><path d="M 128,91 L 130.4,94.6 134,97 137.6,94.6 140,91" fill="black"/><path d="M 140,91 L 140,92.2 140.2,93.1 140.4,93.7 140.5,94 140.7,94.2 140.9,94.4 141.2,94.5 141.8,94.7 142.7,94.9 144,95 144,107 141.4,106.8 138.9,106.4 136.5,105.6 134.2,104.3 132.2,102.7 130.6,100.7 129.3,98.4 128.5,96 128.1,93.5 128,91" fill="black"/><path d="M 144,95 L 148.2,96.8 150,101 148.2,105.2 144,107" fill="black"/><path d="M 144,95 L 180,95 180,107 144,107" fill="black"/><path d="M 180,95 L 183.6,97.4 186,101 183.6,104.6 180,107" fill="black"/><path d="M 180,95 L 182,70 180,70 174,95" fill="black"/><path d="M 110.1,124.6 L 112.1,128 114.1,131.5 115.8,135 117.5,138.7 119,142.4 120.5,146.2 121.8,150.1 123.1,154 124.2,157.9 125.3,162 113.5,164 113.2,160.1 112.8,156.1 112.3,152.2 111.8,148.3 111.3,144.5 110.7,140.6 110.2,136.8 109.6,132.9 109.1,129 108.5,125.2" fill="black"/><path d="M 125.3,162 L 124.3,166.4 120.5,168.9 116,167.9 113.5,164" fill="black"/><path d="M 180.7,130.7 L 178.5,134 176.2,137.3 173.9,140.7 171.5,144 169.1,147.4 166.6,150.8 164,154.2 161.4,157.6 158.5,161 155.7,164.4 154.2,163.5 155.7,159.4 157.2,155.2 158.8,151.2 160.4,147.3 162.1,143.4 163.7,139.6 165.4,135.9 167,132.2 168.6,128.5 170.2,124.9" fill="black"/><path d="M 169.7,125.8 L 180.7,130.7 170.8,123.9" fill="black"/><path d="M 180.7,130.7 L 182.4,133.9 176.5,134.1" fill="black"/><path d="M 137.5,117 L 137.5,180 126.5,180 126.5,115" fill="black"/><path d="M 137.5,117 L 140.2,119 135.5,122" fill="black"/><path d="M 157.5,117 L 157.5,180 146.5,180 146.5,115" fill="black"/><path d="M 157.5,117 L 160.2,119 155.5,122" fill="black"/><path d="M 98,176 L 189,176 189,180 98,180" fill="black"/><path d="M 189,176 L 165,178 177,166" fill="black"/></svg>