<svg xmlns="http://www.w3.org/2000/svg" xmlns:xlink="http://www.w3.org/1999/xlink" version="1.1" baseProfile="full" viewBox="0 0 200 200" width="96" height="96"><path d="M 74.1,18.1 L 69.2,29.2 63.9,40.1 58.5,50.7 52.8,61.1 46.8,71.3 40.6,81.1 34.1,90.7 27.3,100 20.2,108.9 12.7,117.5 11.2,116.4 17.1,106.7 22.9,97 28.5,87.2 34.1,77.2 39.4,67.1 44.5,56.8 49.5,46.3 54.2,35.6 58.7,24.7 63,13.6" fill="black"/><path d="M 62.6,14.6 L 74.1,18.1 63.5,12.3" fill="black"/><path d="M 74.1,18.1 L 76.2,21.1 70.4,22" fill="black"/><path d="M 52,64 L 52,183 40,189 40,64" fill="black"/><path d="M 161.2,25 L 153.7,26.3 145.9,27.5 137.8,28.6 129.4,29.7 120.6,30.7 111.5,31.6 102.2,32.4 92.5,33.1 82.4,33.6 72.1,33.8 71.8,32.1 82,29.8 91.8,27.8 101.3,25.9 110.4,24.1 119.3,22.3 127.8,20.5 136,18.7 143.9,16.9 151.5,15.1 158.7,13.3" fill="black"/><path d="M 157.7,13.5 L 161.2,25 169.5,23.2" fill="black"/><path d="M 169.5,23.2 L 169.8,26.2 162.5,22.7" fill="black"/><path d="M 69.3,39.7 L 72.7,41.5 76.1,43.1 79.3,44.8 82.3,46.7 85.1,48.7 87.7,50.9 90.1,53.2 92.3,55.5 94.3,58.1 96.1,60.7 85.2,65.8 84.5,63.5 83.6,61.2 82.5,58.9 81.2,56.5 79.6,54.1 77.8,51.6 75.8,49 73.5,46.4 71.1,43.7 68.3,41.2" fill="black"/><path d="M 96.1,60.7 L 96.3,65.3 93.2,68.7 88.7,68.8 85.2,65.8" fill="black"/><path d="M 105.3,36.8 L 108.3,38.6 111.4,40.3 114.3,42.1 117,44.1 119.4,46.3 121.7,48.6 123.8,51.1 125.7,53.7 127.3,56.4 128.8,59.3 117.3,62.9 116.9,60.6 116.4,58.2 115.6,55.8 114.6,53.4 113.4,51 112,48.5 110.4,45.9 108.6,43.4 106.7,40.7 104.2,38.3" fill="black"/><path d="M 128.8,59.3 L 128.3,63.8 124.8,66.8 120.3,66.3 117.3,62.9" fill="black"/><path d="M 169.7,36.7 L 167.2,40.5 164.6,44.2 161.9,47.8 159.1,51.5 156.2,55 153.2,58.5 150.1,61.9 146.8,65.2 143.3,68.4 139.6,71.5 138.3,70.4 140.6,66.3 142.8,62.2 145,58.2 147.3,54.2 149.4,50.3 151.5,46.4 153.6,42.6 155.5,38.7 157.4,34.8 159.2,30.9" fill="black"/><path d="M 158.7,31.8 L 169.7,36.7 159.8,30" fill="black"/><path d="M 169.7,36.7 L 171.4,39.9 165.6,40.1" fill="black"/><path d="M 74,77 L 161,77 161,81 74,81" fill="black"/><path d="M 167,79 L 167,142 155,148 155,79" fill="black"/><path d="M 155,77 L 161,72 172,81 167,85 155,79" fill="black"/><path d="M 59,104 L 188,104 188,108 59,108" fill="black"/><path d="M 188,104 L 168,106 178,95" fill="black"/><path d="M 70,132 L 161,132 161,136 70,136" fill="black"/><path d="M 126,77 L 126,172 114,172 114,77" fill="black"/><path d="M 114,172 L 116.4,175.6 120,178 123.6,175.6 126,172" fill="black"/><path d="M 126,172 L 125.8,174.5 125.4,177 124.6,179.4 123.3,181.7 121.7,183.7 119.7,185.3 117.4,186.6 115,187.4 112.5,187.8 110,188 110,176 111.2,175.9 112.1,175.7 112.7,175.5 113,175.4 113.2,175.2 113.4,175 113.5,174.7 113.7,174.1 113.9,173.2 114,172" fill="black"/><path d="M 110,182 L 110,176 96,176 96,179" fill="black"/></svg>