<svg xmlns="http://www.w3.org/2000/svg" xmlns:xlink="http://www.w3.org/1999/xlink" version="1.1" baseProfile="full" viewBox="0 0 200 200" width="96" height="96"><path d="M 15,68 L 87,68 87,72 15,72" fill="black"/><path d="M 87,68 L 63,70 75,58" fill="black"/><path d="M 56,19 L 56,143 44,143 44,17" fill="black"/><path d="M 56,19 L 59,21 54,24" fill="black"/><path d="M 14.1,150.9 L 19.9,149.4 26,147.7 32.5,145.8 39.3,143.7 46.4,141.4 53.9,139 61.8,136.4 70,133.7 78.6,130.9 87.6,128.1 88.3,129.8 80,134.4 72,138.6 64.2,142.5 56.7,146 49.5,149.3 42.5,152.4 35.9,155.2 29.5,157.8 23.4,160.2 17.7,162.4" fill="black"/><path d="M 17.7,162.4 L 14.1,150.9 12.2,151.5" fill="black"/><path d="M 17.7,162.4 L 20.5,164.7 22.5,157.7" fill="black"/><path d="M 85,31 L 180,31 180,35 85,35" fill="black"/><path d="M 180,31 L 156,33 168,21" fill="black"/><path d="M 80,97 L 188,97 188,101 80,101" fill="black"/><path d="M 188,97 L 164,99 176,87" fill="black"/><path d="M 136,31 L 136,183 124,189 124,31" fill="black"/></svg>