<svg xmlns="http://www.w3.org/2000/svg" xmlns:xlink="http://www.w3.org/1999/xlink" version="1.1" baseProfile="full" viewBox="0 0 200 200" width="96" height="96"><path d="M 42.7,17.8 L 26.3,132.8 13.6,137.1 31.2,14.1" fill="black"/><path d="M 42.7,17.8 L 45.4,20.2 40.2,21.9" fill="black"/><path d="M 22.2,117.5 L 27.4,118.9 32.4,120.9 37.1,123.3 41.6,126.1 45.8,129.3 49.8,132.9 53.5,136.9 57,141.1 60.1,145.7 63.1,150.6 52.2,155.8 50.2,151.3 48,147 45.5,142.9 42.8,139.1 39.9,135.4 36.7,131.9 33.3,128.6 29.6,125.4 25.7,122.3 21.5,119.2" fill="black"/><path d="M 63.1,150.6 L 63.3,155.2 60.3,158.7 55.7,158.9 52.2,155.8" fill="black"/><path d="M 60.9,61.5 L 58.7,79.5 55.8,96.4 52.3,112.1 48,126.7 43.2,140.2 37.6,152.4 31.4,163.4 24.5,173.2 16.9,181.6 8.6,188.6 7.3,187.3 14,179.1 20.1,170.1 25.7,160.2 30.7,149.2 35.2,137.2 39.1,124.1 42.5,109.9 45.2,94.5 47.4,78.1 49,60.4" fill="black"/><path d="M 49,59 L 55,54 66,63 61,66 49,71" fill="black"/><path d="M 12,59 L 55,59 55,63 12,63" fill="black"/><path d="M 99.1,19.1 L 97.1,23.3 94.9,27.6 92.7,32.1 90.4,36.6 88,41.3 85.5,46.1 82.9,51.1 80.1,56.1 77.1,61.2 73.8,66.3 72.1,65.6 73.6,59.7 75.1,54 76.8,48.5 78.5,43.2 80.2,38 81.8,33 83.5,28.2 85,23.5 86.5,19 88,14.6" fill="black"/><path d="M 87.6,15.5 L 99.1,19.1 88.6,13.3" fill="black"/><path d="M 99.1,19.1 L 101.1,22.1 95.4,23" fill="black"/><path d="M 63.6,61.9 L 69.6,60.8 75.5,59.9 81.3,58.9 87,58.1 92.5,57.2 98,56.5 103.3,55.9 108.6,55.4 113.7,55.1 118.8,55.1 119.1,56.8 114.5,58.8 109.7,60.6 104.7,62.3 99.6,63.9 94.3,65.5 89,67.1 83.5,68.7 77.9,70.3 72.1,71.9 66.2,73.6" fill="black"/><path d="M 66.2,73.6 L 63.6,61.9 61.7,62.3" fill="black"/><path d="M 66.2,73.6 L 68.9,76.1 71.4,69.3" fill="black"/><path d="M 105.3,32.2 L 108.4,35.3 111.5,38.3 114.3,41.5 116.8,44.8 119.2,48.1 121.4,51.5 123.3,54.9 125.1,58.4 126.7,62 128,65.6 116.4,68.5 115.9,65.3 115.2,62 114.3,58.6 113.3,55.2 112.1,51.7 110.8,48.2 109.3,44.6 107.6,40.9 105.9,37.1 103.9,33.3" fill="black"/><path d="M 128,65.6 L 127.3,70.1 123.7,72.9 119.2,72.1 116.4,68.5" fill="black"/><path d="M 81,82 L 81,181 69,187 69,76" fill="black"/><path d="M 75,82 L 114,82 114,86 75,86" fill="black"/><path d="M 119,84 L 119,171 109,171 109,84" fill="black"/><path d="M 109,82 L 114,77 124,86 119,89 109,84" fill="black"/><path d="M 109,171 L 111,174 114,176 117,174 119,171" fill="black"/><path d="M 119,171 L 118.9,173.3 118.6,175.5 118,177.6 117.2,179.6 116.1,181.5 114.6,183.1 112.8,184.4 110.7,185.3 108.6,185.8 106.5,186 106.5,176 107.1,175.9 107.6,175.8 107.8,175.7 107.9,175.6 108.1,175.5 108.3,175.1 108.5,174.5 108.7,173.6 108.9,172.4 109,171" fill="black"/><path d="M 106.5,181 L 106.5,176 96.5,176 96.5,178.5" fill="black"/><path d="M 75,110 L 114,110 114,114 75,114" fill="black"/><path d="M 75,138 L 114,138 114,142 75,142" fill="black"/><path d="M 180.7,40.4 L 177.3,42.5 173.6,44.5 169.8,46.6 165.7,48.5 161.5,50.5 157.1,52.3 152.5,54.1 147.7,55.8 142.6,57.3 137.3,58.8 136.6,57.1 141.1,54.1 145.5,51.2 149.6,48.5 153.7,45.8 157.5,43.2 161.1,40.7 164.5,38.1 167.7,35.6 170.8,33.2 173.6,30.8" fill="black"/><path d="M 172.7,31.4 L 180.7,40.4 173.6,30.7" fill="black"/><path d="M 180.7,40.4 L 181,44 175.6,41.8" fill="black"/><path d="M 142.5,19 L 142.5,82 131.5,82 131.5,17" fill="black"/><path d="M 142.5,19 L 145.2,21 140.5,24" fill="black"/><path d="M 131.5,82 L 133.7,85.3 137,87.5 140.3,85.3 142.5,82" fill="black"/><path d="M 142.5,82 L 142.6,83.2 142.8,84.2 143,84.8 143.3,85.2 143.5,85.4 143.8,85.5 144.2,85.7 144.8,85.8 145.7,85.9 147,86 147,98 144.4,97.8 141.9,97.3 139.5,96.4 137.3,95.2 135.4,93.5 133.8,91.5 132.7,89.3 131.9,86.9 131.5,84.5 131.5,82" fill="black"/><path d="M 147,86 L 151.2,87.8 153,92 151.2,96.2 147,98" fill="black"/><path d="M 147,86 L 182,86 182,98 147,98" fill="black"/><path d="M 182,86 L 185.6,88.4 188,92 185.6,95.6 182,98" fill="black"/><path d="M 182,86 L 184,61 182,61 176,86" fill="black"/><path d="M 180.7,125.4 L 177.3,127.5 173.6,129.5 169.8,131.6 165.7,133.5 161.5,135.5 157.1,137.3 152.5,139.1 147.7,140.8 142.6,142.3 137.3,143.8 136.6,142.1 141.1,139.1 145.5,136.2 149.6,133.5 153.7,130.8 157.5,128.2 161.1,125.7 164.5,123.1 167.7,120.6 170.8,118.2 173.6,115.8" fill="black"/><path d="M 172.7,116.4 L 180.7,125.4 173.6,115.7" fill="black"/><path d="M 180.7,125.4 L 181,129 175.6,126.8" fill="black"/><path d="M 142.5,104 L 142.5,167 131.5,167 131.5,102" fill="black"/><path d="M 142.5,104 L 145.2,106 140.5,109" fill="black"/><path d="M 131.5,167 L 133.7,170.3 137,172.5 140.3,170.3 142.5,167" fill="black"/><path d="M 142.5,167 L 142.6,168.2 142.8,169.2 143,169.8 143.3,170.2 143.5,170.4 143.8,170.5 144.2,170.7 144.8,170.8 145.7,170.9 147,171 147,183 144.4,182.8 141.9,182.3 139.5,181.4 137.3,180.2 135.4,178.5 133.8,176.5 132.7,174.3 131.9,171.9 131.5,169.5 131.5,167" fill="black"/><path d="M 147,171 L 151.2,172.8 153,177 151.2,181.2 147,183" fill="black"/><path d="M 147,171 L 182,171 182,183 147,183" fill="black"/><path d="M 182,171 L 185.6,173.4 188,177 185.6,180.6 182,183" fill="black"/><path d="M 182,171 L 184,146 182,146 176,171" fill="black"/></svg>