<svg xmlns="http://www.w3.org/2000/svg" xmlns:xlink="http://www.w3.org/1999/xlink" version="1.1" baseProfile="full" viewBox="0 0 200 200" width="96" height="96"><path d="M 15,68 L 72,68 72,72 15,72" fill="black"/><path d="M 72,68 L 52,70 62,59" fill="black"/><path d="M 49,19 L 49,143 37,143 37,17" fill="black"/><path d="M 49,19 L 52,21 47,24" fill="black"/><path d="M 13.7,151 L 18.2,149.5 23.1,147.8 28.2,145.9 33.6,143.8 39.3,141.5 45.3,139.1 51.6,136.5 58.2,133.8 65.2,131 72.5,128.2 73.4,129.7 67,134.3 60.7,138.5 54.6,142.3 48.7,145.9 43,149.2 37.6,152.2 32.4,155 27.4,157.6 22.6,160 18.1,162.2" fill="black"/><path d="M 18.1,162.2 L 13.7,151 11.8,151.7" fill="black"/><path d="M 18.1,162.2 L 21,164.2 22.6,157.2" fill="black"/><path d="M 84,30 L 182,30 182,34 84,34" fill="black"/><path d="M 182,30 L 158,32 170,20" fill="black"/><path d="M 90,30 L 90,184 78,190 78,24" fill="black"/><path d="M 84,168 L 188,168 188,172 84,172" fill="black"/><path d="M 188,168 L 164,170 176,158" fill="black"/><path d="M 99,55 L 169,55 169,59 99,59" fill="black"/><path d="M 169,55 L 145,57 157,45" fill="black"/><path d="M 140,55 L 140,151 128,151 128,55" fill="black"/><path d="M 103,101 L 165,101 165,105 103,105" fill="black"/><path d="M 165,101 L 141,103 153,91" fill="black"/><path d="M 95,147 L 173,147 173,151 95,151" fill="black"/><path d="M 173,147 L 149,149 161,137" fill="black"/></svg>