<svg xmlns="http://www.w3.org/2000/svg" xmlns:xlink="http://www.w3.org/1999/xlink" version="1.1" baseProfile="full" viewBox="0 0 200 200" width="96" height="96"><path d="M 68,16 L 68,95 56,95 56,14" fill="black"/><path d="M 68,16 L 71,18 66,21" fill="black"/><path d="M 21.3,31.2 L 24.9,35 28.3,38.9 31.4,42.8 34.1,46.9 36.5,51 38.7,55.2 40.6,59.4 42.2,63.6 43.5,67.9 44.5,72.2 32.6,73.8 32.3,70 31.9,66.2 31.1,62.3 30.2,58.4 29,54.3 27.5,50.2 25.9,45.9 24,41.5 22.1,36.9 19.8,32.3" fill="black"/><path d="M 44.5,72.2 L 43.3,76.6 39.3,78.9 34.9,77.7 32.6,73.8" fill="black"/><path d="M 103.3,36.9 L 101.2,41.7 99.1,46.4 96.9,51 94.6,55.6 92.3,60.1 89.8,64.6 87.3,68.9 84.7,73.2 81.8,77.4 78.8,81.4 77.1,80.5 78.4,75.7 79.8,70.9 81.3,66.2 82.9,61.5 84.5,56.8 86,52 87.5,47.3 89,42.5 90.5,37.7 92,32.9" fill="black"/><path d="M 91.6,33.8 L 103.3,36.9 92.5,31.4" fill="black"/><path d="M 103.3,36.9 L 105.4,39.8 99.7,41" fill="black"/><path d="M 13,91 L 111,91 111,95 13,95" fill="black"/><path d="M 111,91 L 87,93 99,81" fill="black"/><path d="M 52,91 L 52,113 40,113 40,91" fill="black"/><path d="M 40,113 L 42.4,116.6 46,119 49.6,116.6 52,113" fill="black"/><path d="M 52,113 L 51.3,122.5 50.1,131.7 48.3,140.5 45.8,148.8 42.7,156.7 38.9,164.2 34.6,171.1 29.6,177.6 23.9,183.4 17.6,188.6 16.3,187.3 21,180.9 25.2,174.4 28.9,167.7 32.1,160.8 34.7,153.7 36.9,146.2 38.4,138.4 39.5,130.3 40,121.8 40,113" fill="black"/><path d="M 83,91 L 83,156 71,162 71,91" fill="black"/><path d="M 61.9,162.2 L 66.5,160 71.3,157.5 76.2,155 81.4,152.3 86.7,149.5 92.2,146.5 97.9,143.5 103.8,140.4 110,137.3 116.5,134.2 117.4,135.7 112.1,140.5 106.7,144.9 101.4,149 96.2,153 91.2,156.7 86.2,160.2 81.4,163.6 76.7,166.8 72.2,169.8 67.8,172.7" fill="black"/><path d="M 67.8,172.7 L 61.9,162.2 60.1,163.2" fill="black"/><path d="M 67.8,172.7 L 71,174.3 71.5,167.1" fill="black"/><path d="M 136,31 L 136,149 124,155 124,29" fill="black"/><path d="M 136,31 L 139,33 134,36" fill="black"/><path d="M 177,16 L 177,172 165,172 165,14" fill="black"/><path d="M 177,16 L 180,18 175,21" fill="black"/><path d="M 165,172 L 167.4,175.6 171,178 174.6,175.6 177,172" fill="black"/><path d="M 177,172 L 176.8,174.5 176.4,177 175.6,179.4 174.3,181.7 172.7,183.7 170.7,185.3 168.4,186.6 166,187.4 163.5,187.8 161,188 161,176 162.2,175.9 163.1,175.7 163.7,175.5 164,175.4 164.2,175.2 164.4,175 164.5,174.7 164.7,174.1 164.9,173.2 165,172" fill="black"/><path d="M 161,182 L 161,176 141,176 141,179" fill="black"/></svg>