<svg xmlns="http://www.w3.org/2000/svg" xmlns:xlink="http://www.w3.org/1999/xlink" version="1.1" baseProfile="full" viewBox="0 0 200 200" width="96" height="96"><path d="M 29,42 L 29,146 17,152 17,36" fill="black"/><path d="M 23,42 L 56,42 56,46 23,46" fill="black"/><path d="M 62,44 L 62,140 50,146 50,44" fill="black"/><path d="M 50,42 L 56,37 67,46 62,50 50,44" fill="black"/><path d="M 23,130 L 56,130 56,134 23,134" fill="black"/><path d="M 110.1,17.2 L 106.5,24.4 102.9,31.4 99.1,38.3 95.1,45 91,51.5 86.8,57.9 82.4,64.2 77.7,70.2 72.8,76 67.7,81.5 66.2,80.4 69.7,73.8 73.3,67.2 76.8,60.6 80.3,54 83.7,47.3 87,40.6 90.1,33.7 93.2,26.7 96.2,19.7 99,12.5" fill="black"/><path d="M 98.6,13.4 L 110.1,17.2 99.6,11.2" fill="black"/><path d="M 110.1,17.2 L 112,20.3 106.2,21" fill="black"/><path d="M 95,53 L 95,122 83,128 83,51" fill="black"/><path d="M 95,53 L 98,55 93,58" fill="black"/><path d="M 173.7,24.8 L 168,27.1 162.1,29.2 155.9,31.1 149.6,33 142.9,34.6 136.1,36.1 129,37.4 121.6,38.5 114,39.4 106.1,39.8 105.8,38.1 113.2,35.6 120.5,33.3 127.4,31.1 134.1,28.8 140.5,26.5 146.6,24.1 152.5,21.7 158.1,19.2 163.4,16.6 168.4,14" fill="black"/><path d="M 167.5,14.4 L 173.7,24.8 176.9,23.2" fill="black"/><path d="M 176.9,23.2 L 177.1,26.5 170.9,23.9" fill="black"/><path d="M 102,67 L 187,67 187,71 102,71" fill="black"/><path d="M 187,67 L 163,69 175,57" fill="black"/><path d="M 151,28 L 151,118 139,118 139,28" fill="black"/><path d="M 106,114 L 183,114 183,118 106,118" fill="black"/><path d="M 183,114 L 159,116 171,104" fill="black"/><path d="M 85.9,132 L 86.5,138 86.9,143.7 87,149 86.7,153.9 86.2,158.5 85.3,162.8 84.1,166.7 82.6,170.3 80.6,173.7 78.1,176.6 70.4,167.4 72,166.3 73.6,164.7 75.3,162.5 76.9,159.7 78.4,156.4 79.7,152.6 81,148.2 82.1,143.3 83.2,137.9 84.1,132" fill="black"/><path d="M 78.1,176.6 L 73.7,177.9 69.7,175.9 68.3,171.5 70.4,167.4" fill="black"/><path d="M 110,133 L 110,168 98,168 98,131" fill="black"/><path d="M 110,133 L 113,135 108,138" fill="black"/><path d="M 98,168 L 100.4,171.6 104,174 107.6,171.6 110,168" fill="black"/><path d="M 110,168 L 110,169.2 110.2,170.1 110.4,170.7 110.5,171 110.7,171.2 110.9,171.4 111.2,171.5 111.8,171.7 112.7,171.9 114,172 114,184 111.4,183.8 108.9,183.4 106.5,182.6 104.2,181.3 102.2,179.7 100.6,177.7 99.3,175.4 98.5,173 98.1,170.5 98,168" fill="black"/><path d="M 114,172 L 118.2,173.8 120,178 118.2,182.2 114,184" fill="black"/><path d="M 114,172 L 159,172 159,184 114,184" fill="black"/><path d="M 159,172 L 162.6,174.4 165,178 162.6,181.6 159,184" fill="black"/><path d="M 159,172 L 161,147 159,147 153,172" fill="black"/><path d="M 120.3,126.8 L 123,128.2 125.8,129.6 128.5,131.3 131.1,133.2 133.6,135.3 135.9,137.6 138.2,140.1 140.3,142.8 142.3,145.7 144.2,148.8 133.2,153.6 132.3,150.7 131.3,147.9 130.2,145.2 129,142.6 127.6,140 126.2,137.6 124.7,135.1 123,132.7 121.3,130.3 119.3,128.3" fill="black"/><path d="M 144.2,148.8 L 144.3,153.3 141.2,156.7 136.6,156.8 133.2,153.6" fill="black"/><path d="M 161.3,132.9 L 164.7,135.2 168.1,137.7 171.2,140.4 174,143.4 176.7,146.6 179,150 181.2,153.7 183.1,157.5 184.8,161.5 186.2,165.7 174.4,168.3 173.9,164.6 173.2,161 172.2,157.5 171.1,154 169.8,150.6 168.3,147.3 166.5,144 164.6,140.8 162.6,137.4 160.1,134.3" fill="black"/><path d="M 186.2,165.7 L 185.3,170.2 181.6,172.9 177.1,172 174.4,168.3" fill="black"/></svg>