<svg xmlns="http://www.w3.org/2000/svg" xmlns:xlink="http://www.w3.org/1999/xlink" version="1.1" baseProfile="full" viewBox="0 0 200 200" width="96" height="96"><path d="M 50,16 L 50,183 38,189 38,14" fill="black"/><path d="M 50,16 L 53,18 48,21" fill="black"/><path d="M 28.7,57 L 28.8,62.8 28.8,68.2 28.6,73.3 28.2,78 27.5,82.4 26.7,86.6 25.7,90.4 24.6,93.9 23.2,97.2 21.5,100.2 12,92.9 13.5,91.3 15.1,89.2 16.7,86.7 18.2,83.7 19.7,80.3 21.2,76.4 22.7,72.1 24.1,67.4 25.6,62.4 27,56.9" fill="black"/><path d="M 21.5,100.2 L 17.5,102.5 13.1,101.3 10.9,97.3 12,92.9" fill="black"/><path d="M 56.3,53.1 L 59.3,55.6 62.3,58 65,60.6 67.6,63.2 70,65.9 72.1,68.7 74.1,71.5 75.9,74.4 77.5,77.4 78.9,80.4 67.3,83.8 66.9,81.1 66.3,78.4 65.5,75.7 64.5,72.8 63.4,69.9 62,67 60.6,63.9 58.9,60.7 57.2,57.4 55,54.3" fill="black"/><path d="M 78.9,80.4 L 78.3,84.9 74.8,87.8 70.3,87.3 67.3,83.8" fill="black"/><path d="M 125.6,18.9 L 122.6,22.9 119.3,26.8 115.6,30.6 111.6,34.2 107.2,37.8 102.4,41.3 97.3,44.7 91.7,47.9 85.8,50.9 79.4,53.7 78.5,52.2 83.7,47.7 88.7,43.5 93.3,39.4 97.6,35.4 101.5,31.5 105,27.6 108.2,23.8 110.9,20.1 113.3,16.4 115.3,12.7" fill="black"/><path d="M 114.8,13.6 L 125.6,18.9 115.8,11.8" fill="black"/><path d="M 125.6,18.9 L 127.1,22.2 121.3,22.2" fill="black"/><path d="M 112,26 L 154,26 154,30 112,30" fill="black"/><path d="M 158.2,32.2 L 156.3,33.5 154.3,34.9 152.2,36.3 150.1,37.8 147.8,39.3 145.5,40.9 143.1,42.5 140.6,44.1 138,45.7 135.6,47.6 134.3,46.3 136.2,43.9 137.8,41.3 139.4,38.8 141,36.4 142.6,34.1 144.1,31.8 145.6,29.7 147,27.6 148.4,25.6 149.7,23.7" fill="black"/><path d="M 148,26 L 154,21 165,30 160,33 148,38" fill="black"/><path d="M 106,45 L 106,88 94,94 94,39" fill="black"/><path d="M 100,45 L 167,45 167,49 100,49" fill="black"/><path d="M 173,47 L 173,88 161,94 161,47" fill="black"/><path d="M 161,45 L 167,40 178,49 173,53 161,47" fill="black"/><path d="M 141,45 L 141,88 129,88 129,45" fill="black"/><path d="M 100,64 L 167,64 167,68 100,68" fill="black"/><path d="M 100,84 L 167,84 167,88 100,88" fill="black"/><path d="M 99.8,97 L 99.8,100.2 100,103.2 99.9,106.2 99.5,109 98.8,111.7 97.8,114.3 96.3,116.7 94.6,118.9 92.4,120.8 89.9,122.5 85.6,111.3 87,111.1 88.4,110.7 89.7,110.2 91.1,109.3 92.5,108.1 93.8,106.6 95.1,104.7 96.3,102.5 97.5,99.9 98,96.9" fill="black"/><path d="M 89.9,122.5 L 85.3,122.3 82.1,119 82.3,114.5 85.6,111.3" fill="black"/><path d="M 116.3,97 L 118,98.6 120,99.9 121.8,101.2 123.5,102.8 124.9,104.4 126.2,106.1 127.3,108 128.2,110.1 128.8,112.2 129.2,114.5 117.2,113.4 117.7,112.5 118.1,111.4 118.4,110.2 118.5,108.9 118.5,107.4 118.2,105.7 117.8,104 117.2,102.1 116.4,100 115,98.3" fill="black"/><path d="M 129.2,114.5 L 127,118.5 122.7,119.9 118.7,117.8 117.2,113.4" fill="black"/><path d="M 139.3,96.8 L 141.6,98.4 144.1,99.5 146.3,100.8 148.4,102.2 150.4,103.7 152.1,105.2 153.7,107 155.1,108.8 156.3,110.8 157.3,112.9 145.5,115.1 145.7,114 145.7,112.7 145.6,111.3 145.2,109.8 144.7,108.1 143.9,106.2 142.8,104.3 141.6,102.3 140.2,100.1 138.2,98.3" fill="black"/><path d="M 157.3,112.9 L 156.3,117.4 152.5,119.9 148,118.9 145.5,115.1" fill="black"/><path d="M 164.3,96.7 L 167.4,98.4 170.5,99.7 173.3,101 176,102.5 178.3,104 180.5,105.6 182.5,107.4 184.2,109.2 185.7,111.2 186.9,113.5 175.4,116.6 175.5,115.6 175.3,114.3 174.9,112.8 174.1,111.1 173.1,109.2 171.7,107.2 170.1,105 168.2,102.8 166,100.3 163.3,98.2" fill="black"/><path d="M 186.9,113.5 L 186.3,118 182.7,120.8 178.2,120.2 175.4,116.6" fill="black"/><path d="M 105,126 L 105,181 93,187 93,120" fill="black"/><path d="M 99,126 L 167,126 167,130 99,130" fill="black"/><path d="M 173,128 L 173,178 161,184 161,128" fill="black"/><path d="M 161,126 L 167,121 178,130 173,134 161,128" fill="black"/><path d="M 99,148 L 167,148 167,152 99,152" fill="black"/><path d="M 99,170 L 167,170 167,174 99,174" fill="black"/></svg>