<svg xmlns="http://www.w3.org/2000/svg" xmlns:xlink="http://www.w3.org/1999/xlink" version="1.1" baseProfile="full" viewBox="0 0 200 200" width="96" height="96"><path d="M 29,42 L 29,146 17,152 17,36" fill="black"/><path d="M 23,42 L 49,42 49,46 23,46" fill="black"/><path d="M 55,44 L 55,140 43,146 43,44" fill="black"/><path d="M 43,42 L 49,37 60,46 55,50 43,44" fill="black"/><path d="M 23,130 L 49,130 49,134 23,134" fill="black"/><path d="M 53,32 L 87,32 87,36 53,36" fill="black"/><path d="M 92.3,35 L 71.9,92.9 58.6,94.4 80.6,34" fill="black"/><path d="M 81,32 L 87,27 98,36 93,39 81,44" fill="black"/><path d="M 67,87 L 93,87 93,91 67,91" fill="black"/><path d="M 98.9,89.2 L 97.7,102.7 95.6,115.5 92.9,127.4 89.4,138.5 85.1,148.9 80.1,158.3 74.3,166.9 67.8,174.5 60.5,181.1 52.5,186.7 51.4,185.2 57.9,178.4 63.7,171.1 68.9,163.2 73.4,154.7 77.3,145.5 80.5,135.7 83.1,125.1 85.1,113.7 86.3,101.6 87,88.7" fill="black"/><path d="M 87,87 L 93,82 104,91 99,94 87,99" fill="black"/><path d="M 63.1,105.7 L 69.2,120.9 75.7,134 83,144.8 91.1,153.6 100.5,160.4 111.5,165.5 124.4,169 139.7,171 157.6,171.4 178.5,170.4 179.4,183.5 157.6,184 138.6,182.7 122,179.8 107.7,175 95.5,168.2 85.3,159.6 77.1,149 70.5,136.6 65.3,122.4 61.4,106.2" fill="black"/><path d="M 179.4,183.5 L 178.5,170.4 189.5,169.6" fill="black"/><path d="M 150.7,16 L 149.7,19.2 148.7,22.3 147.7,25.5 146.6,28.8 145.5,32 144.3,35.2 143,38.4 141.6,41.7 140.1,44.9 138.8,48.2 137.1,47.7 137.4,44.2 137.4,40.7 137.5,37.2 137.7,33.8 137.9,30.4 138.1,27 138.3,23.7 138.5,20.4 138.7,17.1 138.9,13.9" fill="black"/><path d="M 138.7,14.9 L 150.7,16 139.2,12" fill="black"/><path d="M 150.7,16 L 153.3,18.5 147.8,20.6" fill="black"/><path d="M 122,46 L 122,157 110,163 110,40" fill="black"/><path d="M 116,46 L 174,46 174,50 116,50" fill="black"/><path d="M 180,48 L 180,151 168,157 168,48" fill="black"/><path d="M 168,46 L 174,41 185,50 180,54 168,48" fill="black"/><path d="M 116,92 L 174,92 174,96 116,96" fill="black"/><path d="M 116,141 L 174,141 174,145 116,145" fill="black"/></svg>