<svg xmlns="http://www.w3.org/2000/svg" xmlns:xlink="http://www.w3.org/1999/xlink" version="1.1" baseProfile="full" viewBox="0 0 200 200" width="96" height="96"><path d="M 28,42 L 28,146 16,152 16,36" fill="black"/><path d="M 22,42 L 52,42 52,46 22,46" fill="black"/><path d="M 58,44 L 58,140 46,146 46,44" fill="black"/><path d="M 46,42 L 52,37 63,46 58,50 46,44" fill="black"/><path d="M 22,130 L 52,130 52,134 22,134" fill="black"/><path d="M 63,59 L 114,59 114,63 63,63" fill="black"/><path d="M 114,59 L 98,61 106,52" fill="black"/><path d="M 95,16 L 95,183 83,189 83,14" fill="black"/><path d="M 95,16 L 98,18 93,21" fill="black"/><path d="M 93,61 L 92.9,61.8 91.1,71.6 89,81.1 86.8,90.4 84.3,99.5 81.5,108.3 78.6,116.9 75.4,125.2 71.9,133.2 68,141 63.8,148.3 62.1,147.6 64.5,139.5 66.8,131.4 69.1,123.1 71.3,114.7 73.4,106.1 75.2,97.3 76.9,88.3 78.5,79.1 79.8,69.7 80.8,61" fill="black"/><path d="M 91.3,85.8 L 93.7,87.1 96.3,88.1 98.8,89.5 101.3,91 103.6,92.7 105.8,94.5 108,96.6 110,98.7 112,101 113.8,103.5 103.2,109.1 102.4,106.7 101.4,104.4 100.4,102.1 99.3,99.9 98,97.7 96.7,95.5 95.3,93.4 93.8,91.2 92.2,89 90.3,87.3" fill="black"/><path d="M 113.8,103.5 L 114.2,108 111.4,111.6 106.8,112 103.2,109.1" fill="black"/><path d="M 124.3,14.1 L 126.1,15.8 128.3,17.4 130.3,19.1 132.2,20.9 133.9,22.9 135.5,25 137.1,27.2 138.5,29.6 139.8,32 141,34.5 129.4,37.6 129.2,35.3 128.9,33.1 128.5,30.9 128,28.6 127.4,26.4 126.8,24.2 126,21.9 125.2,19.7 124.3,17.3 123,15.3" fill="black"/><path d="M 141,34.5 L 140.3,39 136.7,41.8 132.2,41.2 129.4,37.6" fill="black"/><path d="M 171.1,18.1 L 169.6,20.9 168,23.7 166.3,26.5 164.5,29.3 162.6,32.1 160.6,35 158.5,37.8 156.3,40.6 153.9,43.4 151.7,46.4 150.2,45.5 151.5,42.1 152.5,38.6 153.6,35.2 154.6,31.9 155.6,28.7 156.6,25.6 157.5,22.5 158.4,19.5 159.2,16.5 160,13.7" fill="black"/><path d="M 159.6,14.6 L 171.1,18.1 160.5,12.3" fill="black"/><path d="M 171.1,18.1 L 173.2,21.1 167.4,22" fill="black"/><path d="M 116,44 L 183,44 183,48 116,48" fill="black"/><path d="M 183,44 L 159,46 171,34" fill="black"/><path d="M 153,44 L 153,102 141,102 141,44" fill="black"/><path d="M 122,70 L 178,70 178,74 122,74" fill="black"/><path d="M 178,70 L 154,72 166,60" fill="black"/><path d="M 115,98 L 186,98 186,102 115,102" fill="black"/><path d="M 186,98 L 162,100 174,88" fill="black"/><path d="M 153,106 L 153,172 141,172 141,104" fill="black"/><path d="M 153,106 L 156,108 151,111" fill="black"/><path d="M 141,172 L 143.4,175.6 147,178 150.6,175.6 153,172" fill="black"/><path d="M 153,172 L 152.8,174.5 152.4,177 151.6,179.4 150.3,181.7 148.7,183.7 146.7,185.3 144.4,186.6 142,187.4 139.5,187.8 137,188 137,176 138.2,175.9 139.1,175.7 139.7,175.5 140,175.4 140.2,175.2 140.4,175 140.5,174.7 140.7,174.1 140.9,173.2 141,172" fill="black"/><path d="M 137,182 L 137,176 125,176 125,179" fill="black"/><path d="M 115,127 L 135,127 135,131 115,131" fill="black"/><path d="M 140.9,130 L 139.1,136.9 137,143.4 134.5,149.6 131.6,155.4 128.4,160.8 124.8,165.8 120.8,170.3 116.4,174.3 111.6,177.8 106.5,180.7 105.4,179.2 109.1,175 112.5,170.6 115.7,166.2 118.5,161.5 121,156.6 123.2,151.5 125.1,146 126.7,140.3 128,134.3 129,127.9" fill="black"/><path d="M 129,127 L 135,122 146,131 141,134 129,139" fill="black"/><path d="M 179.3,119.8 L 178.2,121.7 176.9,123.6 175.4,125.7 173.7,127.8 171.9,130.1 169.8,132.5 167.6,135 165.1,137.6 162.3,140.4 159.7,143.5 158.2,142.4 160.2,138.9 161.7,135.4 163.1,132.1 164.3,129.1 165.4,126.3 166.3,123.7 167,121.4 167.5,119.3 167.8,117.5 167.9,116" fill="black"/><path d="M 167.6,117 L 179.3,119.8 168.4,114.5" fill="black"/><path d="M 179.3,119.8 L 181.5,122.6 175.8,123.9" fill="black"/><path d="M 150,111.8 L 153.1,120.2 156.1,128.2 159.1,135.8 162.3,142.9 165.7,149.5 169.3,155.6 173.1,161.2 177.1,166.4 181.2,171.1 185.6,175.3 176.3,184.6 171.7,179.2 167.6,173.4 163.8,167.1 160.3,160.5 157.3,153.4 154.6,146 152.3,138.1 150.4,129.9 149,121.2 148.3,112.1" fill="black"/><path d="M 176.3,184.6 L 185.6,175.3 187,176.7" fill="black"/></svg>