<svg xmlns="http://www.w3.org/2000/svg" xmlns:xlink="http://www.w3.org/1999/xlink" version="1.1" baseProfile="full" viewBox="0 0 200 200" width="96" height="96"><path d="M 22.2,31.5 L 26.2,32.8 30.2,34.1 33.8,35.7 37.3,37.4 40.6,39.4 43.7,41.6 46.6,44 49.2,46.7 51.7,49.5 53.8,52.5 43.2,58.1 42.2,55.5 40.9,52.9 39.3,50.4 37.6,47.9 35.5,45.4 33.2,42.9 30.7,40.4 27.9,37.9 24.9,35.4 21.5,33.2" fill="black"/><path d="M 53.8,52.5 L 54.2,57 51.4,60.6 46.8,61 43.2,58.1" fill="black"/><path d="M 14.3,120 L 19.8,124.1 24.7,128.6 29,133.4 32.6,138.6 35.7,144 38.1,149.7 39.8,155.7 41,161.8 41.4,168.2 41.3,174.7 29.4,173.2 30.1,167.9 30.3,162.6 30,157.4 29.1,152.3 27.8,147.2 25.9,142.1 23.5,137 20.5,131.9 17.1,126.7 13.1,121.3" fill="black"/><path d="M 41.3,174.7 L 39,178.6 34.6,179.9 30.6,177.6 29.4,173.2" fill="black"/><path d="M 23.1,135.4 L 26.7,130.8 30.6,125.4 34.7,119.3 39.1,112.4 43.7,104.7 48.6,96.3 53.7,87.2 59.1,77.3 64.9,66.8 71.1,55.6 72.8,56.3 68.4,68.4 64,79.6 59.6,90.1 55.3,99.8 51.2,108.7 47.2,116.9 43.4,124.4 39.7,131.1 36.2,137.2 32.8,142.5" fill="black"/><path d="M 116,19 L 116,91 104,91 104,17" fill="black"/><path d="M 116,19 L 119,21 114,24" fill="black"/><path d="M 104,91 L 106.4,94.6 110,97 113.6,94.6 116,91" fill="black"/><path d="M 116,91 L 115.1,105.2 112.9,118.5 109.6,130.8 105.1,142.2 99.3,152.6 92.4,161.9 84.3,170.2 75.1,177.3 64.7,183.1 53.3,187.8 52.6,186.1 62.8,179.8 71.9,173 79.7,165.5 86.4,157.2 92.1,148.3 96.6,138.5 100,128 102.4,116.5 103.7,104.2 104,91" fill="black"/><path d="M 69.3,41.9 L 73.4,44.2 77.4,46.9 81,50 84.4,53.5 87.5,57.2 90.3,61.1 92.9,65.4 95.2,69.9 97.2,74.6 99,79.5 87.4,82.6 86.4,78.1 85.3,73.7 83.9,69.6 82.3,65.5 80.5,61.6 78.4,57.8 76.2,54.1 73.7,50.5 71.1,46.8 68.2,43.3" fill="black"/><path d="M 99,79.5 L 98.3,84.1 94.7,86.9 90.2,86.2 87.4,82.6" fill="black"/><path d="M 63.2,132.6 L 67.1,129.9 71.2,127 75.4,123.9 79.8,120.6 84.3,117.2 88.9,113.5 93.7,109.6 98.7,105.6 103.8,101.5 109.3,97.3 110.6,98.6 106.6,104.2 102.4,109.4 98.3,114.4 94.1,119 90,123.4 86,127.6 82,131.6 78,135.3 74.2,138.8 70.3,142.2" fill="black"/><path d="M 70.3,142.2 L 63.2,132.6 61.6,133.7" fill="black"/><path d="M 70.3,142.2 L 73.8,143.4 73.3,136.2" fill="black"/><path d="M 143,19 L 143,168 131,168 131,17" fill="black"/><path d="M 143,19 L 146,21 141,24" fill="black"/><path d="M 131,168 L 133.4,171.6 137,174 140.6,171.6 143,168" fill="black"/><path d="M 143,168 L 143,169.2 143.2,170.1 143.4,170.7 143.5,171 143.7,171.2 143.9,171.4 144.2,171.5 144.8,171.7 145.7,171.9 147,172 147,184 144.4,183.8 141.9,183.4 139.5,182.6 137.2,181.3 135.2,179.7 133.6,177.7 132.3,175.4 131.5,173 131.1,170.5 131,168" fill="black"/><path d="M 147,172 L 151.2,173.8 153,178 151.2,182.2 147,184" fill="black"/><path d="M 147,172 L 181,172 181,184 147,184" fill="black"/><path d="M 181,172 L 184.6,174.4 187,178 184.6,181.6 181,184" fill="black"/><path d="M 181,172 L 183,147 181,147 175,172" fill="black"/><path d="M 181,51.5 L 178.1,54.5 175.1,57.5 172,60.6 168.6,63.8 165.1,67 161.5,70.3 157.6,73.6 153.5,77 149.2,80.3 144.6,83.6 143.3,82.3 146.6,77.7 149.8,73.3 152.9,69.2 156,65.2 159,61.3 161.8,57.6 164.5,54 167,50.5 169.4,47.2 171.7,43.9" fill="black"/><path d="M 171,44.7 L 181,51.5 172.1,43.4" fill="black"/><path d="M 181,51.5 L 182,55 176.3,54.1" fill="black"/><path d="M 145.3,98.8 L 149.9,101.3 154.4,103.9 158.5,106.8 162.3,109.8 165.9,112.9 169.3,116.2 172.3,119.6 175.2,123.2 177.8,126.9 180.1,130.7 169.2,135.8 167.8,132.4 166.2,128.9 164.3,125.4 162.1,121.9 159.7,118.4 157.1,114.9 154.2,111.3 151.1,107.7 147.8,104 144.2,100.3" fill="black"/><path d="M 180.1,130.7 L 180.3,135.2 177.2,138.7 172.7,138.8 169.2,135.8" fill="black"/></svg>