<svg xmlns="http://www.w3.org/2000/svg" xmlns:xlink="http://www.w3.org/1999/xlink" version="1.1" baseProfile="full" viewBox="0 0 200 200" width="96" height="96"><path d="M 28,22 L 107,22 107,26 28,26" fill="black"/><path d="M 113,24 L 113,73 101,79 101,24" fill="black"/><path d="M 101,22 L 107,17 118,26 113,30 101,24" fill="black"/><path d="M 32,44 L 107,44 107,48 32,48" fill="black"/><path d="M 28,67 L 107,67 107,71 28,71" fill="black"/><path d="M 25.1,79.6 L 26.5,83.1 28,86.6 29,90 29.6,93.5 29.8,96.9 29.6,100.4 28.9,103.8 27.9,107.2 26.4,110.4 24.5,113.6 15.3,105.8 17.1,104.1 18.7,102.3 20.1,100.3 21.3,98.2 22.3,95.8 23,93.2 23.5,90.3 23.8,87.2 24,83.8 23.4,80.2" fill="black"/><path d="M 24.5,113.6 L 20.4,115.6 16,114.2 14,110.1 15.3,105.8" fill="black"/><path d="M 24,88 L 120,88 120,92 24,92" fill="black"/><path d="M 125.1,93 L 123.4,95 121.6,97 119.6,98.9 117.5,100.9 115.4,102.8 113,104.8 110.6,106.7 108,108.6 105.2,110.5 102.6,112.6 101.3,111.3 103.4,108.7 105,105.8 106.6,103.1 108.1,100.6 109.5,98.1 110.8,95.7 112,93.3 113.1,91.1 114,88.9 114.8,86.9" fill="black"/><path d="M 114,88 L 120,83 131,92 126,95 114,100" fill="black"/><path d="M 41,115 L 41,162 29,168 29,109" fill="black"/><path d="M 35,115 L 109,115 109,119 35,119" fill="black"/><path d="M 115,117 L 115,153 103,153 103,117" fill="black"/><path d="M 103,115 L 109,110 120,119 115,123 103,117" fill="black"/><path d="M 103,153 L 105.4,156.6 109,159 112.6,156.6 115,153" fill="black"/><path d="M 115,153 L 114.8,155.5 114.4,158 113.6,160.4 112.3,162.7 110.7,164.7 108.7,166.3 106.4,167.6 104,168.4 101.5,168.8 99,169 99,157 100.2,156.9 101.1,156.7 101.7,156.5 102,156.4 102.2,156.2 102.4,156 102.5,155.7 102.7,155.1 102.9,154.2 103,153" fill="black"/><path d="M 99,163 L 99,157 89,157 89,160" fill="black"/><path d="M 77,97 L 77,181 65,187 65,95" fill="black"/><path d="M 77,97 L 80,99 75,102" fill="black"/><path d="M 123,26 L 182,26 182,30 123,30" fill="black"/><path d="M 187.9,28.2 L 187.5,36.6 187,44.4 186.5,51.6 185.9,58.2 185.2,64.3 184.5,69.8 183.7,74.8 182.9,79.2 181.9,83.1 180.9,86.5 169.6,82.5 170.4,79.9 171.1,76.6 171.9,72.7 172.6,68.1 173.3,62.9 173.9,57 174.5,50.6 175.1,43.6 175.5,35.9 176,27.7" fill="black"/><path d="M 176,26 L 182,21 193,30 188,33 176,38" fill="black"/><path d="M 180.9,86.5 L 180,88.8 178.8,91 177.3,93.1 175.7,94.9 173.7,96.5 171.6,97.8 169.4,98.8 167,99.4 164.5,99.8 162,100 162,88 163.3,87.9 164.4,87.7 165.3,87.4 166.1,87.1 166.8,86.7 167.4,86.2 168,85.6 168.5,84.8 169.1,83.8 169.6,82.5" fill="black"/><path d="M 162,94 L 162,88 142,88 142,91" fill="black"/><path d="M 158.9,28 L 158.9,28.4 157.4,40.7 155.3,52.1 152.8,62.7 149.7,72.5 146.1,81.5 142.1,89.6 137.5,96.9 132.3,103.2 126.7,108.5 120.5,112.7 119.4,111.2 124,105.8 128.1,99.9 131.9,93.4 135.3,86.3 138.3,78.4 140.8,69.8 143,60.4 144.7,50.2 146.1,39.2 146.9,28" fill="black"/><path d="M 141,110 L 141,184 129,190 129,104" fill="black"/><path d="M 135,110 L 179,110 179,114 135,114" fill="black"/><path d="M 185,112 L 185,178 173,184 173,112" fill="black"/><path d="M 173,110 L 179,105 190,114 185,118 173,112" fill="black"/><path d="M 135,168 L 179,168 179,172 135,172" fill="black"/></svg>