<svg xmlns="http://www.w3.org/2000/svg" xmlns:xlink="http://www.w3.org/1999/xlink" version="1.1" baseProfile="full" viewBox="0 0 200 200" width="96" height="96"><path d="M 14,45 L 80,45 80,49 14,49" fill="black"/><path d="M 85.5,47 L 85.5,89 74.5,94.5 74.5,47" fill="black"/><path d="M 74.5,45 L 80,40 90.5,49 85.5,52.5 74.5,47" fill="black"/><path d="M 23,79 L 80,79 80,83 23,83" fill="black"/><path d="M 29.1,79.7 L 23.2,128.6 10.6,133.1 18,72.3" fill="black"/><path d="M 19,112 L 86,112 86,116 19,116" fill="black"/><path d="M 91.9,114.1 L 91.7,120 91.5,125.5 91.2,130.5 90.9,135.2 90.5,139.6 90.1,143.5 89.7,147.1 89.3,150.3 88.8,153.2 88.2,155.7 76.6,152.8 77,150.8 77.4,148.4 77.8,145.5 78.2,142.2 78.6,138.5 78.9,134.4 79.2,129.8 79.5,124.9 79.7,119.5 80,113.8" fill="black"/><path d="M 80,112 L 86,107 97,116 92,119 80,124" fill="black"/><path d="M 88.2,155.7 L 87.5,158.1 86.5,160.5 85.2,162.6 83.6,164.6 81.7,166.3 79.7,167.6 77.4,168.7 75,169.4 72.5,169.8 70,170 70,158 71.2,157.9 72.3,157.7 73.2,157.5 73.8,157.2 74.4,156.8 74.8,156.4 75.3,155.8 75.8,155 76.2,154 76.6,152.8" fill="black"/><path d="M 70,164 L 70,158 62,158 62,161" fill="black"/><path d="M 46.5,16 L 46.5,104 35.5,104 35.5,14" fill="black"/><path d="M 46.5,16 L 49.2,18 44.5,21" fill="black"/><path d="M 35.5,104 L 37.7,107.3 41,109.5 44.3,107.3 46.5,104" fill="black"/><path d="M 46.5,104 L 45.9,116.9 44.8,128.9 43.1,139.9 40.8,149.9 37.9,158.9 34.4,166.9 30.3,173.9 25.6,179.7 20.2,184.4 14.4,187.6 13.5,186.3 17.9,181.8 21.8,176.6 25.1,170.8 28,164.1 30.5,156.5 32.5,147.9 34,138.4 35,127.9 35.5,116.4 35.5,104" fill="black"/><path d="M 64,16 L 64,182.5 54,187.5 54,14" fill="black"/><path d="M 64,16 L 66.5,18 62,21" fill="black"/><path d="M 115,26 L 115,105 103,105 103,20" fill="black"/><path d="M 103,105 L 105.4,108.6 109,111 112.6,108.6 115,105" fill="black"/><path d="M 114.9,105.1 L 114.1,116.9 112.5,127.9 110.1,138.3 107,147.9 103.1,156.7 98.4,164.7 93,171.9 86.9,178.2 80,183.5 72.4,187.7 71.5,186.2 77.6,180.5 83,174.5 87.8,167.9 91.9,160.9 95.3,153.2 98.1,144.9 100.3,135.9 101.8,126.3 102.7,115.9 103,104.8" fill="black"/><path d="M 109,26 L 177,26 177,30 109,30" fill="black"/><path d="M 183,28 L 183,170 171,170 171,28" fill="black"/><path d="M 171,26 L 177,21 188,30 183,34 171,28" fill="black"/><path d="M 171,170 L 173.4,173.6 177,176 180.6,173.6 183,170" fill="black"/><path d="M 183,170 L 182.8,172.5 182.4,175 181.6,177.4 180.3,179.7 178.7,181.7 176.7,183.3 174.4,184.6 172,185.4 169.5,185.8 167,186 167,174 168.2,173.9 169.1,173.7 169.7,173.5 170,173.4 170.2,173.2 170.4,173 170.5,172.7 170.7,172.1 170.9,171.2 171,170" fill="black"/><path d="M 167,180 L 167,174 147,174 147,177" fill="black"/><path d="M 109,69 L 177,69 177,73 109,73" fill="black"/><path d="M 109,113 L 177,113 177,117 109,117" fill="black"/><path d="M 149,26 L 149,170 137,176 137,26" fill="black"/></svg>