<svg xmlns="http://www.w3.org/2000/svg" xmlns:xlink="http://www.w3.org/1999/xlink" version="1.1" baseProfile="full" viewBox="0 0 200 200" width="96" height="96"><path d="M 13,59 L 78,59 78,63 13,63" fill="black"/><path d="M 78,59 L 54,61 66,49" fill="black"/><path d="M 53,16 L 53,183 41,189 41,14" fill="black"/><path d="M 53,16 L 56,18 51,21" fill="black"/><path d="M 50,61 L 49.9,61.9 47.8,71.7 45.4,81.3 42.6,90.7 39.6,99.8 36.2,108.6 32.5,117.2 28.4,125.5 24,133.5 19.1,141.2 13.7,148.4 12.2,147.5 15.7,139.3 19.1,131.1 22.4,122.8 25.4,114.4 28.2,105.8 30.7,97 33,88 34.9,78.9 36.6,69.5 37.8,61" fill="black"/><path d="M 49.2,85.6 L 52.4,86.8 55.7,87.8 58.9,89.1 61.9,90.6 64.7,92.3 67.5,94.1 70.1,96.1 72.6,98.3 75,100.6 77.3,103.1 67.3,109.8 66.1,107.4 64.7,105 63.2,102.7 61.6,100.4 59.8,98.1 57.8,95.8 55.7,93.6 53.5,91.4 51.1,89.1 48.4,87.2" fill="black"/><path d="M 77.3,103.1 L 78.1,107.6 75.6,111.4 71.1,112.3 67.3,109.8" fill="black"/><path d="M 114.5,21 L 112.3,23.6 109.9,26.2 107.5,28.8 104.8,31.4 102,34 99.1,36.6 96,39.1 92.7,41.6 89.1,44 85.6,46.6 84.3,45.3 87,41.9 89.4,38.4 91.8,35.1 94,31.9 96.1,28.8 98,25.8 99.8,22.9 101.5,20 103,17.2 104.4,14.5" fill="black"/><path d="M 103.8,15.4 L 114.5,21 104.9,13.8" fill="black"/><path d="M 114.5,21 L 115.9,24.3 110.1,24.2" fill="black"/><path d="M 86.3,45.8 L 89.6,47.5 93,49.2 96.2,51.2 99.2,53.4 102.1,55.9 104.8,58.5 107.3,61.3 109.7,64.2 112,67.4 114.1,70.7 103.2,75.8 102.1,72.7 100.8,69.7 99.4,66.7 97.8,63.8 96.1,61 94.3,58.2 92.3,55.4 90.1,52.6 87.9,49.8 85.3,47.3" fill="black"/><path d="M 114.1,70.7 L 114.3,75.2 111.2,78.7 106.7,78.8 103.2,75.8" fill="black"/><path d="M 148.5,21 L 146.3,23.6 143.9,26.2 141.5,28.8 138.8,31.4 136,34 133.1,36.6 130,39.1 126.7,41.6 123.1,44 119.6,46.6 118.3,45.3 121,41.9 123.4,38.4 125.8,35.1 128,31.9 130.1,28.8 132,25.8 133.8,22.9 135.5,20 137,17.2 138.4,14.5" fill="black"/><path d="M 137.8,15.4 L 148.5,21 138.9,13.8" fill="black"/><path d="M 148.5,21 L 149.9,24.3 144.1,24.2" fill="black"/><path d="M 120.3,45.8 L 123.6,47.5 127,49.2 130.2,51.2 133.2,53.4 136.1,55.9 138.8,58.5 141.3,61.3 143.7,64.2 146,67.4 148.1,70.7 137.2,75.8 136.1,72.7 134.8,69.7 133.4,66.7 131.8,63.8 130.1,61 128.3,58.2 126.3,55.4 124.1,52.6 121.9,49.8 119.3,47.3" fill="black"/><path d="M 148.1,70.7 L 148.3,75.2 145.2,78.7 140.7,78.8 137.2,75.8" fill="black"/><path d="M 182.5,21 L 180.3,23.6 177.9,26.2 175.5,28.8 172.8,31.4 170,34 167.1,36.6 164,39.1 160.7,41.6 157.1,44 153.6,46.6 152.3,45.3 155,41.9 157.4,38.4 159.8,35.1 162,31.9 164.1,28.8 166,25.8 167.8,22.9 169.5,20 171,17.2 172.4,14.5" fill="black"/><path d="M 171.8,15.4 L 182.5,21 172.9,13.8" fill="black"/><path d="M 182.5,21 L 183.9,24.3 178.1,24.2" fill="black"/><path d="M 154.3,45.8 L 157.6,47.5 161,49.2 164.2,51.2 167.2,53.4 170.1,55.9 172.8,58.5 175.3,61.3 177.7,64.2 180,67.4 182.1,70.7 171.2,75.8 170.1,72.7 168.8,69.7 167.4,66.7 165.8,63.8 164.1,61 162.3,58.2 160.3,55.4 158.1,52.6 155.9,49.8 153.3,47.3" fill="black"/><path d="M 182.1,70.7 L 182.3,75.2 179.2,78.7 174.7,78.8 171.2,75.8" fill="black"/><path d="M 138.3,84.2 L 136.6,85.9 134.8,87.7 132.9,89.5 130.9,91.4 128.8,93.4 126.6,95.5 124.3,97.6 121.8,99.8 119.1,102 116.7,104.5 115.2,103.4 117.1,100.4 118.5,97.3 120,94.4 121.4,91.6 122.8,88.9 124.1,86.3 125.3,83.9 126.4,81.6 127.5,79.4 128.5,77.3" fill="black"/><path d="M 127.9,78.1 L 138.3,84.2 128.9,76.6" fill="black"/><path d="M 138.3,84.2 L 139.6,87.6 133.8,87.2" fill="black"/><path d="M 96,102 L 96,182 84,188 84,96" fill="black"/><path d="M 90,102 L 175,102 175,106 90,106" fill="black"/><path d="M 181,104 L 181,179 169,185 169,104" fill="black"/><path d="M 169,102 L 175,97 186,106 181,110 169,104" fill="black"/><path d="M 90,171 L 175,171 175,175 90,175" fill="black"/><path d="M 160.1,115.2 L 156.1,123.2 151.5,130.7 146.3,137.7 140.7,144 134.5,149.8 127.8,154.9 120.7,159.4 113,163.3 104.9,166.4 96.3,168.8 95.6,167.1 103.3,163 110.5,158.6 117.1,153.9 123.1,149 128.7,143.6 133.7,137.8 138.3,131.7 142.3,125.1 145.9,118.1 149,110.6" fill="black"/><path d="M 148.6,111.5 L 160.1,115.2 149.6,109.3" fill="black"/><path d="M 160.1,115.2 L 162.1,118.2 156.3,119" fill="black"/><path d="M 106.2,119.6 L 113.4,122.1 120.2,124.9 126.6,128.1 132.7,131.5 138.5,135.1 144,138.9 149.1,142.8 154,147 158.5,151.3 162.8,155.9 153.4,163.4 150,158.9 146.4,154.6 142.4,150.3 138.1,146 133.4,141.9 128.4,137.7 123.1,133.7 117.5,129.6 111.6,125.4 105.5,121.2" fill="black"/><path d="M 162.8,155.9 L 164,160.3 161.8,164.3 157.4,165.5 153.4,163.4" fill="black"/></svg>