<svg xmlns="http://www.w3.org/2000/svg" xmlns:xlink="http://www.w3.org/1999/xlink" version="1.1" baseProfile="full" viewBox="0 0 200 200" width="96" height="96"><path d="M 32,22 L 32,118 20,118 20,16" fill="black"/><path d="M 20,118 L 22.4,121.6 26,124 29.6,121.6 32,118" fill="black"/><path d="M 32,118 L 31.5,128.7 30.7,138.7 29.7,147.8 28.3,156.2 26.6,163.8 24.6,170.5 22.2,176.5 19.4,181.5 16.2,185.6 12.6,188.6 11.3,187.3 13,183.5 14.6,179.2 16,174.2 17.2,168.6 18.3,162.1 19.1,154.9 19.7,146.9 20,138 20.1,128.4 20,118" fill="black"/><path d="M 26,22 L 62,22 62,26 26,26" fill="black"/><path d="M 68,24 L 68,171 56,171 56,24" fill="black"/><path d="M 56,22 L 62,17 73,26 68,30 56,24" fill="black"/><path d="M 56,171 L 58.4,174.6 62,177 65.6,174.6 68,171" fill="black"/><path d="M 68,171 L 67.8,173.5 67.4,176 66.6,178.4 65.3,180.7 63.7,182.7 61.7,184.3 59.4,185.6 57,186.4 54.5,186.8 52,187 52,175 53.2,174.9 54.1,174.7 54.7,174.5 55,174.4 55.2,174.2 55.4,174 55.5,173.7 55.7,173.1 55.9,172.2 56,171" fill="black"/><path d="M 52,181 L 52,175 36,175 36,178" fill="black"/><path d="M 26,65 L 62,65 62,69 26,69" fill="black"/><path d="M 26,110 L 62,110 62,114 26,114" fill="black"/><path d="M 75,38 L 181,38 181,42 75,42" fill="black"/><path d="M 181,38 L 157,40 169,28" fill="black"/><path d="M 135,15 L 135,69 123,69 123,13" fill="black"/><path d="M 135,15 L 138,17 133,20" fill="black"/><path d="M 84.9,57 L 85.3,62 85.8,66.7 86.1,71 86.2,75 86,78.7 85.7,82.2 85.1,85.3 84.2,88.2 82.9,90.9 81.2,93.4 73.2,84.5 74,84.2 75,83.3 76.2,81.8 77.4,79.7 78.5,77.2 79.6,74.1 80.6,70.5 81.5,66.4 82.5,61.9 83.1,57" fill="black"/><path d="M 81.2,93.4 L 76.8,94.9 72.7,92.9 71.3,88.6 73.2,84.5" fill="black"/><path d="M 84,65 L 176,65 176,69 84,69" fill="black"/><path d="M 181.6,69.1 L 180.4,70.8 179.2,72.5 177.8,74.4 176.4,76.4 174.7,78.4 173,80.6 171.1,82.9 169,85.2 166.7,87.6 164.7,90.4 163.2,89.5 164.6,86.4 165.6,83.3 166.5,80.3 167.4,77.6 168.2,75 168.8,72.6 169.4,70.4 169.8,68.3 170.1,66.5 170.3,64.8" fill="black"/><path d="M 170,65 L 176,60 187,69 182,72 170,77" fill="black"/><path d="M 131.8,79.7 L 129.9,82.4 127.9,85.1 125.9,87.8 123.8,90.5 121.7,93.2 119.4,95.9 117.1,98.5 114.7,101.2 112.1,103.7 109.7,106.4 108.2,105.5 109.7,102.2 111,98.8 112.3,95.5 113.7,92.3 115,89.2 116.3,86.1 117.6,83 118.8,80 120,77 121.2,74" fill="black"/><path d="M 120.7,74.9 L 131.8,79.7 121.7,73" fill="black"/><path d="M 131.8,79.7 L 133.5,82.8 127.7,83.1" fill="black"/><path d="M 93.3,90.8 L 96.8,92.7 100.4,94.7 103.7,96.9 106.8,99.5 109.8,102.2 112.5,105.2 115,108.3 117.4,111.7 119.5,115.3 121.5,119 110.3,123.3 109.3,119.9 108.1,116.6 106.7,113.3 105.2,110.2 103.5,107.1 101.6,104 99.6,101 97.3,98.1 95,95.1 92.2,92.3" fill="black"/><path d="M 121.5,119 L 121.3,123.6 118,126.8 113.5,126.6 110.3,123.3" fill="black"/><path d="M 157.5,93 L 154.7,96.9 151.7,101 148.5,105.1 145.2,109.3 141.8,113.6 138.2,117.9 134.4,122.3 130.4,126.7 126.2,131.1 121.7,135.5 120.2,134.4 123.2,128.9 126.1,123.6 129.1,118.5 132,113.5 134.8,108.7 137.6,104.1 140.2,99.5 142.7,95.1 145.1,90.8 147.3,86.6" fill="black"/><path d="M 146.8,87.5 L 157.5,93 147.8,85.8" fill="black"/><path d="M 157.5,93 L 159,96.2 153.2,96.2" fill="black"/><path d="M 77.6,132.9 L 84.8,132.8 92.4,132.6 100.5,132.3 109.1,131.9 118,131.5 127.5,131 137.4,130.4 147.7,129.9 158.5,129.4 169.8,129.1 170.1,130.8 159,133.2 148.3,135.2 138.1,137 128.3,138.5 118.9,139.9 109.9,141.2 101.3,142.3 93.2,143.3 85.5,144.1 78.3,144.9" fill="black"/><path d="M 78.3,144.9 L 77.6,132.9 75.6,133" fill="black"/><path d="M 78.3,144.9 L 80.4,147.8 84.1,141.6" fill="black"/><path d="M 155.3,109 L 158.8,111.5 162.2,114 165.3,116.8 168.3,119.8 171,123 173.6,126.4 175.9,129.9 178.1,133.5 180,137.3 181.8,141.3 170.3,144.9 169.4,141.3 168.4,137.7 167.2,134.2 165.8,130.7 164.3,127.3 162.6,123.9 160.7,120.5 158.7,117.1 156.5,113.6 154.1,110.3" fill="black"/><path d="M 181.8,141.3 L 181.3,145.8 177.9,148.8 173.3,148.4 170.3,144.9" fill="black"/><path d="M 135,135 L 135,182 123,188 123,135" fill="black"/><path d="M 112.9,153.5 L 110.4,157.4 107.8,161.2 105,164.8 102,168.4 98.8,171.8 95.4,175.1 91.8,178.2 87.9,181.2 83.8,184 79.5,186.6 78.4,185.3 81.5,181.4 84.4,177.6 87.2,173.9 89.9,170.2 92.4,166.6 94.7,162.9 96.8,159.2 98.8,155.6 100.5,151.9 102.1,148.2" fill="black"/><path d="M 101.7,149.1 L 112.9,153.5 102.7,147.1" fill="black"/><path d="M 112.9,153.5 L 114.7,156.7 108.8,157.1" fill="black"/><path d="M 146.3,144.9 L 150,147.4 153.6,149.9 157,152.7 160.2,155.7 163.1,158.8 165.9,162.1 168.6,165.6 171,169.2 173.3,173 175.4,176.9 164.3,181.4 163,177.8 161.7,174.1 160.1,170.6 158.4,167 156.6,163.5 154.6,160.1 152.4,156.6 150.1,153.2 147.7,149.7 145.1,146.3" fill="black"/><path d="M 175.4,176.9 L 175.3,181.5 172.1,184.7 167.5,184.7 164.3,181.4" fill="black"/></svg>