<svg xmlns="http://www.w3.org/2000/svg" xmlns:xlink="http://www.w3.org/1999/xlink" version="1.1" baseProfile="full" viewBox="0 0 200 200" width="96" height="96"><path d="M 33,22 L 33,118 21,118 21,16" fill="black"/><path d="M 21,118 L 23.4,121.6 27,124 30.6,121.6 33,118" fill="black"/><path d="M 33,118 L 32.5,128.7 31.8,138.6 30.8,147.8 29.5,156.2 27.9,163.7 26,170.5 23.7,176.4 21.1,181.5 18,185.5 14.6,188.5 13.3,187.4 14.8,183.6 16.2,179.2 17.5,174.3 18.6,168.6 19.5,162.2 20.3,154.9 20.8,146.9 21.1,138.1 21.1,128.4 21,118" fill="black"/><path d="M 27,22 L 59,22 59,26 27,26" fill="black"/><path d="M 65,24 L 65,171 53,171 53,24" fill="black"/><path d="M 53,22 L 59,17 70,26 65,30 53,24" fill="black"/><path d="M 53,171 L 55.4,174.6 59,177 62.6,174.6 65,171" fill="black"/><path d="M 65,171 L 64.8,173.5 64.4,176 63.6,178.4 62.3,180.7 60.7,182.7 58.7,184.3 56.4,185.6 54,186.4 51.5,186.8 49,187 49,175 50.2,174.9 51.1,174.7 51.7,174.5 52,174.4 52.2,174.2 52.4,174 52.5,173.7 52.7,173.1 52.9,172.2 53,171" fill="black"/><path d="M 49,181 L 49,175 33,175 33,178" fill="black"/><path d="M 27,65 L 59,65 59,69 27,69" fill="black"/><path d="M 27,110 L 59,110 59,114 27,114" fill="black"/><path d="M 134,13 L 134,38 122,38 122,11" fill="black"/><path d="M 134,13 L 137,15 132,18" fill="black"/><path d="M 82.9,26.9 L 83.5,31.8 84.1,36.3 84.5,40.5 84.5,44.5 84.3,48.2 83.8,51.6 83,54.8 81.7,57.8 80.1,60.6 77.9,63 70.8,53.3 71.9,52.9 73.1,52.1 74.4,50.7 75.6,48.8 76.8,46.3 77.9,43.4 79,40 79.9,36.1 80.7,31.8 81.1,27" fill="black"/><path d="M 77.9,63 L 73.4,64.1 69.5,61.7 68.5,57.3 70.8,53.3" fill="black"/><path d="M 83,34 L 178,34 178,38 83,38" fill="black"/><path d="M 183.4,38.4 L 182.1,40.2 180.7,42.1 179.1,44.1 177.4,46.1 175.6,48.1 173.7,50.3 171.6,52.4 169.4,54.7 166.9,56.9 164.7,59.5 163.2,58.4 164.9,55.5 166.1,52.4 167.2,49.6 168.3,46.8 169.3,44.3 170.1,41.8 170.9,39.5 171.5,37.4 172.1,35.4 172.5,33.5" fill="black"/><path d="M 172,34 L 178,29 189,38 184,41 172,46" fill="black"/><path d="M 107,111 L 153,111 153,115 107,115" fill="black"/><path d="M 153,111 L 133,113 143,102" fill="black"/><path d="M 83,134 L 174,134 174,138 83,138" fill="black"/><path d="M 174,134 L 150,136 162,124" fill="black"/><path d="M 135,134 L 135,171 123,171 123,134" fill="black"/><path d="M 123,171 L 125.4,174.6 129,177 132.6,174.6 135,171" fill="black"/><path d="M 135,171 L 134.8,173.5 134.4,176 133.6,178.4 132.3,180.7 130.7,182.7 128.7,184.3 126.4,185.6 124,186.4 121.5,186.8 119,187 119,175 120.2,174.9 121.1,174.7 121.7,174.5 122,174.4 122.2,174.2 122.4,174 122.5,173.7 122.7,173.1 122.9,172.2 123,171" fill="black"/><path d="M 119,181 L 119,175 105,175 105,178" fill="black"/><path d="M 111.2,155.4 L 108.4,158.3 105.4,161.3 102.3,164.1 99,166.8 95.5,169.4 91.9,171.9 88.1,174.4 84,176.6 79.8,178.7 75.4,180.7 74.5,179.2 77.9,176 81.2,172.7 84.3,169.6 87.3,166.5 90.1,163.4 92.7,160.3 95.2,157.3 97.5,154.2 99.6,151.2 101.6,148.2" fill="black"/><path d="M 101,149 L 111.2,155.4 102,147.5" fill="black"/><path d="M 111.2,155.4 L 112.4,158.8 106.6,158.2" fill="black"/><path d="M 144.2,148.6 L 148.5,150 152.7,151.5 156.6,153.2 160.3,155.2 163.9,157.4 167.2,159.8 170.3,162.4 173.3,165.1 176,168.1 178.5,171.3 168.3,177.5 166.8,174.6 165.1,171.8 163.2,169 161.1,166.2 158.7,163.5 156.1,160.8 153.3,158.1 150.3,155.4 147,152.7 143.5,150.2" fill="black"/><path d="M 178.5,171.3 L 179.2,175.8 176.5,179.5 172,180.2 168.3,177.5" fill="black"/><path d="M 107.4,50.7 L 104.8,57.3 102.1,63.5 99.3,69.4 96.3,75 93.1,80.2 89.8,85.1 86.3,89.6 82.6,93.8 78.7,97.4 74.6,100.6 73.3,99.3 75.8,95 78.4,90.5 80.9,86 83.3,81.2 85.6,76.2 87.9,70.9 90.1,65.4 92.1,59.5 94.1,53.4 95.9,47.1" fill="black"/><path d="M 95.6,48 L 107.4,50.7 96.4,45.5" fill="black"/><path d="M 107.4,50.7 L 109.6,53.6 103.9,54.9" fill="black"/><path d="M 96,63 L 124,63 124,67 96,67" fill="black"/><path d="M 129.5,67.3 L 124.6,77.5 119.4,87 114.1,95.8 108.4,103.9 102.6,111.3 96.4,118 90.1,123.9 83.4,129.1 76.5,133.4 69.4,136.7 68.5,135.2 74.4,130.3 80,125 85.5,119.2 90.8,113 95.8,106.1 100.7,98.7 105.5,90.6 110,81.9 114.3,72.6 118.4,62.6" fill="black"/><path d="M 118,63 L 124,58 135,67 130,70 118,75" fill="black"/><path d="M 94.2,74.5 L 96.3,75.4 98.6,75.8 100.7,76.4 102.8,77.3 104.8,78.3 106.7,79.4 108.5,80.7 110.2,82.2 111.7,83.9 113.2,85.7 102.2,90.7 102,89.3 101.7,87.9 101.3,86.4 100.7,85 99.9,83.5 99,82 98,80.4 96.7,78.9 95.3,77.3 93.5,76.2" fill="black"/><path d="M 113.2,85.7 L 113.3,90.3 110.2,93.7 105.6,93.8 102.2,90.7" fill="black"/><path d="M 135,63 L 170,63 170,67 135,67" fill="black"/><path d="M 175.6,66.8 L 174.3,69.4 172.8,72.1 171.1,74.8 169.2,77.5 167.1,80.4 164.8,83.3 162.3,86.2 159.6,89.2 156.6,92.2 153.7,95.5 152.2,94.4 154.3,90.6 156,86.8 157.6,83.2 159,79.8 160.3,76.5 161.5,73.5 162.4,70.6 163.2,67.9 163.8,65.4 164.3,63.1" fill="black"/><path d="M 164,63 L 170,58 181,67 176,70 164,75" fill="black"/><path d="M 132.1,50.7 L 136.2,59.6 140.3,67.9 144.6,75.7 149.2,82.9 154.1,89.5 159.3,95.6 164.8,101 170.6,106 176.8,110.4 183.3,114.3 176.6,125.6 169.5,120.6 163,114.9 156.9,108.8 151.4,102.1 146.5,94.9 142,87.2 138.1,78.9 134.8,70.2 132.2,60.9 130.4,51.2" fill="black"/><path d="M 176.6,125.6 L 183.3,114.3 187.7,116.9" fill="black"/><path d="M 87.3,86.8 L 89,87.8 91,88.5 93,89.4 94.8,90.4 96.6,91.6 98.3,93 100,94.5 101.5,96.2 103,98 104.3,99.9 93.3,104.5 93,102.8 92.6,101.1 92.2,99.4 91.7,97.8 91.1,96.2 90.4,94.5 89.6,92.9 88.7,91.2 87.7,89.5 86.3,88.3" fill="black"/><path d="M 104.3,99.9 L 104.3,104.4 101.1,107.7 96.5,107.7 93.3,104.5" fill="black"/></svg>