<svg xmlns="http://www.w3.org/2000/svg" xmlns:xlink="http://www.w3.org/1999/xlink" version="1.1" baseProfile="full" viewBox="0 0 200 200" width="96" height="96"><path d="M 15,53 L 82,53 82,57 15,57" fill="black"/><path d="M 82,53 L 58,55 70,43" fill="black"/><path d="M 54,16 L 54,171 42,171 42,14" fill="black"/><path d="M 54,16 L 57,18 52,21" fill="black"/><path d="M 42,171 L 44.4,174.6 48,177 51.6,174.6 54,171" fill="black"/><path d="M 54,171 L 53.8,173.5 53.4,176 52.6,178.4 51.3,180.7 49.7,182.7 47.7,184.3 45.4,185.6 43,186.4 40.5,186.8 38,187 38,175 39.2,174.9 40.1,174.7 40.7,174.5 41,174.4 41.2,174.2 41.4,174 41.5,173.7 41.7,173.1 41.9,172.2 42,171" fill="black"/><path d="M 38,181 L 38,175 24,175 24,178" fill="black"/><path d="M 13.2,116.1 L 19.7,113.3 26.1,110.4 32.4,107.4 38.6,104.5 44.8,101.4 51,98.3 57.1,95.2 63.1,92.1 69.3,89.1 75.4,86.2 76.5,87.7 71.4,92.3 66,96.7 60.5,100.8 54.8,104.9 49,108.8 43.1,112.6 37.1,116.3 31,119.9 24.8,123.5 18.5,126.9" fill="black"/><path d="M 18.5,126.9 L 13.2,116.1 11.4,117" fill="black"/><path d="M 18.5,126.9 L 21.6,128.7 22.6,121.6" fill="black"/><path d="M 73,33 L 182,33 182,37 73,37" fill="black"/><path d="M 182,33 L 158,35 170,23" fill="black"/><path d="M 129,35 L 110,178 97.9,178 116.9,35" fill="black"/><path d="M 80,94 L 156,94 156,98 80,98" fill="black"/><path d="M 162,96 L 162,180 150,180 150,96" fill="black"/><path d="M 150,94 L 156,89 167,98 162,102 150,96" fill="black"/><path d="M 67,176 L 188,176 188,180 67,180" fill="black"/><path d="M 188,176 L 164,178 176,166" fill="black"/></svg>