<svg xmlns="http://www.w3.org/2000/svg" xmlns:xlink="http://www.w3.org/1999/xlink" version="1.1" baseProfile="full" viewBox="0 0 200 200" width="96" height="96"><path d="M 18,36 L 83,36 83,40 18,40" fill="black"/><path d="M 83,36 L 59,38 71,26" fill="black"/><path d="M 58,38 L 57.8,39.1 55.3,49.2 52.4,59.1 49.1,68.9 45.4,78.4 41.4,87.8 36.9,97 32.1,106 26.8,114.8 21,123.3 14.7,131.4 13.2,130.5 17.7,121.3 22.1,112.2 26.2,103 30,93.9 33.5,84.6 36.7,75.2 39.6,65.8 42.1,56.2 44.2,46.6 45.8,38" fill="black"/><path d="M 44,88 L 44,169 32,175 32,88" fill="black"/><path d="M 38,85 L 69,85 69,89 38,89" fill="black"/><path d="M 75,87 L 75,157 63,163 63,87" fill="black"/><path d="M 63,85 L 69,80 80,89 75,93 63,87" fill="black"/><path d="M 38,153 L 69,153 69,157 38,157" fill="black"/><path d="M 101,24 L 101,117 89,123 89,18" fill="black"/><path d="M 95,24 L 173,24 173,28 95,28" fill="black"/><path d="M 179,26 L 179,117 167,123 167,26" fill="black"/><path d="M 167,24 L 173,19 184,28 179,32 167,26" fill="black"/><path d="M 95,113 L 173,113 173,117 95,117" fill="black"/><path d="M 106,53 L 165,53 165,57 106,57" fill="black"/><path d="M 165,53 L 141,55 153,43" fill="black"/><path d="M 139,34 L 139,55 127,55 127,32" fill="black"/><path d="M 139,34 L 142,36 137,39" fill="black"/><path d="M 127,55 L 129.4,58.6 133,61 136.6,58.6 139,55" fill="black"/><path d="M 138.9,54.8 L 138.5,63.4 137.3,71.4 135.4,78.8 132.8,85.6 129.4,91.8 125.3,97.2 120.5,101.9 115,105.7 108.9,108.7 102.3,110.8 101.6,109.1 107.1,105.4 111.8,101.4 115.9,97.2 119.3,92.6 122,87.6 124.2,82.2 125.7,76.2 126.7,69.8 127.1,62.7 127,55.1" fill="black"/><path d="M 135.3,68 L 138.4,70.3 141.7,72.5 144.6,74.7 147.5,77.1 150.1,79.6 152.6,82.1 154.9,84.6 157.1,87.2 159.1,89.9 161,92.6 150.2,98 149.3,95.3 148.2,92.7 146.9,89.9 145.5,87.2 144,84.3 142.3,81.5 140.5,78.5 138.5,75.5 136.5,72.3 134.1,69.3" fill="black"/><path d="M 161,92.6 L 161.2,97.1 158.3,100.6 153.7,100.9 150.2,98" fill="black"/><path d="M 91.9,128.9 L 92.7,135.2 93.3,141.1 93.3,146.6 93,151.8 92.2,156.7 91.1,161.2 89.5,165.5 87.5,169.3 85,172.9 82,176 74.8,166.3 76.9,164.9 78.9,163.1 80.9,160.7 82.7,157.8 84.4,154.3 85.9,150.3 87.2,145.8 88.3,140.7 89.3,135.1 90.1,129" fill="black"/><path d="M 82,176 L 77.5,177 73.6,174.7 72.5,170.3 74.8,166.3" fill="black"/><path d="M 115,130 L 115,167 103,167 103,128" fill="black"/><path d="M 115,130 L 118,132 113,135" fill="black"/><path d="M 103,167 L 105.4,170.6 109,173 112.6,170.6 115,167" fill="black"/><path d="M 115,167 L 115,168.2 115.2,169.1 115.4,169.7 115.5,170 115.7,170.2 115.9,170.4 116.2,170.5 116.8,170.7 117.7,170.9 119,171 119,183 116.4,182.8 113.9,182.4 111.5,181.6 109.2,180.3 107.2,178.7 105.6,176.7 104.3,174.4 103.5,172 103.1,169.5 103,167" fill="black"/><path d="M 119,171 L 123.2,172.8 125,177 123.2,181.2 119,183" fill="black"/><path d="M 119,171 L 162,171 162,183 119,183" fill="black"/><path d="M 162,171 L 165.6,173.4 168,177 165.6,180.6 162,183" fill="black"/><path d="M 162,171 L 164,146 162,146 156,171" fill="black"/><path d="M 125.3,123.8 L 127.8,125.3 130.5,126.7 133,128.5 135.4,130.5 137.8,132.7 140,135.2 142,137.9 144,140.7 145.8,143.8 147.5,147.1 136.3,151.2 135.5,148.1 134.6,145.2 133.7,142.4 132.7,139.7 131.5,137.1 130.3,134.5 129,132.1 127.6,129.7 126.1,127.3 124.2,125.3" fill="black"/><path d="M 147.5,147.1 L 147.3,151.6 144,154.8 139.4,154.5 136.3,151.2" fill="black"/><path d="M 164.3,130 L 167.6,132.5 170.8,135.2 173.7,138.2 176.4,141.4 178.8,144.8 181,148.5 183,152.3 184.7,156.4 186.2,160.6 187.4,165 175.5,167 175.1,163.1 174.6,159.3 173.8,155.6 172.8,152 171.7,148.4 170.3,145 168.8,141.5 167.1,138.1 165.2,134.6 163,131.3" fill="black"/><path d="M 187.4,165 L 186.3,169.4 182.4,171.9 178,170.8 175.5,167" fill="black"/></svg>