<svg xmlns="http://www.w3.org/2000/svg" xmlns:xlink="http://www.w3.org/1999/xlink" version="1.1" baseProfile="full" viewBox="0 0 200 200" width="96" height="96"><path d="M 18.2,29.4 L 21.1,33.5 23.8,37.4 26.3,41.4 28.5,45.2 30.5,49 32.3,52.8 33.8,56.4 35.2,60 36.4,63.6 37.4,67.1 25.6,68.9 25.4,65.9 25,62.6 24.5,59.2 23.8,55.6 22.9,51.8 21.9,47.9 20.8,43.8 19.5,39.4 18.2,34.9 16.6,30.3" fill="black"/><path d="M 37.4,67.1 L 36.3,71.5 32.4,73.9 28,72.8 25.6,68.9" fill="black"/><path d="M 81.2,33 L 79.5,36.6 77.7,40.4 75.7,44.2 73.7,48.2 71.4,52.3 69.1,56.6 66.6,60.9 63.9,65.3 60.9,69.8 57.8,74.3 56.1,73.6 57.7,68.3 59.2,63.1 60.8,58.3 62.3,53.6 63.8,49 65.2,44.7 66.5,40.5 67.8,36.4 68.9,32.5 70,28.8" fill="black"/><path d="M 69.6,29.8 L 81.2,33 70.5,27.4" fill="black"/><path d="M 81.2,33 L 83.4,35.9 77.6,37" fill="black"/><path d="M 11,85 L 83,85 83,89 11,89" fill="black"/><path d="M 83,85 L 59,87 71,75" fill="black"/><path d="M 54,16 L 54,181 42,187 42,14" fill="black"/><path d="M 54,16 L 57,18 52,21" fill="black"/><path d="M 49,87 L 48.9,87.9 46.8,97.7 44.3,107.1 41.4,116.2 38.2,124.8 34.6,133.1 30.7,140.9 26.3,148.3 21.5,155.3 16.3,161.7 10.7,167.5 9.2,166.4 13.2,159.5 17,152.4 20.5,145.2 23.8,137.6 26.8,129.8 29.4,121.7 31.8,113.3 33.9,104.5 35.6,95.4 36.8,87" fill="black"/><path d="M 49.3,99.9 L 53.3,102.2 57.2,104.6 60.9,107.1 64.4,109.7 67.7,112.5 70.8,115.3 73.8,118.2 76.5,121.1 79.1,124.2 81.5,127.3 71.3,133.5 69.7,130.5 68,127.4 66.1,124.3 64,121.1 61.8,118 59.4,114.7 56.8,111.5 54.1,108.1 51.3,104.7 48.2,101.3" fill="black"/><path d="M 81.5,127.3 L 82.2,131.8 79.5,135.5 75,136.2 71.3,133.5" fill="black"/><path d="M 138,15 L 138,38 126,38 126,13" fill="black"/><path d="M 138,15 L 141,17 136,20" fill="black"/><path d="M 85,34 L 179,34 179,38 85,38" fill="black"/><path d="M 179,34 L 155,36 167,24" fill="black"/><path d="M 104.3,39.9 L 106.3,41.2 108.6,42.5 110.8,44 112.9,45.7 114.8,47.7 116.7,49.9 118.4,52.2 120,54.8 121.5,57.5 122.9,60.4 111.3,63.8 111,61.1 110.5,58.6 109.9,56.2 109.3,53.9 108.5,51.6 107.7,49.4 106.8,47.2 105.8,45.1 104.7,43 103.2,41.3" fill="black"/><path d="M 122.9,60.4 L 122.3,64.9 118.8,67.8 114.3,67.3 111.3,63.8" fill="black"/><path d="M 163,44.4 L 161.4,46.8 159.7,49.2 157.9,51.7 156,54.3 153.9,56.9 151.7,59.5 149.4,62.2 146.9,64.9 144.2,67.6 141.7,70.5 140.2,69.4 142,66 143.3,62.5 144.7,59.2 146,56 147.3,53 148.4,50 149.5,47.2 150.5,44.5 151.3,41.8 152.1,39.3" fill="black"/><path d="M 151.7,40.3 L 163,44.4 152.6,38.2" fill="black"/><path d="M 163,44.4 L 164.9,47.4 159.1,48.1" fill="black"/><path d="M 78,68 L 187,68 187,72 78,72" fill="black"/><path d="M 187,68 L 167,70 177,59" fill="black"/><path d="M 104,84 L 104,128 92,134 92,78" fill="black"/><path d="M 98,84 L 166,84 166,88 98,88" fill="black"/><path d="M 172,86 L 172,128 160,134 160,86" fill="black"/><path d="M 160,84 L 166,79 177,88 172,92 160,86" fill="black"/><path d="M 98,104 L 166,104 166,108 98,108" fill="black"/><path d="M 98,124 L 166,124 166,128 98,128" fill="black"/><path d="M 89.9,138.9 L 90.5,143.8 91.1,148.4 91.3,152.8 91.2,156.9 90.8,160.8 90,164.5 88.9,168 87.4,171.2 85.4,174.2 83,176.9 75.7,167.4 77.3,166.4 78.9,165.1 80.4,163.4 81.9,161.3 83.3,158.7 84.6,155.6 85.7,152.1 86.7,148.1 87.6,143.8 88.1,139" fill="black"/><path d="M 83,176.9 L 78.6,178 74.6,175.8 73.4,171.4 75.7,167.4" fill="black"/><path d="M 115,139 L 115,167 103,167 103,137" fill="black"/><path d="M 115,139 L 118,141 113,144" fill="black"/><path d="M 103,167 L 105.4,170.6 109,173 112.6,170.6 115,167" fill="black"/><path d="M 115,167 L 115,168.2 115.2,169.1 115.4,169.7 115.5,170 115.7,170.2 115.9,170.4 116.2,170.5 116.8,170.7 117.7,170.9 119,171 119,183 116.4,182.8 113.9,182.4 111.5,181.6 109.2,180.3 107.2,178.7 105.6,176.7 104.3,174.4 103.5,172 103.1,169.5 103,167" fill="black"/><path d="M 119,171 L 123.2,172.8 125,177 123.2,181.2 119,183" fill="black"/><path d="M 119,171 L 163,171 163,183 119,183" fill="black"/><path d="M 163,171 L 166.6,173.4 169,177 166.6,180.6 163,183" fill="black"/><path d="M 163,171 L 165,146 163,146 157,171" fill="black"/><path d="M 124.2,133.6 L 127,134.7 129.9,135.6 132.6,136.8 135.2,138.1 137.7,139.7 140.1,141.6 142.3,143.6 144.4,145.8 146.3,148.1 148.1,150.7 137.2,155.8 136.6,153.5 135.8,151.3 134.8,149.2 133.7,147.1 132.5,145 131,143 129.5,140.9 127.7,138.9 125.8,136.8 123.4,135.2" fill="black"/><path d="M 148.1,150.7 L 148.3,155.3 145.2,158.7 140.7,158.8 137.2,155.8" fill="black"/><path d="M 165.3,138.8 L 168.6,140.8 171.9,142.7 174.9,144.9 177.8,147.3 180.4,149.9 182.8,152.7 184.9,155.6 186.9,158.8 188.5,162.1 190,165.5 178.4,168.6 177.9,165.7 177.3,162.8 176.4,160 175.3,157.2 174,154.4 172.5,151.5 170.8,148.7 168.9,145.9 166.8,143 164.2,140.3" fill="black"/><path d="M 190,165.5 L 189.3,170 185.7,172.9 181.2,172.2 178.4,168.6" fill="black"/></svg>