<svg xmlns="http://www.w3.org/2000/svg" xmlns:xlink="http://www.w3.org/1999/xlink" version="1.1" baseProfile="full" viewBox="0 0 200 200" width="96" height="96"><path d="M 28,33 L 28,161 16,167 16,27" fill="black"/><path d="M 22,33 L 61,33 61,37 22,37" fill="black"/><path d="M 67,35 L 67,155 55,161 55,35" fill="black"/><path d="M 55,33 L 61,28 72,37 67,41 55,35" fill="black"/><path d="M 22,70 L 61,70 61,74 22,74" fill="black"/><path d="M 22,106 L 61,106 61,110 22,110" fill="black"/><path d="M 22,145 L 61,145 61,149 22,149" fill="black"/><path d="M 74,38 L 129,38 129,42 74,42" fill="black"/><path d="M 129,38 L 113,40 121,31" fill="black"/><path d="M 109,15 L 109,93 97,99 97,13" fill="black"/><path d="M 109,15 L 112,17 107,20" fill="black"/><path d="M 107.3,40 L 106.7,41.6 104.7,46.7 102.4,51.5 99.8,56.3 96.8,60.9 93.5,65.3 89.8,69.6 85.8,73.7 81.5,77.6 76.7,81.3 71.5,84.6 70.4,83.3 74.1,78.5 77.6,73.9 80.8,69.4 83.8,65 86.4,60.6 88.8,56.1 90.9,51.7 92.6,47.2 94,42.8 94.7,40" fill="black"/><path d="M 106.3,47.7 L 109,48.9 111.8,49.8 114.5,50.9 117,52 119.3,53.1 121.5,54.4 123.6,55.7 125.6,57 127.4,58.5 129.1,60.1 119.3,66.9 118.8,65.5 118,63.9 117.1,62.3 116,60.6 114.7,58.8 113.2,57 111.5,55 109.7,53.1 107.8,50.9 105.4,49.2" fill="black"/><path d="M 129.1,60.1 L 130.1,64.5 127.7,68.4 123.2,69.3 119.3,66.9" fill="black"/><path d="M 132,38 L 188,38 188,42 132,42" fill="black"/><path d="M 188,38 L 164,40 176,28" fill="black"/><path d="M 159,15 L 159,93 147,99 147,13" fill="black"/><path d="M 159,15 L 162,17 157,20" fill="black"/><path d="M 157.4,40 L 156.7,41.8 154.3,47.5 151.6,53.1 148.5,58.4 145.1,63.5 141.4,68.4 137.4,73 133,77.4 128.2,81.5 123.1,85.3 117.5,88.7 116.4,87.2 120.5,82.5 124.4,77.7 128.1,73 131.4,68.3 134.5,63.5 137.2,58.6 139.7,53.6 141.8,48.6 143.7,43.4 144.6,40" fill="black"/><path d="M 159.2,40.5 L 162.2,44.6 165.1,48.4 167.9,52 170.7,55.4 173.5,58.6 176.2,61.5 179,64.3 181.7,66.7 184.5,68.9 187.2,70.9 178.7,81 175.9,77.9 173.2,74.7 170.7,71.2 168.4,67.6 166.1,63.8 164,59.7 162.1,55.4 160.4,50.9 158.9,46.2 157.5,41.2" fill="black"/><path d="M 178.7,81 L 187.2,70.9 189.5,72.9" fill="black"/><path d="M 78,106 L 176,106 176,110 78,110" fill="black"/><path d="M 180.5,111.9 L 178.6,113.3 176.8,114.7 174.8,116.2 172.7,117.6 170.6,119.1 168.3,120.5 166,122 163.5,123.5 160.9,124.9 158.6,126.6 157.3,125.3 159.3,123.1 160.8,120.6 162.4,118.3 163.9,116 165.3,113.8 166.7,111.7 168,109.7 169.2,107.7 170.4,105.8 171.4,104" fill="black"/><path d="M 170,106 L 176,101 187,110 182,113 170,118" fill="black"/><path d="M 135,106 L 135,177 123,177 123,106" fill="black"/><path d="M 129,140 L 176,140 176,144 129,144" fill="black"/><path d="M 176,140 L 156,142 166,131" fill="black"/><path d="M 101.9,131.2 L 100.9,139.6 99.4,147.4 97.3,154.7 94.7,161.4 91.5,167.6 87.7,173.2 83.4,178.2 78.6,182.5 73.2,186 67.4,188.7 66.5,187.2 71,183 74.9,178.6 78.4,174 81.4,169.1 83.9,163.8 86,158.1 87.6,151.9 88.9,145.3 89.6,138.2 89.9,130.7" fill="black"/><path d="M 89.9,131.7 L 101.9,131.2 90,128.4" fill="black"/><path d="M 101.9,131.2 L 104.8,133.4 99.7,136.1" fill="black"/><path d="M 97.1,146.7 L 100.5,152.7 104.6,157.7 109.6,162 115.6,165.6 122.8,168.6 131.2,171.1 140.9,172.9 151.9,174 164.2,174.5 177.9,174.4 178,187.5 163.7,187 150.7,185.8 138.9,183.7 128.4,180.9 119.2,177.3 111.3,172.8 104.9,167.4 99.9,161.3 96.7,154.5 95.3,147.1" fill="black"/><path d="M 178,187.5 L 177.9,174.4 189.6,174.2" fill="black"/></svg>