<svg xmlns="http://www.w3.org/2000/svg" xmlns:xlink="http://www.w3.org/1999/xlink" version="1.1" baseProfile="full" viewBox="0 0 200 200" width="96" height="96"><path d="M 20.2,29.4 L 23.3,33.4 26.2,37.4 28.8,41.3 31.1,45.1 33.2,48.9 35.1,52.7 36.7,56.4 38.2,60 39.4,63.5 40.4,67.1 28.6,68.9 28.3,65.9 28,62.7 27.4,59.3 26.6,55.7 25.7,51.9 24.6,48 23.3,43.8 21.9,39.5 20.4,34.9 18.7,30.3" fill="black"/><path d="M 40.4,67.1 L 39.3,71.5 35.4,73.9 31,72.8 28.6,68.9" fill="black"/><path d="M 88.2,33 L 86.5,36.7 84.6,40.5 82.5,44.4 80.3,48.4 77.9,52.5 75.3,56.7 72.5,61 69.6,65.4 66.3,69.9 62.7,74.4 61.2,73.5 63.1,68.1 65,63 66.8,58.1 68.6,53.4 70.3,48.9 71.9,44.5 73.4,40.3 74.7,36.3 75.9,32.5 77,28.8" fill="black"/><path d="M 76.6,29.8 L 88.2,33 77.5,27.4" fill="black"/><path d="M 88.2,33 L 90.4,35.9 84.6,37" fill="black"/><path d="M 13,85 L 91,85 91,89 13,89" fill="black"/><path d="M 91,85 L 67,87 79,75" fill="black"/><path d="M 58,16 L 58,181 46,187 46,14" fill="black"/><path d="M 58,16 L 61,18 56,21" fill="black"/><path d="M 54.1,87 L 53.9,88 51.5,97.8 48.8,107.3 45.7,116.3 42.2,124.9 38.3,133.2 34,141 29.4,148.4 24.3,155.3 18.7,161.7 12.6,167.5 11.3,166.4 15.7,159.4 19.8,152.3 23.7,145.1 27.3,137.5 30.6,129.7 33.5,121.6 36.2,113.2 38.5,104.4 40.4,95.3 41.8,87" fill="black"/><path d="M 53.3,99.8 L 57.7,102.1 62,104.4 66,107 69.8,109.6 73.3,112.3 76.7,115.1 79.9,118 82.9,121 85.7,124 88.3,127.1 78.3,133.8 76.6,130.7 74.6,127.6 72.5,124.5 70.2,121.3 67.6,118.1 64.9,114.9 62,111.6 58.9,108.2 55.7,104.7 52.2,101.3" fill="black"/><path d="M 88.3,127.1 L 89.1,131.6 86.6,135.4 82.1,136.3 78.3,133.8" fill="black"/><path d="M 140.1,19.2 L 138.7,21.4 137.2,23.6 135.7,25.9 134,28.3 132.2,30.7 130.3,33.1 128.3,35.6 126.2,38.1 123.8,40.6 121.7,43.4 120.2,42.5 121.6,39.3 122.6,36.1 123.6,33 124.6,30 125.5,27.2 126.4,24.4 127.1,21.8 127.8,19.3 128.5,16.9 129,14.6" fill="black"/><path d="M 128.6,15.5 L 140.1,19.2 129.6,13.3" fill="black"/><path d="M 140.1,19.2 L 142.1,22.2 136.3,23" fill="black"/><path d="M 105,41 L 105,120 93,126 93,35" fill="black"/><path d="M 99,41 L 172,41 172,45 99,45" fill="black"/><path d="M 178,43 L 178,108 166,114 166,43" fill="black"/><path d="M 166,41 L 172,36 183,45 178,49 166,43" fill="black"/><path d="M 141,41 L 141,108 129,108 129,41" fill="black"/><path d="M 99,72 L 172,72 172,76 99,76" fill="black"/><path d="M 99,104 L 172,104 172,108 99,108" fill="black"/><path d="M 126.8,113.7 L 124.5,126.5 121.3,138.2 117.3,148.9 112.5,158.3 106.9,166.7 100.4,173.8 93.1,179.6 85.1,184.1 76.4,187.2 67.1,188.8 66.8,187.1 75.1,183.6 82.5,179.4 89.1,174.4 94.9,168.5 100,161.7 104.3,153.9 108,145.1 111,135.3 113.3,124.3 114.9,112.2" fill="black"/><path d="M 114.8,113.2 L 126.8,113.7 115.1,110.1" fill="black"/><path d="M 126.8,113.7 L 129.5,116 124.2,118.4" fill="black"/><path d="M 146,109 L 146,167 134,167 134,107" fill="black"/><path d="M 146,109 L 149,111 144,114" fill="black"/><path d="M 134,167 L 136.4,170.6 140,173 143.6,170.6 146,167" fill="black"/><path d="M 146,167 L 146,168.2 146.2,169.1 146.4,169.7 146.5,170 146.7,170.2 146.9,170.4 147.2,170.5 147.8,170.7 148.7,170.9 150,171 150,183 147.4,182.8 144.9,182.4 142.5,181.6 140.2,180.3 138.2,178.7 136.6,176.7 135.3,174.4 134.5,172 134.1,169.5 134,167" fill="black"/><path d="M 150,171 L 154.2,172.8 156,177 154.2,181.2 150,183" fill="black"/><path d="M 150,171 L 183,171 183,183 150,183" fill="black"/><path d="M 183,171 L 186.6,173.4 189,177 186.6,180.6 183,183" fill="black"/><path d="M 183,171 L 185,146 183,146 177,171" fill="black"/><path d="M 168.4,122.7 L 167.2,125.1 165.9,127.5 164.5,129.9 163.1,132.3 161.6,134.7 160,137 158.2,139.4 156.4,141.7 154.4,143.9 152.7,146.4 151.2,145.5 152.2,142.8 152.8,139.9 153.5,137.1 154.1,134.4 154.7,131.7 155.2,129.1 155.7,126.5 156.2,124 156.6,121.6 156.9,119.1" fill="black"/><path d="M 156.6,120.1 L 168.4,122.7 157.4,117.6" fill="black"/><path d="M 168.4,122.7 L 170.7,125.5 165,126.9" fill="black"/><path d="M 146,142.9 L 148.4,142.6 150.9,142.2 153.5,141.9 156.1,141.6 158.9,141.3 161.7,141 164.6,140.8 167.6,140.6 170.7,140.5 173.7,140.1 174.2,141.8 171.3,142.9 168.6,144.5 166,145.9 163.5,147.2 161,148.5 158.6,149.7 156.3,150.9 154,152.1 151.9,153.2 149.8,154.3" fill="black"/><path d="M 149.8,154.3 L 146,142.9 144.1,143.6" fill="black"/><path d="M 149.8,154.3 L 152.6,156.5 154.5,149.6" fill="black"/><path d="M 168.3,131 L 169.7,132.3 171.4,133.2 173,134.4 174.5,135.8 176,137.3 177.3,139 178.5,140.9 179.6,142.8 180.6,144.9 181.4,147.1 169.6,148.9 169.7,147.1 169.8,145.4 169.8,143.7 169.7,142.1 169.6,140.4 169.3,138.8 169,137.1 168.6,135.4 168.1,133.6 167,132.3" fill="black"/><path d="M 181.4,147.1 L 180.3,151.5 176.4,153.9 172,152.8 169.6,148.9" fill="black"/></svg>