<svg xmlns="http://www.w3.org/2000/svg" xmlns:xlink="http://www.w3.org/1999/xlink" version="1.1" baseProfile="full" viewBox="0 0 200 200" width="96" height="96"><path d="M 69.5,28.5 L 65.8,30.5 61.7,32.4 57.3,34.3 52.4,36.2 47.1,38 41.4,39.8 35.3,41.5 28.7,43.1 21.7,44.6 14.2,45.8 13.7,44.1 20.6,40.9 27,38 33.1,35.3 38.7,32.7 43.9,30.2 48.6,27.7 52.9,25.3 56.6,23 59.9,20.7 62.7,18.6" fill="black"/><path d="M 61.9,19.1 L 69.5,28.5 70,28.2" fill="black"/><path d="M 70,28.2 L 70.1,31.7 64.6,29.4" fill="black"/><path d="M 13,74 L 73,74 73,78 13,78" fill="black"/><path d="M 73,74 L 53,76 63,65" fill="black"/><path d="M 50,33 L 50,183 38,189 38,33" fill="black"/><path d="M 48,76 L 47.9,76.9 45.8,86.7 43.5,96.2 40.8,105.3 37.9,114.1 34.7,122.6 31.2,130.7 27.4,138.5 23.2,145.9 18.7,152.9 13.7,159.4 12.2,158.5 15.4,151.1 18.4,143.6 21.4,135.9 24.1,128 26.7,119.8 29,111.4 31.1,102.7 33,93.7 34.6,84.5 35.8,76" fill="black"/><path d="M 47.3,97.6 L 50.2,98.9 53.3,99.9 56.2,101.2 59,102.7 61.7,104.4 64.2,106.3 66.6,108.3 68.8,110.6 70.9,112.9 72.8,115.5 62.2,121.1 61.4,118.8 60.4,116.5 59.2,114.3 57.9,112.1 56.5,109.9 54.8,107.7 53,105.5 51,103.3 48.9,101.1 46.4,99.2" fill="black"/><path d="M 72.8,115.5 L 73.2,120 70.4,123.6 65.8,124 62.2,121.1" fill="black"/><path d="M 105.6,16.1 L 103.4,24.9 101,33.5 98.3,41.8 95.3,49.9 92.1,57.7 88.7,65.2 84.9,72.5 80.9,79.5 76.5,86.2 71.7,92.4 70.2,91.5 73.2,84.3 76.1,77.1 79,69.8 81.7,62.3 84.2,54.7 86.5,46.9 88.7,38.9 90.6,30.7 92.3,22.3 93.9,13.8" fill="black"/><path d="M 93.7,14.7 L 105.6,16.1 94.2,11.9" fill="black"/><path d="M 105.6,16.1 L 108.2,18.7 102.7,20.6" fill="black"/><path d="M 95,32 L 125,32 125,36 95,36" fill="black"/><path d="M 130.9,34.6 L 128.4,50.1 125.1,64.7 121.1,78.4 116.3,91.3 110.8,103.3 104.5,114.3 97.4,124.5 89.6,133.6 80.9,141.7 71.5,148.7 70.4,147.2 78.3,139 85.5,130.1 92,120.7 97.9,110.5 103.1,99.6 107.6,88 111.5,75.5 114.7,62.3 117.2,48.2 119,33.3" fill="black"/><path d="M 119,32 L 125,27 136,36 131,39 119,44" fill="black"/><path d="M 92.3,53.6 L 94.4,54.6 96.8,55.4 99,56.5 101.2,57.8 103.3,59.3 105.2,61.1 107,63.1 108.7,65.3 110.3,67.6 111.7,70.2 100.3,74 100,71.8 99.5,69.7 99,67.7 98.4,65.8 97.6,63.9 96.7,62 95.7,60.2 94.5,58.4 93.2,56.6 91.4,55.2" fill="black"/><path d="M 111.7,70.2 L 111.3,74.8 107.9,77.8 103.3,77.4 100.3,74" fill="black"/><path d="M 82.3,76 L 84.5,77.7 87,79.2 89.2,81 91.3,82.9 93.2,85 95,87.3 96.6,89.8 98,92.3 99.2,95.1 100.3,97.9 88.5,100.1 88.4,97.8 88.2,95.5 87.9,93.3 87.4,91 86.8,88.7 86,86.4 85.1,84.1 84,81.8 82.8,79.4 81.1,77.3" fill="black"/><path d="M 100.3,97.9 L 99.3,102.4 95.5,104.9 91,103.9 88.5,100.1" fill="black"/><path d="M 127,62 L 188,62 188,66 127,66" fill="black"/><path d="M 188,62 L 164,64 176,52" fill="black"/><path d="M 156,17 L 156,53 144,53 144,15" fill="black"/><path d="M 156,17 L 159,19 154,22" fill="black"/><path d="M 144,53 L 146.4,56.6 150,59 153.6,56.6 156,53" fill="black"/><path d="M 156,53 L 155.2,65.1 153.7,76.5 151.3,87.1 148.1,96.9 144,105.8 139.1,113.8 133.4,120.8 126.8,126.9 119.5,131.9 111.4,135.7 110.5,134.2 117.3,128.8 123.2,123 128.3,116.7 132.7,109.7 136.4,102.1 139.3,93.8 141.6,84.8 143.1,75 143.9,64.4 144,53" fill="black"/><path d="M 153.9,64.9 L 156.3,73.7 158.7,82 161.3,89.6 164.1,96.6 167.2,103 170.6,108.8 174.3,113.9 178.2,118.4 182.5,122.3 186.9,125.7 179,136.2 173.8,131.4 169.3,126.1 165.2,120.2 161.7,113.8 158.7,106.9 156.3,99.5 154.3,91.6 152.9,83.2 152.2,74.4 152.2,65" fill="black"/><path d="M 179,136.2 L 186.9,125.7 189.9,127.9" fill="black"/><path d="M 162.3,18.8 L 164.7,20.3 167.3,21.7 169.8,23.2 172.1,25 174.2,27 176.2,29.1 178.1,31.4 179.8,33.9 181.4,36.5 182.8,39.3 171.3,42.9 170.9,40.5 170.4,38.1 169.8,35.8 169,33.6 168.1,31.3 167.1,29 165.9,26.8 164.6,24.5 163.1,22.2 161.2,20.3" fill="black"/><path d="M 182.8,39.3 L 182.3,43.8 178.8,46.8 174.3,46.3 171.3,42.9" fill="black"/><path d="M 92.8,142 L 93.1,147.5 93.4,152.6 93.4,157.5 93,162 92.3,166.2 91.4,170.1 90.1,173.8 88.5,177.1 86.4,180.2 84,182.9 76.7,173.4 78.3,172.4 79.9,171 81.6,169.1 83.2,166.7 84.8,163.8 86.2,160.4 87.6,156.5 88.9,152.1 90.1,147.2 91,141.9" fill="black"/><path d="M 84,182.9 L 79.6,184 75.6,181.8 74.4,177.4 76.7,173.4" fill="black"/><path d="M 110.2,142.4 L 112.5,145.4 114.8,148.4 116.8,151.6 118.5,154.9 119.9,158.3 121.1,161.8 122,165.4 122.7,169 123.1,172.8 123.2,176.6 111.3,175.4 111.9,172.4 112.3,169.4 112.5,166.3 112.5,163.2 112.4,160.1 112,156.8 111.5,153.6 110.8,150.2 110,146.7 108.7,143.3" fill="black"/><path d="M 123.2,176.6 L 121,180.6 116.7,181.9 112.7,179.7 111.3,175.4" fill="black"/><path d="M 136.3,142.2 L 138.9,145.2 141.6,148.2 144,151.2 146.2,154.4 148.2,157.7 149.9,161.1 151.4,164.6 152.7,168.1 153.8,171.7 154.6,175.4 142.7,176.6 142.7,173.4 142.5,170.3 142.1,167.1 141.6,163.9 140.9,160.6 140,157.3 139,153.9 137.8,150.4 136.5,146.8 134.8,143.3" fill="black"/><path d="M 154.6,175.4 L 153.2,179.7 149.2,181.9 144.9,180.6 142.7,176.6" fill="black"/><path d="M 162.3,141.1 L 165.8,144.4 169.2,147.6 172.2,150.9 175,154.3 177.5,157.8 179.8,161.3 181.8,164.8 183.5,168.5 185,172.1 186.2,175.8 174.5,178.2 174.1,175 173.5,171.8 172.7,168.5 171.7,165.1 170.4,161.5 168.9,157.9 167.2,154.2 165.3,150.3 163.3,146.3 160.9,142.3" fill="black"/><path d="M 186.2,175.8 L 185.3,180.3 181.5,182.9 177.1,182 174.5,178.2" fill="black"/></svg>