<svg xmlns="http://www.w3.org/2000/svg" xmlns:xlink="http://www.w3.org/1999/xlink" version="1.1" baseProfile="full" viewBox="0 0 200 200" width="96" height="96"><path d="M 69.5,28.5 L 65.8,30.5 61.7,32.4 57.3,34.3 52.4,36.2 47.1,38 41.4,39.8 35.3,41.5 28.7,43.1 21.7,44.6 14.2,45.8 13.7,44.1 20.6,40.9 27,38 33.1,35.3 38.7,32.7 43.9,30.2 48.6,27.7 52.9,25.3 56.6,23 59.9,20.7 62.7,18.6" fill="black"/><path d="M 61.9,19.1 L 69.5,28.5 70,28.2" fill="black"/><path d="M 70,28.2 L 70.1,31.7 64.6,29.4" fill="black"/><path d="M 13,74 L 73,74 73,78 13,78" fill="black"/><path d="M 73,74 L 53,76 63,65" fill="black"/><path d="M 50,33 L 50,183 38,189 38,33" fill="black"/><path d="M 48,76 L 47.9,76.9 45.8,86.7 43.5,96.2 40.8,105.3 37.9,114.1 34.7,122.6 31.2,130.7 27.4,138.5 23.2,145.9 18.7,152.9 13.7,159.4 12.2,158.5 15.4,151.1 18.4,143.6 21.4,135.9 24.1,128 26.7,119.8 29,111.4 31.1,102.7 33,93.7 34.6,84.5 35.8,76" fill="black"/><path d="M 47.3,97.6 L 50.2,98.9 53.3,99.9 56.2,101.2 59,102.7 61.7,104.4 64.2,106.3 66.6,108.3 68.8,110.6 70.9,112.9 72.8,115.5 62.2,121.1 61.4,118.8 60.4,116.5 59.2,114.3 57.9,112.1 56.5,109.9 54.8,107.7 53,105.5 51,103.3 48.9,101.1 46.4,99.2" fill="black"/><path d="M 72.8,115.5 L 73.2,120 70.4,123.6 65.8,124 62.2,121.1" fill="black"/><path d="M 109,17 L 109,44 97,44 97,15" fill="black"/><path d="M 109,17 L 112,19 107,22" fill="black"/><path d="M 91,40 L 91,174 79,174 79,34" fill="black"/><path d="M 85,40 L 122,40 122,44 85,44" fill="black"/><path d="M 127.5,42 L 127.5,104 116.5,109.5 116.5,42" fill="black"/><path d="M 116.5,40 L 122,35 132.5,44 127.5,47.5 116.5,42" fill="black"/><path d="M 85,68 L 122,68 122,72 85,72" fill="black"/><path d="M 85,100 L 122,100 122,104 85,104" fill="black"/><path d="M 72.1,172.2 L 76.9,170 81.6,167.8 86.2,165.7 90.7,163.6 95,161.5 99.3,159.5 103.4,157.5 107.4,155.6 111.5,153.8 115.4,152.2 116.5,153.7 113.5,156.9 110.3,160 106.8,162.9 103.2,165.8 99.3,168.7 95.3,171.5 91.1,174.4 86.8,177.2 82.3,180 77.6,182.8" fill="black"/><path d="M 77.6,182.8 L 72.1,172.2 70.3,173.1" fill="black"/><path d="M 77.6,182.8 L 80.8,184.6 81.5,177.4" fill="black"/><path d="M 101.3,132.1 L 104.5,134.8 107.8,137.5 110.8,140.6 113.7,143.8 116.5,147.3 119.2,150.9 121.8,154.6 124.4,158.5 126.8,162.5 129.2,166.7 118.2,171.7 116.6,167.5 115,163.4 113.2,159.4 111.4,155.5 109.6,151.6 107.7,147.9 105.8,144.2 103.9,140.5 101.9,136.9 99.9,133.3" fill="black"/><path d="M 129.2,166.7 L 129.3,171.3 126.2,174.7 121.6,174.8 118.2,171.7" fill="black"/><path d="M 133,118.3 L 131.3,121.3 129.4,124.2 127.5,127.2 125.4,130.2 123.3,133.1 121,136 118.6,138.9 116.1,141.8 113.3,144.6 110.7,147.5 109.2,146.4 110.9,143 112.3,139.4 113.7,135.9 115.1,132.6 116.4,129.2 117.7,126 118.9,122.8 120,119.6 121.1,116.5 122.1,113.5" fill="black"/><path d="M 121.7,114.4 L 133,118.3 122.6,112.2" fill="black"/><path d="M 133,118.3 L 135,121.3 129.2,122.1" fill="black"/><path d="M 143,26 L 177,26 177,30 143,30" fill="black"/><path d="M 182.7,29.6 L 180.9,34.6 179,39.8 177,45.1 174.8,50.4 172.4,55.9 169.9,61.4 167.3,67.1 164.4,72.8 161.2,78.5 157.8,84.3 156.1,83.6 157.7,77.1 159.4,70.8 161.1,64.7 162.8,58.8 164.5,53 166,47.4 167.4,41.9 168.8,36.6 170,31.4 171.2,26.3" fill="black"/><path d="M 171,26 L 177,21 188,30 183,33 171,38" fill="black"/><path d="M 158.3,82.8 L 166,86.8 171.9,92.7 176.4,99.7 179.8,107.1 182.2,114.8 183.6,122.4 184.2,129.8 184.2,136.6 183.6,142.8 182.6,148.1 171.1,144.6 172.3,140.8 173.1,135.7 173.6,129.8 173.6,123.4 172.9,116.6 171.5,109.8 169.3,103.1 166.2,96.6 162.2,90.5 157.3,84.3" fill="black"/><path d="M 182.6,148.1 L 179.7,151.6 175.1,152.1 171.6,149.2 171.1,144.6" fill="black"/><path d="M 182.6,148.1 L 181.7,150.5 180.6,152.8 179.3,154.9 177.6,156.8 175.7,158.4 173.6,159.7 171.4,160.7 169,161.4 166.5,161.8 164,162 164,150 165.3,149.9 166.4,149.7 167.3,149.5 168,149.1 168.6,148.7 169.2,148.3 169.7,147.7 170.2,146.9 170.7,145.9 171.1,144.6" fill="black"/><path d="M 164,156 L 164,150 154,150 154,153" fill="black"/><path d="M 148.5,26 L 148.5,183.2 137.5,188.7 137.5,20.5" fill="black"/></svg>