<svg xmlns="http://www.w3.org/2000/svg" xmlns:xlink="http://www.w3.org/1999/xlink" version="1.1" baseProfile="full" viewBox="0 0 200 200" width="96" height="96"><path d="M 18.2,29.5 L 20.7,33.6 23.1,37.6 25.3,41.5 27.2,45.4 29,49.2 30.6,52.9 32,56.6 33.3,60.2 34.4,63.6 35.4,67.1 23.6,68.9 23.4,65.8 23,62.5 22.6,59.1 22,55.4 21.4,51.7 20.6,47.7 19.7,43.6 18.7,39.3 17.7,34.8 16.5,30.2" fill="black"/><path d="M 35.4,67.1 L 34.3,71.5 30.4,73.9 26,72.8 23.6,68.9" fill="black"/><path d="M 75.4,32.7 L 73.8,36.4 72.2,40.2 70.4,44 68.5,48.1 66.5,52.2 64.3,56.4 62,60.8 59.5,65.2 56.7,69.7 53.8,74.3 52.1,73.6 53.5,68.3 54.8,63.2 56.1,58.4 57.5,53.7 58.8,49.2 60,44.8 61.1,40.7 62.1,36.6 63.1,32.8 63.9,29.1" fill="black"/><path d="M 63.6,30.1 L 75.4,32.7 64.4,27.6" fill="black"/><path d="M 75.4,32.7 L 77.6,35.5 72,36.9" fill="black"/><path d="M 12,85 L 76,85 76,89 12,89" fill="black"/><path d="M 76,85 L 52,87 64,75" fill="black"/><path d="M 50,16 L 50,181 38,187 38,14" fill="black"/><path d="M 50,16 L 53,18 48,21" fill="black"/><path d="M 47,87 L 46.9,87.9 44.8,97.7 42.4,107.1 39.7,116.1 36.7,124.7 33.4,132.9 29.8,140.8 25.8,148.2 21.5,155.1 16.8,161.6 11.7,167.5 10.2,166.4 13.6,159.6 16.8,152.5 19.9,145.3 22.8,137.8 25.5,130 27.9,121.8 30.1,113.4 32,104.6 33.6,95.5 34.8,87" fill="black"/><path d="M 45.3,99.9 L 48.9,102.4 52.5,104.7 55.9,107.3 59.1,109.9 62.1,112.7 64.9,115.5 67.6,118.4 70.1,121.3 72.5,124.3 74.7,127.4 64.2,133.2 62.9,130.2 61.4,127.1 59.7,124 57.9,120.9 56,117.8 53.9,114.6 51.6,111.3 49.3,108 46.8,104.6 44.1,101.3" fill="black"/><path d="M 74.7,127.4 L 75.2,132 72.4,135.6 67.9,136 64.2,133.2" fill="black"/><path d="M 104.1,18.2 L 102.5,20.7 101,23.2 99.3,25.6 97.7,28 96,30.4 94.2,32.7 92.4,34.9 90.5,37.1 88.4,39.2 86.7,41.4 85.2,40.5 86.2,37.9 86.9,35.1 87.7,32.4 88.5,29.7 89.2,27 90,24.3 90.8,21.6 91.6,18.9 92.3,16.2 93,13.5" fill="black"/><path d="M 92.6,14.4 L 104.1,18.2 93.6,12.2" fill="black"/><path d="M 104.1,18.2 L 106,21.3 100.3,22" fill="black"/><path d="M 79.3,33.9 L 81.1,35 83.2,36 85.2,37.2 87.1,38.5 88.9,40.1 90.6,41.8 92.2,43.7 93.8,45.7 95.2,47.8 96.6,50.1 85.3,54.1 85,52.1 84.6,50 84.1,48 83.5,46.1 82.9,44.2 82.2,42.3 81.4,40.5 80.5,38.6 79.6,36.7 78.2,35.3" fill="black"/><path d="M 96.6,50.1 L 96.3,54.7 93,57.8 88.4,57.5 85.3,54.1" fill="black"/><path d="M 115.9,33.4 L 113.3,38.2 110.6,42.8 107.9,47.4 105.2,51.9 102.3,56.4 99.5,60.8 96.5,65.2 93.4,69.4 90.2,73.5 86.7,77.4 85.2,76.5 86.9,71.6 88.8,66.7 90.7,62 92.8,57.2 94.8,52.4 96.9,47.6 99,42.8 101,38 103.1,33.1 105.1,28.3" fill="black"/><path d="M 104.7,29.2 L 115.9,33.4 105.7,27.1" fill="black"/><path d="M 115.9,33.4 L 117.8,36.5 112,37.1" fill="black"/><path d="M 78,72.9 L 81.3,72.7 84.7,72.5 88,72.2 91.3,71.9 94.5,71.7 97.8,71.4 101,71.1 104.3,70.8 107.5,70.6 110.7,70.1 111.2,71.8 108.3,73.3 105.5,74.9 102.5,76.4 99.5,77.8 96.4,79.2 93.2,80.4 90,81.6 86.7,82.7 83.3,83.7 79.9,84.7" fill="black"/><path d="M 79.9,84.7 L 78,72.9 76,73.2" fill="black"/><path d="M 79.9,84.7 L 82.4,87.3 85.3,80.8" fill="black"/><path d="M 104.3,56.2 L 105.7,57.8 107.5,59.2 109.2,60.8 110.8,62.6 112.3,64.5 113.7,66.5 115,68.7 116.1,70.9 117.2,73.3 118.2,75.8 106.5,78.2 106.4,75.9 106.3,73.7 106.2,71.6 105.9,69.5 105.6,67.4 105.3,65.3 104.8,63.2 104.4,61.2 103.9,59.1 102.9,57.3" fill="black"/><path d="M 118.2,75.8 L 117.3,80.3 113.5,82.9 109.1,82 106.5,78.2" fill="black"/><path d="M 103,74 L 103,124 91,130 91,74" fill="black"/><path d="M 92.9,89.3 L 92.2,93 91.4,96.8 90.4,100.4 89.3,104 88,107.4 86.5,110.8 84.8,114.1 82.9,117.3 80.8,120.3 78.8,123.4 77.1,122.5 78.2,119.1 78.8,115.6 79.4,112.2 80,108.8 80.4,105.5 80.7,102.1 81,98.7 81.1,95.4 81,92 80.9,88.6" fill="black"/><path d="M 80.9,89.6 L 92.9,89.3 81,86.4" fill="black"/><path d="M 92.9,89.3 L 95.8,91.4 90.6,94.2" fill="black"/><path d="M 104.3,85.2 L 105.8,86.8 107.6,88.3 109.3,90 110.9,91.9 112.4,94 113.8,96.3 115.1,98.8 116.2,101.4 117.3,104.1 118.3,107 106.5,109 106.4,106.4 106.3,103.9 106.1,101.4 105.9,99.1 105.6,96.8 105.2,94.5 104.8,92.4 104.3,90.2 103.8,88.1 102.9,86.3" fill="black"/><path d="M 118.3,107 L 117.3,111.4 113.5,113.9 109,112.9 106.5,109" fill="black"/><path d="M 175.1,19.1 L 173.9,21 172.5,22.9 171.1,24.8 169.5,26.8 167.8,28.8 166,30.8 164.1,32.9 162,35 159.7,37.1 157.7,39.5 156.2,38.4 157.7,35.7 158.7,32.8 159.7,30.1 160.6,27.5 161.4,25.1 162.1,22.8 162.8,20.5 163.3,18.5 163.7,16.5 164,14.7" fill="black"/><path d="M 163.6,15.6 L 175.1,19.1 164.5,13.3" fill="black"/><path d="M 175.1,19.1 L 177.2,22.1 171.4,23" fill="black"/><path d="M 150.3,33.8 L 152,34.8 154.1,35.5 156,36.5 157.9,37.6 159.7,38.9 161.5,40.4 163.1,42.1 164.7,43.9 166.1,45.9 167.5,48 156.3,52.3 156,50.4 155.6,48.6 155.2,46.8 154.7,45.1 154,43.3 153.4,41.6 152.6,39.9 151.7,38.2 150.7,36.5 149.3,35.3" fill="black"/><path d="M 167.5,48 L 167.3,52.6 164,55.8 159.5,55.6 156.3,52.3" fill="black"/><path d="M 186.6,35.9 L 184.4,39 182,42.3 179.5,45.8 176.9,49.5 174.2,53.3 171.3,57.3 168.2,61.4 165,65.6 161.5,70 157.7,74.4 156.2,73.5 158.3,68.1 160.5,63 162.7,58.1 164.9,53.5 167,49 169,44.8 171,40.7 172.8,36.9 174.6,33.2 176.3,29.8" fill="black"/><path d="M 175.8,30.6 L 186.6,35.9 176.8,28.9" fill="black"/><path d="M 186.6,35.9 L 188.2,39.1 182.4,39.1" fill="black"/><path d="M 150.2,69.9 L 153.4,69.9 156.5,69.8 159.6,69.7 162.7,69.6 165.9,69.4 169,69.2 172.2,69 175.3,68.8 178.5,68.6 181.7,68.1 182.2,69.8 179.3,71.2 176.5,72.9 173.6,74.3 170.6,75.7 167.5,76.9 164.4,78.1 161.3,79.1 158.1,80.1 154.9,81 151.6,81.8" fill="black"/><path d="M 151.6,81.8 L 150.2,69.9 148.3,70.1" fill="black"/><path d="M 151.6,81.8 L 154,84.5 157.3,78.1" fill="black"/><path d="M 177.3,57.2 L 179,58.9 180.9,60.6 182.7,62.4 184.4,64.4 185.9,66.5 187.3,68.8 188.6,71.2 189.7,73.8 190.7,76.5 191.5,79.2 179.6,80.7 179.7,78.4 179.7,76 179.6,73.8 179.4,71.5 179.1,69.3 178.7,67.1 178.2,64.8 177.7,62.6 177,60.3 175.9,58.3" fill="black"/><path d="M 191.5,79.2 L 190.3,83.6 186.3,85.9 181.9,84.7 179.6,80.7" fill="black"/><path d="M 174,71 L 174,124 162,130 162,71" fill="black"/><path d="M 161.9,89.3 L 161.2,92.7 160.5,96.1 159.5,99.5 158.5,102.9 157.2,106.3 155.9,109.7 154.3,113.1 152.6,116.5 150.6,119.9 148.8,123.3 147.1,122.6 147.9,118.9 148.4,115.1 148.9,111.5 149.3,108 149.6,104.6 149.9,101.2 150,97.9 150.1,94.7 150,91.6 149.9,88.6" fill="black"/><path d="M 149.8,89.6 L 161.9,89.3 150,86.3" fill="black"/><path d="M 161.9,89.3 L 164.8,91.5 159.6,94.2" fill="black"/><path d="M 177.2,86.4 L 178.8,88.5 180.6,90.5 182.2,92.7 183.7,95 185.1,97.3 186.3,99.8 187.3,102.4 188.3,105 189.1,107.8 189.8,110.6 177.8,111.3 178,109 178.1,106.6 178.2,104.2 178.1,101.9 178,99.5 177.8,97.1 177.4,94.6 177.1,92.2 176.6,89.6 175.7,87.3" fill="black"/><path d="M 189.8,110.6 L 188.2,114.9 184.1,116.9 179.8,115.4 177.8,111.3" fill="black"/><path d="M 120,22 L 144,22 144,26 120,26" fill="black"/><path d="M 144,22 L 128,24 136,15" fill="black"/><path d="M 118,39 L 149,39 149,43 118,43" fill="black"/><path d="M 149,39 L 133,41 141,32" fill="black"/><path d="M 120,58 L 144,58 144,62 120,62" fill="black"/><path d="M 144,58 L 128,60 136,51" fill="black"/><path d="M 120,75 L 144,75 144,79 120,79" fill="black"/><path d="M 144,75 L 128,77 136,68" fill="black"/><path d="M 127.5,92 L 127.5,121 116.5,126.5 116.5,86.5" fill="black"/><path d="M 122,92 L 142,92 142,96 122,96" fill="black"/><path d="M 147.5,94 L 147.5,121 136.5,126.5 136.5,94" fill="black"/><path d="M 136.5,92 L 142,87 152.5,96 147.5,99.5 136.5,94" fill="black"/><path d="M 122,117 L 142,117 142,121 122,121" fill="black"/><path d="M 93.9,133.9 L 94.6,139.8 95.3,145.2 95.5,150.4 95.4,155.2 94.9,159.7 94.2,163.9 93,167.8 91.5,171.4 89.6,174.7 87.1,177.6 79.4,168.4 81,167.3 82.6,165.7 84.2,163.6 85.7,161 87.1,157.7 88.4,154 89.5,149.7 90.5,145 91.5,139.7 92.1,134" fill="black"/><path d="M 87.1,177.6 L 82.7,178.9 78.7,176.9 77.3,172.5 79.4,168.4" fill="black"/><path d="M 117,135 L 117,169 105,169 105,133" fill="black"/><path d="M 117,135 L 120,137 115,140" fill="black"/><path d="M 105,169 L 107.4,172.6 111,175 114.6,172.6 117,169" fill="black"/><path d="M 117,169 L 117,170.2 117.2,171.1 117.4,171.7 117.5,172 117.7,172.2 117.9,172.4 118.2,172.5 118.8,172.7 119.7,172.9 121,173 121,185 118.4,184.8 115.9,184.4 113.5,183.6 111.2,182.3 109.2,180.7 107.6,178.7 106.3,176.4 105.5,174 105.1,171.5 105,169" fill="black"/><path d="M 121,173 L 125.2,174.8 127,179 125.2,183.2 121,185" fill="black"/><path d="M 121,173 L 163,173 163,185 121,185" fill="black"/><path d="M 163,173 L 166.6,175.4 169,179 166.6,182.6 163,185" fill="black"/><path d="M 163,173 L 165,148 163,148 157,173" fill="black"/><path d="M 126.3,128.8 L 128.7,130.1 131.4,131.3 133.9,132.8 136.3,134.6 138.6,136.6 140.8,138.9 142.9,141.4 144.9,144 146.7,146.9 148.5,150 137.3,154.3 136.5,151.5 135.7,148.7 134.8,146.1 133.7,143.6 132.6,141.2 131.4,138.8 130.1,136.5 128.7,134.3 127.2,132.1 125.3,130.3" fill="black"/><path d="M 148.5,150 L 148.3,154.5 145,157.7 140.5,157.6 137.3,154.3" fill="black"/><path d="M 164.3,134.9 L 167.7,137.3 171,139.7 174.1,142.3 176.9,145.3 179.4,148.4 181.7,151.7 183.8,155.3 185.5,159 187.1,162.9 188.3,166.9 176.5,169.1 176.1,165.6 175.6,162.2 174.8,158.9 173.8,155.6 172.6,152.4 171.1,149.1 169.5,145.9 167.6,142.7 165.6,139.4 163.1,136.3" fill="black"/><path d="M 188.3,166.9 L 187.3,171.4 183.5,173.9 179,172.9 176.5,169.1" fill="black"/></svg>