<svg xmlns="http://www.w3.org/2000/svg" xmlns:xlink="http://www.w3.org/1999/xlink" version="1.1" baseProfile="full" viewBox="0 0 200 200" width="96" height="96"><path d="M 52.2,23 L 49.6,29 46.5,36.1 42.9,43.8 39,51.7 34.8,59.5 30.5,66.7 26.1,72.9 21.7,77.7 17.1,80.6 12.9,80.8 13,79.1 15.1,77.4 17.7,74.1 20.6,69.2 23.9,62.9 27.2,55.7 30.5,47.8 33.7,39.8 36.5,32 39,24.9 41,18.8" fill="black"/><path d="M 40.6,19.8 L 52.2,23 41.5,17.4" fill="black"/><path d="M 52.2,23 L 54.4,25.9 48.6,27" fill="black"/><path d="M 13,78.9 L 16.7,78.6 20.5,78.4 24.3,78.2 28.2,77.9 32.3,77.7 36.4,77.5 40.6,77.3 44.9,77.2 49.3,77.2 53.8,77.1 54.1,78.8 49.9,80.3 45.7,81.8 41.6,83.2 37.6,84.5 33.6,85.6 29.7,86.7 25.9,87.8 22.2,88.8 18.5,89.8 14.9,90.7" fill="black"/><path d="M 14.9,90.7 L 13,78.9 11,79.2" fill="black"/><path d="M 14.9,90.7 L 17.3,93.4 20.3,86.8" fill="black"/><path d="M 70.7,54.8 L 65.6,63.2 60.2,72.4 54.6,82 48.8,91.5 43,100.6 37.3,108.9 31.6,116 26.1,121.3 20.8,124.6 15.9,124.8 16,123.1 18.9,121.3 22.3,117.5 26.4,111.9 30.9,104.7 35.8,96.2 40.7,86.9 45.8,77.1 50.8,67.3 55.6,57.7 60.2,48.8" fill="black"/><path d="M 59.7,49.7 L 70.7,54.8 60.8,47.9" fill="black"/><path d="M 70.7,54.8 L 72.3,58 66.4,58.1" fill="black"/><path d="M 17.1,123.9 L 22.3,122.7 27.4,121.4 32.6,120.2 37.9,119 43.2,117.8 48.6,116.7 54,115.6 59.5,114.6 65,113.7 70.7,113.1 71.2,114.8 66.1,117.4 61,119.7 55.9,121.9 50.8,123.9 45.7,125.9 40.6,127.9 35.6,129.8 30.6,131.7 25.6,133.6 20.7,135.4" fill="black"/><path d="M 20.7,135.4 L 17.1,123.9 15.2,124.5" fill="black"/><path d="M 20.7,135.4 L 23.5,137.7 25.5,130.8" fill="black"/><path d="M 13.4,166.1 L 19.2,163.8 25.1,161.5 31.1,159.1 37.2,156.7 43.4,154.3 49.7,151.8 56.2,149.3 62.8,146.8 69.6,144.4 76.6,142.1 77.3,143.8 71.2,147.8 65.1,151.6 59,155.2 53,158.6 47,161.9 41.1,165.1 35.3,168.2 29.5,171.2 23.9,174.2 18.3,177" fill="black"/><path d="M 18.3,177 L 13.4,166.1 11.6,166.9" fill="black"/><path d="M 18.3,177 L 21.4,178.9 22.6,171.8" fill="black"/><path d="M 115,18 L 115,102 105,102 105,16" fill="black"/><path d="M 115,18 L 117.5,20 113,23" fill="black"/><path d="M 110,53 L 134,53 134,57 110,57" fill="black"/><path d="M 134,53 L 118,55 126,46" fill="black"/><path d="M 98,39 L 98,110 88,110 88,37" fill="black"/><path d="M 98,39 L 100.5,41 96,44" fill="black"/><path d="M 77.9,109 L 81.8,107.8 86.2,106.4 91,104.7 96.2,102.8 101.8,100.5 107.9,98.1 114.3,95.3 121.3,92.4 128.6,89.3 136.5,86.2 137.4,87.7 130.4,92.7 123.8,97.1 117.4,101.2 111.3,104.8 105.5,108.2 100.1,111.2 95.1,113.9 90.3,116.3 85.9,118.5 81.9,120.3" fill="black"/><path d="M 81.9,120.3 L 77.9,109 76,109.6" fill="black"/><path d="M 81.9,120.3 L 84.8,122.5 86.5,115.5" fill="black"/><path d="M 182.2,42.4 L 179.3,45.4 176.3,48.3 173.1,51.1 169.7,53.7 166.2,56.3 162.4,58.7 158.5,60.9 154.3,63 149.9,64.9 145.4,66.7 144.5,65.2 148.2,62.1 151.6,59 154.9,56 158,53 160.9,50 163.7,47.1 166.2,44.1 168.5,41.1 170.6,38.1 172.6,35.1" fill="black"/><path d="M 172,35.9 L 182.2,42.4 173,34.5" fill="black"/><path d="M 182.2,42.4 L 183.4,45.8 177.6,45.1" fill="black"/><path d="M 150,18 L 150,92 138,92 138,16" fill="black"/><path d="M 150,18 L 153,20 148,23" fill="black"/><path d="M 138,92 L 140.4,95.6 144,98 147.6,95.6 150,92" fill="black"/><path d="M 150,92 L 150,93.2 150.2,94.1 150.4,94.7 150.5,95 150.7,95.2 150.9,95.4 151.2,95.5 151.8,95.7 152.7,95.9 154,96 154,108 151.4,107.8 148.9,107.4 146.5,106.6 144.2,105.3 142.2,103.7 140.6,101.7 139.3,99.4 138.5,97 138.1,94.5 138,92" fill="black"/><path d="M 154,96 L 158.2,97.8 160,102 158.2,106.2 154,108" fill="black"/><path d="M 154,96 L 183,96 183,108 154,108" fill="black"/><path d="M 183,96 L 186.6,98.4 189,102 186.6,105.6 183,108" fill="black"/><path d="M 183,96 L 185,71 183,71 177,96" fill="black"/><path d="M 89,133 L 175,133 175,137 89,137" fill="black"/><path d="M 175,133 L 151,135 163,123" fill="black"/><path d="M 77,172 L 187,172 187,176 77,176" fill="black"/><path d="M 187,172 L 163,174 175,162" fill="black"/></svg>