<svg xmlns="http://www.w3.org/2000/svg" xmlns:xlink="http://www.w3.org/1999/xlink" version="1.1" baseProfile="full" viewBox="0 0 200 200" width="96" height="96"><path d="M 26,33 L 26,161 14,167 14,27" fill="black"/><path d="M 20,33 L 56,33 56,37 20,37" fill="black"/><path d="M 62,35 L 62,155 50,161 50,35" fill="black"/><path d="M 50,33 L 56,28 67,37 62,41 50,35" fill="black"/><path d="M 20,70 L 56,70 56,74 20,74" fill="black"/><path d="M 20,106 L 56,106 56,110 20,110" fill="black"/><path d="M 20,145 L 56,145 56,149 20,149" fill="black"/><path d="M 131,28 L 177,28 177,32 131,32" fill="black"/><path d="M 183,30 L 182.9,39.5 182.7,48.3 182.4,56.4 182,63.8 181.5,70.5 180.8,76.5 180,81.9 179,86.6 177.9,90.7 176.6,94.3 165.6,89.4 166.5,87.1 167.4,83.9 168.2,79.8 168.9,75 169.5,69.4 170,63 170.4,55.8 170.7,47.9 170.9,39.3 171,30" fill="black"/><path d="M 171,28 L 177,23 188,32 183,35 171,40" fill="black"/><path d="M 176.6,94.3 L 175.4,96.6 174,98.7 172.5,100.6 170.7,102.3 168.7,103.7 166.6,104.9 164.3,105.8 161.9,106.5 159.5,106.8 157,107 157,95 158.3,94.9 159.5,94.7 160.5,94.4 161.4,94.1 162.2,93.6 163,93.1 163.7,92.4 164.4,91.6 165,90.6 165.6,89.4" fill="black"/><path d="M 157,101 L 157,95 143,95 143,98" fill="black"/><path d="M 156.9,30 L 156.9,30.1 156.2,40.6 155,50.5 153.3,59.7 151.1,68.3 148.5,76.3 145.3,83.5 141.7,90 137.5,95.8 132.8,100.7 127.6,104.6 126.3,103.3 129.9,98.2 133,92.8 135.9,86.9 138.3,80.6 140.4,73.6 142.1,66.1 143.4,58 144.3,49.3 144.8,39.9 144.9,30" fill="black"/><path d="M 69,36 L 128,36 128,40 69,40" fill="black"/><path d="M 128,36 L 108,38 118,27" fill="black"/><path d="M 105,17 L 105,110 93,116 93,15" fill="black"/><path d="M 105,17 L 108,19 103,22" fill="black"/><path d="M 71,63 L 124,63 124,67 71,67" fill="black"/><path d="M 124,63 L 108,65 116,56" fill="black"/><path d="M 69.3,91.9 L 73.6,91 78.2,90 83.2,89 88.6,87.9 94.3,86.8 100.4,85.6 106.9,84.4 113.8,83.2 121,82.1 128.7,81.1 129.2,82.8 122,85.7 115.2,88.4 108.6,90.7 102.4,92.9 96.5,95 91,96.9 85.9,98.7 81.1,100.4 76.6,102 72.6,103.4" fill="black"/><path d="M 72.6,103.4 L 69.3,91.9 67.3,92.5" fill="black"/><path d="M 72.6,103.4 L 75.3,105.8 77.5,98.9" fill="black"/><path d="M 66,132 L 187,132 187,136 66,136" fill="black"/><path d="M 187,132 L 163,134 175,122" fill="black"/><path d="M 132.8,107.6 L 130.4,121.3 127,133.7 122.7,145.1 117.4,155.2 111,164 103.8,171.6 95.6,177.8 86.6,182.6 76.7,186 66.1,187.8 65.8,186.1 75.5,182.4 84.1,177.8 91.8,172.5 98.5,166.2 104.3,158.9 109.3,150.6 113.4,141.2 116.7,130.7 119.2,119.1 120.9,106.3" fill="black"/><path d="M 120.8,107.3 L 132.8,107.6 121.1,104.2" fill="black"/><path d="M 132.8,107.6 L 135.6,110 130.2,112.4" fill="black"/><path d="M 130.1,135.6 L 134,142.4 137.9,148.5 142,153.9 146.4,158.6 151.2,162.7 156.2,166.2 161.6,169.1 167.4,171.4 173.5,173.2 180.2,174.5 177.7,187.4 170,185.2 162.9,182.4 156.3,178.8 150.3,174.5 144.9,169.6 140.2,164.1 136.1,158 132.7,151.3 130.1,144 128.4,136.2" fill="black"/><path d="M 177.7,187.4 L 180.2,174.5 189.5,176.2" fill="black"/></svg>