<svg xmlns="http://www.w3.org/2000/svg" xmlns:xlink="http://www.w3.org/1999/xlink" version="1.1" baseProfile="full" viewBox="0 0 200 200" width="96" height="96"><path d="M 37.2,30.4 L 38.8,33.2 40.4,35.7 41.6,38.5 42.2,41.3 42.2,44.3 41.6,47.2 40.4,50.1 38.6,52.9 36.3,55.4 33.5,57.7 27.6,47.2 29.8,46.4 31.5,45.5 33,44.6 34.2,43.6 35.2,42.4 36,40.8 36.5,39 36.8,36.7 36.7,34 35.6,31.3" fill="black"/><path d="M 33.5,57.7 L 29,58.2 25.3,55.4 24.8,50.9 27.6,47.2" fill="black"/><path d="M 105.6,34.8 L 102.5,35.9 99.1,36.9 95.6,38 91.9,39.2 88,40.3 83.9,41.4 79.6,42.6 75,43.7 70.2,44.7 65.3,45.8 64.6,44.1 69.1,41.7 73.3,39.2 77.4,37 81.2,34.8 84.9,32.8 88.5,30.9 91.8,29 94.9,27.3 97.8,25.6 100.5,23.9" fill="black"/><path d="M 99.6,24.4 L 105.6,34.8 109.1,33.2" fill="black"/><path d="M 109.1,33.2 L 109.3,36.4 103,33.8" fill="black"/><path d="M 71,15 L 71,48 59,48 59,13" fill="black"/><path d="M 71,15 L 74,17 69,20" fill="black"/><path d="M 59,48 L 61.4,51.6 65,54 68.6,51.6 71,48" fill="black"/><path d="M 71,48 L 70.1,54.5 68.2,60.7 65.3,66.4 61.4,71.6 56.6,76.3 51,80.4 44.6,84 37.3,87.2 29.2,89.8 20.2,91.8 19.7,90.1 27.8,86.2 35,82.3 41.2,78.4 46.5,74.3 50.8,70.1 54.1,65.9 56.5,61.6 58.1,57.2 58.9,52.7 59,48" fill="black"/><path d="M 65.2,60.4 L 70.4,61.6 75.3,62.6 79.8,63.7 83.9,64.8 87.6,65.9 91,67.1 94.1,68.4 96.8,69.7 99.2,71.1 101.4,72.7 92.5,80.7 91.9,79.6 90.7,78.2 89,76.6 86.9,74.9 84.2,73 81.2,71 77.7,69 73.7,66.7 69.4,64.4 64.6,62.1" fill="black"/><path d="M 101.4,72.7 L 102.9,77.1 100.9,81.2 96.6,82.6 92.5,80.7" fill="black"/><path d="M 23.1,105.7 L 24.5,109.5 26,113.2 27.1,116.8 27.9,120.2 28.3,123.7 28.3,127 28,130.3 27.3,133.5 26.1,136.6 24.5,139.5 15.3,131.8 16.6,130.6 17.8,129.2 18.9,127.5 19.9,125.5 20.7,123.1 21.3,120.3 21.7,117.3 21.9,113.9 22,110.1 21.4,106.2" fill="black"/><path d="M 24.5,139.5 L 20.4,141.6 16,140.3 14,136.2 15.3,131.8" fill="black"/><path d="M 69.5,108.9 L 67.4,110.4 65.1,111.9 62.7,113.5 60.2,115.2 57.5,116.8 54.6,118.5 51.6,120.2 48.3,122 44.9,123.7 41.5,125.7 40.4,124.2 43.3,121.5 45.7,118.6 48.1,115.9 50.4,113.4 52.6,110.9 54.6,108.6 56.4,106.4 58.1,104.3 59.6,102.3 61,100.4" fill="black"/><path d="M 60.3,101.1 L 69.5,108.9 61.3,100.1" fill="black"/><path d="M 69.5,108.9 L 70.2,112.4 64.5,111" fill="black"/><path d="M 47,85 L 47,130 35,130 35,83" fill="black"/><path d="M 47,85 L 50,87 45,90" fill="black"/><path d="M 35,130 L 37.4,133.6 41,136 44.6,133.6 47,130" fill="black"/><path d="M 47,130 L 46.3,137.8 45.1,145.3 43.3,152.3 40.8,158.9 37.8,165.1 34.1,170.7 29.8,175.9 24.9,180.5 19.5,184.4 13.5,187.7 12.4,186.2 17.1,181.5 21.1,176.7 24.7,171.8 27.7,166.7 30.1,161.3 32.1,155.7 33.6,149.8 34.5,143.5 35,136.9 35,130" fill="black"/><path d="M 41.3,146.7 L 45,148.7 48.7,150.3 52,152.1 55.1,154 57.9,155.9 60.4,158 62.7,160.1 64.7,162.3 66.4,164.7 67.8,167.3 56.3,170.8 56.2,169.3 55.8,167.6 55,165.7 53.9,163.6 52.5,161.3 50.7,158.9 48.6,156.4 46.2,153.7 43.5,150.9 40.3,148.2" fill="black"/><path d="M 67.8,167.3 L 67.3,171.9 63.8,174.8 59.3,174.3 56.3,170.8" fill="black"/><path d="M 69.1,105.7 L 70.3,109.6 71.6,113.3 72.6,116.9 73.2,120.4 73.5,123.8 73.5,127.1 73.1,130.4 72.3,133.6 71.1,136.6 69.5,139.5 60.3,131.8 61.6,130.6 62.9,129.2 64.1,127.4 65.1,125.3 66,122.9 66.7,120.2 67.2,117.2 67.5,113.8 67.7,110.1 67.3,106.1" fill="black"/><path d="M 69.5,139.5 L 65.4,141.6 61,140.3 59,136.2 60.3,131.8" fill="black"/><path d="M 116.2,109.1 L 114,110.5 111.6,112.1 109.1,113.6 106.5,115.2 103.7,116.9 100.7,118.6 97.6,120.3 94.4,122 90.9,123.7 87.5,125.7 86.4,124.2 89.3,121.5 91.8,118.6 94.2,115.9 96.6,113.3 98.9,110.9 101,108.5 103,106.3 104.9,104.1 106.6,102.1 108.2,100.2" fill="black"/><path d="M 107.4,100.8 L 116.2,109.1 108.4,100" fill="black"/><path d="M 116.2,109.1 L 116.7,112.6 111.2,110.9" fill="black"/><path d="M 93,85 L 93,130 81,130 81,83" fill="black"/><path d="M 93,85 L 96,87 91,90" fill="black"/><path d="M 81,130 L 83.4,133.6 87,136 90.6,133.6 93,130" fill="black"/><path d="M 93,130 L 92.3,137.8 91.1,145.3 89.3,152.3 86.8,158.9 83.8,165.1 80.1,170.7 75.8,175.9 70.9,180.5 65.5,184.4 59.5,187.7 58.4,186.2 63.1,181.5 67.1,176.7 70.7,171.8 73.7,166.7 76.1,161.3 78.1,155.7 79.6,149.8 80.5,143.5 81,136.9 81,130" fill="black"/><path d="M 88.3,146.8 L 91.7,148.7 95.1,150.4 98.2,152.2 101.1,154.1 103.8,156 106.3,158 108.6,160.1 110.6,162.2 112.5,164.4 114.1,166.7 103.2,171.7 102.8,169.9 102,168 101.1,165.9 99.8,163.6 98.4,161.3 96.6,158.9 94.7,156.3 92.5,153.7 90.1,150.9 87.2,148.3" fill="black"/><path d="M 114.1,166.7 L 114.3,171.3 111.2,174.7 106.6,174.8 103.2,171.7" fill="black"/><path d="M 145,50 L 188,50 188,54 145,54" fill="black"/><path d="M 188,50 L 168,52 178,41" fill="black"/><path d="M 151,16 L 151,95 139,95 139,14" fill="black"/><path d="M 151,16 L 154,18 149,21" fill="black"/><path d="M 115,91 L 174,91 174,95 115,95" fill="black"/><path d="M 179.8,94.5 L 175,109.4 169.5,123.2 163.2,135.7 156.1,147.2 148.3,157.4 139.7,166.3 130.4,174 120.3,180.3 109.6,185.3 98.2,188.8 97.7,187.1 108,181.9 117.5,175.8 126.3,168.9 134.3,161 141.6,152 148.3,142.1 154.3,131.1 159.6,119 164.2,105.8 168.1,91.4" fill="black"/><path d="M 168,91 L 174,86 185,95 180,98 168,103" fill="black"/><path d="M 125,93.7 L 129.2,105.9 133.7,117.2 138.5,127.4 143.7,136.7 149.4,145.1 155.5,152.5 162.1,158.9 169.1,164.5 176.7,169.1 184.7,172.9 179.2,185 170.2,179.9 162,173.8 154.4,166.9 147.7,159 141.6,150.3 136.4,140.8 131.8,130.4 128.1,119.1 125.2,107 123.3,94.1" fill="black"/><path d="M 179.2,185 L 184.7,172.9 190.6,175.6" fill="black"/></svg>