<svg xmlns="http://www.w3.org/2000/svg" xmlns:xlink="http://www.w3.org/1999/xlink" version="1.1" baseProfile="full" viewBox="0 0 200 200" width="96" height="96"><path d="M 29,53 L 29,124 17,130 17,47" fill="black"/><path d="M 23,53 L 76,53 76,57 23,57" fill="black"/><path d="M 82,55 L 82,114 70,120 70,55" fill="black"/><path d="M 70,53 L 76,48 87,57 82,61 70,55" fill="black"/><path d="M 23,108 L 76,108 76,112 23,112" fill="black"/><path d="M 55,15 L 55,160 43,160 43,13" fill="black"/><path d="M 55,15 L 58,17 53,20" fill="black"/><path d="M 13,166.9 L 19.4,165.1 25.6,163.2 31.8,161.2 38,159.1 44,157 50,154.8 55.9,152.6 61.7,150.4 67.6,148.2 73.5,146.2 74.4,147.7 69.4,151.6 64.2,155.2 58.7,158.5 53.1,161.7 47.4,164.8 41.5,167.7 35.5,170.5 29.4,173.2 23.2,175.8 16.8,178.3" fill="black"/><path d="M 16.8,178.3 L 13,166.9 11.1,167.6" fill="black"/><path d="M 16.8,178.3 L 19.6,180.5 21.5,173.6" fill="black"/><path d="M 63.3,125.1 L 66.9,128.4 70.3,131.8 73.3,135.4 75.9,139.3 78.3,143.3 80.4,147.5 82.2,151.8 83.7,156.2 84.8,160.8 85.7,165.5 73.7,166.4 73.6,162.4 73.3,158.4 72.7,154.4 71.9,150.5 70.8,146.5 69.5,142.5 67.9,138.6 66.1,134.5 64.2,130.4 61.9,126.3" fill="black"/><path d="M 85.7,165.5 L 84.2,169.8 80.2,171.9 75.9,170.5 73.7,166.4" fill="black"/><path d="M 83,23 L 182,23 182,27 83,27" fill="black"/><path d="M 182,23 L 158,25 170,13" fill="black"/><path d="M 138.9,25 L 136.2,27.9 134.7,29.5 133.2,31.2 131.7,32.8 130.1,34.4 128.5,36 126.8,37.5 125,39 123.2,40.5 121.2,41.8 119.7,43.5 118.2,42.4 119.4,40.5 120.2,38.2 120.9,36.1 121.7,34 122.4,31.9 123.2,29.9 123.8,27.9 124.5,25.9 124.7,25" fill="black"/><path d="M 110,41 L 110,115 98,121 98,35" fill="black"/><path d="M 104,41 L 161,41 161,45 104,45" fill="black"/><path d="M 167,43 L 167,103 155,109 155,43" fill="black"/><path d="M 155,41 L 161,36 172,45 167,49 155,43" fill="black"/><path d="M 104,59 L 161,59 161,63 104,63" fill="black"/><path d="M 104,78 L 161,78 161,82 104,82" fill="black"/><path d="M 104,99 L 161,99 161,103 104,103" fill="black"/><path d="M 79.9,134 L 184.9,129 185,132.9 80,137.9" fill="black"/><path d="M 184.9,129 L 161,132.1 172.4,119.5" fill="black"/><path d="M 130,108 L 130.5,120.2 132.1,131.1 134.8,140.7 138.5,149.1 143.2,156.2 148.8,162.3 155.5,167.2 163.3,171.2 172.4,174.1 182.7,176 181.2,187.9 169.5,185.8 158.8,182.3 149.2,177.5 140.8,171.2 133.7,163.7 127.9,154.8 123.5,144.8 120.4,133.6 118.6,121.3 118,108" fill="black"/><path d="M 118,109 L 130,108 118,105.6" fill="black"/><path d="M 130,108 L 133,110 128,113" fill="black"/><path d="M 182.7,176 L 186.6,178.3 187.9,182.7 185.6,186.6 181.2,187.9" fill="black"/><path d="M 182,177 L 184,151 182,151 176,177" fill="black"/><path d="M 169.6,146.8 L 162.6,153.3 155.2,159.2 147.4,164.7 139.1,169.6 130.5,173.9 121.4,177.7 111.9,180.9 102.1,183.6 91.8,185.6 81.1,186.8 80.8,185.1 90.9,181.9 100.5,178.4 109.7,174.8 118.4,170.7 126.6,166.4 134.4,161.6 141.7,156.4 148.5,150.9 154.9,144.9 160.9,138.6" fill="black"/><path d="M 160.2,139.3 L 169.6,146.8 161.2,138.2" fill="black"/><path d="M 169.6,146.8 L 170.4,150.3 164.8,149.1" fill="black"/><path d="M 140.2,108.5 L 142.9,109.5 145.6,110 148.2,110.6 150.6,111.4 152.8,112.2 155,113.1 157,114.2 158.9,115.4 160.6,116.7 162.3,118.1 152.3,124.8 152,123.7 151.5,122.4 150.8,121.1 149.9,119.6 148.7,118.1 147.3,116.6 145.7,115 143.9,113.3 141.9,111.5 139.5,110.2" fill="black"/><path d="M 162.3,118.1 L 163.1,122.6 160.6,126.4 156.1,127.3 152.3,124.8" fill="black"/></svg>