<svg xmlns="http://www.w3.org/2000/svg" xmlns:xlink="http://www.w3.org/1999/xlink" version="1.1" baseProfile="full" viewBox="0 0 200 200" width="96" height="96"><path d="M 30,53 L 30,124 18,130 18,47" fill="black"/><path d="M 24,53 L 75,53 75,57 24,57" fill="black"/><path d="M 81,55 L 81,112 69,118 69,55" fill="black"/><path d="M 69,53 L 75,48 86,57 81,61 69,55" fill="black"/><path d="M 24,108 L 75,108 75,112 24,112" fill="black"/><path d="M 55,15 L 55,160 43,160 43,13" fill="black"/><path d="M 55,15 L 58,17 53,20" fill="black"/><path d="M 13.9,167 L 20.1,165.1 26.2,163.2 32.2,161.2 38.1,159.1 43.9,157 49.7,154.8 55.4,152.6 61.1,150.4 66.8,148.2 72.5,146.2 73.4,147.7 68.6,151.6 63.6,155.2 58.4,158.5 53,161.7 47.4,164.7 41.8,167.7 36,170.5 30,173.2 24,175.8 17.8,178.3" fill="black"/><path d="M 17.8,178.3 L 13.9,167 12.1,167.6" fill="black"/><path d="M 17.8,178.3 L 20.7,180.5 22.5,173.5" fill="black"/><path d="M 63.3,125.1 L 66.9,128.4 70.2,131.8 73.2,135.5 75.8,139.3 78.1,143.4 80.1,147.6 81.8,151.9 83.1,156.4 84.1,161 84.8,165.7 72.8,166.2 72.9,162.2 72.7,158.2 72.2,154.3 71.5,150.4 70.5,146.4 69.3,142.5 67.8,138.5 66.1,134.5 64.2,130.4 61.9,126.3" fill="black"/><path d="M 84.8,165.7 L 83.2,170 79.1,171.9 74.8,170.3 72.8,166.2" fill="black"/><path d="M 86,37 L 185,37 185,41 86,41" fill="black"/><path d="M 185,37 L 165,39 175,28" fill="black"/><path d="M 121,14 L 121,71 109,77 109,12" fill="black"/><path d="M 121,14 L 124,16 119,19" fill="black"/><path d="M 161,14 L 161,68 149,74 149,12" fill="black"/><path d="M 161,14 L 164,16 159,19" fill="black"/><path d="M 115,60 L 155,60 155,64 115,64" fill="black"/><path d="M 107,85 L 107,131 95,137 95,79" fill="black"/><path d="M 101,85 L 169,85 169,89 101,89" fill="black"/><path d="M 175,87 L 175,128 163,134 163,87" fill="black"/><path d="M 163,85 L 169,80 180,89 175,93 163,87" fill="black"/><path d="M 101,120 L 169,120 169,124 101,124" fill="black"/><path d="M 82,149 L 188,149 188,153 82,153" fill="black"/><path d="M 188,149 L 164,151 176,139" fill="black"/><path d="M 141,60 L 141,183 129,189 129,60" fill="black"/></svg>