<svg xmlns="http://www.w3.org/2000/svg" xmlns:xlink="http://www.w3.org/1999/xlink" version="1.1" baseProfile="full" viewBox="0 0 200 200" width="96" height="96"><path d="M 16,43 L 89,43 89,47 16,47" fill="black"/><path d="M 89,43 L 65,45 77,33" fill="black"/><path d="M 57,14 L 57,86 45,86 45,12" fill="black"/><path d="M 57,14 L 60,16 55,19" fill="black"/><path d="M 10,83 L 93,83 93,87 10,87" fill="black"/><path d="M 93,83 L 69,85 81,73" fill="black"/><path d="M 46.5,83 L 46.5,121 35.5,121 35.5,83" fill="black"/><path d="M 35.5,121 L 37.7,124.3 41,126.5 44.3,124.3 46.5,121" fill="black"/><path d="M 46.5,121 L 45.9,130.1 44.7,138.7 42.8,146.9 40.4,154.6 37.3,161.7 33.5,168.4 29.2,174.4 24.2,179.8 18.6,184.6 12.4,188.6 11.5,187.3 16.3,182 20.5,176.6 24.3,170.9 27.5,165 30.1,158.7 32.3,152 33.9,144.9 34.9,137.3 35.5,129.4 35.5,121" fill="black"/><path d="M 68.5,83 L 68.5,173 57.5,173 57.5,83" fill="black"/><path d="M 57.5,173 L 59.7,176.3 63,178.5 66.3,176.3 68.5,173" fill="black"/><path d="M 68.5,173 L 68.3,175.4 68,177.7 67.3,180 66.3,182.1 64.9,184.1 63.1,185.7 61.1,187 58.9,187.8 56.6,188.3 54.2,188.5 54.2,177.5 55.2,177.4 55.8,177.3 56.2,177.1 56.5,177 56.6,176.8 56.8,176.6 57,176.1 57.2,175.4 57.4,174.3 57.5,173" fill="black"/><path d="M 54.2,183 L 54.2,177.5 38.8,177.5 38.8,180.2" fill="black"/><path d="M 28.8,111.6 L 27.9,117.2 26.7,122.7 25.5,128 24.1,133.2 22.5,138.2 20.8,143 18.9,147.7 16.8,152.2 14.5,156.4 11.8,160.3 10.1,159.6 10.9,155 11.8,150.4 12.7,145.7 13.5,141 14.3,136.2 15,131.3 15.6,126.2 16.1,121 16.6,115.8 16.9,110.3" fill="black"/><path d="M 16.8,111.3 L 28.8,111.6 17.1,108.2" fill="black"/><path d="M 28.8,111.6 L 31.6,113.9 26.3,116.3" fill="black"/><path d="M 76.2,106.3 L 79,109.5 81.6,112.9 83.9,116.5 86,120.4 87.9,124.4 89.6,128.7 91.1,133.1 92.5,137.7 93.6,142.4 94.6,147.3 82.7,148.6 82.4,144.1 82,139.6 81.5,135.3 80.9,131 80.1,126.9 79.2,122.9 78.2,118.9 77.1,115 76,111.1 74.7,107.3" fill="black"/><path d="M 94.6,147.3 L 93.3,151.7 89.3,153.9 84.9,152.6 82.7,148.6" fill="black"/><path d="M 133.8,108.6 L 131.9,120.2 129.1,131.1 125.5,141.2 121,150.5 115.7,159 109.6,166.6 102.7,173.4 95,179.2 86.5,184 77.3,187.8 76.6,186.1 84.6,180.8 91.8,174.9 98.1,168.7 103.8,161.8 108.6,154.4 112.7,146.4 116.1,137.7 118.7,128.3 120.7,118.2 121.9,107.3" fill="black"/><path d="M 121.8,108.3 L 133.8,108.6 122.1,105.2" fill="black"/><path d="M 133.8,108.6 L 136.6,110.8 131.3,113.3" fill="black"/><path d="M 154,103 L 154,166 142,166 142,103" fill="black"/><path d="M 142,166 L 144.4,169.6 148,172 151.6,169.6 154,166" fill="black"/><path d="M 154,166 L 154,167.2 154.2,168.1 154.4,168.7 154.5,169 154.7,169.2 154.9,169.4 155.2,169.5 155.8,169.7 156.7,169.9 158,170 158,182 155.4,181.8 152.9,181.4 150.5,180.6 148.2,179.3 146.2,177.7 144.6,175.7 143.3,173.4 142.5,171 142.1,168.5 142,166" fill="black"/><path d="M 158,170 L 162.2,171.8 164,176 162.2,180.2 158,182" fill="black"/><path d="M 158,170 L 182,170 182,182 158,182" fill="black"/><path d="M 182,170 L 185.6,172.4 188,176 185.6,179.6 182,182" fill="black"/><path d="M 182,170 L 184,145 182,145 176,170" fill="black"/><path d="M 137.9,23.3 L 134.9,25.1 131.8,26.9 128.6,28.6 125.4,30.3 122.1,31.9 118.7,33.4 115.3,34.9 111.7,36.2 108,37.4 104.4,38.7 103.5,37.2 106.6,34.9 109.5,32.4 112.3,30 115.1,27.6 117.9,25.3 120.6,23 123.1,20.7 125.7,18.4 128.1,16.1 130.5,13.8" fill="black"/><path d="M 129.7,14.5 L 137.9,23.3 130.5,13.8" fill="black"/><path d="M 137.9,23.3 L 138.2,26.9 132.7,24.8" fill="black"/><path d="M 110,36 L 110,117 98,123 98,30" fill="black"/><path d="M 104,66 L 135,66 135,70 104,70" fill="black"/><path d="M 135,66 L 119,68 127,59" fill="black"/><path d="M 142,31 L 170,31 170,35 142,35" fill="black"/><path d="M 176,33 L 176,111 164,117 164,33" fill="black"/><path d="M 164,31 L 170,26 181,35 176,39 164,33" fill="black"/><path d="M 142,66 L 170,66 170,70 142,70" fill="black"/><path d="M 104,101 L 170,101 170,105 104,105" fill="black"/></svg>