<svg xmlns="http://www.w3.org/2000/svg" xmlns:xlink="http://www.w3.org/1999/xlink" version="1.1" baseProfile="full" viewBox="0 0 200 200" width="96" height="96"><path d="M 28.3,13 L 31.1,15.2 34,17.1 36.7,19.1 39.1,21.2 41.3,23.3 43.3,25.4 45.1,27.6 46.6,29.9 48,32.2 49.1,34.7 37.4,37.4 37.4,35.7 37.2,33.9 36.7,32 36,29.8 35.1,27.5 34,25.1 32.7,22.5 31.1,19.8 29.3,17 27.1,14.3" fill="black"/><path d="M 49.1,34.7 L 48.3,39.2 44.6,41.9 40.1,41.1 37.4,37.4" fill="black"/><path d="M 10,47 L 74,47 74,51 10,51" fill="black"/><path d="M 74,47 L 50,49 62,37" fill="black"/><path d="M 14,72 L 68,72 68,76 14,76" fill="black"/><path d="M 68,72 L 44,74 56,62" fill="black"/><path d="M 14,97 L 68,97 68,101 14,101" fill="black"/><path d="M 68,97 L 44,99 56,87" fill="black"/><path d="M 28,122 L 28,181 16,187 16,116" fill="black"/><path d="M 22,122 L 58,122 58,126 22,126" fill="black"/><path d="M 64,124 L 64,175 52,181 52,124" fill="black"/><path d="M 52,122 L 58,117 69,126 64,130 52,124" fill="black"/><path d="M 22,165 L 58,165 58,169 22,169" fill="black"/><path d="M 89,24 L 89,58 77,64 77,18" fill="black"/><path d="M 83,24 L 179,24 179,28 83,28" fill="black"/><path d="M 185,26 L 185,59 173,65 173,26" fill="black"/><path d="M 173,24 L 179,19 190,28 185,32 173,26" fill="black"/><path d="M 121,24 L 121,55 109,55 109,24" fill="black"/><path d="M 153,24 L 153,55 141,55 141,24" fill="black"/><path d="M 83,51 L 179,51 179,55 83,55" fill="black"/><path d="M 107.6,62.9 L 102.6,70.6 97.9,77.5 93.5,83.4 89.4,88.6 85.6,92.8 82.1,96.2 78.9,98.7 75.9,100.3 73,100.8 70.7,99.8 71.2,98.1 72,97.1 73,95.8 74.5,93.8 76.6,91.1 79,87.5 81.9,83.1 85.2,77.8 88.8,71.6 92.9,64.6 97.3,56.7" fill="black"/><path d="M 96.8,57.6 L 107.6,62.9 97.8,55.9" fill="black"/><path d="M 107.6,62.9 L 109.1,66.1 103.3,66.2" fill="black"/><path d="M 72,96 L 73.3,96.3 75.1,96.6 77.4,96.8 80.1,97 83.2,97.1 86.8,97.2 90.7,97.2 95,97.2 99.7,97.3 104.8,97.1 105.1,98.8 100.1,100.1 95.6,101.5 91.4,102.8 87.6,103.8 84.2,104.8 81.1,105.6 78.3,106.4 75.9,107 73.8,107.5 72,108" fill="black"/><path d="M 72,108 L 72,96 70,96" fill="black"/><path d="M 72,108 L 74,111 78,105" fill="black"/><path d="M 122.3,86.2 L 115.2,95.6 108.5,104 102.4,111.3 96.8,117.6 91.7,122.8 87,126.9 82.8,130 79,132 75.5,132.7 72.8,131.8 73.1,130.1 74.5,129 76.2,127.4 78.7,124.9 81.7,121.5 85.4,117 89.7,111.6 94.6,105.1 100,97.5 106,88.9 112.5,79.3" fill="black"/><path d="M 111.9,80.1 L 122.3,86.2 113,78.6" fill="black"/><path d="M 122.3,86.2 L 123.6,89.6 117.8,89.2" fill="black"/><path d="M 73.8,129.9 L 75.2,130 77.2,130 79.9,130 83.3,129.9 87.4,129.8 92.2,129.7 97.8,129.5 104.1,129.3 111.1,129.2 118.8,129.1 119.1,130.8 111.5,132.6 104.7,134.3 98.6,135.7 93.2,136.9 88.5,138 84.5,138.9 81.3,139.8 78.7,140.5 77,141.1 76.1,141.6" fill="black"/><path d="M 76.1,141.6 L 73.8,129.9 71.8,130.3" fill="black"/><path d="M 76.1,141.6 L 78.7,144.2 81.4,137.5" fill="black"/><path d="M 106.3,114.9 L 108.5,116.5 110.8,117.8 113,119.4 114.9,121.2 116.7,123.2 118.2,125.4 119.5,127.8 120.6,130.4 121.4,133.1 122,136 110,136 110.3,134.1 110.5,132.2 110.6,130.3 110.4,128.4 110.1,126.5 109.6,124.5 108.9,122.5 108,120.3 106.9,118.1 105.2,116.3" fill="black"/><path d="M 110,136 L 111.8,140.2 116,142 120.2,140.2 122,136" fill="black"/><path d="M 79,148.8 L 79.9,152.9 80.9,156.8 81.6,160.5 82.1,164 82.2,167.4 82.1,170.7 81.7,173.8 81,176.8 79.9,179.7 78.5,182.4 69.2,174.8 70.4,173.8 71.6,172.5 72.7,170.8 73.8,168.8 74.7,166.3 75.5,163.5 76.2,160.4 76.8,156.9 77.3,153.1 77.2,149.1" fill="black"/><path d="M 78.5,182.4 L 74.4,184.5 70.1,183.3 67.9,179.2 69.2,174.8" fill="black"/><path d="M 93.2,145.4 L 94.7,148 96.6,150.3 98.1,152.8 99.5,155.3 100.7,157.8 101.8,160.5 102.6,163.1 103.3,165.8 103.8,168.6 104.1,171.4 92.2,170.6 92.7,168.5 93,166.4 93.3,164.2 93.5,161.9 93.5,159.5 93.4,157 93.2,154.4 92.9,151.8 92.5,149 91.6,146.2" fill="black"/><path d="M 104.1,171.4 L 102.1,175.4 97.8,176.9 93.7,174.9 92.2,170.6" fill="black"/><path d="M 109.3,141.2 L 111.7,143.8 114.3,146.2 116.5,148.6 118.5,151 120.2,153.5 121.6,156 122.8,158.6 123.6,161.3 124.2,164.1 124.3,166.9 112.5,165.1 113,163.8 113.4,162.3 113.6,160.5 113.5,158.5 113.3,156.3 112.8,153.8 112,151.2 111,148.3 109.7,145.3 107.9,142.3" fill="black"/><path d="M 124.3,166.9 L 121.9,170.8 117.5,171.9 113.6,169.5 112.5,165.1" fill="black"/><path d="M 149.4,61.7 L 147.2,67.2 144.9,72.8 142.4,78.6 139.7,84.4 136.8,90.3 133.7,96.4 130.4,102.5 126.8,108.8 123,115 118.8,121.4 117.1,120.5 119.6,113.4 122,106.5 124.4,99.8 126.7,93.3 129,87 131,80.9 133,75 134.8,69.2 136.4,63.5 137.9,58.1" fill="black"/><path d="M 137.6,59 L 149.4,61.7 138.4,56.5" fill="black"/><path d="M 149.4,61.7 L 151.6,64.6 145.9,65.9" fill="black"/><path d="M 140,89 L 140,183 128,189 128,89" fill="black"/><path d="M 154.3,62 L 156.4,63.9 158.8,65.4 161,67 162.9,68.5 164.7,70.1 166.4,71.7 167.8,73.4 169.1,75.1 170.3,76.9 171.2,78.8 159.5,81.2 159.7,80.2 159.7,79 159.6,77.6 159.3,76 158.7,74.2 158,72.2 157.1,70.1 156,67.9 154.8,65.4 153,63.3" fill="black"/><path d="M 171.2,78.8 L 170.3,83.3 166.5,85.9 162.1,85 159.5,81.2" fill="black"/><path d="M 134,89 L 187,89 187,93 134,93" fill="black"/><path d="M 187,89 L 163,91 175,79" fill="black"/><path d="M 165,89 L 165,176 153,176 153,89" fill="black"/><path d="M 134,115 L 186,115 186,119 134,119" fill="black"/><path d="M 186,115 L 166,117 176,106" fill="black"/><path d="M 134,142 L 186,142 186,146 134,146" fill="black"/><path d="M 186,142 L 166,144 176,133" fill="black"/><path d="M 134,172 L 190,172 190,176 134,176" fill="black"/><path d="M 190,172 L 166,174 178,162" fill="black"/></svg>