<svg xmlns="http://www.w3.org/2000/svg" xmlns:xlink="http://www.w3.org/1999/xlink" version="1.1" baseProfile="full" viewBox="0 0 200 200" width="96" height="96"><path d="M 53.4,17.6 L 50.6,25.6 47.5,33.6 44.2,41.4 40.6,49.1 36.7,56.7 32.6,64.2 28.1,71.6 23.4,78.7 18.2,85.7 12.7,92.4 11.2,91.5 15,83.7 18.7,76 22.4,68.4 25.8,60.8 29,53.1 32.1,45.4 34.9,37.7 37.4,29.9 39.8,22.1 41.9,14.2" fill="black"/><path d="M 41.6,15.2 L 53.4,17.6 42.4,12.6" fill="black"/><path d="M 53.4,17.6 L 55.7,20.4 50.1,21.8" fill="black"/><path d="M 49.3,26.7 L 53.1,28.4 56.8,30 60.3,31.8 63.6,33.8 66.6,35.9 69.4,38.2 72,40.6 74.3,43.2 76.4,45.9 78.2,48.8 67.3,53.6 66.5,51.3 65.6,48.9 64.4,46.4 62.9,43.9 61.1,41.4 59.1,38.8 56.9,36.2 54.3,33.5 51.6,30.8 48.4,28.2" fill="black"/><path d="M 78.2,48.8 L 78.3,53.4 75.2,56.7 70.6,56.7 67.3,53.6" fill="black"/><path d="M 30,69 L 73,69 73,73 30,73" fill="black"/><path d="M 73,69 L 53,71 63,60" fill="black"/><path d="M 17,101 L 78,101 78,105 17,105" fill="black"/><path d="M 78,101 L 58,103 68,92" fill="black"/><path d="M 54,69 L 54,166 42,166 42,69" fill="black"/><path d="M 19.3,120.1 L 21.9,122.6 24.5,125 26.9,127.6 29.1,130.4 31.1,133.4 32.8,136.5 34.4,139.8 35.7,143.2 36.8,146.7 37.6,150.4 25.7,151.6 25.7,148.5 25.5,145.4 25.2,142.4 24.7,139.4 24,136.4 23.2,133.4 22.1,130.4 21,127.4 19.7,124.2 17.9,121.3" fill="black"/><path d="M 37.6,150.4 L 36.2,154.7 32.2,156.9 27.9,155.6 25.7,151.6" fill="black"/><path d="M 75.4,121.7 L 74,124.7 72.5,127.7 70.9,130.8 69.2,133.8 67.4,136.8 65.5,139.7 63.5,142.7 61.3,145.6 58.9,148.4 56.7,151.4 55.2,150.5 56.5,147.1 57.4,143.6 58.4,140.2 59.4,136.9 60.3,133.6 61.2,130.4 62,127.3 62.7,124.2 63.4,121.1 63.9,118.1" fill="black"/><path d="M 63.6,119.1 L 75.4,121.7 64.4,116.6" fill="black"/><path d="M 75.4,121.7 L 77.6,124.5 72,125.9" fill="black"/><path d="M 14.4,170.9 L 20.4,169.6 26.5,168.3 32.6,166.9 38.7,165.4 44.9,163.9 51.1,162.3 57.4,160.7 63.7,159.1 70.1,157.5 76.6,156.1 77.3,157.8 71.4,161.1 65.5,164.1 59.5,166.9 53.5,169.5 47.5,171.9 41.5,174.3 35.5,176.5 29.4,178.6 23.4,180.6 17.4,182.5" fill="black"/><path d="M 17.4,182.5 L 14.4,170.9 12.5,171.4" fill="black"/><path d="M 17.4,182.5 L 20.1,184.9 22.5,178.1" fill="black"/><path d="M 84,24 L 131,24 131,28 84,28" fill="black"/><path d="M 131,24 L 115,26 123,17" fill="black"/><path d="M 113,12 L 113,46 101,46 101,10" fill="black"/><path d="M 113,12 L 116,14 111,17" fill="black"/><path d="M 80,42 L 134,42 134,46 80,46" fill="black"/><path d="M 134,42 L 114,44 124,33" fill="black"/><path d="M 84,60 L 131,60 131,64 84,64" fill="black"/><path d="M 131,60 L 115,62 123,53" fill="black"/><path d="M 113,49 L 113,83 101,83 101,47" fill="black"/><path d="M 113,49 L 116,51 111,54" fill="black"/><path d="M 80,79.9 L 84.7,79.4 89.5,78.9 94.6,78.3 99.8,77.8 105.2,77.2 110.7,76.7 116.5,76.1 122.4,75.6 128.5,75.3 134.8,75.1 135.1,76.8 129.2,79 123.4,80.9 117.7,82.6 112.1,84.1 106.7,85.6 101.4,86.9 96.3,88.2 91.4,89.5 86.6,90.6 81.9,91.7" fill="black"/><path d="M 81.9,91.7 L 80,79.9 78,80.2" fill="black"/><path d="M 81.9,91.7 L 84.4,94.3 87.3,87.8" fill="black"/><path d="M 130,34 L 188,34 188,38 130,38" fill="black"/><path d="M 188,34 L 176,36 182,28" fill="black"/><path d="M 174,12 L 174,80 162,80 162,10" fill="black"/><path d="M 174,12 L 177,14 172,17" fill="black"/><path d="M 162,80 L 164.4,83.6 168,86 171.6,83.6 174,80" fill="black"/><path d="M 174,80 L 173.8,82.5 173.4,85 172.6,87.4 171.3,89.7 169.7,91.7 167.7,93.3 165.4,94.6 163,95.4 160.5,95.8 158,96 158,84 159.2,83.9 160.1,83.7 160.7,83.5 161,83.4 161.2,83.2 161.4,83 161.5,82.7 161.7,82.1 161.9,81.2 162,80" fill="black"/><path d="M 158,90 L 158,84 138,84 138,87" fill="black"/><path d="M 134.3,45.7 L 136.9,47 139.7,47.9 142.3,49 144.7,50.2 147,51.5 149,52.9 150.9,54.5 152.7,56.2 154.2,58 155.6,60.1 144.3,64.2 144.2,63 144,61.6 143.5,60.1 142.8,58.5 141.9,56.7 140.7,54.9 139.3,53 137.6,51 135.7,48.9 133.4,47.2" fill="black"/><path d="M 155.6,60.1 L 155.3,64.6 152,67.8 147.4,67.5 144.3,64.2" fill="black"/><path d="M 140,138 L 140,181 128,187 128,136" fill="black"/><path d="M 140,138 L 143,140 138,143" fill="black"/><path d="M 102,148 L 102,176 90,182 90,142" fill="black"/><path d="M 96,148 L 171,148 171,152 96,152" fill="black"/><path d="M 177,150 L 177,167 165,167 165,150" fill="black"/><path d="M 165,148 L 171,143 182,152 177,156 165,150" fill="black"/><path d="M 165,167 L 167.4,170.6 171,173 174.6,170.6 177,167" fill="black"/><path d="M 177,167 L 176.8,169.5 176.4,172 175.6,174.4 174.3,176.7 172.7,178.7 170.7,180.3 168.4,181.6 166,182.4 163.5,182.8 161,183 161,171 162.2,170.9 163.1,170.7 163.7,170.5 164,170.4 164.2,170.2 164.4,170 164.5,169.7 164.7,169.1 164.9,168.2 165,167" fill="black"/><path d="M 161,177 L 161,171 151,171 151,174" fill="black"/><path d="M 138.2,95.4 L 137.1,95.9 136,96.5 134.7,97.2 133.4,98 131.9,98.8 130.2,99.7 128.5,100.7 126.5,101.8 124.4,102.9 122.6,104.6 121.3,103.3 123,101.5 124,99.4 125,97.4 125.9,95.6 126.7,94 127.4,92.5 127.9,91.2 128.3,90 128.5,89 128.6,88.1" fill="black"/><path d="M 128,88.9 L 138.2,95.4 129,87.5" fill="black"/><path d="M 138.2,95.4 L 139.4,98.8 133.6,98.2" fill="black"/><path d="M 108,102 L 108,133 96,139 96,96" fill="black"/><path d="M 102,102 L 165,102 165,106 102,106" fill="black"/><path d="M 171,104 L 171,133 159,139 159,104" fill="black"/><path d="M 159,102 L 165,97 176,106 171,110 159,104" fill="black"/><path d="M 102,116 L 165,116 165,120 102,120" fill="black"/><path d="M 102,129 L 165,129 165,133 102,133" fill="black"/></svg>