<svg xmlns="http://www.w3.org/2000/svg" xmlns:xlink="http://www.w3.org/1999/xlink" version="1.1" baseProfile="full" viewBox="0 0 200 200" width="96" height="96"><path d="M 56.4,17.6 L 53.6,25.6 50.7,33.3 47.5,40.9 44.1,48.2 40.5,55.2 36.6,62.1 32.6,68.6 28.3,74.9 23.6,80.9 18.7,86.5 17.2,85.4 20.5,78.8 23.7,72.2 26.8,65.5 29.9,58.6 32.8,51.6 35.5,44.5 38.1,37.2 40.6,29.7 42.8,22.1 44.9,14.2" fill="black"/><path d="M 44.6,15.2 L 56.4,17.6 45.4,12.6" fill="black"/><path d="M 56.4,17.6 L 58.7,20.4 53.1,21.8" fill="black"/><path d="M 50.3,23.8 L 55,26.3 59.5,28.7 63.7,31.3 67.5,33.9 71.1,36.5 74.4,39.2 77.4,41.9 80.1,44.7 82.5,47.5 84.7,50.4 74.2,56.3 73.1,53.8 71.7,51.1 69.9,48.3 67.8,45.4 65.5,42.3 62.8,39.2 59.8,35.9 56.6,32.5 53.1,28.9 49.3,25.3" fill="black"/><path d="M 84.7,50.4 L 85.2,54.9 82.4,58.6 77.9,59.1 74.2,56.3" fill="black"/><path d="M 46.3,45 L 48.1,46.6 50.2,47.8 52.2,49.1 54,50.6 55.8,52.1 57.5,53.7 59.1,55.4 60.6,57.2 62,59 63.3,60.9 52.3,65.5 52,63.7 51.6,61.9 51.1,60 50.5,58.2 49.9,56.2 49.1,54.3 48.3,52.3 47.4,50.2 46.5,48.1 45,46.3" fill="black"/><path d="M 63.3,60.9 L 63.3,65.4 60.1,68.7 55.5,68.7 52.3,65.5" fill="black"/><path d="M 33,72 L 71,72 71,76 33,76" fill="black"/><path d="M 77,74 L 77,123 65,129 65,74" fill="black"/><path d="M 65,72 L 71,67 82,76 77,80 65,74" fill="black"/><path d="M 33,95 L 71,95 71,99 33,99" fill="black"/><path d="M 33,119 L 71,119 71,123 33,123" fill="black"/><path d="M 39,72 L 39,172 27,178 27,66" fill="black"/><path d="M 27,166 L 21,172 31,182 39,174" fill="black"/><path d="M 29.8,166.9 L 33.2,165.1 36.7,163.4 40.3,161.7 43.9,160 47.6,158.2 51.4,156.5 55.3,154.9 59.3,153.3 63.4,151.8 67.5,150.2 68.4,151.7 65,154.5 61.7,157.4 58.4,160 55,162.6 51.8,165.2 48.5,167.6 45.4,170 42.2,172.4 39.2,174.7 36.1,177" fill="black"/><path d="M 53.3,130.9 L 57,133.1 60.5,135.5 63.9,138.2 67,141.2 70,144.4 72.7,147.7 75.2,151.3 77.6,155.1 79.7,159 81.6,163.1 70.3,167.1 69.2,163.3 68,159.6 66.6,156 65.1,152.4 63.3,148.9 61.4,145.5 59.4,142.2 57.1,138.9 54.8,135.5 52.1,132.3" fill="black"/><path d="M 81.6,163.1 L 81.3,167.7 77.9,170.8 73.4,170.5 70.3,167.1" fill="black"/><path d="M 94,123 L 165,123 165,127 94,127" fill="black"/><path d="M 170.9,125.1 L 170.7,133 170.4,140.2 170.1,146.8 169.6,152.6 169.1,157.8 168.5,162.4 167.9,166.3 167.1,169.7 166.1,172.6 164.6,175.3 154.9,168.3 155,168 155.5,166.5 156.1,164 156.7,160.6 157.2,156.5 157.7,151.6 158.1,146 158.4,139.7 158.7,132.6 159,124.8" fill="black"/><path d="M 159,123 L 165,118 176,127 171,130 159,135" fill="black"/><path d="M 164.6,175.3 L 163.1,177.2 161.5,179 159.7,180.6 157.7,182 155.6,183.3 153.5,184.2 151.2,185 148.8,185.5 146.4,185.8 144,186 144,174 145.4,173.9 146.7,173.7 148,173.4 149.1,173.1 150.2,172.6 151.2,172 152.1,171.3 153.1,170.5 154,169.5 154.9,168.3" fill="black"/><path d="M 144,180 L 144,174 124,174 124,177" fill="black"/><path d="M 136.9,97 L 135.9,112.9 134,127.3 131,140.4 127,152 121.9,162.2 115.8,170.9 108.7,178 100.7,183.4 91.8,187 82.1,188.8 81.8,187.1 90.4,183.5 97.8,178.8 104.3,173.1 109.8,166.3 114.5,158.2 118.3,148.8 121.2,137.9 123.4,125.7 124.6,112 124.9,96.9" fill="black"/><path d="M 124.9,97.9 L 136.9,97 125,94.5" fill="black"/><path d="M 136.9,97 L 139.9,99.1 134.9,102" fill="black"/><path d="M 101.8,25 L 102,29.7 102.4,34.1 102.6,38.2 102.6,42.1 102.4,45.7 102.1,49.1 101.5,52.2 100.8,55.1 99.8,57.8 98.5,60.4 89.1,52.9 90.2,52 91.4,50.7 92.5,48.9 93.7,46.7 94.9,44 96,41 97.1,37.5 98.2,33.7 99.3,29.5 100,24.9" fill="black"/><path d="M 98.5,60.4 L 94.5,62.5 90.1,61.3 87.9,57.3 89.1,52.9" fill="black"/><path d="M 136.8,30.7 L 134.9,32.1 133,33.6 131,35.1 128.9,36.6 126.7,38.2 124.5,39.8 122.1,41.4 119.6,43.1 117,44.6 114.6,46.6 113.3,45.3 115.2,42.9 116.8,40.3 118.3,37.8 119.9,35.4 121.3,33.1 122.8,30.8 124.1,28.7 125.4,26.6 126.6,24.6 127.8,22.7" fill="black"/><path d="M 127.1,23.5 L 136.8,30.7 128.2,22.3" fill="black"/><path d="M 136.8,30.7 L 137.7,34.2 132,33.1" fill="black"/><path d="M 120,15 L 120,31 108,31 108,13" fill="black"/><path d="M 120,15 L 123,17 118,20" fill="black"/><path d="M 108,31 L 110.4,34.6 114,37 117.6,34.6 120,31" fill="black"/><path d="M 120,31 L 119.4,38.8 118.5,46.1 117.1,52.8 115.2,59 112.9,64.5 110.1,69.5 106.8,73.8 103.1,77.3 98.9,80 94.4,81.7 93.5,80.2 96.6,77 99.2,73.6 101.5,69.9 103.4,65.9 105,61.4 106.3,56.4 107.2,50.9 107.8,44.8 108.1,38.2 108,31" fill="black"/><path d="M 113.3,50.9 L 115.9,52.8 118.6,54.3 121.2,55.9 123.5,57.6 125.7,59.3 127.7,61.1 129.6,63 131.4,64.9 132.9,66.8 134.3,68.9 123.3,73.5 123,71.8 122.5,70 121.8,68.1 121,66.1 120,64 118.8,61.8 117.4,59.5 115.9,57.1 114.3,54.6 112.1,52.3" fill="black"/><path d="M 134.3,68.9 L 134.3,73.4 131.1,76.7 126.5,76.7 123.3,73.5" fill="black"/><path d="M 144.9,21 L 145.3,25.8 145.8,30.4 146.1,34.7 146.2,38.7 146,42.5 145.6,45.9 145,49.2 144.1,52.2 143,55.1 141.4,57.7 132.5,49.7 133.6,48.9 134.8,47.6 136,45.8 137.3,43.6 138.4,40.8 139.5,37.7 140.5,34.1 141.5,30.1 142.5,25.7 143.1,21" fill="black"/><path d="M 141.4,57.7 L 137.3,59.7 132.9,58.2 131,54 132.5,49.7" fill="black"/><path d="M 181.5,29.9 L 179.3,31.5 177.1,33.1 174.9,34.7 172.5,36.4 170.2,38 167.8,39.7 165.3,41.4 162.7,43.1 160,44.7 157.6,46.6 156.3,45.3 158.2,42.9 159.8,40.2 161.5,37.6 163.2,35.1 164.9,32.7 166.5,30.4 168.2,28 169.8,25.8 171.4,23.6 173,21.4" fill="black"/><path d="M 172.3,22.1 L 181.5,29.9 173.3,21.1" fill="black"/><path d="M 181.5,29.9 L 182.2,33.4 176.5,32" fill="black"/><path d="M 163,15 L 163,31 151,31 151,13" fill="black"/><path d="M 163,15 L 166,17 161,20" fill="black"/><path d="M 151,31 L 153.4,34.6 157,37 160.6,34.6 163,31" fill="black"/><path d="M 163,31 L 162.4,38.8 161.4,46.1 160,52.8 158,59 155.6,64.6 152.7,69.5 149.3,73.8 145.4,77.3 141.1,80 136.4,81.7 135.5,80.2 138.8,76.9 141.6,73.5 144,69.8 146.1,65.8 147.8,61.3 149.1,56.3 150.1,50.8 150.8,44.8 151.1,38.1 151,31" fill="black"/><path d="M 155.3,50.9 L 158.4,52.9 161.5,54.7 164.4,56.7 167.1,58.8 169.6,61.1 172,63.4 174.2,65.9 176.1,68.5 177.9,71.2 179.5,74 168.3,78.2 167.7,75.8 167,73.4 166,70.9 164.9,68.3 163.6,65.8 162.1,63.1 160.5,60.5 158.6,57.7 156.6,54.9 154.2,52.3" fill="black"/><path d="M 179.5,74 L 179.3,78.6 176,81.8 171.4,81.5 168.3,78.2" fill="black"/><path d="M 91.9,74.9 L 92.8,81.5 93.5,87.6 93.8,93.3 93.9,98.5 93.7,103.3 93.3,107.7 92.6,111.7 91.6,115.4 90.3,118.7 88.4,121.8 79.5,113.7 80.7,112.7 82,111 83.3,108.7 84.5,105.6 85.7,102 86.7,97.7 87.7,92.9 88.5,87.5 89.4,81.5 90.1,75" fill="black"/><path d="M 88.4,121.8 L 84.3,123.7 79.9,122.2 78,118 79.5,113.7" fill="black"/><path d="M 92,86 L 182,86 182,90 92,90" fill="black"/><path d="M 187.5,90.3 L 186.1,92.6 184.6,95.1 183,97.7 181.3,100.3 179.5,103.1 177.5,105.9 175.5,108.9 173.3,111.9 171,115 168.8,118.4 167.1,117.5 168.5,113.8 169.5,110 170.5,106.5 171.5,103.1 172.4,99.8 173.4,96.7 174.2,93.7 175,90.9 175.8,88.2 176.4,85.6" fill="black"/><path d="M 176,86 L 182,81 193,90 188,93 176,98" fill="black"/></svg>