<svg xmlns="http://www.w3.org/2000/svg" xmlns:xlink="http://www.w3.org/1999/xlink" version="1.1" baseProfile="full" viewBox="0 0 200 200" width="96" height="96"><path d="M 59.3,17.8 L 56.1,26.2 52.6,34.4 48.7,42.5 44.6,50.3 40.1,58 35.3,65.4 30.2,72.6 24.8,79.6 18.9,86.2 12.6,92.5 11.3,91.4 15.9,83.9 20.4,76.5 24.7,69 28.8,61.5 32.7,53.9 36.2,46.2 39.6,38.3 42.6,30.4 45.4,22.3 47.9,14" fill="black"/><path d="M 47.6,15 L 59.3,17.8 48.4,12.5" fill="black"/><path d="M 59.3,17.8 L 61.6,20.6 55.9,21.9" fill="black"/><path d="M 54.3,26.6 L 58.5,28.3 62.6,29.8 66.4,31.6 70,33.6 73.4,35.7 76.5,37.9 79.4,40.3 82.1,42.9 84.5,45.6 86.7,48.4 76.2,54.3 75.2,51.8 73.8,49.3 72.2,46.8 70.4,44.2 68.2,41.6 65.8,39 63.1,36.4 60.2,33.7 57,30.8 53.4,28.2" fill="black"/><path d="M 86.7,48.4 L 87.2,52.9 84.4,56.6 79.9,57.1 76.2,54.3" fill="black"/><path d="M 33,69 L 82,69 82,73 33,73" fill="black"/><path d="M 82,69 L 62,71 72,60" fill="black"/><path d="M 18,101 L 87,101 87,105 18,105" fill="black"/><path d="M 87,101 L 63,103 75,91" fill="black"/><path d="M 59,69 L 59,166 47,166 47,69" fill="black"/><path d="M 20.3,120 L 23.3,122.4 26.2,124.8 28.9,127.4 31.3,130.2 33.5,133.2 35.5,136.3 37.1,139.6 38.6,143.1 39.7,146.6 40.6,150.4 28.7,151.6 28.7,148.6 28.4,145.6 28,142.6 27.4,139.6 26.6,136.6 25.5,133.6 24.3,130.6 22.8,127.5 21.1,124.3 19,121.3" fill="black"/><path d="M 40.6,150.4 L 39.2,154.7 35.2,156.9 30.9,155.6 28.7,151.6" fill="black"/><path d="M 83.2,122 L 81.7,125 80,127.9 78.3,130.9 76.5,133.9 74.6,136.8 72.7,139.8 70.6,142.7 68.4,145.6 66,148.4 63.7,151.4 62.2,150.5 63.5,147.1 64.5,143.6 65.5,140.2 66.6,136.8 67.6,133.5 68.6,130.3 69.5,127.1 70.4,124 71.2,120.8 72,117.8" fill="black"/><path d="M 71.6,118.7 L 83.2,122 72.5,116.4" fill="black"/><path d="M 83.2,122 L 85.3,124.9 79.6,126" fill="black"/><path d="M 15.6,170.9 L 22.4,169.6 29.2,168.2 36,166.8 42.9,165.4 49.8,163.8 56.6,162.2 63.6,160.6 70.5,159 77.5,157.5 84.7,156.1 85.2,157.8 78.8,161.1 72.2,164.1 65.5,166.9 58.8,169.5 52.1,172 45.4,174.3 38.6,176.5 31.9,178.6 25.1,180.7 18.3,182.6" fill="black"/><path d="M 18.3,182.6 L 15.6,170.9 13.6,171.3" fill="black"/><path d="M 18.3,182.6 L 20.9,185.1 23.4,178.3" fill="black"/><path d="M 85,35 L 187,35 187,39 85,39" fill="black"/><path d="M 187,35 L 163,37 175,25" fill="black"/><path d="M 143.7,37 L 142.5,39.2 140.7,42.5 138.9,45.8 137.1,49 135.2,52.2 133.3,55.3 131.3,58.4 129.3,61.5 127.1,64.5 124.9,67.4 122.8,70.4 121.1,69.5 122.2,66.1 123.1,62.5 124.1,59 125.1,55.5 126.1,52.1 127.2,48.6 128.2,45.1 129.3,41.6 130.4,38.2 130.7,37" fill="black"/><path d="M 104,68 L 104,183 92,189 92,62" fill="black"/><path d="M 98,68 L 172,68 172,72 98,72" fill="black"/><path d="M 178,70 L 178,173 166,173 166,70" fill="black"/><path d="M 166,68 L 172,63 183,72 178,76 166,70" fill="black"/><path d="M 166,173 L 168.4,176.6 172,179 175.6,176.6 178,173" fill="black"/><path d="M 178,173 L 177.8,175.5 177.4,178 176.6,180.4 175.3,182.7 173.7,184.7 171.7,186.3 169.4,187.6 167,188.4 164.5,188.8 162,189 162,177 163.2,176.9 164.1,176.7 164.7,176.5 165,176.4 165.2,176.2 165.4,176 165.5,175.7 165.7,175.1 165.9,174.2 166,173" fill="black"/><path d="M 162,183 L 162,177 148,177 148,180" fill="black"/><path d="M 128,68 L 128,174 116,180 116,68" fill="black"/><path d="M 153,68 L 153,174 141,180 141,68" fill="black"/></svg>