<svg xmlns="http://www.w3.org/2000/svg" xmlns:xlink="http://www.w3.org/1999/xlink" version="1.1" baseProfile="full" viewBox="0 0 200 200" width="96" height="96"><path d="M 31,28 L 31,83 19,89 19,22" fill="black"/><path d="M 25,28 L 74,28 74,32 25,32" fill="black"/><path d="M 80,30 L 80,86 68,92 68,30" fill="black"/><path d="M 68,28 L 74,23 85,32 80,36 68,30" fill="black"/><path d="M 25,76 L 74,76 74,80 25,80" fill="black"/><path d="M 56,76 L 56,164 44,164 44,76" fill="black"/><path d="M 50,117 L 84,117 84,121 50,121" fill="black"/><path d="M 84,117 L 68,119 76,110" fill="black"/><path d="M 31,103 L 31,168 19,174 19,101" fill="black"/><path d="M 31,103 L 34,105 29,108" fill="black"/><path d="M 13.3,168.9 L 20.3,167.2 27.4,165.4 34.5,163.6 41.6,161.6 48.8,159.6 56,157.5 63.3,155.4 70.6,153.2 78.1,151.1 85.6,149.1 86.3,150.8 79.5,154.7 72.6,158.2 65.6,161.6 58.6,164.7 51.6,167.6 44.6,170.5 37.6,173.1 30.5,175.7 23.5,178.1 16.5,180.5" fill="black"/><path d="M 16.5,180.5 L 13.3,168.9 11.4,169.4" fill="black"/><path d="M 16.5,180.5 L 19.2,182.8 21.5,176" fill="black"/><path d="M 128.3,10.8 L 130.2,12 132.4,12.8 134.5,13.8 136.5,15 138.4,16.3 140.2,17.8 141.9,19.4 143.5,21.1 145,22.9 146.3,24.9 135.3,29.5 135,27.8 134.6,26.1 134.1,24.4 133.6,22.7 132.8,21 132,19.2 131.1,17.4 130,15.6 128.9,13.7 127.3,12.3" fill="black"/><path d="M 146.3,24.9 L 146.3,29.4 143.1,32.7 138.5,32.7 135.3,29.5" fill="black"/><path d="M 99.9,27 L 100.2,31.4 100.7,35.5 101,39.4 101.1,42.9 101,46.2 100.6,49.2 100.1,52 99.1,54.6 97.7,57.1 95.8,59.3 89.1,49.3 89.6,49.4 90.5,49 91.5,48 92.6,46.5 93.7,44.4 94.7,41.8 95.7,38.8 96.7,35.3 97.6,31.3 98.1,27" fill="black"/><path d="M 95.8,59.3 L 91.3,60.1 87.5,57.6 86.6,53.1 89.1,49.3" fill="black"/><path d="M 99,34 L 179,34 179,38 99,38" fill="black"/><path d="M 185,36 L 184.4,37.6 183.7,39.2 182.9,40.8 181.9,42.5 180.9,44.3 179.7,46.2 178.3,48.2 176.8,50.4 175.1,52.7 173.8,55.3 172.1,54.6 173.1,51.8 173.4,49 173.7,46.5 173.9,44.2 174,42.1 174,40.3 173.9,38.7 173.7,37.4 173.4,36.5 173,36" fill="black"/><path d="M 173,34 L 179,29 190,38 185,41 173,46" fill="black"/><path d="M 106.9,48.9 L 107.4,53 108.1,56.8 108.5,60.4 108.7,63.8 108.7,67 108.4,70 107.9,72.8 107,75.5 105.8,78.1 104.2,80.4 96.2,71.5 97.1,71.1 98.1,70.4 99.2,69.2 100.3,67.5 101.4,65.4 102.3,62.9 103.2,60 104.1,56.7 104.9,53 105.1,49" fill="black"/><path d="M 104.2,80.4 L 99.8,81.9 95.7,79.9 94.3,75.6 96.2,71.5" fill="black"/><path d="M 127,49 L 127,70 115,70 115,47" fill="black"/><path d="M 127,49 L 130,51 125,54" fill="black"/><path d="M 115,70 L 117.4,73.6 121,76 124.6,73.6 127,70" fill="black"/><path d="M 127,70 L 126.9,71.2 126.9,72.2 127,72.9 127,73.4 127.2,73.7 127.4,74.1 127.8,74.5 128.5,74.9 129.6,75.2 131,75.5 131,84.5 128.5,84.5 126.2,84.2 123.9,83.6 121.7,82.6 119.7,81.2 118.1,79.3 116.7,77.2 115.8,74.9 115.2,72.5 115,70" fill="black"/><path d="M 131,75.5 L 134.1,76.8 135.5,80 134.1,83.1 131,84.5" fill="black"/><path d="M 131,75.5 L 159,75.5 159,84.5 131,84.5" fill="black"/><path d="M 159,75.5 L 161.7,77.3 163.5,80 161.7,82.7 159,84.5" fill="black"/><path d="M 159,75.5 L 161,62.5 159,62.5 154.5,75.5" fill="black"/><path d="M 131.3,44.7 L 133.2,45.7 135.4,46.4 137.4,47.2 139.4,48.3 141.3,49.5 143.1,50.9 144.8,52.4 146.4,54.1 147.9,55.9 149.3,57.9 138.3,62.5 138,60.8 137.6,59.2 137.2,57.5 136.6,55.9 135.9,54.3 135.1,52.6 134.2,50.9 133.1,49.2 132,47.5 130.3,46.2" fill="black"/><path d="M 149.3,57.9 L 149.3,62.4 146.1,65.7 141.5,65.7 138.3,62.5" fill="black"/><path d="M 161.3,49 L 163.5,50.7 166,52.2 168.2,54 170.3,55.9 172.2,58 174,60.3 175.6,62.8 177,65.3 178.2,68.1 179.3,70.9 167.5,73.1 167.4,70.8 167.2,68.5 166.9,66.3 166.4,64 165.8,61.7 165,59.4 164.1,57.1 163,54.8 161.8,52.4 160.1,50.3" fill="black"/><path d="M 179.3,70.9 L 178.3,75.4 174.5,77.9 170,76.9 167.5,73.1" fill="black"/><path d="M 111.5,94 L 111.5,127 100.5,127 100.5,88.5" fill="black"/><path d="M 106,94 L 167,94 167,98 106,98" fill="black"/><path d="M 172.5,96 L 172.5,127 161.5,127 161.5,96" fill="black"/><path d="M 161.5,94 L 167,89 177.5,98 172.5,101.5 161.5,96" fill="black"/><path d="M 132,94 L 132,127 122,127 122,94" fill="black"/><path d="M 152,94 L 152,127 142,127 142,94" fill="black"/><path d="M 89,123 L 186,123 186,127 89,127" fill="black"/><path d="M 186,123 L 174,125 180,117" fill="black"/><path d="M 91,138 L 183,138 183,142 91,142" fill="black"/><path d="M 183,138 L 159,140 171,128" fill="black"/><path d="M 144,138 L 144,172 132,172 132,138" fill="black"/><path d="M 132,172 L 134.4,175.6 138,178 141.6,175.6 144,172" fill="black"/><path d="M 144,172 L 143.8,174.5 143.4,177 142.6,179.4 141.3,181.7 139.7,183.7 137.7,185.3 135.4,186.6 133,187.4 130.5,187.8 128,188 128,176 129.2,175.9 130.1,175.7 130.7,175.5 131,175.4 131.2,175.2 131.4,175 131.5,174.7 131.7,174.1 131.9,173.2 132,172" fill="black"/><path d="M 128,182 L 128,176 108,176 108,179" fill="black"/></svg>