<svg xmlns="http://www.w3.org/2000/svg" xmlns:xlink="http://www.w3.org/1999/xlink" version="1.1" baseProfile="full" viewBox="0 0 200 200" width="96" height="96"><path d="M 155.1,25.9 L 144,29.5 132.5,32.9 120.6,36.1 108.2,39 95.4,41.7 82.2,44.1 68.6,46.3 54.5,48.2 40,49.7 25.1,50.8 24.8,49.1 39.4,46 53.6,42.9 67.4,39.9 80.7,36.7 93.5,33.4 105.9,30 117.8,26.4 129.3,22.6 140.4,18.7 150.9,14.7" fill="black"/><path d="M 150,15 L 155.1,25.9 160.3,24" fill="black"/><path d="M 160.3,24 L 160.5,27.1 153.9,24.2" fill="black"/><path d="M 120.3,43.7 L 124.1,45.3 127.9,46.8 131.6,48.4 135,50.1 138.3,51.9 141.4,53.8 144.3,55.6 147.2,57.6 149.8,59.6 152.3,61.7 143.5,69.8 141.9,67.6 140.1,65.3 138.1,62.9 135.9,60.6 133.5,58.1 131,55.7 128.4,53.1 125.5,50.5 122.6,47.8 119.4,45.2" fill="black"/><path d="M 152.3,61.7 L 153.9,66 152,70.2 147.7,71.7 143.5,69.8" fill="black"/><path d="M 18,81 L 182,81 182,85 18,85" fill="black"/><path d="M 182,81 L 158,83 170,71" fill="black"/><path d="M 106,45 L 106,183 94,189 94,43" fill="black"/><path d="M 106,45 L 109,47 104,50" fill="black"/><path d="M 102.6,83 L 101.4,85.4 95.5,96.9 88.9,107.7 81.7,117.9 73.9,127.4 65.5,136.1 56.5,144.2 46.9,151.6 36.6,158.1 25.8,163.9 14.3,168.8 13.6,167.1 23.9,160.6 33.7,153.7 42.8,146.4 51.4,138.6 59.4,130.3 66.8,121.4 73.6,112 79.8,102.1 85.4,91.6 89.3,83" fill="black"/><path d="M 106.2,83.5 L 112.7,93.3 119.3,102.6 126.1,111.3 133.1,119.3 140.4,126.7 148,133.4 156,139.5 164.2,144.9 172.8,149.8 181.7,154 176.2,165.9 166.7,160.7 157.7,154.8 149.2,148.2 141.2,141 133.7,133.2 126.7,124.7 120.3,115.6 114.3,105.8 109.1,95.4 104.6,84.2" fill="black"/><path d="M 176.2,165.9 L 181.7,154 187.5,156.7" fill="black"/></svg>