<svg xmlns="http://www.w3.org/2000/svg" xmlns:xlink="http://www.w3.org/1999/xlink" version="1.1" baseProfile="full" viewBox="0 0 200 200" width="96" height="96"><path d="M 22,23 L 178,23 178,27 22,27" fill="black"/><path d="M 178,23 L 154,25 166,13" fill="black"/><path d="M 117.4,32.9 L 109.7,39.7 101.3,46.3 92.5,52.8 83,59.1 73.1,65.2 62.5,71.2 51.4,76.9 39.6,82.5 27.3,87.8 14.3,92.8 13.6,91.1 25.6,84.4 37.2,77.8 48.2,71.2 58.6,64.6 68.5,58 77.8,51.4 86.5,44.7 94.6,38 102.1,31.2 109.1,24.3" fill="black"/><path d="M 108.3,25 L 117.4,32.9 109.3,24.1" fill="black"/><path d="M 117.4,32.9 L 118.1,36.5 112.4,35" fill="black"/><path d="M 106,50 L 106,76 94,82 94,48" fill="black"/><path d="M 106,50 L 109,52 104,55" fill="black"/><path d="M 118.2,52.4 L 126.7,54.5 134.7,56.8 142.1,59.3 149,62 155.4,64.8 161.4,67.7 166.8,70.7 171.8,73.9 176.2,77.2 180.2,80.6 171.5,88.9 168.6,85.7 165.2,82.4 161.1,79 156.6,75.6 151.4,72.2 145.7,68.8 139.4,65.3 132.7,61.7 125.4,58 117.6,54.1" fill="black"/><path d="M 180.2,80.6 L 181.8,84.9 180,89.1 175.7,90.7 171.5,88.9" fill="black"/><path d="M 94.5,87.9 L 89.3,92.3 83.7,96.5 77.8,100.4 71.4,104.1 64.6,107.6 57.3,110.8 49.7,113.8 41.7,116.5 33.2,118.9 24.2,120.8 23.7,119.1 31.9,115.3 39.7,111.5 47.1,107.8 54,104 60.5,100.2 66.5,96.2 72.1,92.1 77.2,88 81.8,83.8 86,79.4" fill="black"/><path d="M 85.3,80.1 L 94.5,87.9 86.3,79.1" fill="black"/><path d="M 94.5,87.9 L 95.2,91.4 89.5,90" fill="black"/><path d="M 80,91 L 140,91 140,95 80,95" fill="black"/><path d="M 144.1,97.3 L 134.6,105.3 124.4,112.6 113.4,119.3 101.8,125.4 89.4,130.8 76.4,135.6 62.6,139.8 48.1,143.2 33,145.9 17.1,147.8 16.8,146.1 32.2,142.2 46.8,138 60.6,133.5 73.7,128.5 86,123.1 97.5,117.1 108.2,110.7 118.2,103.8 127.4,96.5 135.8,88.6" fill="black"/><path d="M 134,91 L 140,86 151,95 146,98 134,103" fill="black"/><path d="M 63.1,104.3 L 66.7,104.7 70.3,104.9 73.7,105.4 76.9,106 79.9,106.8 82.8,107.8 85.5,109 88.1,110.4 90.5,112 92.7,113.8 83.4,121.4 82.6,119.9 81.5,118.3 80.1,116.7 78.5,115.1 76.5,113.5 74.3,112 71.9,110.4 69.1,108.8 66.1,107.2 62.7,106" fill="black"/><path d="M 92.7,113.8 L 94,118.2 91.8,122.3 87.5,123.5 83.4,121.4" fill="black"/><path d="M 128.4,125 L 122.5,129.8 116.1,134.3 109.2,138.5 101.8,142.5 93.9,146.2 85.4,149.6 76.4,152.7 66.9,155.5 56.8,157.9 46.2,159.8 45.7,158.1 55.7,154.2 65.2,150.4 74.1,146.6 82.4,142.6 90.2,138.6 97.3,134.4 103.9,130.1 109.9,125.6 115.3,121 120.1,116.3" fill="black"/><path d="M 119.3,117 L 128.4,125 120.3,116.1" fill="black"/><path d="M 128.4,125 L 129,128.5 123.4,127" fill="black"/><path d="M 111,129 L 173,129 173,133 111,133" fill="black"/><path d="M 177.4,134.9 L 167.7,144.2 156.7,152.5 144.4,159.7 131,166.1 116.4,171.5 100.5,175.9 83.4,179.4 65.2,181.9 45.7,183.4 25,183.8 24.9,182.1 45.3,179.6 64.4,176.6 82.1,172.9 98.5,168.6 113.5,163.4 127.2,157.6 139.5,151 150.5,143.7 160.1,135.7 168.5,127" fill="black"/><path d="M 167,129 L 173,124 184,133 179,136 167,141" fill="black"/><path d="M 95.2,141.4 L 99,142.2 102.8,142.7 106.4,143.4 109.8,144.3 113,145.4 116,146.5 118.9,147.8 121.5,149.3 124,150.9 126.4,152.7 117.5,160.8 116.4,159.1 115.1,157.4 113.4,155.6 111.5,153.9 109.4,152.1 107,150.3 104.3,148.5 101.3,146.6 98.2,144.7 94.6,143.1" fill="black"/><path d="M 126.4,152.7 L 127.9,157 126,161.2 121.6,162.7 117.5,160.8" fill="black"/></svg>