<svg xmlns="http://www.w3.org/2000/svg" xmlns:xlink="http://www.w3.org/1999/xlink" version="1.1" baseProfile="full" viewBox="0 0 200 200" width="96" height="96"><path d="M 88.7,108.9 L 86,120.5 82.1,131.4 77,141.5 70.9,150.9 63.6,159.5 55.2,167.3 45.8,174.2 35.3,180.3 23.8,185.5 11.3,189.8 10.6,188.1 22.2,182.1 32.6,175.7 41.9,168.9 50.1,161.6 57.2,153.9 63.2,145.6 68.2,136.8 72.1,127.5 75,117.5 76.9,107" fill="black"/><path d="M 76.7,108 L 88.7,108.9 77.2,105" fill="black"/><path d="M 88.7,108.9 L 91.4,111.3 86,113.5" fill="black"/><path d="M 112.1,104.7 L 116.3,115.5 121.1,125.6 126.4,134.9 132.4,143.5 139.1,151.4 146.5,158.6 154.6,165.2 163.4,171 173.1,176.3 183.5,180.9 178.4,193 167.2,187.3 157,180.9 147.7,173.8 139.4,166 132,157.5 125.5,148.3 120.1,138.4 115.7,127.9 112.4,116.8 110.3,105.1" fill="black"/><path d="M 178.4,193 L 183.5,180.9 189.8,183.6" fill="black"/><path d="M 14,55 L 186,55 186,59 14,59" fill="black"/><path d="M 186,55 L 162,57 174,45" fill="black"/><path d="M 106,15 L 106,97 94,103 94,13" fill="black"/><path d="M 106,15 L 109,17 104,20" fill="black"/></svg>