<svg xmlns="http://www.w3.org/2000/svg" xmlns:xlink="http://www.w3.org/1999/xlink" version="1.1" baseProfile="full" viewBox="0 0 200 200" width="96" height="96"><path d="M 46,48 L 111,48 111,52 46,52" fill="black"/><path d="M 111,48 L 91,50 101,39" fill="black"/><path d="M 34,32 L 182,32 182,36 34,36" fill="black"/><path d="M 182,32 L 158,34 170,22" fill="black"/><path d="M 40,32 L 40,64 28,64 28,26" fill="black"/><path d="M 28,64 L 30.4,67.6 34,70 37.6,67.6 40,64" fill="black"/><path d="M 40,64 L 39.4,70.8 38.4,77.3 36.9,83.5 34.8,89.4 32.3,94.9 29.4,100 25.9,104.7 21.9,108.9 17.5,112.6 12.5,115.6 11.4,114.3 14.8,109.8 17.8,105.4 20.5,100.9 22.7,96.3 24.6,91.5 26,86.5 27.1,81.3 27.8,75.8 28.1,70 28,64" fill="black"/><path d="M 129,14 L 129.4,26.9 130.7,39.4 133,51.3 136.3,62.3 140.7,72.5 146.2,81.5 152.9,89.4 160.9,96 170.4,101.3 181.4,105.1 178.5,116.8 165.5,112.3 154.1,105.9 144.5,97.9 136.4,88.5 130,77.9 125,66.4 121.3,54.1 118.8,41.1 117.4,27.7 117,14" fill="black"/><path d="M 117,15 L 129,14 117,11.6" fill="black"/><path d="M 129,14 L 132,16 127,19" fill="black"/><path d="M 181.4,105.1 L 185.1,107.9 185.8,112.4 183,116.1 178.5,116.8" fill="black"/><path d="M 180,106 L 182,80 180,80 174,106" fill="black"/><path d="M 169.3,52.8 L 165.5,62 160.7,70.6 155.1,78.6 148.6,85.9 141.2,92.6 133,98.6 124,104 114.3,108.7 103.6,112.6 92.2,115.8 91.7,114.1 102.2,109.1 111.9,103.9 120.6,98.4 128.5,92.5 135.5,86.3 141.7,79.6 147,72.6 151.4,65.2 155.1,57.3 157.9,49" fill="black"/><path d="M 157.6,50 L 169.3,52.8 158.4,47.5" fill="black"/><path d="M 169.3,52.8 L 171.6,55.6 165.9,56.9" fill="black"/><path d="M 137.2,15.4 L 139.6,16 142.1,16.1 144.5,16.4 146.9,16.8 149.1,17.3 151.3,17.9 153.3,18.7 155.3,19.5 157.2,20.5 159.1,21.6 150.6,30.1 149.9,28.9 149.1,27.6 148.2,26.3 147,25 145.7,23.7 144.2,22.3 142.6,20.9 140.8,19.5 138.9,18 136.6,17.1" fill="black"/><path d="M 159.1,21.6 L 160.8,25.8 159.1,30.1 154.8,31.8 150.6,30.1" fill="black"/><path d="M 44,67 L 99,67 99,71 44,71" fill="black"/><path d="M 104.7,70.7 L 101.7,77.6 97.8,83.9 93.1,89.6 87.5,94.8 81.2,99.4 74.1,103.4 66.2,106.9 57.6,109.9 48.3,112.2 38.2,113.8 37.7,112.1 47.2,108.5 55.8,104.8 63.5,101 70.3,96.9 76.2,92.5 81.3,87.9 85.4,83.1 88.8,78 91.4,72.7 93.2,67.2" fill="black"/><path d="M 93,67 L 99,62 110,71 105,74 93,79" fill="black"/><path d="M 80.7,56.7 L 61.8,91 48.1,91 71.2,49.2" fill="black"/><path d="M 80.7,56.7 L 82.4,59.9 77,60.7" fill="black"/><path d="M 52,89.2 L 58.8,89 65.2,89.1 71.2,89.4 76.9,89.9 82.2,90.5 87.1,91.3 91.7,92.1 96,93 100,94.1 103.6,95.2 98.8,106.2 96,104.7 92.7,103.2 89,101.8 84.9,100.3 80.4,98.8 75.4,97.4 70.1,95.9 64.4,94.4 58.3,92.8 51.8,91" fill="black"/><path d="M 103.6,95.2 L 106.8,98.6 106.7,103.2 103.3,106.3 98.8,106.2" fill="black"/><path d="M 27,141 L 173,141 173,145 27,145" fill="black"/><path d="M 173,141 L 149,143 161,131" fill="black"/><path d="M 106,121 L 106,176 94,176 94,119" fill="black"/><path d="M 106,121 L 109,123 104,126" fill="black"/><path d="M 14,172 L 186,172 186,176 14,176" fill="black"/><path d="M 186,172 L 162,174 174,162" fill="black"/></svg>