<svg xmlns="http://www.w3.org/2000/svg" xmlns:xlink="http://www.w3.org/1999/xlink" version="1.1" baseProfile="full" viewBox="0 0 200 200" width="96" height="96"><path d="M 39,17 L 167,17 167,21 39,21" fill="black"/><path d="M 173,19 L 173,38 161,44 161,19" fill="black"/><path d="M 161,17 L 167,12 178,21 173,25 161,19" fill="black"/><path d="M 39,34 L 167,34 167,38 39,38" fill="black"/><path d="M 45,17 L 45,55 33,55 33,11" fill="black"/><path d="M 33,55 L 35.4,58.6 39,61 42.6,58.6 45,55" fill="black"/><path d="M 45,55 L 44.4,62.4 43.3,69.5 41.6,76.3 39.4,82.7 36.6,88.7 33.2,94.3 29.4,99.4 25,104.1 20,108.2 14.5,111.7 13.4,110.2 17.4,105.4 20.9,100.6 24,95.6 26.7,90.5 28.8,85.2 30.5,79.7 31.8,73.9 32.6,67.9 33,61.6 33,55" fill="black"/><path d="M 120,42 L 120,104 108,104 108,40" fill="black"/><path d="M 120,42 L 123,44 118,47" fill="black"/><path d="M 72,48 L 72,71 60,77 60,46" fill="black"/><path d="M 72,48 L 75,50 70,53" fill="black"/><path d="M 66,67 L 162,67 162,71 66,71" fill="black"/><path d="M 168,48 L 168,71 156,77 156,46" fill="black"/><path d="M 168,48 L 171,50 166,53" fill="black"/><path d="M 65,80 L 65,108 53,114 53,78" fill="black"/><path d="M 65,80 L 68,82 63,85" fill="black"/><path d="M 59,101 L 169,101 169,105 59,105" fill="black"/><path d="M 175,80 L 175,107 163,113 163,78" fill="black"/><path d="M 175,80 L 178,82 173,85" fill="black"/><path d="M 107,110 L 107,128 95,128 95,108" fill="black"/><path d="M 107,110 L 110,112 105,115" fill="black"/><path d="M 18,124 L 186,124 186,128 18,128" fill="black"/><path d="M 186,124 L 162,126 174,114" fill="black"/><path d="M 111.8,126 L 104.6,130.7 98,135 90.9,139.2 83.3,143.3 75.1,147.2 66.2,151 56.8,154.8 46.9,158.3 36.3,161.7 25.1,164.9 13.2,167.8 12.7,166.1 23.8,161.3 34.4,156.7 44.4,152.2 53.9,147.8 62.7,143.4 70.8,138.9 78.4,134.5 85.4,130.1 91.1,126" fill="black"/><path d="M 74,145 L 74,179 62,179 62,145" fill="black"/><path d="M 38.1,177.9 L 47.3,176.8 56.5,175.6 65.7,174.5 74.9,173.2 84.2,172 93.4,170.7 102.7,169.4 112,168.2 121.4,167.1 130.8,166.1 131.1,167.8 122.1,170.8 113.1,173.5 104,175.9 94.9,178.2 85.7,180.3 76.6,182.4 67.4,184.4 58.2,186.2 49,188 39.8,189.7" fill="black"/><path d="M 39.8,189.7 L 38.1,177.9 36.1,178.2" fill="black"/><path d="M 39.8,189.7 L 42.2,192.4 45.3,185.9" fill="black"/><path d="M 168.7,139.4 L 165.5,141.2 162.2,143.1 158.7,145 155.2,146.9 151.4,148.8 147.5,150.6 143.5,152.5 139.3,154.3 134.9,156 130.4,157.7 129.5,156.2 133.3,153.2 136.8,150.1 140.4,147.3 143.8,144.6 147.1,141.9 150.2,139.4 153.3,136.9 156.2,134.4 159,132 161.6,129.7" fill="black"/><path d="M 160.8,130.3 L 168.7,139.4 161.6,129.7" fill="black"/><path d="M 168.7,139.4 L 168.9,143 163.5,140.7" fill="black"/><path d="M 108.2,126.5 L 113.6,133.9 119.2,140.8 125.2,147.1 131.7,152.8 138.6,158 146.1,162.6 154.1,166.6 162.7,170.1 171.8,173.1 181.6,175.5 178.3,188.4 167.9,185 158.2,181 149.1,176.4 140.7,171.2 133,165.4 126,158.9 119.9,151.9 114.5,144.3 110,136.1 106.6,127.2" fill="black"/><path d="M 178.3,188.4 L 181.6,175.5 190.1,177.7" fill="black"/></svg>