<svg xmlns="http://www.w3.org/2000/svg" xmlns:xlink="http://www.w3.org/1999/xlink" version="1.1" baseProfile="full" viewBox="0 0 200 200" width="96" height="96"><path d="M 28,44 L 172,44 172,48 28,48" fill="black"/><path d="M 172,44 L 148,46 160,34" fill="black"/><path d="M 76,15 L 76,82 64,82 64,13" fill="black"/><path d="M 76,15 L 79,17 74,20" fill="black"/><path d="M 136,15 L 136,82 124,82 124,13" fill="black"/><path d="M 136,15 L 139,17 134,20" fill="black"/><path d="M 16,78 L 184,78 184,82 16,82" fill="black"/><path d="M 184,78 L 160,80 172,68" fill="black"/><path d="M 76.8,80 L 75.4,82.5 71.1,90.1 66.5,97.4 61.4,104.4 56,111 50.1,117.3 43.8,123.2 37.1,128.8 30,133.9 22.4,138.6 14.4,142.7 13.5,141.2 20.3,135.5 26.7,129.7 32.8,123.8 38.5,117.8 43.8,111.6 48.7,105.2 53.3,98.6 57.4,91.7 61.2,84.7 63.3,80" fill="black"/><path d="M 129.2,80.3 L 134.2,85.7 139.1,90.9 144,95.9 148.9,100.6 154.1,105 159.3,109.2 164.8,113.1 170.4,116.7 176.2,120.1 182.1,123.2 175.8,134.7 169.6,130.7 163.7,126.4 158,121.8 152.7,117 147.6,111.8 142.9,106.3 138.4,100.6 134.4,94.5 130.8,88.1 127.7,81.3" fill="black"/><path d="M 175.8,134.7 L 182.1,123.2 187,125.8" fill="black"/><path d="M 106,102 L 104.8,115.6 101.7,128.3 96.9,140 90.3,150.5 82,159.9 72,168.1 60.4,175.1 47.2,180.9 32.5,185.5 16.1,188.8 15.8,187.1 31.3,181.9 45.1,176 57.2,169.4 67.4,162 75.9,154 82.7,145.2 87.9,135.7 91.4,125.3 93.5,114.1 94,102" fill="black"/><path d="M 94,103 L 106,102 94,99.6" fill="black"/><path d="M 106,102 L 109,104 104,107" fill="black"/><path d="M 105.8,102 L 107.6,113.9 110.5,124.7 114.6,134.4 120,143.2 126.7,151.1 134.7,158.1 144.2,164.4 155.1,169.9 167.6,174.6 181.6,178.6 178.3,191.3 163.4,186.4 150.1,180.6 138.4,173.8 128.2,166 119.7,157.3 113,147.7 108,137.3 104.8,126.2 103.4,114.4 104,101.9" fill="black"/><path d="M 178.3,191.3 L 181.6,178.6 190,180.8" fill="black"/></svg>