<svg xmlns="http://www.w3.org/2000/svg" xmlns:xlink="http://www.w3.org/1999/xlink" version="1.1" baseProfile="full" viewBox="0 0 200 200" width="96" height="96"><path d="M 30,22 L 30,77 18,83 18,16" fill="black"/><path d="M 24,22 L 61,22 61,26 24,26" fill="black"/><path d="M 67,24 L 67,71 55,77 55,24" fill="black"/><path d="M 55,22 L 61,17 72,26 67,30 55,24" fill="black"/><path d="M 24,61 L 61,61 61,65 24,65" fill="black"/><path d="M 112.9,15.4 L 110.6,19.2 108,23 105.1,26.7 101.8,30.4 98.3,34 94.4,37.5 90.2,41 85.7,44.4 80.8,47.6 75.5,50.7 74.4,49.2 78.4,44.7 82.2,40.4 85.7,36.3 89,32.3 91.9,28.4 94.6,24.6 96.9,20.9 99,17.2 100.7,13.7 102.1,10.3" fill="black"/><path d="M 101.7,11.2 L 112.9,15.4 102.6,9.1" fill="black"/><path d="M 112.9,15.4 L 114.8,18.5 109,19.1" fill="black"/><path d="M 99,24 L 184,24 184,28 99,28" fill="black"/><path d="M 184,24 L 160,26 172,14" fill="black"/><path d="M 130,24 L 130,84 118,90 118,24" fill="black"/><path d="M 124,44 L 178,44 178,48 124,48" fill="black"/><path d="M 178,44 L 158,46 168,35" fill="black"/><path d="M 124,62 L 180,62 180,66 124,66" fill="black"/><path d="M 180,62 L 156,64 168,52" fill="black"/><path d="M 106.6,90.4 L 99.3,94.9 91.5,99.2 83.2,103.3 74.4,107.1 65.1,110.8 55.4,114.2 45.1,117.3 34.3,120.2 23,122.7 11.2,124.8 10.7,123.1 22,119 32.7,115.1 43,111.1 52.7,107.1 61.9,102.9 70.5,98.7 78.6,94.4 86.2,89.9 93.2,85.3 99.7,80.6" fill="black"/><path d="M 98.9,81.2 L 106.6,90.4 106.8,90.3" fill="black"/><path d="M 106.8,90.3 L 107,93.8 101.5,91.5" fill="black"/><path d="M 101.3,86.7 L 108.6,89.9 116,93 123.5,96 131.2,98.8 139.1,101.5 147.2,103.9 155.6,106.1 164.2,108.1 173.1,109.9 182.2,111.5 179.7,124.4 170.3,122.1 161.2,119.6 152.4,116.7 143.9,113.6 135.8,110.2 127.9,106.5 120.4,102.5 113.2,98.2 106.5,93.5 100.3,88.2" fill="black"/><path d="M 179.7,124.4 L 182.2,111.5 191.5,113.3" fill="black"/><path d="M 62,112 L 138,112 138,116 62,116" fill="black"/><path d="M 138,112 L 118,114 128,103" fill="black"/><path d="M 55.1,128.3 L 58.1,128.9 61.1,129 64,129.3 66.6,129.8 69.2,130.4 71.5,131.2 73.8,132.1 76,133.1 78,134.4 79.8,135.9 70.4,143.3 70,142.2 69.3,140.9 68.4,139.6 67.3,138.3 65.8,136.9 64.1,135.5 62.1,134.1 59.9,132.6 57.5,131.1 54.7,130.1" fill="black"/><path d="M 79.8,135.9 L 81,140.3 78.8,144.3 74.4,145.5 70.4,143.3" fill="black"/><path d="M 141.3,134.5 L 139,135.6 136.5,136.6 133.9,137.6 131.2,138.6 128.3,139.7 125.4,140.7 122.3,141.7 119.1,142.7 115.7,143.5 112.4,144.8 111.5,143.1 114.5,141.2 117.2,139 119.8,136.9 122.3,134.9 124.7,133 126.9,131.2 129.1,129.4 131.2,127.7 133.1,126 134.9,124.4" fill="black"/><path d="M 134,125 L 141.3,134.5 142.4,133.9" fill="black"/><path d="M 142.4,133.9 L 142.5,137.3 136.9,135" fill="black"/><path d="M 46,122 L 46,152 34,158 34,116" fill="black"/><path d="M 40,122 L 159,122 159,126 40,126" fill="black"/><path d="M 165,124 L 165,151 153,157 153,124" fill="black"/><path d="M 153,122 L 159,117 170,126 165,130 153,124" fill="black"/><path d="M 106,122 L 106,149 94,149 94,122" fill="black"/><path d="M 40,145 L 159,145 159,149 40,149" fill="black"/><path d="M 60,156 L 60,190 48,196 48,150" fill="black"/><path d="M 54,156 L 145,156 145,160 54,160" fill="black"/><path d="M 151,158 L 151,190 139,196 139,158" fill="black"/><path d="M 139,156 L 145,151 156,160 151,164 139,158" fill="black"/><path d="M 54,171 L 145,171 145,175 54,175" fill="black"/><path d="M 54,186 L 145,186 145,190 54,190" fill="black"/></svg>