<svg xmlns="http://www.w3.org/2000/svg" xmlns:xlink="http://www.w3.org/1999/xlink" version="1.1" baseProfile="full" viewBox="0 0 200 200" width="96" height="96"><path d="M 30,28 L 170,28 170,32 30,32" fill="black"/><path d="M 170,28 L 146,30 158,18" fill="black"/><path d="M 15,49 L 185,49 185,53 15,53" fill="black"/><path d="M 185,49 L 161,51 173,39" fill="black"/><path d="M 106,15 L 106,90 94,96 94,13" fill="black"/><path d="M 106,15 L 109,17 104,20" fill="black"/><path d="M 106.3,51 L 99.8,55.6 93.3,60.2 86.3,64.6 78.9,68.8 71,72.7 62.7,76.3 54,79.7 44.7,82.7 35,85.5 24.8,87.9 14.2,89.8 13.7,88.1 23.8,84.2 33.3,80.4 42.4,76.6 51.1,72.6 59.2,68.6 66.8,64.4 73.9,60.1 80.5,55.7 86.5,51.1 86.6,51" fill="black"/><path d="M 106.3,50.9 L 112.2,54.1 118.3,57.3 124.6,60.4 131.3,63.5 138.3,66.4 145.8,69.1 153.6,71.7 161.8,74.2 170.5,76.4 179.6,78.6 176.3,91.3 167,88.5 158.2,85.4 149.8,82.1 141.9,78.6 134.4,74.8 127.5,70.9 121,66.7 115.1,62.2 109.7,57.4 105.1,52.3" fill="black"/><path d="M 176.3,91.3 L 179.6,78.6 188,80.7" fill="black"/><path d="M 62.2,102.3 L 46.9,173.9 33.9,177.2 51.8,93.9" fill="black"/><path d="M 44,157 L 178,157 178,161 44,161" fill="black"/><path d="M 178,157 L 154,159 166,147" fill="black"/><path d="M 56,101 L 146,101 146,105 56,105" fill="black"/><path d="M 151.9,103.4 L 150.9,115.4 149.7,126.4 148.5,136.3 147.2,145.3 145.7,153.2 144.2,160.2 142.5,166.3 140.7,171.5 138.6,175.8 136.1,179.5 127.1,171.5 128.2,169.9 129.6,166.9 131.1,162.8 132.6,157.4 134,150.9 135.3,143.3 136.6,134.7 137.8,125 138.9,114.3 140,102.5" fill="black"/><path d="M 140,101 L 146,96 157,105 152,108 140,113" fill="black"/><path d="M 136.1,179.5 L 134.4,181.2 132.6,182.8 130.7,184.2 128.7,185.5 126.6,186.6 124.4,187.4 122.1,188.1 119.8,188.6 117.4,188.9 115,189 115,177 116.5,176.9 117.9,176.7 119.2,176.5 120.5,176.1 121.7,175.6 122.8,175 123.9,174.3 125,173.5 126.1,172.6 127.1,171.5" fill="black"/><path d="M 115,183 L 115,177 95,177 95,180" fill="black"/><path d="M 15,129 L 185,129 185,133 15,133" fill="black"/><path d="M 185,129 L 161,131 173,119" fill="black"/><path d="M 81.2,108.4 L 85.2,109.1 89.1,109.6 92.8,110.2 96.2,111 99.5,111.8 102.5,112.7 105.3,113.7 108,114.9 110.4,116.1 112.7,117.5 104.7,126.4 103.6,125 102.3,123.5 100.6,122 98.6,120.4 96.3,118.7 93.7,117.1 90.9,115.3 87.8,113.5 84.4,111.6 80.7,110.1" fill="black"/><path d="M 112.7,117.5 L 114.7,121.6 113.2,126 109,127.9 104.7,126.4" fill="black"/><path d="M 77.2,135.4 L 81.6,136.3 85.9,136.9 89.8,137.7 93.5,138.6 97,139.5 100.2,140.5 103.2,141.6 105.9,142.8 108.4,144.1 110.7,145.5 102.7,154.4 101.6,153 100.2,151.5 98.4,149.9 96.3,148.3 93.8,146.5 91,144.7 87.9,142.9 84.4,141 80.7,138.9 76.6,137.1" fill="black"/><path d="M 110.7,145.5 L 112.7,149.6 111.2,154 107,155.9 102.7,154.4" fill="black"/></svg>