<svg xmlns="http://www.w3.org/2000/svg" xmlns:xlink="http://www.w3.org/1999/xlink" version="1.1" baseProfile="full" viewBox="0 0 200 200" width="96" height="96"><path d="M 96,95 L 162,95 162,99 96,99" fill="black"/><path d="M 162,95 L 138,97 150,85" fill="black"/><path d="M 102,64 L 102,130 90,130 90,62" fill="black"/><path d="M 102,64 L 105,66 100,69" fill="black"/><path d="M 51,126 L 51,180 39,186 39,120" fill="black"/><path d="M 45,126 L 156,126 156,130 45,130" fill="black"/><path d="M 162,128 L 162,177 150,183 150,128" fill="black"/><path d="M 150,126 L 156,121 167,130 162,134 150,128" fill="black"/><path d="M 45,169 L 156,169 156,173 45,173" fill="black"/><path d="M 84.2,11.5 L 87.5,12.6 90.7,13.3 93.8,14.1 96.6,15 99.3,16.1 101.8,17.2 104.1,18.5 106.3,19.9 108.3,21.4 110.1,23.1 100.3,29.9 99.8,28.6 99.1,27.2 98.1,25.6 96.8,24 95.2,22.3 93.4,20.5 91.3,18.7 89,16.8 86.5,14.8 83.5,13.2" fill="black"/><path d="M 110.1,23.1 L 111.1,27.5 108.7,31.4 104.2,32.3 100.3,29.9" fill="black"/><path d="M 35.9,26.9 L 36.4,31 36.9,35 37,38.7 36.8,42.3 36.1,45.8 35.1,49.1 33.6,52.2 31.6,55 29.2,57.6 26.4,59.8 20.8,49.2 22.6,48.6 24.4,47.6 26,46.4 27.6,44.8 29.1,42.9 30.5,40.5 31.7,37.8 32.8,34.6 33.7,31 34.1,27" fill="black"/><path d="M 26.4,59.8 L 21.9,60.2 18.3,57.4 17.9,52.8 20.8,49.2" fill="black"/><path d="M 36,33 L 171,33 171,37 36,37" fill="black"/><path d="M 175.5,38.9 L 173.8,40.1 172.1,41.4 170.1,42.8 168.1,44.3 165.8,45.8 163.5,47.4 160.9,49.1 158.2,50.8 155.3,52.5 152.6,54.6 151.3,53.3 153.6,50.7 155.5,47.9 157.3,45.3 159,42.9 160.6,40.6 162,38.4 163.3,36.4 164.5,34.5 165.5,32.7 166.4,31" fill="black"/><path d="M 165,33 L 171,28 182,37 177,40 165,45" fill="black"/><path d="M 83.8,52.3 L 78.1,56.2 72.1,60 65.8,63.7 59.2,67.3 52.3,70.8 45.1,74.2 37.7,77.4 29.9,80.4 21.8,83.3 13.3,85.8 12.6,84.1 20.2,79.8 27.6,75.6 34.8,71.5 41.6,67.4 48.2,63.4 54.5,59.3 60.4,55.2 66.1,51.1 71.4,47 76.5,42.8" fill="black"/><path d="M 75.7,43.4 L 83.8,52.3 76.5,42.8" fill="black"/><path d="M 83.8,52.3 L 84.1,55.9 78.7,53.8" fill="black"/><path d="M 114.2,45.4 L 121.8,46.9 129,48.8 135.9,51.1 142.5,53.7 148.8,56.5 154.7,59.7 160.3,63 165.6,66.7 170.6,70.5 175.2,74.6 166.5,82.9 162.9,78.9 158.8,75 154.4,71.2 149.7,67.5 144.6,63.9 139.1,60.5 133.2,57.1 127,53.8 120.5,50.5 113.6,47.1" fill="black"/><path d="M 175.2,74.6 L 176.8,78.9 175,83.1 170.7,84.7 166.5,82.9" fill="black"/></svg>