<svg xmlns="http://www.w3.org/2000/svg" xmlns:xlink="http://www.w3.org/1999/xlink" version="1.1" baseProfile="full" viewBox="0 0 200 200" width="96" height="96"><path d="M 84,13 L 84,87 72,93 72,11" fill="black"/><path d="M 84,13 L 87,15 82,18" fill="black"/><path d="M 23,27 L 78,27 78,31 23,31" fill="black"/><path d="M 30,49 L 78,49 78,53 30,53" fill="black"/><path d="M 16.8,75.9 L 22.6,75 28.6,74.2 34.5,73.3 40.6,72.5 46.6,71.7 52.7,71 58.9,70.3 65.1,69.7 71.4,69.3 77.8,69.1 78.1,70.8 72.1,73 66.1,75 60.2,76.8 54.2,78.4 48.3,80.1 42.4,81.6 36.5,83.2 30.7,84.7 24.9,86.2 19.1,87.6" fill="black"/><path d="M 19.1,87.6 L 16.8,75.9 14.8,76.3" fill="black"/><path d="M 19.1,87.6 L 21.7,90.2 24.4,83.5" fill="black"/><path d="M 128,13 L 128,87 116,93 116,11" fill="black"/><path d="M 128,13 L 131,15 126,18" fill="black"/><path d="M 122,27 L 180,27 180,31 122,31" fill="black"/><path d="M 180,27 L 156,29 168,17" fill="black"/><path d="M 122,49 L 171,49 171,53 122,53" fill="black"/><path d="M 171,49 L 151,51 161,40" fill="black"/><path d="M 122,71 L 187,71 187,75 122,75" fill="black"/><path d="M 187,71 L 163,73 175,61" fill="black"/><path d="M 64.5,89.9 L 62.8,90.9 61,92 59.1,93.2 57.1,94.4 55,95.6 52.7,96.9 50.3,98.2 47.8,99.6 45.1,100.9 42.5,102.6 41.4,101.3 43.5,99.1 45.3,96.6 47,94.3 48.6,92.2 50.1,90.1 51.5,88.2 52.8,86.3 54,84.6 55,83 56,81.4" fill="black"/><path d="M 55.3,82.1 L 64.5,89.9 56.3,81.1" fill="black"/><path d="M 64.5,89.9 L 65.2,93.4 59.5,92" fill="black"/><path d="M 40,100 L 40,153 28,159 28,94" fill="black"/><path d="M 34,100 L 77,100 77,104 34,104" fill="black"/><path d="M 83,102 L 83,174 71,174 71,102" fill="black"/><path d="M 71,100 L 77,95 88,104 83,108 71,102" fill="black"/><path d="M 71,174 L 73.4,177.6 77,180 80.6,177.6 83,174" fill="black"/><path d="M 83,174 L 82.8,176.5 82.4,179 81.6,181.4 80.3,183.7 78.7,185.7 76.7,187.3 74.4,188.6 72,189.4 69.5,189.8 67,190 67,178 68.2,177.9 69.1,177.7 69.7,177.5 70,177.4 70.2,177.2 70.4,177 70.5,176.7 70.7,176.1 70.9,175.2 71,174" fill="black"/><path d="M 67,184 L 67,178 49,178 49,181" fill="black"/><path d="M 34,115 L 77,115 77,119 34,119" fill="black"/><path d="M 34,133 L 77,133 77,137 34,137" fill="black"/><path d="M 14.1,152.9 L 18.4,152.6 23.1,152.2 28.2,151.8 33.8,151.4 39.8,151 46.3,150.5 53.3,150 60.7,149.6 68.5,149.2 76.8,149.1 77.1,150.8 69,153 61.4,154.9 54.2,156.5 47.4,158 41,159.4 35.1,160.6 29.6,161.8 24.6,162.9 20,163.8 15.8,164.7" fill="black"/><path d="M 15.8,164.7 L 14.1,152.9 12.1,153.2" fill="black"/><path d="M 15.8,164.7 L 18.2,167.4 21.3,160.9" fill="black"/><path d="M 99.1,139.1 L 91.6,145 83.8,150.6 75.9,155.9 67.6,161 59.2,165.8 50.5,170.3 41.6,174.4 32.4,178.3 23,181.8 13.3,184.8 12.6,183.1 21.5,178.3 30.1,173.5 38.6,168.6 46.8,163.6 54.8,158.5 62.6,153.2 70.1,147.7 77.4,142 84.5,136.1 91.3,130.1" fill="black"/><path d="M 90.5,130.7 L 99.1,139.1 91.4,129.9" fill="black"/><path d="M 99.1,139.1 L 99.5,142.7 94,140.9" fill="black"/><path d="M 95,113 L 188,113 188,117 95,117" fill="black"/><path d="M 188,113 L 164,115 176,103" fill="black"/><path d="M 163,84 L 163,174 151,174 151,82" fill="black"/><path d="M 163,84 L 166,86 161,89" fill="black"/><path d="M 151,174 L 153.4,177.6 157,180 160.6,177.6 163,174" fill="black"/><path d="M 163,174 L 162.8,176.5 162.4,179 161.6,181.4 160.3,183.7 158.7,185.7 156.7,187.3 154.4,188.6 152,189.4 149.5,189.8 147,190 147,178 148.2,177.9 149.1,177.7 149.7,177.5 150,177.4 150.2,177.2 150.4,177 150.5,176.7 150.7,176.1 150.9,175.2 151,174" fill="black"/><path d="M 147,184 L 147,178 131,178 131,181" fill="black"/><path d="M 100.2,126.5 L 105,128.2 109.5,129.7 113.6,131.3 117.5,133.1 121,135 124.2,137 127.1,139.2 129.7,141.5 132,143.9 134,146.6 123.2,151.9 122.6,150.1 121.6,148.1 120.2,145.9 118.4,143.6 116.2,141.3 113.6,138.8 110.7,136.2 107.3,133.6 103.6,130.8 99.5,128.2" fill="black"/><path d="M 134,146.6 L 134.2,151.1 131.3,154.6 126.7,154.9 123.2,152" fill="black"/></svg>