<svg xmlns="http://www.w3.org/2000/svg" xmlns:xlink="http://www.w3.org/1999/xlink" version="1.1" baseProfile="full" viewBox="0 0 200 200" width="96" height="96"><path d="M 44,22 L 44,69 32,69 32,16" fill="black"/><path d="M 38,22 L 109,22 109,26 38,26" fill="black"/><path d="M 109,22 L 89,24 99,13" fill="black"/><path d="M 38,37 L 103,37 103,41 38,41" fill="black"/><path d="M 103,37 L 87,39 95,30" fill="black"/><path d="M 38,51 L 103,51 103,55 38,55" fill="black"/><path d="M 103,51 L 87,53 95,44" fill="black"/><path d="M 12,65 L 112,65 112,69 12,69" fill="black"/><path d="M 112,65 L 92,67 102,56" fill="black"/><path d="M 54.9,67 L 53.5,69.2 52.2,71.2 50.8,73.3 49.2,75.5 47.5,77.6 45.7,79.8 43.7,82.1 41.6,84.3 39.4,86.6 36.9,88.9 34.7,91.5 33.2,90.4 34.9,87.5 36,84.4 37.2,81.5 38.2,78.7 39.2,76.1 40.1,73.5 40.8,71.1 41.5,68.9 41.9,67" fill="black"/><path d="M 21.2,87.9 L 25.7,87.5 30.7,87.1 36.2,86.4 42.2,85.7 48.6,84.8 55.5,83.7 62.8,82.6 70.6,81.4 78.9,80.2 87.7,79.1 88.2,80.8 79.8,83.9 71.8,86.6 64.3,89 57.1,91.2 50.3,93.1 44,94.8 38,96.3 32.5,97.6 27.4,98.8 22.7,99.8" fill="black"/><path d="M 22.7,99.8 L 21.2,87.9 19.2,88.1" fill="black"/><path d="M 22.7,99.8 L 25.1,102.5 28.3,96" fill="black"/><path d="M 76.2,70.6 L 79.4,71.8 82.7,72.9 85.8,74.1 88.7,75.6 91.6,77.3 94.2,79.2 96.8,81.2 99.2,83.4 101.4,85.8 103.6,88.3 93.3,94.5 92.2,92.1 91,89.8 89.7,87.5 88.2,85.3 86.5,83 84.7,80.8 82.7,78.6 80.5,76.4 78.1,74.1 75.4,72.2" fill="black"/><path d="M 103.6,88.3 L 104.2,92.8 101.5,96.5 97,97.1 93.3,94.5" fill="black"/><path d="M 172.9,23.3 L 168.6,26.1 164,28.8 159,31.6 153.7,34.2 148,36.9 141.9,39.5 135.3,42 128.4,44.4 121.1,46.7 113.3,48.8 112.6,47.1 119.6,43.2 126.3,39.5 132.6,36 138.5,32.6 144,29.3 149.2,26.1 153.9,23 158.1,19.9 162,16.8 165.4,13.9" fill="black"/><path d="M 164.7,14.5 L 172.9,23.3 165.5,13.8" fill="black"/><path d="M 172.9,23.3 L 173.2,26.9 167.7,24.8" fill="black"/><path d="M 178.6,48.4 L 174,51.2 168.9,53.9 163.5,56.5 157.7,59 151.5,61.5 144.9,63.8 137.9,66.1 130.4,68.2 122.5,70.1 114.2,71.8 113.7,70.1 121.3,66.5 128.6,63.2 135.5,60 142,56.8 148,53.7 153.6,50.7 158.8,47.6 163.5,44.6 167.8,41.6 171.6,38.6" fill="black"/><path d="M 170.8,39.2 L 178.6,48.4 178.8,48.3" fill="black"/><path d="M 178.8,48.3 L 178.9,51.9 173.5,49.6" fill="black"/><path d="M 187.7,72.4 L 182.4,75.6 176.6,78.6 170.3,81.4 163.4,84.1 156,86.6 148,88.9 139.4,91 130.2,92.9 120.5,94.5 110.1,95.8 109.8,94.1 119.6,90.8 128.9,87.7 137.5,84.7 145.6,81.7 153,78.6 159.8,75.5 166,72.4 171.5,69.2 176.4,66 180.6,62.7" fill="black"/><path d="M 179.8,63.3 L 187.7,72.4 180.6,62.7" fill="black"/><path d="M 187.7,72.4 L 187.9,76 182.5,73.7" fill="black"/><path d="M 71,104.5 L 66,109.9 60.9,115.1 55.5,120.1 49.9,125 44.1,129.8 38.1,134.4 31.8,138.9 25.3,143.1 18.5,147 11.4,150.7 10.5,149.2 16.4,143.9 22.1,138.8 27.8,133.7 33.2,128.6 38.5,123.5 43.5,118.3 48.4,113 53,107.7 57.5,102.4 61.7,96.9" fill="black"/><path d="M 61,97.7 L 71,104.5 62.1,96.4" fill="black"/><path d="M 71,104.5 L 72,108 66.2,107.1" fill="black"/><path d="M 50,130 L 50,182 38,188 38,128" fill="black"/><path d="M 50,130 L 53,132 48,135" fill="black"/><path d="M 165.6,109 L 157.4,110.8 148.9,112.5 140,114.1 130.9,115.5 121.4,116.7 111.6,117.8 101.5,118.7 91,119.4 80.2,119.8 69,119.8 68.9,118.1 79.8,116 90.4,114.1 100.6,112.2 110.5,110.3 120,108.3 129.2,106.3 138,104.2 146.5,102 154.6,99.8 162.4,97.4" fill="black"/><path d="M 161.4,97.7 L 165.6,109 172.6,107.1" fill="black"/><path d="M 172.6,107.1 L 172.9,110.1 165.9,106.8" fill="black"/><path d="M 63,140 L 187,140 187,144 63,144" fill="black"/><path d="M 187,140 L 163,142 175,130" fill="black"/><path d="M 131,110 L 131,179 119,179 119,110" fill="black"/><path d="M 69,175 L 181,175 181,179 69,179" fill="black"/><path d="M 181,175 L 157,177 169,165" fill="black"/></svg>