<svg xmlns="http://www.w3.org/2000/svg" xmlns:xlink="http://www.w3.org/1999/xlink" version="1.1" baseProfile="full" viewBox="0 0 200 200" width="96" height="96"><path d="M 54,15.3 L 51.6,19.4 48.8,23.4 45.6,27.2 42,30.8 38,34.2 33.7,37.5 29,40.7 23.9,43.6 18.4,46.3 12.4,48.7 11.5,47.2 16.3,43.1 20.9,39.2 25,35.5 28.8,31.8 32.2,28.1 35.1,24.5 37.7,20.9 39.9,17.4 41.7,13.9 43.1,10.4" fill="black"/><path d="M 42.7,11.3 L 54,15.3 43.6,9.2" fill="black"/><path d="M 54,15.3 L 55.9,18.4 50.1,19.1" fill="black"/><path d="M 42,23 L 106,23 106,27 42,27" fill="black"/><path d="M 106,23 L 82,25 94,13" fill="black"/><path d="M 49.2,24.4 L 53,25.4 56.7,26.1 60.2,26.9 63.3,27.7 66.3,28.7 69,29.7 71.5,30.8 73.8,32 75.9,33.3 77.8,34.9 68.4,42.3 68,41.2 67.2,39.9 66,38.4 64.5,36.9 62.7,35.2 60.5,33.5 58,31.7 55.2,29.8 52.1,27.8 48.6,26.1" fill="black"/><path d="M 77.8,34.9 L 79,39.3 76.8,43.3 72.4,44.5 68.4,42.3" fill="black"/><path d="M 133,15.3 L 130.6,19.4 127.7,23.3 124.5,27 120.9,30.4 116.9,33.6 112.5,36.6 107.8,39.3 102.7,41.8 97.2,43.9 91.3,45.8 90.6,44.1 95.5,40.6 100,37.2 104.2,33.9 108,30.6 111.3,27.3 114.3,23.9 116.8,20.6 118.9,17.2 120.7,13.8 122.1,10.4" fill="black"/><path d="M 121.7,11.3 L 133,15.3 122.6,9.2" fill="black"/><path d="M 133,15.3 L 134.9,18.4 129.1,19.1" fill="black"/><path d="M 120,23 L 186,23 186,27 120,27" fill="black"/><path d="M 186,23 L 162,25 174,13" fill="black"/><path d="M 128.2,24.4 L 132,25.4 135.7,26.1 139.2,26.9 142.3,27.7 145.3,28.7 148,29.7 150.5,30.8 152.8,32 154.9,33.3 156.8,34.9 147.4,42.3 147,41.2 146.2,39.9 145,38.4 143.5,36.9 141.7,35.2 139.5,33.5 137,31.7 134.2,29.8 131.1,27.8 127.6,26.1" fill="black"/><path d="M 156.8,34.9 L 158,39.3 155.8,43.3 151.4,44.5 147.4,42.3" fill="black"/><path d="M 87.2,48.6 L 89.9,49.7 92.6,50.3 95.1,51 97.4,51.7 99.5,52.5 101.5,53.2 103.3,54.1 105,54.9 106.6,55.9 108.1,57 98.3,64 98.3,63.3 98,62.3 97.4,61.1 96.6,59.8 95.5,58.4 94.1,56.9 92.6,55.3 90.8,53.5 88.9,51.7 86.4,50.2" fill="black"/><path d="M 108.1,57 L 109.1,61.5 106.7,65.4 102.2,66.4 98.3,64" fill="black"/><path d="M 32,59.8 L 32.9,63.5 33.8,67.2 34.4,70.8 34.6,74.3 34.5,77.8 34,81.2 33.1,84.5 31.9,87.7 30.3,90.9 28.4,93.8 19.6,85.7 21.4,84.2 23,82.4 24.5,80.5 25.8,78.4 27,76 28.1,73.4 28.9,70.4 29.6,67.2 30.2,63.8 30.2,60.1" fill="black"/><path d="M 28.4,93.8 L 24.2,95.7 19.9,94.2 18,90 19.6,85.7" fill="black"/><path d="M 31,67 L 177,67 177,71 31,71" fill="black"/><path d="M 182.3,71.6 L 180.9,73.6 179.3,75.5 177.7,77.5 176,79.6 174.1,81.6 172.2,83.7 170.2,85.8 168.1,88 165.7,90.1 163.7,92.5 162.2,91.4 163.7,88.7 164.7,85.8 165.8,83 166.8,80.3 167.8,77.8 168.7,75.3 169.5,72.9 170.3,70.6 171,68.4 171.6,66.3" fill="black"/><path d="M 171,67 L 177,62 188,71 183,74 171,79" fill="black"/><path d="M 43,88 L 161,88 161,92 43,92" fill="black"/><path d="M 161,88 L 141,90 151,79" fill="black"/><path d="M 84,76 L 84,121 72,121 72,74" fill="black"/><path d="M 84,76 L 87,78 82,81" fill="black"/><path d="M 129,76 L 129,122 117,122 117,74" fill="black"/><path d="M 129,76 L 132,78 127,81" fill="black"/><path d="M 19,118 L 184,118 184,122 19,122" fill="black"/><path d="M 184,118 L 164,120 174,109" fill="black"/><path d="M 85.1,120 L 81.6,123.7 77.4,128.1 72.6,132.3 67.3,136.3 61.4,140.2 55,144 48,147.7 40.5,151.3 32.4,154.7 23.6,157.9 14.3,160.8 13.6,159.1 22.1,154.4 30,149.9 37.4,145.5 44.2,141.1 50.4,136.9 56,132.6 61,128.4 65.4,124.3 69.1,120.2 69.2,120" fill="black"/><path d="M 125.3,120 L 131.1,123.5 136.8,127 142.3,130.3 147.9,133.3 153.4,136.1 159,138.5 164.6,140.7 170.2,142.6 175.9,144.2 181.7,145.6 178.2,158.3 172.1,156.2 166,153.7 160.1,150.8 154.4,147.7 148.8,144.2 143.4,140.4 138.2,136.2 133.2,131.7 128.4,126.7 124.1,121.3" fill="black"/><path d="M 178.2,158.3 L 181.7,145.6 190,147.8" fill="black"/><path d="M 43,102 L 161,102 161,106 43,106" fill="black"/><path d="M 161,102 L 141,104 151,93" fill="black"/><path d="M 46,147 L 153,147 153,151 46,151" fill="black"/><path d="M 153,147 L 129,149 141,137" fill="black"/><path d="M 106,134 L 106,178 94,178 94,132" fill="black"/><path d="M 106,134 L 109,136 104,139" fill="black"/><path d="M 94,178 L 96.4,181.6 100,184 103.6,181.6 106,178" fill="black"/><path d="M 106,178 L 105.8,180.5 105.4,183 104.6,185.4 103.3,187.7 101.7,189.7 99.7,191.3 97.4,192.6 95,193.4 92.5,193.8 90,194 90,182 91.2,181.9 92.1,181.7 92.7,181.5 93,181.4 93.2,181.2 93.4,181 93.5,180.7 93.7,180.1 93.9,179.2 94,178" fill="black"/><path d="M 90,188 L 90,182 70,182 70,185" fill="black"/><path d="M 77.3,161 L 73.3,164.2 69.1,167.2 64.7,170 60,172.6 55.1,175.1 50,177.3 44.7,179.4 39.1,181.2 33.3,182.7 27.2,183.8 26.7,182.1 32,179.1 37,176.2 41.9,173.4 46.5,170.6 50.9,167.7 55.1,164.7 58.9,161.7 62.6,158.7 66,155.5 69.1,152.3" fill="black"/><path d="M 68.4,153 L 77.3,161 69.3,152" fill="black"/><path d="M 77.3,161 L 77.9,164.6 72.3,163" fill="black"/><path d="M 118.2,154.4 L 124.4,155.7 130.2,157.2 135.7,158.8 140.8,160.6 145.6,162.6 150.1,164.6 154.2,166.6 158.1,168.8 161.6,171.1 164.9,173.5 156.7,182.3 154.4,179.9 151.8,177.5 148.8,175.1 145.4,172.5 141.7,170 137.5,167.4 133.1,164.8 128.2,162 123.1,159.2 117.6,156.1" fill="black"/><path d="M 164.9,173.5 L 166.7,177.7 165.1,182 161,183.8 156.7,182.3" fill="black"/></svg>