<svg xmlns="http://www.w3.org/2000/svg" xmlns:xlink="http://www.w3.org/1999/xlink" version="1.1" baseProfile="full" viewBox="0 0 200 200" width="96" height="96"><path d="M 54.4,18.7 L 52,24.5 49.3,30.2 46.1,35.7 42.5,41 38.6,46.2 34.2,51.1 29.4,55.9 24.3,60.5 18.6,64.7 12.5,68.6 11.4,67.3 16.1,61.9 20.5,56.6 24.6,51.5 28.3,46.4 31.7,41.2 34.7,36.1 37.3,30.9 39.5,25.7 41.4,20.4 42.9,15.1" fill="black"/><path d="M 42.6,16.1 L 54.4,18.7 43.4,13.6" fill="black"/><path d="M 54.4,18.7 L 56.7,21.5 51,22.9" fill="black"/><path d="M 42,32 L 106,32 106,36 42,36" fill="black"/><path d="M 106,32 L 82,34 94,22" fill="black"/><path d="M 49.2,33.6 L 53.2,35.1 57.1,36.5 60.7,38.2 64.1,40 67.2,42 70.1,44.2 72.8,46.6 75.2,49.1 77.4,51.9 79.2,54.8 68.3,59.6 67.5,57.3 66.6,55 65.3,52.6 63.8,50.2 62,47.7 59.9,45.3 57.5,42.8 54.8,40.2 51.8,37.6 48.4,35.2" fill="black"/><path d="M 79.2,54.8 L 79.3,59.4 76.2,62.7 71.6,62.7 68.3,59.6" fill="black"/><path d="M 133.4,18.7 L 131,24.4 128.2,29.8 125,35 121.4,40 117.5,44.8 113.1,49.3 108.3,53.6 103.2,57.7 97.5,61.4 91.5,64.7 90.4,63.2 95.2,58.4 99.6,53.7 103.7,49 107.4,44.3 110.8,39.6 113.8,34.8 116.3,30 118.6,25.1 120.4,20.1 121.9,15.1" fill="black"/><path d="M 121.6,16 L 133.4,18.7 122.4,13.5" fill="black"/><path d="M 133.4,18.7 L 135.6,21.6 129.9,22.9" fill="black"/><path d="M 120,32 L 186,32 186,36 120,36" fill="black"/><path d="M 186,32 L 162,34 174,22" fill="black"/><path d="M 128.2,33.6 L 132.2,35.1 136.1,36.5 139.7,38.2 143.1,40 146.2,42 149.1,44.2 151.8,46.6 154.2,49.1 156.4,51.9 158.2,54.8 147.3,59.6 146.5,57.3 145.6,55 144.3,52.6 142.8,50.2 141,47.7 138.9,45.3 136.5,42.8 133.8,40.2 130.8,37.6 127.4,35.2" fill="black"/><path d="M 158.2,54.8 L 158.3,59.4 155.2,62.7 150.6,62.7 147.3,59.6" fill="black"/><path d="M 62.2,70 L 47.9,154.9 35,158.9 51.4,62.1" fill="black"/><path d="M 42,144 L 30,154 40,164 48,156 42,154" fill="black"/><path d="M 42,152 L 178,152 178,156 42,156" fill="black"/><path d="M 178,152 L 154,154 166,142" fill="black"/><path d="M 56,69 L 149,69 149,73 56,73" fill="black"/><path d="M 154.9,71.3 L 153.9,88.7 152.7,104.6 151.4,118.8 150,131.4 148.5,142.5 146.8,151.9 145,159.9 143,166.4 140.7,171.6 137.4,175.8 129.4,166.8 130.3,165.7 131.8,162.2 133.4,156.8 135.1,149.6 136.6,140.6 138.1,130 139.5,117.6 140.7,103.6 141.9,87.9 143,70.6" fill="black"/><path d="M 143,69 L 149,64 160,73 155,76 143,81" fill="black"/><path d="M 137.4,175.8 L 135.6,177.3 133.7,178.7 131.7,179.9 129.6,181 127.5,181.9 125.2,182.6 123,183.2 120.7,183.6 118.3,183.9 116,184 116,172 117.5,171.9 119,171.7 120.5,171.5 121.8,171.1 123.2,170.7 124.5,170.1 125.8,169.5 127,168.7 128.2,167.8 129.4,166.8" fill="black"/><path d="M 116,178 L 116,172 96,172 96,175" fill="black"/><path d="M 109,71 L 98.9,130 87,127.9 96.9,71" fill="black"/><path d="M 98.8,130.1 L 96.1,138.6 92.2,146.5 87.1,153.7 80.9,160.3 73.5,166.1 65.1,171.2 55.7,175.7 45.3,179.5 33.7,182.5 21.2,184.8 20.7,183.1 32.6,178.9 43.4,174.4 52.9,169.7 61.2,164.7 68.4,159.3 74.3,153.6 79.1,147.7 82.8,141.4 85.4,134.8 87.1,127.8" fill="black"/><path d="M 16,110 L 184,110 184,114 16,114" fill="black"/><path d="M 184,110 L 160,112 172,100" fill="black"/></svg>