<svg xmlns="http://www.w3.org/2000/svg" xmlns:xlink="http://www.w3.org/1999/xlink" version="1.1" baseProfile="full" viewBox="0 0 200 200" width="96" height="96"><path d="M 86,16 L 86,182 74,188 74,14" fill="black"/><path d="M 86,16 L 89,18 84,21" fill="black"/><path d="M 27,68 L 62,68 62,72 27,72" fill="black"/><path d="M 67.9,70.4 L 66.3,83.7 64.2,96.2 61.5,108 58.3,119.1 54.4,129.4 50,139 45.1,147.7 39.5,155.6 33.4,162.6 26.6,168.6 25.3,167.3 30.4,160.2 35.1,152.6 39.3,144.5 43.1,135.8 46.5,126.5 49.3,116.5 51.7,105.8 53.6,94.4 55,82.3 56,69.5" fill="black"/><path d="M 56,68 L 62,63 73,72 68,75 56,80" fill="black"/><path d="M 121,16 L 121,172 109,172 109,14" fill="black"/><path d="M 121,16 L 124,18 119,21" fill="black"/><path d="M 109,172 L 111.4,175.6 115,178 118.6,175.6 121,172" fill="black"/><path d="M 121,172 L 120.8,174.5 120.4,177 119.6,179.4 118.3,181.7 116.7,183.7 114.7,185.3 112.4,186.6 110,187.4 107.5,187.8 105,188 105,176 106.2,175.9 107.1,175.7 107.7,175.5 108,175.4 108.2,175.2 108.4,175 108.5,174.7 108.7,174.1 108.9,173.2 109,172" fill="black"/><path d="M 105,182 L 105,176 95,176 95,179" fill="black"/><path d="M 167.4,60.1 L 164.6,63.6 161.6,67.1 158.4,70.7 155,74.4 151.3,78.2 147.3,82 143.1,85.9 138.6,89.8 133.8,93.7 128.6,97.6 127.3,96.3 131.1,91.1 134.7,86.1 138.3,81.5 141.7,77 144.8,72.6 147.8,68.5 150.5,64.5 153.1,60.7 155.3,57 157.4,53.5" fill="black"/><path d="M 156.8,54.3 L 167.4,60.1 157.9,52.7" fill="black"/><path d="M 167.4,60.1 L 168.8,63.4 163,63.2" fill="black"/><path d="M 118.9,26.9 L 121.3,46.7 124.3,64.9 127.9,81.7 132.2,97 137.3,110.8 143.2,123.1 149.8,133.9 157,143.2 165,151 173.7,157.5 166.2,168.4 156.6,160.3 148,150.7 140.5,139.8 134,127.6 128.6,114.1 124.2,99.3 120.8,83.2 118.4,65.8 117.1,47 117.1,27" fill="black"/><path d="M 166.2,168.4 L 173.7,157.5 177.2,159.9" fill="black"/></svg>