<svg xmlns="http://www.w3.org/2000/svg" xmlns:xlink="http://www.w3.org/1999/xlink" version="1.1" baseProfile="full" viewBox="0 0 200 200" width="96" height="96"><path d="M 39,23 L 167,23 167,27 39,27" fill="black"/><path d="M 173,25 L 173,58 161,64 161,25" fill="black"/><path d="M 161,23 L 167,18 178,27 173,31 161,25" fill="black"/><path d="M 39,52 L 167,52 167,56 39,56" fill="black"/><path d="M 45,23 L 45,87 33,87 33,17" fill="black"/><path d="M 33,87 L 35.4,90.6 39,93 42.6,90.6 45,87" fill="black"/><path d="M 45,87 L 44.4,99.7 43.3,111.8 41.7,123.3 39.5,134.2 36.8,144.5 33.6,154.1 29.7,163.1 25.4,171.4 20.3,178.8 14.7,185.5 13.2,184.4 17.1,176.9 20.6,169 23.7,160.6 26.3,151.8 28.6,142.4 30.4,132.5 31.7,122 32.6,110.9 33,99.2 33,87" fill="black"/><path d="M 52,75 L 180,75 180,79 52,79" fill="black"/><path d="M 180,75 L 156,77 168,65" fill="black"/><path d="M 122,59 L 122,111 110,117 110,57" fill="black"/><path d="M 122,59 L 125,61 120,64" fill="black"/><path d="M 120.4,77 L 116.5,80.9 110.9,86.5 105.1,91.9 98.9,96.8 92.5,101.5 85.8,105.7 78.9,109.6 71.6,113.1 64.1,116.2 56.3,118.8 48.3,120.8 47.6,119.1 54.9,115.2 61.8,111.3 68.5,107.3 75,103.1 81.1,98.7 86.9,94 92.5,89.2 97.7,84 102.7,78.7 104.1,77" fill="black"/><path d="M 121.3,77.1 L 127,81.3 132.7,85.3 138.3,89.1 143.9,92.7 149.6,95.9 155.4,98.9 161.4,101.5 167.4,103.9 173.6,105.9 179.9,107.6 176,120.3 169.3,117.7 162.8,114.7 156.5,111.4 150.4,107.8 144.6,103.8 139.1,99.5 133.8,94.8 128.8,89.8 124.1,84.3 120,78.3" fill="black"/><path d="M 176,120.3 L 179.9,107.6 187.7,110" fill="black"/><path d="M 48,178 L 184,178 184,182 48,182" fill="black"/><path d="M 184,178 L 160,180 172,168" fill="black"/><path d="M 87,117 L 87,164 75,170 75,111" fill="black"/><path d="M 81,117 L 149,117 149,121 81,121" fill="black"/><path d="M 155,119 L 155,164 143,170 143,119" fill="black"/><path d="M 143,117 L 149,112 160,121 155,125 143,119" fill="black"/><path d="M 81,138 L 149,138 149,142 81,142" fill="black"/><path d="M 81,160 L 149,160 149,164 81,164" fill="black"/></svg>