<svg xmlns="http://www.w3.org/2000/svg" xmlns:xlink="http://www.w3.org/1999/xlink" version="1.1" baseProfile="full" viewBox="0 0 200 200" width="96" height="96"><path data-v-f2e577de="" d="M 91.2,11.6 L 94.2,12.6 97.2,13.4 100.2,14.3 103,15.5 105.7,16.7 108.3,18.1 110.8,19.6 113.2,21.2 115.5,22.9 117.6,24.8 108.4,32.5 107.3,30.5 106,28.6 104.5,26.6 102.9,24.7 101.2,22.7 99.4,20.8 97.4,18.9 95.3,16.9 93,14.8 90.5,13.2" fill="black"></path><path data-v-f2e577de="" d="M 117.6,24.8 L 118.9,29.2 116.9,33.3 112.5,34.6 108.4,32.5" fill="black"></path><path data-v-f2e577de="" d="M 34,35 L 188,35 188,39 34,39" fill="black"></path><path data-v-f2e577de="" d="M 188,35 L 164,37 176,25" fill="black"></path><path data-v-f2e577de="" d="M 40,35 L 40,96 28,96 28,29" fill="black"></path><path data-v-f2e577de="" d="M 28,96 L 30.4,99.6 34,102 37.6,99.6 40,96" fill="black"></path><path data-v-f2e577de="" d="M 40,96 L 39.4,109.1 38.4,121.4 37,132.9 35,143.5 32.6,153.2 29.6,162 26.2,169.9 22.2,176.9 17.7,182.8 12.6,187.6 11.3,186.3 14.6,180.6 17.5,174.4 20.1,167.4 22.4,159.7 24.3,151.2 25.9,141.9 27,131.7 27.7,120.6 28,108.7 28,96" fill="black"></path><path data-v-f2e577de="" d="M 83,54.8 L 83.8,59 84.4,62.9 84.3,66.8 83.6,70.6 82.1,74.2 80,77.5 77.1,80.5 73.7,83.1 69.8,85.3 65.3,87 62.4,75.4 65.9,74.7 69,73.9 71.6,72.8 73.8,71.4 75.8,69.8 77.5,67.8 79,65.4 80.2,62.5 81.1,59 81.2,55.1" fill="black"></path><path data-v-f2e577de="" d="M 65.3,87 L 60.8,86.3 58,82.7 58.8,78.2 62.4,75.4" fill="black"></path><path data-v-f2e577de="" d="M 168.4,57.5 L 164.1,59.9 159.6,62.2 154.8,64.4 149.7,66.7 144.4,68.9 138.7,71.1 132.8,73.2 126.6,75.2 120.1,77.1 113.3,78.8 112.6,77.1 118.7,73.6 124.5,70.3 130.2,67.2 135.5,64.2 140.6,61.3 145.4,58.4 150,55.6 154.2,52.8 158.2,50.1 161.8,47.5" fill="black"></path><path data-v-f2e577de="" d="M 161,48 L 168.4,57.5 169.3,56.9" fill="black"></path><path data-v-f2e577de="" d="M 169.3,56.9 L 169.4,60.4 163.8,58.1" fill="black"></path><path data-v-f2e577de="" d="M 120,45 L 120,62 108,62 108,43" fill="black"></path><path data-v-f2e577de="" d="M 120,45 L 123,47 118,50" fill="black"></path><path data-v-f2e577de="" d="M 108,62 L 110.4,65.6 114,68 117.6,65.6 120,62" fill="black"></path><path data-v-f2e577de="" d="M 120,62 L 118.9,70.4 116.2,78.2 112,85.3 106.4,91.6 99.5,97.1 91.3,101.9 81.9,105.9 71.3,109.3 59.3,111.9 46.1,113.8 45.8,112.1 58.4,108.3 69.6,104.2 79.3,99.9 87.6,95.2 94.4,90.3 99.7,85.1 103.7,79.7 106.3,74.1 107.7,68.2 108,62" fill="black"></path><path data-v-f2e577de="" d="M 109.1,80.3 L 116,81 122.9,82.2 129.7,83.9 136.5,85.9 143.3,88.2 150,90.8 156.7,93.8 163.4,97 170.1,100.5 176.7,104.3 170.2,114.4 164.2,110.2 158.1,106.4 152.1,102.7 146,99.2 139.9,96 133.7,92.9 127.5,90.1 121.3,87.4 115,84.7 108.7,82.1" fill="black"></path><path data-v-f2e577de="" d="M 176.7,104.3 L 179.2,108.1 178.5,112.6 174.7,115.1 170.2,114.4" fill="black"></path><path data-v-f2e577de="" d="M 158.9,115.6 L 148.5,127 137.8,137.4 126.9,146.8 115.7,155.3 104.3,162.7 92.7,169.1 80.9,174.5 68.8,178.8 56.5,181.9 44.1,183.8 43.8,182.1 55.5,178.3 67,173.7 78.1,168.5 89.1,162.5 99.7,155.6 110.2,147.8 120.4,139.2 130.4,129.7 140.1,119.2 149.7,107.9" fill="black"></path><path data-v-f2e577de="" d="M 149.1,108.6 L 158.9,115.6 150.1,107.4" fill="black"></path><path data-v-f2e577de="" d="M 158.9,115.6 L 159.9,119 154.2,118.1" fill="black"></path><path data-v-f2e577de="" d="M 77.2,110.3 L 84.5,118.5 92.1,126.3 100.4,133.7 109.4,140.6 119.2,147 129.7,153.1 141,158.6 153.1,163.7 166.1,168.4 179.9,172.6 176,185.3 161.9,180.2 148.6,174.6 136.1,168.5 124.6,161.9 114,154.8 104.3,147.1 95.5,139 87.8,130.3 81.2,121.1 75.7,111.3" fill="black"></path><path data-v-f2e577de="" d="M 176,185.3 L 179.9,172.6 187.7,175" fill="black"></path></svg>
