<svg xmlns="http://www.w3.org/2000/svg" xmlns:xlink="http://www.w3.org/1999/xlink" version="1.1" baseProfile="full" viewBox="0 0 200 200" width="96" height="96"><path d="M 39,23 L 167,23 167,27 39,27" fill="black"/><path d="M 173,25 L 173,56 161,62 161,25" fill="black"/><path d="M 161,23 L 167,18 178,27 173,31 161,25" fill="black"/><path d="M 39,52 L 167,52 167,56 39,56" fill="black"/><path d="M 45,23 L 45,87 33,87 33,17" fill="black"/><path d="M 33,87 L 35.4,90.6 39,93 42.6,90.6 45,87" fill="black"/><path d="M 45,87 L 44.4,99.7 43.3,111.8 41.7,123.3 39.5,134.2 36.8,144.5 33.6,154.1 29.7,163.1 25.4,171.4 20.3,178.8 14.7,185.5 13.2,184.4 17.1,176.9 20.6,169 23.7,160.6 26.3,151.8 28.6,142.4 30.4,132.5 31.7,122 32.6,110.9 33,99.2 33,87" fill="black"/><path d="M 164.2,75 L 155.3,76.5 146.4,77.8 137.2,79 128,80 118.5,81 108.9,81.7 99.2,82.4 89.3,82.8 79.2,83 69,82.8 68.9,81.1 78.9,79.2 88.8,77.5 98.5,75.9 108,74.2 117.4,72.5 126.6,70.8 135.6,69 144.5,67.2 153.2,65.3 161.8,63.3" fill="black"/><path d="M 160.8,63.5 L 164.2,75 172.7,73.3" fill="black"/><path d="M 172.7,73.3 L 173,76.3 165.7,72.7" fill="black"/><path d="M 79.3,80.9 L 77.2,85.4 75,89.7 72.5,93.9 69.7,97.9 66.8,101.8 63.6,105.4 60.2,108.8 56.6,112 52.7,114.9 48.5,117.6 47.4,116.3 50.2,112.4 52.9,108.6 55.4,104.8 57.8,101 59.9,97.1 61.9,93.2 63.7,89.3 65.3,85.2 66.7,81.1 68,76.9" fill="black"/><path d="M 67.6,77.9 L 79.3,80.9 68.5,75.5" fill="black"/><path d="M 79.3,80.9 L 81.5,83.7 75.8,84.9" fill="black"/><path d="M 103.3,84.7 L 106,86.2 108.9,87.5 111.5,88.9 114,90.5 116.3,92.2 118.4,94.2 120.3,96.2 122.1,98.5 123.6,100.9 124.9,103.4 113.4,106.7 113.2,104.9 112.8,103 112.3,101 111.6,99 110.6,97 109.4,94.9 108,92.7 106.4,90.5 104.6,88.2 102.3,86.2" fill="black"/><path d="M 124.9,103.4 L 124.3,108 120.8,110.8 116.2,110.3 113.4,106.7" fill="black"/><path d="M 146.3,80.7 L 150.5,82.7 154.7,84.7 158.5,86.8 162,89 165.3,91.3 168.4,93.7 171.1,96.3 173.7,98.9 176,101.7 178,104.6 167.2,110 166.3,107.5 165.1,105 163.7,102.4 161.9,99.7 159.8,97 157.5,94.2 154.9,91.3 152,88.3 148.9,85.2 145.3,82.2" fill="black"/><path d="M 178,104.6 L 178.2,109.1 175.3,112.6 170.7,112.9 167.2,110" fill="black"/><path d="M 112.7,114.7 L 109.2,121.1 105.5,127.3 101.9,133.2 98.2,138.9 94.5,144.4 90.7,149.6 86.9,154.6 83.1,159.3 79.2,163.8 75.3,168.1 66.6,159.8 70.3,155.8 73.9,151.6 77.5,147.2 81.1,142.4 84.7,137.5 88.2,132.3 91.8,126.8 95.3,121.1 98.7,115.2 102.2,109" fill="black"/><path d="M 101.7,109.8 L 112.7,114.7 102.7,108" fill="black"/><path d="M 112.7,114.7 L 114.4,117.9 108.6,118.1" fill="black"/><path d="M 79.1,156.2 L 89.5,156.9 99.7,157.9 109.6,159.2 119.2,160.8 128.5,162.6 137.6,164.6 146.4,166.7 155,169.1 163.3,171.6 171.3,174.3 167,185.4 159.5,182.3 151.6,179.3 143.5,176.4 135.1,173.5 126.5,170.8 117.5,168.2 108.2,165.7 98.7,163.2 88.9,160.6 78.8,158" fill="black"/><path d="M 171.3,174.3 L 174.6,177.5 174.7,182 171.5,185.3 167,185.4" fill="black"/><path d="M 150.4,134 L 149.7,135.8 145.4,145.5 139.7,154.2 132.6,161.9 124.3,168.4 114.7,173.9 103.9,178.4 92,181.8 78.8,184.3 64.5,185.6 49,185.8 48.9,184.1 64.1,181.8 77.9,179 90.2,175.5 101.2,171.3 110.7,166.5 118.8,160.9 125.6,154.7 131,147.9 135.2,140.4 137.5,134" fill="black"/><path d="M 43,132 L 185,132 185,136 43,136" fill="black"/><path d="M 185,132 L 161,134 173,122" fill="black"/></svg>