<svg xmlns="http://www.w3.org/2000/svg" xmlns:xlink="http://www.w3.org/1999/xlink" version="1.1" baseProfile="full" viewBox="0 0 200 200" width="96" height="96"><path d="M 96.2,12.4 L 99,13.2 101.9,13.6 104.6,14.2 107.1,15 109.5,15.9 111.8,17 113.9,18.4 115.8,19.9 117.6,21.7 119.2,23.7 108.2,28.7 108.1,27.5 107.7,26.2 107.2,24.8 106.3,23.3 105.2,21.8 103.9,20.2 102.2,18.6 100.3,17 98.2,15.3 95.6,14.1" fill="black"/><path d="M 119.2,23.7 L 119.3,28.3 116.2,31.7 111.6,31.8 108.2,28.7" fill="black"/><path d="M 42,32 L 186,32 186,36 42,36" fill="black"/><path d="M 186,32 L 162,34 174,22" fill="black"/><path d="M 48,32 L 48,98 36,98 36,26" fill="black"/><path d="M 36,98 L 38.4,101.6 42,104 45.6,101.6 48,98" fill="black"/><path d="M 48,98 L 47.4,110.4 46.2,122.2 44.4,133.2 42,143.5 39,153 35.4,161.7 31.1,169.6 26.3,176.6 20.7,182.6 14.6,187.6 13.3,186.3 17.8,180.2 21.8,173.6 25.3,166.5 28.4,158.8 30.9,150.4 32.9,141.4 34.5,131.6 35.5,121.1 36,109.9 36,98" fill="black"/><path d="M 15.2,46.4 L 17.6,49.4 20.1,52.4 22.3,55.6 24.3,58.9 26.2,62.3 27.9,65.8 29.4,69.5 30.9,73.2 32.2,77 33.3,80.9 21.5,83.1 21.2,79.4 20.7,75.8 20.1,72.2 19.5,68.6 18.7,65 17.9,61.5 17,58 16,54.4 15,50.8 13.7,47.3" fill="black"/><path d="M 33.3,80.9 L 32.3,85.4 28.5,87.9 24,86.9 21.5,83.1" fill="black"/><path d="M 11.8,122.3 L 14.1,121.3 16.6,120.2 19.1,119 21.8,117.7 24.6,116.2 27.5,114.7 30.6,113 33.7,111.2 37.1,109.4 40.4,107.3 41.5,108.6 38.9,111.5 36.5,114.5 34,117.3 31.6,120 29.2,122.4 26.9,124.7 24.5,126.9 22.3,128.9 20,130.8 17.8,132.6" fill="black"/><path d="M 17.8,132.6 L 11.8,122.3 10.1,123.3" fill="black"/><path d="M 17.8,132.6 L 21.1,134.2 21.5,127" fill="black"/><path d="M 86.9,68.9 L 87.4,73.5 87.8,77.9 87.6,82.1 86.9,86.2 85.6,90.1 83.7,93.7 81.3,97.1 78.4,100.2 75,102.9 71.1,105.3 66.3,94.3 69.4,93.2 72.1,91.9 74.5,90.3 76.7,88.4 78.7,86.2 80.5,83.7 82.1,80.7 83.4,77.2 84.5,73.3 85.1,69" fill="black"/><path d="M 71.1,105.3 L 66.5,105.3 63.2,102.1 63.2,97.6 66.3,94.3" fill="black"/><path d="M 180.9,73.6 L 179.4,74.8 177.5,76.1 175.3,77.8 172.7,79.7 169.7,81.8 166.4,84.3 162.6,87 158.3,89.9 153.6,93.1 148.5,96.6 147.4,95.3 151.5,90.8 155.2,86.4 158.6,82.6 161.7,79.1 164.3,76 166.6,73.2 168.5,70.8 170,68.7 171.1,67.1 171.7,65.9" fill="black"/><path d="M 171.1,66.6 L 180.9,73.6 172.1,65.4" fill="black"/><path d="M 180.9,73.6 L 181.9,77 176.2,76.1" fill="black"/><path d="M 129,53 L 127.9,66.8 125.4,79.6 121.3,91.3 115.7,101.7 108.7,110.9 100.2,118.8 90.4,125.4 79.2,130.6 66.8,134.4 53.1,136.8 52.8,135.1 65.7,130.8 77.1,125.7 86.9,119.8 95.3,113.1 102.2,105.5 107.8,97 112,87.5 114.9,77.1 116.6,65.6 117,53" fill="black"/><path d="M 117,54 L 129,53 117,50.6" fill="black"/><path d="M 129,53 L 132,55 127,58" fill="black"/><path d="M 126.9,60 L 128.6,70.7 131.2,80.4 134.6,89 139,96.7 144.3,103.5 150.6,109.4 157.9,114.6 166.3,119 175.9,122.6 186.6,125.6 183.3,138.3 171.6,134.4 161.1,129.6 151.8,123.8 143.8,117 137.1,109.4 131.8,100.9 127.9,91.7 125.4,81.8 124.5,71.2 125.1,60" fill="black"/><path d="M 183.3,138.3 L 186.6,125.6 195,127.7" fill="black"/><path d="M 168.3,130.2 L 160.9,139 152.6,147.1 143.3,154.3 133.2,160.8 122.2,166.4 110.3,171.4 97.6,175.5 84,178.8 69.4,181.3 54.1,182.8 53.8,181.1 68.7,177.6 82.6,173.6 95.5,169.2 107.5,164.3 118.4,158.9 128.3,152.8 137.3,146.3 145.3,139.2 152.4,131.5 158.5,123.3" fill="black"/><path d="M 157.9,124.1 L 168.3,130.2 159,122.6" fill="black"/><path d="M 168.3,130.2 L 169.5,133.6 163.7,133.2" fill="black"/><path d="M 87.2,125.5 L 91.9,132.2 97.4,138.2 103.8,143.9 111.3,149.1 120,153.8 130,158.2 141.1,162.2 153.5,165.7 167.2,168.8 182.1,171.5 179.8,184.4 164.4,181 150.3,177.1 137.4,172.6 125.8,167.6 115.5,162 106.6,155.9 99,149.3 92.9,142.1 88.3,134.3 85.5,126.2" fill="black"/><path d="M 179.8,184.4 L 182.1,171.5 191.6,173.1" fill="black"/></svg>