<svg xmlns="http://www.w3.org/2000/svg" xmlns:xlink="http://www.w3.org/1999/xlink" version="1.1" baseProfile="full" viewBox="0 0 200 200" width="96" height="96"><path d="M 116,14 L 116,41 104,41 104,12" fill="black"/><path d="M 116,14 L 119,16 114,19" fill="black"/><path d="M 48,37 L 186,37 186,41 48,41" fill="black"/><path d="M 186,37 L 162,39 174,27" fill="black"/><path d="M 54,37 L 54,98 42,98 42,31" fill="black"/><path d="M 42,98 L 44.4,101.6 48,104 51.6,101.6 54,98" fill="black"/><path d="M 54,98 L 53.3,110.5 52,122.3 49.9,133.4 47.2,143.7 43.7,153.2 39.5,161.9 34.6,169.8 28.9,176.7 22.6,182.7 15.5,187.7 14.4,186.2 19.9,180 24.7,173.4 29,166.3 32.7,158.6 35.7,150.2 38.2,141.2 40,131.5 41.3,121 41.9,109.9 42,98" fill="black"/><path d="M 15.3,53.8 L 18,55.5 20.8,57.2 23.5,59.2 26,61.5 28.3,64.1 30.4,67 32.3,70.1 34.1,73.4 35.7,76.9 37.1,80.6 25.4,83.4 24.9,80.1 24.3,76.9 23.6,73.9 22.7,70.9 21.7,68.1 20.5,65.4 19.2,62.7 17.8,60.1 16.2,57.5 14.2,55.3" fill="black"/><path d="M 37.1,80.6 L 36.3,85.1 32.6,87.9 28.1,87.1 25.4,83.4" fill="black"/><path d="M 12.7,122 L 15.4,121.2 18.3,120.3 21.4,119.2 24.6,117.9 27.9,116.5 31.3,114.9 34.9,113.2 38.6,111.4 42.5,109.5 46.4,107.2 47.5,108.7 44.3,111.9 41.2,115.1 38.1,118 35.1,120.7 32,123.2 29,125.6 26,127.7 23,129.7 20,131.5 17.1,133.1" fill="black"/><path d="M 17.1,133.1 L 12.7,122 10.8,122.8" fill="black"/><path d="M 17.1,133.1 L 20.1,135.2 21.6,128.1" fill="black"/><path d="M 163.4,60.9 L 155.1,63.9 146.5,66.7 137.6,69.3 128.3,71.7 118.8,73.9 108.9,75.9 98.7,77.6 88.2,79 77.3,80.1 66.1,80.8 65.8,79.1 76.7,76.4 87.2,73.8 97.4,71.2 107.2,68.5 116.7,65.7 125.8,62.8 134.5,59.7 142.9,56.6 151,53.3 158.7,49.8" fill="black"/><path d="M 157.8,50.2 L 163.4,60.9 167.6,59.1" fill="black"/><path d="M 167.6,59.1 L 167.8,62.2 161.4,59.5" fill="black"/><path d="M 60,116 L 184,116 184,120 60,120" fill="black"/><path d="M 184,116 L 160,118 172,106" fill="black"/><path d="M 128,67 L 128,178 116,178 116,67" fill="black"/><path d="M 66,174 L 178,174 178,178 66,178" fill="black"/><path d="M 178,174 L 154,176 166,164" fill="black"/></svg>