<svg xmlns="http://www.w3.org/2000/svg" xmlns:xlink="http://www.w3.org/1999/xlink" version="1.1" baseProfile="full" viewBox="0 0 200 200" width="96" height="96"><path d="M 16,22 L 184,22 184,26 16,26" fill="black"/><path d="M 184,22 L 160,24 172,12" fill="black"/><path d="M 106,22 L 106,181 94,187 94,22" fill="black"/><path d="M 108.6,83 L 103.8,93.6 98.1,103.8 91.4,113.6 83.8,123 75.3,131.9 65.8,140.4 55.4,148.5 44,156.1 31.7,163.2 18.4,169.7 17.5,168.2 29.7,160 40.9,151.7 51.3,143.3 60.7,134.8 69.1,126 76.7,117 83.2,107.8 88.8,98.4 93.5,88.8 97.3,78.9" fill="black"/><path d="M 105.2,80.5 L 111.2,90.8 117.5,100.5 124,109.6 131,118 138.4,125.7 146.3,132.8 154.7,139.3 163.5,145.1 172.9,150.4 182.7,155 177.2,166.9 166.8,161.3 157,155 147.9,148 139.5,140.4 131.7,132.1 124.5,123.2 118.1,113.7 112.4,103.5 107.5,92.7 103.5,81.2" fill="black"/><path d="M 177.2,166.9 L 182.7,155 188.6,157.7" fill="black"/><path d="M 64.6,48.1 L 62.3,57.1 59.6,65.8 56.4,74 52.7,81.8 48.6,89.2 44.1,96.1 39.2,102.6 33.8,108.5 27.9,113.9 21.6,118.6 20.3,117.3 25.2,111.2 29.7,105.1 33.9,98.7 37.7,92.1 41.2,85.2 44.2,78 47,70.5 49.3,62.6 51.3,54.4 52.9,45.8" fill="black"/><path d="M 52.7,46.8 L 64.6,48.1 53.2,43.9" fill="black"/><path d="M 64.6,48.1 L 67.2,50.6 61.7,52.6" fill="black"/><path d="M 54.3,69.8 L 58.2,72.1 62,74.1 65.5,76.4 68.8,78.6 71.9,81 74.7,83.4 77.3,85.8 79.7,88.3 81.9,90.9 83.8,93.5 73.2,99.1 72.3,96.8 71.2,94.3 69.8,91.8 68.1,89.1 66.2,86.4 64.1,83.6 61.7,80.6 59.1,77.6 56.4,74.4 53.2,71.3" fill="black"/><path d="M 83.8,93.5 L 84.2,98 81.4,101.6 76.8,102 73.2,99.1" fill="black"/><path d="M 154.7,49 L 152.6,57.6 150.2,65.6 147.5,73.1 144.4,80.1 140.9,86.6 137.2,92.5 133,97.8 128.6,102.5 123.7,106.5 118.5,109.7 117.4,108.2 121.1,103.7 124.5,99 127.7,94 130.7,88.6 133.4,82.8 135.8,76.5 138,69.8 139.9,62.7 141.5,55 142.9,46.9" fill="black"/><path d="M 142.7,47.8 L 154.7,49 143.2,44.9" fill="black"/><path d="M 154.7,49 L 157.3,51.5 151.8,53.6" fill="black"/><path d="M 145.3,74.8 L 149.1,76.6 152.9,78.5 156.6,80.7 160.1,83.2 163.4,85.9 166.7,88.8 169.8,91.9 172.8,95.2 175.7,98.6 178.5,102.2 168.3,108.6 166.3,104.9 164.3,101.4 162.2,98 159.9,94.7 157.6,91.5 155.1,88.4 152.6,85.3 149.9,82.2 147.2,79.2 144.3,76.3" fill="black"/><path d="M 178.5,102.2 L 179.2,106.8 176.5,110.5 172,111.2 168.3,108.6" fill="black"/></svg>