<svg xmlns="http://www.w3.org/2000/svg" xmlns:xlink="http://www.w3.org/1999/xlink" version="1.1" baseProfile="full" viewBox="0 0 200 200" width="96" height="96"><path d="M 65.3,17.9 L 60.9,29 56.3,39.9 51.5,50.5 46.5,60.9 41.2,71.1 35.7,80.9 29.9,90.6 23.8,99.9 17.5,108.8 10.7,117.4 9.2,116.5 14.2,106.8 19.2,97.1 24.1,87.4 28.9,77.4 33.6,67.3 38,57 42.3,46.5 46.4,35.9 50.3,25 54,13.9" fill="black"/><path d="M 53.6,14.9 L 65.3,17.9 54.5,12.5" fill="black"/><path d="M 65.3,17.9 L 67.4,20.8 61.7,21.9" fill="black"/><path d="M 46,64 L 46,183 34,189 34,64" fill="black"/><path d="M 64,97 L 123,97 123,101 64,101" fill="black"/><path d="M 123,97 L 99,99 111,87" fill="black"/><path d="M 101,97 L 101,163 89,163 89,97" fill="black"/><path d="M 95,129 L 120,129 120,133 95,133" fill="black"/><path d="M 120,129 L 104,131 112,122" fill="black"/><path d="M 83.9,114.1 L 83.3,124 82.3,133.3 81.1,142.1 79.5,150.4 77.6,158.1 75.4,165.2 72.8,171.8 69.9,177.7 66.5,183 62.7,187.4 61.2,186.5 63.1,181.2 64.9,175.6 66.6,169.6 68.1,163.2 69.3,156.3 70.3,148.9 71.1,140.9 71.6,132.4 71.9,123.4 71.9,113.8" fill="black"/><path d="M 71.9,114.8 L 83.9,114.1 72,111.5" fill="black"/><path d="M 83.9,114.1 L 86.9,116.1 81.8,119" fill="black"/><path d="M 79.9,135.9 L 82.9,144.2 87.1,151.1 92.6,156.8 99.6,161.5 108.2,165.4 118.6,168.3 130.9,170.3 144.9,171.3 160.8,171.4 178.5,170.4 179.4,183.5 160.9,183.9 144.2,183.1 129.3,181.2 116.1,178.2 104.7,174 95.2,168.6 87.6,162 82.1,154.2 79,145.5 78.2,136" fill="black"/><path d="M 179.4,183.5 L 178.5,170.4 189.6,169.7" fill="black"/><path d="M 81,22 L 81,82 69,88 69,16" fill="black"/><path d="M 75,22 L 111,22 111,26 75,26" fill="black"/><path d="M 116.5,24 L 116.5,79 105.5,84.5 105.5,24" fill="black"/><path d="M 105.5,22 L 111,17 121.5,26 116.5,29.5 105.5,24" fill="black"/><path d="M 75,47 L 111,47 111,51 75,51" fill="black"/><path d="M 75,71 L 111,71 111,75 75,75" fill="black"/><path d="M 123,26 L 181,26 181,30 123,30" fill="black"/><path d="M 181,26 L 157,28 169,16" fill="black"/><path d="M 159.9,28 L 158.5,30.3 157.1,32.5 155.6,34.8 154.2,37 152.6,39.3 151.1,41.5 149.5,43.7 147.8,45.9 146.1,48 144.2,50.1 142.8,52.4 141.1,51.5 142,49 142.5,46.3 143.1,43.6 143.7,41 144.3,38.4 144.9,35.8 145.6,33.3 146.2,30.7 146.8,28.2 146.8,28" fill="black"/><path d="M 138.5,50 L 138.5,128 127.5,133.5 127.5,44.5" fill="black"/><path d="M 133,50 L 169,50 169,54 133,54" fill="black"/><path d="M 175,52 L 175,128 163,134 163,52" fill="black"/><path d="M 163,50 L 169,45 180,54 175,58 163,52" fill="black"/><path d="M 133,75 L 169,75 169,79 133,79" fill="black"/><path d="M 133,99 L 169,99 169,103 133,103" fill="black"/><path d="M 133,124 L 169,124 169,128 133,128" fill="black"/><path d="M 149.3,143.3 L 146.8,145.9 144,148.5 141.1,151 138,153.4 134.6,155.7 131,158 127.2,160.1 123.2,162.1 118.8,163.9 114.4,165.7 113.5,164.2 117.2,161.2 120.6,158.1 123.8,155.2 126.8,152.4 129.5,149.6 132,146.8 134.2,144.1 136.2,141.5 138,138.8 139.5,136.3" fill="black"/><path d="M 138.9,137.1 L 149.3,143.3 140,135.6" fill="black"/><path d="M 149.3,143.3 L 150.5,146.6 144.7,146.2" fill="black"/><path d="M 155.3,135.7 L 158.1,136.9 161,138 163.8,139.3 166.5,140.8 169.2,142.5 171.7,144.3 174,146.3 176.3,148.5 178.5,150.8 180.6,153.3 170.3,159.5 169.2,157.1 168.1,154.7 166.8,152.4 165.4,150.1 163.9,147.9 162.3,145.7 160.5,143.5 158.7,141.3 156.7,139.1 154.4,137.2" fill="black"/><path d="M 180.6,153.3 L 181.2,157.8 178.5,161.5 174,162.1 170.3,159.5" fill="black"/></svg>