<svg xmlns="http://www.w3.org/2000/svg" xmlns:xlink="http://www.w3.org/1999/xlink" version="1.1" baseProfile="full" viewBox="0 0 200 200" width="96" height="96"><path d="M 22.2,31.5 L 26.2,32.8 30.2,34.1 33.8,35.7 37.3,37.4 40.6,39.4 43.7,41.6 46.6,44 49.2,46.7 51.7,49.5 53.8,52.5 43.2,58.1 42.2,55.5 40.9,52.9 39.3,50.4 37.6,47.9 35.5,45.4 33.2,42.9 30.7,40.4 27.9,37.9 24.9,35.4 21.5,33.2" fill="black"/><path d="M 53.8,52.5 L 54.2,57 51.4,60.6 46.8,61 43.2,58.1" fill="black"/><path d="M 14.3,120 L 19.8,124.1 24.7,128.6 29,133.4 32.6,138.6 35.7,144 38.1,149.7 39.8,155.7 41,161.8 41.4,168.2 41.3,174.7 29.4,173.2 30.1,167.9 30.3,162.6 30,157.4 29.1,152.3 27.8,147.2 25.9,142.1 23.5,137 20.5,131.9 17.1,126.7 13.1,121.3" fill="black"/><path d="M 41.3,174.7 L 39,178.6 34.6,179.9 30.6,177.6 29.4,173.2" fill="black"/><path d="M 23.1,135.4 L 26.7,130.8 30.6,125.4 34.7,119.3 39.1,112.4 43.7,104.7 48.6,96.3 53.7,87.2 59.1,77.3 64.9,66.8 71.1,55.6 72.8,56.3 68.4,68.4 64,79.6 59.6,90.1 55.3,99.8 51.2,108.7 47.2,116.9 43.4,124.4 39.7,131.1 36.2,137.2 32.8,142.5" fill="black"/><path d="M 64,26 L 187,26 187,30 64,30" fill="black"/><path d="M 187,26 L 163,28 175,16" fill="black"/><path d="M 135.6,28 L 132.9,31.3 130.5,34.2 127.9,37 125.3,39.8 122.5,42.5 119.7,45.1 116.7,47.6 113.6,50 110.3,52.3 106.9,54.4 103.5,56.6 102.4,55.3 104.9,52.2 107.2,49 109.4,45.9 111.6,42.9 113.7,39.8 115.8,36.8 117.7,33.7 119.6,30.7 121.1,28" fill="black"/><path d="M 92,54 L 92,151 80,157 80,48" fill="black"/><path d="M 86,54 L 162,54 162,58 86,58" fill="black"/><path d="M 168,56 L 168,144 156,150 156,56" fill="black"/><path d="M 156,54 L 162,49 173,58 168,62 156,56" fill="black"/><path d="M 86,83 L 162,83 162,87 86,87" fill="black"/><path d="M 86,111 L 162,111 162,115 86,115" fill="black"/><path d="M 86,140 L 162,140 162,144 86,144" fill="black"/><path d="M 114.6,162.4 L 109.4,165.6 103.7,168.6 97.7,171.6 91.3,174.5 84.5,177.2 77.3,179.9 69.7,182.4 61.6,184.8 53.2,186.9 44.2,188.8 43.7,187.1 51.9,183.3 59.8,179.7 67.3,176.3 74.4,172.9 81,169.5 87.2,166.1 93,162.7 98.3,159.4 103.2,156 107.7,152.6" fill="black"/><path d="M 106.8,153.2 L 114.6,162.4 114.8,162.3" fill="black"/><path d="M 114.8,162.3 L 114.9,165.9 109.5,163.6" fill="black"/><path d="M 131.2,153.4 L 137.2,154.3 143,155.5 148.5,157.1 153.7,158.9 158.7,161 163.5,163.3 168,165.8 172.3,168.5 176.3,171.5 180.1,174.6 171.6,183.1 168.8,180 165.6,177 162.3,174.1 158.6,171.2 154.6,168.5 150.4,165.8 145.8,163.1 141,160.5 136,157.8 130.6,155.1" fill="black"/><path d="M 180.1,174.6 L 181.8,178.8 180.1,183.1 175.8,184.8 171.6,183.1" fill="black"/></svg>