<svg xmlns="http://www.w3.org/2000/svg" xmlns:xlink="http://www.w3.org/1999/xlink" version="1.1" baseProfile="full" viewBox="0 0 200 200" width="96" height="96"><path d="M 29,42 L 29,146 17,152 17,36" fill="black"/><path d="M 23,42 L 55,42 55,46 23,46" fill="black"/><path d="M 60.5,44 L 60.5,140 49.5,145.5 49.5,44" fill="black"/><path d="M 49.5,42 L 55,37 65.5,46 60.5,49.5 49.5,44" fill="black"/><path d="M 23,130 L 55,130 55,134 23,134" fill="black"/><path d="M 73.3,15.9 L 76,17.8 78.8,19.6 81.4,21.6 83.8,23.9 86,26.4 88,29.1 89.9,32 91.5,35.1 93,38.4 94.2,41.8 82.5,44.3 82.2,41.3 81.7,38.5 81.1,35.7 80.4,33 79.5,30.3 78.4,27.7 77.1,25 75.7,22.4 74.2,19.7 72.1,17.3" fill="black"/><path d="M 94.2,41.8 L 93.3,46.3 89.6,48.9 85.1,48 82.5,44.3" fill="black"/><path d="M 122,19.3 L 120.1,22.7 118.2,26.1 116.1,29.6 114,33.1 111.8,36.7 109.4,40.4 107,44.1 104.4,47.8 101.6,51.5 98.7,55.4 97.2,54.5 98.7,50 100,45.6 101.5,41.3 103,37.2 104.4,33.1 105.9,29.2 107.2,25.4 108.6,21.6 109.8,18 111.1,14.4" fill="black"/><path d="M 110.7,15.3 L 122,19.3 111.6,13.2" fill="black"/><path d="M 122,19.3 L 124,22.3 118.2,23.1" fill="black"/><path d="M 66,53 L 129,53 129,57 66,57" fill="black"/><path d="M 129,53 L 105,55 117,43" fill="black"/><path d="M 79,71 L 79,120 69,125 69,69" fill="black"/><path d="M 69,114 L 64,120 72,130 79,122" fill="black"/><path d="M 79,71 L 81.5,73 77,76" fill="black"/><path d="M 74,118 L 115,118 115,122 74,122" fill="black"/><path d="M 120.5,71 L 120.5,128 109.5,133.5 109.5,69" fill="black"/><path d="M 120.5,71 L 123.2,73 118.5,76" fill="black"/><path d="M 101,53 L 101,117 91,117 91,53" fill="black"/><path d="M 91,117 L 93,120 96,122 99,120 101,117" fill="black"/><path d="M 100.9,117 L 100.2,127.4 98.8,137.1 96.8,146.1 94.2,154.5 90.9,162.1 87.1,169 82.5,175.2 77.4,180.6 71.7,185 65.4,188.6 64.5,187.3 69.7,182.6 74.2,177.5 78.1,172 81.6,165.9 84.5,159.3 86.8,152.1 88.7,144.2 90,135.8 90.7,126.6 91,116.9" fill="black"/><path d="M 146.8,17.8 L 145.2,26.2 143.5,34.5 141.6,42.8 139.5,50.9 137.3,58.9 134.9,66.9 132.3,74.7 129.4,82.4 126.3,89.9 122.8,97.2 121.1,96.7 122.7,88.7 124.3,80.8 125.9,72.9 127.5,65 129,57 130.4,48.9 131.7,40.8 132.9,32.6 133.9,24.4 134.9,16.1" fill="black"/><path d="M 134.7,17.1 L 146.8,17.8 135.2,14.1" fill="black"/><path d="M 146.8,17.8 L 149.4,20.2 144.1,22.4" fill="black"/><path d="M 135,49 L 178,49 178,53 135,53" fill="black"/><path d="M 183.5,53.2 L 182.3,55.1 181.1,57.2 179.7,59.5 178.3,61.9 176.8,64.6 175.2,67.4 173.4,70.3 171.6,73.4 169.6,76.7 167.8,80.3 166.1,79.6 167.1,75.8 167.7,72 168.3,68.4 169,65 169.6,61.8 170.3,58.9 170.8,56 171.4,53.4 171.9,51 172.4,48.7" fill="black"/><path d="M 172,49 L 178,44 189,53 184,56 172,61" fill="black"/><path d="M 157.9,69.2 L 156.1,91.7 153.7,110.8 150.7,127.1 147.1,140.8 142.8,152.4 137.7,162.1 131.9,170.2 125.5,176.9 118.3,182.6 110.5,187.7 109.4,186.2 115.9,179.8 121.6,173.2 126.6,166.3 131.1,158.4 134.9,149.2 138.2,138.3 140.9,125.2 143.1,109.4 144.8,90.7 145.9,68.7" fill="black"/><path d="M 145.9,69.7 L 157.9,69.2 146,66.4" fill="black"/><path d="M 157.9,69.2 L 160.8,71.4 155.6,74.1" fill="black"/><path d="M 154.9,74.9 L 156.9,91.8 159.1,106.8 161.6,119.9 164.4,131.5 167.4,141.5 170.8,150.3 174.3,157.9 178.1,164.7 182.1,170.6 186.3,176 175.6,183.9 171.6,177.4 167.8,170.3 164.3,162.5 161.2,153.8 158.5,144.1 156.2,133.3 154.5,121.1 153.3,107.4 152.8,92.1 153.1,75" fill="black"/><path d="M 175.6,183.9 L 186.3,176 186.3,176.1" fill="black"/></svg>