<svg xmlns="http://www.w3.org/2000/svg" xmlns:xlink="http://www.w3.org/1999/xlink" version="1.1" baseProfile="full" viewBox="0 0 200 200" width="96" height="96"><path d="M 14,68 L 77,68 77,72 14,72" fill="black"/><path d="M 77,68 L 53,70 65,58" fill="black"/><path d="M 51,19 L 51,143 39,143 39,17" fill="black"/><path d="M 51,19 L 54,21 49,24" fill="black"/><path d="M 12.9,151 L 18.1,149.4 23.5,147.7 29.2,145.8 35.2,143.8 41.5,141.5 48.1,139 54.9,136.4 62.1,133.7 69.6,130.9 77.5,128.1 78.4,129.8 71.3,134.4 64.4,138.6 57.7,142.4 51.2,146 44.9,149.3 38.8,152.3 33,155.1 27.4,157.7 22,160.1 16.9,162.3" fill="black"/><path d="M 16.9,162.3 L 12.9,151 11,151.6" fill="black"/><path d="M 16.9,162.3 L 19.7,164.5 21.5,157.5" fill="black"/><path d="M 123,16 L 123,118 111,118 111,14" fill="black"/><path d="M 123,16 L 126,18 121,21" fill="black"/><path d="M 111,118 L 113.4,121.6 117,124 120.6,121.6 123,118" fill="black"/><path d="M 123,118 L 122.2,129.2 120.6,139.6 118,149.2 114.5,157.9 110.1,165.6 104.8,172.4 98.6,178.2 91.6,182.9 83.8,186.4 75.2,188.8 74.7,187.1 82.1,183 88.6,178.4 94.2,173.3 98.9,167.6 102.8,161.3 106,154.2 108.3,146.4 110,137.7 110.9,128.3 111,118" fill="black"/><path d="M 85,46 L 117,46 117,50 85,50" fill="black"/><path d="M 83,88 L 117,88 117,92 83,92" fill="black"/><path d="M 73.7,134 L 80.5,131.6 87.1,129.2 93.6,126.8 100,124.5 106.2,122.2 112.3,120 118.2,117.8 124.1,115.8 129.8,113.9 135.5,112.1 136.4,113.8 131.5,117.3 126.4,120.6 121,123.8 115.4,126.9 109.7,130 103.7,133 97.6,136.1 91.2,139.1 84.8,142.1 78.1,145.1" fill="black"/><path d="M 78.1,145.1 L 73.7,134 71.8,134.8" fill="black"/><path d="M 78.1,145.1 L 81.1,147.2 82.6,140.1" fill="black"/><path d="M 154,16 L 154,181 142,187 142,14" fill="black"/><path d="M 154,16 L 157,18 152,21" fill="black"/><path d="M 148,46 L 186,46 186,50 148,50" fill="black"/><path d="M 186,46 L 166,48 176,37" fill="black"/><path d="M 148,88 L 182,88 182,92 148,92" fill="black"/><path d="M 182,88 L 166,90 174,81" fill="black"/><path d="M 148,130 L 188,130 188,134 148,134" fill="black"/><path d="M 188,130 L 168,132 178,121" fill="black"/></svg>