<svg xmlns="http://www.w3.org/2000/svg" xmlns:xlink="http://www.w3.org/1999/xlink" version="1.1" baseProfile="full" viewBox="0 0 200 200" width="96" height="96"><path d="M 37.9,16.3 L 36.8,26.1 35.5,35.5 33.8,44.6 31.8,53.4 29.6,61.7 26.9,69.7 24,77.3 20.7,84.5 16.9,91.2 12.7,97.4 11.2,96.5 13.5,89.6 15.7,82.5 17.8,75.1 19.7,67.6 21.3,59.7 22.7,51.5 23.9,43 24.8,34.2 25.5,25.1 25.9,15.6" fill="black"/><path d="M 25.8,16.6 L 37.9,16.3 26,13.3" fill="black"/><path d="M 37.9,16.3 L 40.8,18.5 35.6,21.2" fill="black"/><path d="M 27,54 L 79,54 79,58 27,58" fill="black"/><path d="M 84.9,56.1 L 84.5,75.1 84,92.4 83.4,108.1 82.7,122.2 81.9,134.6 81,145.3 80,154.5 78.9,162 77.7,168.1 76.2,172.9 65.1,168.4 66,165.3 67.1,160.1 68.1,153 69,144.2 69.9,133.7 70.7,121.5 71.4,107.6 72,92 72.5,74.8 73,55.8" fill="black"/><path d="M 73,54 L 79,49 90,58 85,61 73,66" fill="black"/><path d="M 76.2,172.9 L 75.2,175.2 73.9,177.3 72.4,179.3 70.7,181.1 68.7,182.6 66.6,183.8 64.3,184.8 61.9,185.4 59.5,185.8 57,186 57,174 58.3,173.9 59.5,173.7 60.4,173.4 61.3,173.1 62,172.7 62.7,172.1 63.3,171.5 63.9,170.7 64.5,169.7 65.1,168.4" fill="black"/><path d="M 57,180 L 57,174 41,174 41,177" fill="black"/><path d="M 49,56 L 48.9,56.7 47,67.7 44.8,78.3 42.3,88.5 39.4,98.3 36.2,107.7 32.7,116.8 28.8,125.4 24.6,133.6 19.9,141.3 14.7,148.4 13.2,147.5 16.5,139.5 19.7,131.3 22.8,122.9 25.6,114.2 28.2,105.2 30.5,95.9 32.5,86.2 34.3,76.2 35.8,65.9 36.9,56" fill="black"/><path d="M 67.9,56 L 67.9,56.6 65.5,73.8 62.5,90 58.8,105.2 54.6,119.2 49.7,132.2 44.1,144.1 38,154.8 31.2,164.4 23.7,172.7 15.6,179.6 14.3,178.3 20.8,170.2 26.8,161.3 32.3,151.5 37.3,140.9 41.7,129.2 45.7,116.5 49.1,102.8 51.9,88 54.2,72.2 55.9,56" fill="black"/><path d="M 171.2,23.9 L 164,26.3 156.7,28.4 149.3,30.1 141.8,31.6 134.2,32.7 126.5,33.5 118.8,34 110.9,34.1 103,33.7 95,32.9 95,31.1 102.8,29.9 110.5,28.7 118.1,27.5 125.5,26 132.7,24.4 139.8,22.5 146.8,20.4 153.6,18.1 160.2,15.5 166.8,12.8" fill="black"/><path d="M 165.9,13.1 L 171.2,23.9 175.9,22" fill="black"/><path d="M 175.9,22 L 176.1,25.2 169.6,22.4" fill="black"/><path d="M 103.3,37.2 L 104.9,38.9 106.9,40.4 108.7,42 110.5,43.7 112.1,45.4 113.6,47.3 115,49.2 116.4,51.2 117.6,53.2 118.8,55.3 107.3,58.8 107.2,56.9 106.9,55 106.6,53 106.2,51 105.7,48.9 105.1,46.8 104.5,44.7 103.8,42.5 103.1,40.3 101.9,38.3" fill="black"/><path d="M 118.8,55.3 L 118.3,59.9 114.8,62.8 110.3,62.3 107.3,58.8" fill="black"/><path d="M 129.3,35 L 130.7,36.3 132.4,37.2 134.1,38.4 135.6,39.7 137.1,41.2 138.5,42.9 139.8,44.6 141,46.5 142.1,48.6 143.1,50.7 131.4,53.4 131.4,51.5 131.4,49.8 131.3,48 131.1,46.3 130.8,44.6 130.5,42.9 130.1,41.1 129.6,39.4 129.1,37.7 128,36.3" fill="black"/><path d="M 143.1,50.7 L 142.3,55.2 138.6,57.9 134.1,57.1 131.4,53.4" fill="black"/><path d="M 170.5,37.5 L 169.1,40.9 167.6,44.2 166,47.3 164.4,50.3 162.6,53.2 160.8,56 158.9,58.6 156.9,61 154.7,63.2 152.7,65.4 151.2,64.5 152.4,61.8 153.2,58.9 154,56 154.8,53.1 155.6,50.2 156.4,47.1 157.1,44 157.7,40.9 158.3,37.6 158.9,34.3" fill="black"/><path d="M 158.6,35.3 L 170.5,37.5 159.4,32.7" fill="black"/><path d="M 170.5,37.5 L 172.8,40.2 167.2,41.8" fill="black"/><path d="M 96.9,60.9 L 97.4,65.6 98.2,69.9 98.6,73.9 98.8,77.7 98.8,81.2 98.5,84.4 98,87.5 97.1,90.3 95.9,93 94.2,95.4 86.2,86.5 87,86.2 88,85.4 89.1,84 90.2,82.1 91.3,79.7 92.3,76.9 93.2,73.5 94,69.8 94.8,65.6 95.1,61" fill="black"/><path d="M 94.2,95.4 L 89.8,96.9 85.7,94.9 84.3,90.6 86.2,86.5" fill="black"/><path d="M 97,68 L 177,68 177,72 97,72" fill="black"/><path d="M 182.6,72.1 L 181.5,73.7 180.3,75.4 178.9,77.2 177.5,79.1 176,81.1 174.3,83.2 172.6,85.3 170.6,87.5 168.5,89.8 166.7,92.4 165.2,91.5 166.5,88.6 167.3,85.7 168,82.9 168.8,80.3 169.4,77.8 170,75.5 170.5,73.3 170.8,71.3 171.1,69.5 171.3,67.8" fill="black"/><path d="M 171,68 L 177,63 188,72 183,75 171,80" fill="black"/><path d="M 104.9,80.9 L 105.4,85.2 106.1,89.2 106.6,93 106.7,96.6 106.7,99.9 106.4,103.1 105.9,106.1 105.1,108.9 103.9,111.6 102.3,114.1 93.8,105.6 94.8,105 96,104 97.1,102.6 98.2,100.7 99.3,98.4 100.3,95.7 101.2,92.6 102,89.1 102.8,85.2 103.1,81" fill="black"/><path d="M 102.3,114.1 L 98.1,115.8 93.8,114.1 92.1,109.8 93.8,105.6" fill="black"/><path d="M 124,82 L 124,105 112,105 112,80" fill="black"/><path d="M 124,82 L 127,84 122,87" fill="black"/><path d="M 112,105 L 114.4,108.6 118,111 121.6,108.6 124,105" fill="black"/><path d="M 124,105 L 123.9,106.2 124,107.1 124.1,107.8 124.2,108.2 124.3,108.6 124.5,108.9 124.9,109.2 125.6,109.5 126.6,109.8 128,110 128,120 125.5,119.9 123.1,119.6 120.8,118.9 118.6,117.8 116.6,116.3 114.9,114.5 113.6,112.3 112.7,110 112.2,107.5 112,105" fill="black"/><path d="M 128,110 L 131.5,111.5 133,115 131.5,118.5 128,120" fill="black"/><path d="M 128,110 L 154,110 154,120 128,120" fill="black"/><path d="M 154,110 L 157,112 159,115 157,118 154,120" fill="black"/><path d="M 154,110 L 156,93 154,93 149,110" fill="black"/><path d="M 128.3,76.8 L 130.1,77.8 132.1,78.5 134.1,79.5 136.1,80.8 138,82.2 139.8,83.8 141.5,85.6 143.2,87.5 144.8,89.6 146.3,91.8 135.3,96.6 134.8,94.4 134.2,92.4 133.6,90.4 133,88.5 132.3,86.6 131.5,84.8 130.6,83.1 129.7,81.3 128.7,79.5 127.3,78.3" fill="black"/><path d="M 146.3,91.8 L 146.3,96.4 143.1,99.7 138.6,99.7 135.3,96.6" fill="black"/><path d="M 156.3,81 L 158.6,82.9 161,84.7 163.3,86.7 165.4,88.8 167.3,91.1 169.1,93.6 170.6,96.3 172.1,99 173.3,101.9 174.3,105 162.5,107 162.4,104.5 162.2,102 161.8,99.6 161.3,97.1 160.7,94.6 159.9,92.2 159,89.7 157.9,87.2 156.7,84.6 155,82.3" fill="black"/><path d="M 174.3,105 L 173.3,109.4 169.5,111.9 165,110.9 162.5,107" fill="black"/><path d="M 129,127.3 L 126.1,132.6 123,137.6 119.5,142.4 115.8,146.8 111.8,151 107.5,154.9 102.9,158.4 98.1,161.6 92.9,164.4 87.4,166.7 86.5,165.2 90.7,161.3 94.8,157.4 98.6,153.5 102.1,149.5 105.4,145.4 108.5,141.1 111.2,136.7 113.8,132.1 116,127.4 118.1,122.4" fill="black"/><path d="M 117.7,123.3 L 129,127.3 118.6,121.2" fill="black"/><path d="M 129,127.3 L 131,130.3 125.2,131.1" fill="black"/><path d="M 118,135 L 157,135 157,139 118,139" fill="black"/><path d="M 162.2,139.9 L 156.6,148.3 150.4,155.9 143.7,162.7 136.4,168.9 128.6,174.2 120.3,178.8 111.4,182.6 102.1,185.6 92.3,187.7 82.1,188.8 81.8,187.1 91.4,184 100.4,180.5 108.8,176.6 116.6,172.1 123.8,167.2 130.5,161.7 136.6,155.6 142.1,149 147.2,141.8 151.7,134" fill="black"/><path d="M 151,135 L 157,130 168,139 163,142 151,147" fill="black"/><path d="M 119.1,138.6 L 123.4,145.2 127.8,151.2 132.6,156.4 137.7,161 143.3,164.9 149.3,168.2 155.8,170.9 162.9,173 170.5,174.5 178.7,175.4 177.2,188.5 168,186.8 159.5,184.3 151.6,181.1 144.3,177.1 137.8,172.5 132,167.1 127.1,161.1 122.9,154.4 119.7,147.1 117.5,139.2" fill="black"/><path d="M 177.2,188.5 L 178.7,175.4 189.1,176.5" fill="black"/></svg>