<svg xmlns="http://www.w3.org/2000/svg" xmlns:xlink="http://www.w3.org/1999/xlink" version="1.1" baseProfile="full" viewBox="0 0 200 200" width="96" height="96"><path d="M 15,53 L 76,53 76,57 15,57" fill="black"/><path d="M 76,53 L 52,55 64,43" fill="black"/><path d="M 51,16 L 51,171 39,171 39,14" fill="black"/><path d="M 51,16 L 54,18 49,21" fill="black"/><path d="M 39,171 L 41.4,174.6 45,177 48.6,174.6 51,171" fill="black"/><path d="M 51,171 L 50.8,173.5 50.4,176 49.6,178.4 48.3,180.7 46.7,182.7 44.7,184.3 42.4,185.6 40,186.4 37.5,186.8 35,187 35,175 36.2,174.9 37.1,174.7 37.7,174.5 38,174.4 38.2,174.2 38.4,174 38.5,173.7 38.7,173.1 38.9,172.2 39,171" fill="black"/><path d="M 35,181 L 35,175 21,175 21,178" fill="black"/><path d="M 13.3,116.1 L 19.6,113.5 25.9,110.8 32.1,108.1 38.3,105.5 44.5,102.8 50.7,100.2 56.8,97.5 63,94.9 69.2,92.5 75.5,90.2 76.4,91.7 71,95.8 65.5,99.7 59.9,103.3 54.2,106.9 48.4,110.4 42.5,113.8 36.5,117.2 30.5,120.5 24.5,123.7 18.4,127" fill="black"/><path d="M 18.4,127 L 13.3,116.1 11.5,116.9" fill="black"/><path d="M 18.4,127 L 21.5,128.8 22.6,121.7" fill="black"/><path d="M 98.9,19.5 L 97.4,21.6 95.8,23.7 94.2,25.8 92.5,27.9 90.9,29.9 89.1,32 87.3,34.1 85.4,36.2 83.4,38.2 81.7,40.4 80.2,39.5 81.3,36.9 82,34.2 82.7,31.6 83.5,29 84.3,26.4 85.1,23.9 85.9,21.4 86.7,19 87.4,16.5 88.1,14.2" fill="black"/><path d="M 87.7,15.1 L 98.9,19.5 88.7,13.1" fill="black"/><path d="M 98.9,19.5 L 100.7,22.7 94.8,23.1" fill="black"/><path d="M 74.3,32.8 L 76.2,34 78.4,34.8 80.5,35.9 82.4,37.1 84.2,38.4 86,39.9 87.6,41.5 89.1,43.3 90.5,45.2 91.7,47.2 80.3,51 80.2,49.4 80,47.8 79.6,46.2 79.2,44.5 78.6,42.8 77.9,41.1 77,39.4 76,37.6 74.9,35.7 73.3,34.3" fill="black"/><path d="M 91.7,47.2 L 91.3,51.8 87.9,54.8 83.3,54.4 80.3,51" fill="black"/><path d="M 110.9,33.5 L 108.4,37.7 105.9,41.8 103.2,45.9 100.5,50 97.7,54 94.8,58.1 91.8,62 88.6,66 85.3,69.8 81.7,73.4 80.2,72.5 82.2,67.7 84.2,63.1 86.3,58.6 88.4,54.2 90.4,49.8 92.5,45.4 94.5,41.1 96.4,36.8 98.3,32.5 100.1,28.2" fill="black"/><path d="M 99.7,29.1 L 110.9,33.5 100.7,27.1" fill="black"/><path d="M 110.9,33.5 L 112.7,36.7 106.8,37.1" fill="black"/><path d="M 74.2,67.9 L 77.4,67.9 80.6,67.9 83.7,67.8 86.8,67.7 90,67.7 93.1,67.6 96.3,67.5 99.4,67.4 102.6,67.4 105.7,67.1 106.2,68.8 103.3,70 100.4,71.5 97.5,72.8 94.5,74.1 91.4,75.2 88.3,76.2 85.2,77.2 82.1,78.1 78.9,79 75.6,79.8" fill="black"/><path d="M 75.6,79.8 L 74.2,67.9 72.3,68.1" fill="black"/><path d="M 75.6,79.8 L 78,82.5 81.3,76.1" fill="black"/><path d="M 99.3,53.1 L 100.9,54.7 102.9,56 104.7,57.6 106.4,59.2 107.9,61 109.4,63 110.8,65 112,67.1 113.2,69.4 114.2,71.8 102.5,74.3 102.4,72.3 102.3,70.3 102.1,68.3 101.8,66.3 101.5,64.3 101,62.3 100.5,60.3 99.8,58.2 99.2,56.1 97.9,54.3" fill="black"/><path d="M 114.2,71.8 L 113.3,76.2 109.6,78.9 105.1,78 102.5,74.3" fill="black"/><path d="M 99,70 L 99,116 87,122 87,70" fill="black"/><path d="M 88.8,85.6 L 87.9,89 86.9,92.3 85.8,95.6 84.5,98.7 83.1,101.9 81.5,104.9 79.8,107.9 77.9,110.8 75.7,113.5 73.7,116.4 72.2,115.5 73.3,112.3 73.9,109 74.6,105.8 75.2,102.7 75.8,99.5 76.2,96.4 76.5,93.4 76.7,90.3 76.9,87.3 76.9,84.2" fill="black"/><path d="M 76.8,85.2 L 88.8,85.6 77.1,82.2" fill="black"/><path d="M 88.8,85.6 L 91.5,88 86.2,90.4" fill="black"/><path d="M 99.3,81 L 100.9,82.4 102.9,83.6 104.7,85.1 106.4,86.7 108,88.5 109.5,90.5 110.8,92.6 112.1,94.9 113.2,97.3 114.2,99.8 102.5,102.2 102.4,100 102.3,97.9 102.1,95.8 101.8,93.8 101.5,91.8 101,89.8 100.5,87.9 99.9,85.9 99.2,83.9 98,82.3" fill="black"/><path d="M 114.2,99.8 L 113.3,104.3 109.5,106.9 105.1,106 102.5,102.2" fill="black"/><path d="M 172,19.3 L 170.8,21 169.4,22.6 168,24.4 166.4,26.1 164.7,27.9 162.9,29.7 161,31.5 158.9,33.4 156.6,35.3 154.7,37.5 153.2,36.4 154.8,33.9 155.8,31.2 156.8,28.7 157.7,26.3 158.5,24 159.2,21.8 159.8,19.8 160.4,17.9 160.8,16.1 161.1,14.4" fill="black"/><path d="M 160.7,15.3 L 172,19.3 161.6,13.2" fill="black"/><path d="M 172,19.3 L 174,22.3 168.2,23.1" fill="black"/><path d="M 146.3,32.8 L 148,33.8 150,34.4 152,35.2 153.9,36.2 155.7,37.3 157.4,38.5 159.1,39.8 160.7,41.2 162.3,42.8 163.8,44.4 153.2,50.2 152.8,48.6 152.3,46.9 151.8,45.3 151.1,43.7 150.4,42.1 149.6,40.5 148.7,38.9 147.8,37.2 146.7,35.5 145.3,34.3" fill="black"/><path d="M 163.8,44.4 L 164.2,49 161.4,52.6 156.8,53 153.2,50.2" fill="black"/><path d="M 183.6,34.9 L 181.3,38 179,41.3 176.5,44.6 173.8,48.1 171.1,51.6 168.1,55.3 165.1,59 161.8,62.8 158.3,66.6 154.7,70.5 153.2,69.4 155.5,64.6 157.6,60 159.8,55.5 162,51.3 164.1,47.2 166.1,43.2 168,39.4 169.9,35.7 171.6,32.2 173.3,28.8" fill="black"/><path d="M 172.8,29.6 L 183.6,34.9 173.8,27.9" fill="black"/><path d="M 183.6,34.9 L 185.2,38.1 179.4,38.1" fill="black"/><path d="M 146.2,65.9 L 149.4,65.9 152.6,65.8 155.8,65.8 159,65.7 162.3,65.6 165.5,65.5 168.8,65.4 172.1,65.4 175.4,65.4 178.7,65.1 179.2,66.8 176.1,68.1 173,69.6 169.9,70.9 166.8,72.1 163.6,73.2 160.5,74.3 157.3,75.2 154.1,76.1 150.9,77 147.6,77.8" fill="black"/><path d="M 147.6,77.8 L 146.2,65.9 144.3,66.1" fill="black"/><path d="M 147.6,77.8 L 150,80.5 153.3,74.1" fill="black"/><path d="M 173.3,54.1 L 175.1,55.8 177.2,57.4 179.2,59.1 181,61 182.6,63.1 184.1,65.3 185.4,67.6 186.6,70 187.6,72.5 188.5,75.2 176.6,76.8 176.7,74.7 176.7,72.6 176.6,70.4 176.3,68.3 175.9,66.2 175.5,64 174.9,61.8 174.1,59.6 173.3,57.3 172,55.3" fill="black"/><path d="M 188.5,75.2 L 187.3,79.6 183.3,81.9 178.9,80.7 176.6,76.8" fill="black"/><path d="M 170,67 L 170,116 158,122 158,67" fill="black"/><path d="M 158,84 L 157.5,87.3 156.8,90.5 155.9,93.8 154.9,97 153.7,100.2 152.2,103.3 150.6,106.4 148.8,109.4 146.7,112.3 144.8,115.4 143.1,114.5 144.2,111.2 144.9,107.8 145.4,104.5 145.9,101.3 146.2,98.2 146.4,95.2 146.5,92.3 146.5,89.4 146.3,86.7 146,84" fill="black"/><path d="M 146,85 L 158,84 146,81.6" fill="black"/><path d="M 158,84 L 161,86 156,89" fill="black"/><path d="M 173.3,82.2 L 174.9,84.2 176.9,86 178.7,87.9 180.3,90 181.7,92.1 183,94.4 184.2,96.8 185.2,99.3 186,101.9 186.7,104.6 174.8,105.4 175,103.3 175.1,101.1 175.2,99 175.1,96.9 174.9,94.7 174.5,92.5 174.1,90.2 173.6,87.9 173,85.5 171.8,83.3" fill="black"/><path d="M 186.7,104.6 L 185.2,108.9 181.1,110.9 176.8,109.4 174.8,105.4" fill="black"/><path d="M 115,20 L 141,20 141,24 115,24" fill="black"/><path d="M 141,20 L 125,22 133,13" fill="black"/><path d="M 114,35 L 145,35 145,39 114,39" fill="black"/><path d="M 145,35 L 129,37 137,28" fill="black"/><path d="M 115,51 L 141,51 141,55 115,55" fill="black"/><path d="M 141,51 L 125,53 133,44" fill="black"/><path d="M 115,65 L 141,65 141,69 115,69" fill="black"/><path d="M 141,65 L 125,67 133,58" fill="black"/><path d="M 123.5,79 L 123.5,104 112.5,109.5 112.5,73.5" fill="black"/><path d="M 118,79 L 138,79 138,83 118,83" fill="black"/><path d="M 143.5,81 L 143.5,104 132.5,109.5 132.5,81" fill="black"/><path d="M 132.5,79 L 138,74 148.5,83 143.5,86.5 132.5,81" fill="black"/><path d="M 118,100 L 138,100 138,104 118,104" fill="black"/><path d="M 76,133 L 182,133 182,137 76,137" fill="black"/><path d="M 182,133 L 158,135 170,123" fill="black"/><path d="M 135,116 L 135,182 123,188 123,114" fill="black"/><path d="M 135,116 L 138,118 133,121" fill="black"/><path d="M 131.9,135 L 130.2,137.8 126.2,144.1 121.7,149.9 116.9,155.4 111.8,160.4 106.3,165.1 100.4,169.4 94.2,173.2 87.6,176.6 80.6,179.5 73.3,181.8 72.6,180.1 78.9,176.1 84.9,172 90.5,167.8 95.8,163.4 100.6,158.8 105.2,153.9 109.3,148.8 113.1,143.5 116.6,137.9 118.1,135" fill="black"/><path d="M 133.3,135.2 L 138.1,139.3 142.9,143.4 147.6,147.3 152.4,151 157.3,154.5 162.3,157.8 167.5,160.9 172.8,163.8 178.2,166.5 183.8,169 178.1,180.9 172.3,177.5 166.7,174 161.4,170.1 156.3,166.1 151.4,161.8 146.8,157.2 142.5,152.4 138.5,147.4 134.9,142 131.8,136.3" fill="black"/><path d="M 178.1,180.9 L 183.8,169 189.4,171.7" fill="black"/></svg>