<svg xmlns="http://www.w3.org/2000/svg" xmlns:xlink="http://www.w3.org/1999/xlink" version="1.1" baseProfile="full" viewBox="0 0 200 200" width="96" height="96"><path d="M 12,59 L 70,59 70,63 12,63" fill="black"/><path d="M 70,59 L 54,61 62,52" fill="black"/><path d="M 50,16 L 50,183 38,189 38,14" fill="black"/><path d="M 50,16 L 53,18 48,21" fill="black"/><path d="M 48,61 L 47.9,61.9 45.8,71.7 43.4,81.3 40.7,90.7 37.8,99.7 34.5,108.6 30.8,117.2 26.9,125.5 22.6,133.5 17.9,141.1 12.7,148.4 11.2,147.5 14.5,139.4 17.8,131.2 20.9,122.9 23.8,114.4 26.4,105.8 28.9,97 31,88.1 33,78.9 34.6,69.5 35.8,61" fill="black"/><path d="M 47.3,85.6 L 50.3,86.9 53.4,87.9 56.3,89.2 59.1,90.7 61.9,92.4 64.4,94.2 66.9,96.3 69.3,98.5 71.5,100.8 73.6,103.3 63.3,109.5 62.2,107.1 61.1,104.8 59.7,102.5 58.3,100.2 56.7,98 55,95.7 53.1,93.5 51.1,91.3 48.9,89.1 46.4,87.2" fill="black"/><path d="M 73.6,103.3 L 74.2,107.8 71.5,111.5 67,112.1 63.3,109.5" fill="black"/><path d="M 82,22 L 177,22 177,26 82,26" fill="black"/><path d="M 177,22 L 153,24 165,12" fill="black"/><path d="M 86.9,33 L 87.2,36.9 87.7,40.7 87.8,44.4 87.7,47.9 87.4,51.3 86.7,54.5 85.8,57.7 84.6,60.6 83.1,63.4 81.3,66.1 72.8,57.6 74.4,56.4 75.9,55 77.4,53.3 78.8,51.4 80.1,49.1 81.3,46.4 82.5,43.5 83.5,40.3 84.5,36.8 85.1,33" fill="black"/><path d="M 81.3,66.1 L 77.1,67.8 72.8,66.1 71.1,61.8 72.8,57.6" fill="black"/><path d="M 86,40 L 177,40 177,44 86,44" fill="black"/><path d="M 182.6,43.8 L 181.7,45.2 180.7,46.5 179.5,48 178.3,49.6 177,51.2 175.5,53 173.9,54.9 172.2,56.9 170.3,58.9 168.7,61.4 167.2,60.5 168.3,57.9 168.9,55.2 169.5,52.7 170,50.3 170.4,48.2 170.8,46.2 171.1,44.3 171.2,42.7 171.3,41.3 171.3,40.1" fill="black"/><path d="M 171,40 L 177,35 188,44 183,47 171,52" fill="black"/><path d="M 136,22 L 136,86 124,92 124,22" fill="black"/><path d="M 87,60 L 118,60 118,64 87,64" fill="black"/><path d="M 118,60 L 102,62 110,53" fill="black"/><path d="M 87,78 L 118,78 118,82 87,82" fill="black"/><path d="M 118,78 L 102,80 110,71" fill="black"/><path d="M 141,60 L 170,60 170,64 141,64" fill="black"/><path d="M 170,60 L 154,62 162,53" fill="black"/><path d="M 141,78 L 170,78 170,82 141,82" fill="black"/><path d="M 170,78 L 154,80 162,71" fill="black"/><path d="M 106.4,89.6 L 104.2,95.7 101.7,101.6 98.9,107.3 95.9,112.9 92.6,118.3 89,123.4 85.2,128.4 81,133.1 76.5,137.5 71.6,141.6 70.3,140.3 73.6,135.1 76.7,129.8 79.7,124.7 82.6,119.4 85.2,114.1 87.6,108.7 89.7,103.3 91.7,97.7 93.4,92 94.9,86.2" fill="black"/><path d="M 94.6,87.2 L 106.4,89.6 95.4,84.6" fill="black"/><path d="M 106.4,89.6 L 108.8,92.3 103.1,93.8" fill="black"/><path d="M 95,103 L 168,103 168,107 95,107" fill="black"/><path d="M 174,105 L 173.9,112.1 173.9,118.7 173.7,124.8 173.6,130.3 173.3,135.3 173.1,139.8 172.7,143.8 172.3,147.2 171.9,150.2 171.3,152.8 159.7,149.8 160.1,148.1 160.4,145.7 160.8,142.6 161.1,139 161.3,134.7 161.6,129.9 161.7,124.5 161.9,118.5 161.9,112 162,105" fill="black"/><path d="M 162,103 L 168,98 179,107 174,110 162,115" fill="black"/><path d="M 171.3,152.8 L 170.5,155.2 169.5,157.5 168.2,159.7 166.6,161.6 164.7,163.3 162.7,164.7 160.4,165.7 158,166.4 155.5,166.8 153,167 153,155 154.3,154.9 155.3,154.7 156.2,154.5 156.9,154.1 157.4,153.8 157.9,153.3 158.4,152.7 158.9,152 159.3,151 159.7,149.8" fill="black"/><path d="M 153,161 L 153,155 133,155 133,158" fill="black"/><path d="M 95,122 L 144,122 144,126 95,126" fill="black"/><path d="M 150,124 L 150,149 138,155 138,124" fill="black"/><path d="M 138,122 L 144,117 155,126 150,130 138,124" fill="black"/><path d="M 95,143 L 144,143 144,147 95,147" fill="black"/><path d="M 101,122 L 101,168 89,168 89,116" fill="black"/><path d="M 89,168 L 91.4,171.6 95,174 98.6,171.6 101,168" fill="black"/><path d="M 101,168 L 101,169.2 101.2,170.1 101.4,170.7 101.5,171 101.7,171.2 101.9,171.4 102.2,171.5 102.8,171.7 103.7,171.9 105,172 105,184 102.4,183.8 99.9,183.4 97.5,182.6 95.2,181.3 93.2,179.7 91.6,177.7 90.3,175.4 89.5,173 89.1,170.5 89,168" fill="black"/><path d="M 105,172 L 109.2,173.8 111,178 109.2,182.2 105,184" fill="black"/><path d="M 105,172 L 180,172 180,184 105,184" fill="black"/><path d="M 180,172 L 183.6,174.4 186,178 183.6,181.6 180,184" fill="black"/><path d="M 180,172 L 182,147 180,147 174,172" fill="black"/></svg>