<svg xmlns="http://www.w3.org/2000/svg" xmlns:xlink="http://www.w3.org/1999/xlink" version="1.1" baseProfile="full" viewBox="0 0 200 200" width="96" height="96"><path d="M 34,22 L 34,118 22,118 22,16" fill="black"/><path d="M 22,118 L 24.4,121.6 28,124 31.6,121.6 34,118" fill="black"/><path d="M 34,118 L 33.5,128.7 32.7,138.7 31.5,147.9 30,156.3 28.1,163.9 25.8,170.7 23.1,176.6 20.1,181.7 16.5,185.7 12.6,188.6 11.3,187.3 13.5,183.4 15.4,179 17.1,174.1 18.6,168.4 19.8,162 20.8,154.8 21.5,146.8 22,138 22.1,128.4 22,118" fill="black"/><path d="M 28,22 L 67,22 67,26 28,26" fill="black"/><path d="M 73,24 L 73,171 61,171 61,24" fill="black"/><path d="M 61,22 L 67,17 78,26 73,30 61,24" fill="black"/><path d="M 61,171 L 63.4,174.6 67,177 70.6,174.6 73,171" fill="black"/><path d="M 73,171 L 72.8,173.5 72.4,176 71.6,178.4 70.3,180.7 68.7,182.7 66.7,184.3 64.4,185.6 62,186.4 59.5,186.8 57,187 57,175 58.2,174.9 59.1,174.7 59.7,174.5 60,174.4 60.2,174.2 60.4,174 60.5,173.7 60.7,173.1 60.9,172.2 61,171" fill="black"/><path d="M 57,181 L 57,175 41,175 41,178" fill="black"/><path d="M 28,65 L 67,65 67,69 28,69" fill="black"/><path d="M 28,110 L 67,110 67,114 28,114" fill="black"/><path d="M 81,23 L 183,23 183,27 81,27" fill="black"/><path d="M 183,23 L 159,25 171,13" fill="black"/><path d="M 137.1,25 L 135.4,27.4 134.1,29.2 132.7,31 131.2,32.7 129.6,34.3 128,36 126.2,37.5 124.4,39.1 122.4,40.5 120.4,41.9 118.6,43.5 117.3,42.4 118.7,40.4 119.5,38.2 120.4,36 121.2,34 121.9,31.9 122.6,30 123.2,28 123.7,26.1 123.9,25" fill="black"/><path d="M 109,41 L 109,115 97,121 97,35" fill="black"/><path d="M 103,41 L 162,41 162,45 103,45" fill="black"/><path d="M 168,43 L 168,103 156,109 156,43" fill="black"/><path d="M 156,41 L 162,36 173,45 168,49 156,43" fill="black"/><path d="M 103,59 L 162,59 162,63 103,63" fill="black"/><path d="M 103,78 L 162,78 162,82 103,82" fill="black"/><path d="M 103,99 L 162,99 162,103 103,103" fill="black"/><path d="M 77.9,134 L 185.9,129 186,132.9 78,137.9" fill="black"/><path d="M 185.9,129 L 162,132.1 173.4,119.5" fill="black"/><path d="M 130,108 L 130.5,120.2 132.1,131.1 134.8,140.7 138.5,149.1 143.2,156.2 148.8,162.3 155.5,167.2 163.3,171.2 172.4,174.1 182.7,176 181.2,187.9 169.5,185.8 158.8,182.3 149.2,177.5 140.8,171.2 133.7,163.7 127.9,154.8 123.5,144.8 120.4,133.6 118.6,121.3 118,108" fill="black"/><path d="M 118,109 L 130,108 118,105.6" fill="black"/><path d="M 130,108 L 133,110 128,113" fill="black"/><path d="M 182.7,176 L 186.6,178.3 187.9,182.7 185.6,186.6 181.2,187.9" fill="black"/><path d="M 182,177 L 184,151 182,151 176,177" fill="black"/><path d="M 169.6,146.8 L 162.6,153.3 155.2,159.3 147.3,164.7 139,169.6 130.2,173.9 121,177.7 111.4,180.9 101.4,183.6 91,185.6 80.1,186.8 79.8,185.1 90.1,181.9 99.9,178.4 109.2,174.8 118,170.7 126.4,166.3 134.2,161.6 141.6,156.4 148.5,150.9 154.9,144.9 160.9,138.6" fill="black"/><path d="M 160.2,139.3 L 169.6,146.8 161.2,138.2" fill="black"/><path d="M 169.6,146.8 L 170.4,150.3 164.8,149.1" fill="black"/><path d="M 140.2,108.5 L 142.9,109.5 145.6,110 148.2,110.6 150.6,111.4 152.8,112.2 155,113.1 157,114.2 158.9,115.4 160.6,116.7 162.3,118.1 152.3,124.8 152,123.7 151.5,122.4 150.8,121.1 149.9,119.6 148.7,118.1 147.3,116.6 145.7,115 143.9,113.3 141.9,111.5 139.5,110.2" fill="black"/><path d="M 162.3,118.1 L 163.1,122.6 160.6,126.4 156.1,127.3 152.3,124.8" fill="black"/></svg>