<svg xmlns="http://www.w3.org/2000/svg" xmlns:xlink="http://www.w3.org/1999/xlink" version="1.1" baseProfile="full" viewBox="0 0 200 200" width="96" height="96"><path d="M 29.2,19.4 L 33.3,20.4 37.3,21.2 41,22.2 44.6,23.5 47.9,24.9 51,26.6 54,28.4 56.7,30.5 59.1,32.7 61.4,35.2 51.3,41.7 50.3,39.6 49.1,37.6 47.6,35.5 45.8,33.4 43.7,31.4 41.2,29.3 38.5,27.2 35.6,25.1 32.3,22.9 28.6,21.1" fill="black"/><path d="M 61.4,35.2 L 62.1,39.7 59.6,43.5 55.1,44.2 51.3,41.7" fill="black"/><path d="M 13.2,65.4 L 17.6,66.3 21.9,67.1 25.9,68.1 29.7,69.4 33.1,70.8 36.4,72.5 39.4,74.4 42.1,76.4 44.5,78.8 46.7,81.4 36.3,87.3 35.5,85.4 34.4,83.5 33,81.5 31.2,79.5 29,77.4 26.4,75.3 23.5,73.2 20.3,71.1 16.7,69 12.6,67.1" fill="black"/><path d="M 46.7,81.4 L 47.2,85.9 44.4,89.6 39.9,90.1 36.3,87.3" fill="black"/><path d="M 14.2,132.4 L 20.2,133.6 25.7,135.7 30.7,138.8 35,142.7 38.7,147.5 41.7,153 43.9,159.2 45.3,166 46.1,173.4 46.1,181.4 34.2,180.5 34.7,173.5 34.7,167.1 34.1,161.4 32.9,156.2 31.3,151.6 29.1,147.4 26.3,143.6 22.8,140.2 18.6,137 13.6,134.1" fill="black"/><path d="M 46.1,181.4 L 44.1,185.4 39.7,186.9 35.7,184.8 34.2,180.5" fill="black"/><path d="M 30.1,148.5 L 31.5,145.1 33.5,140.8 36.1,135.4 39.4,129 43.4,121.4 48,112.7 53.4,102.8 59.5,91.8 66.4,79.7 74.1,66.5 75.8,67.4 69.8,81.4 64.3,94.2 59.3,105.7 54.8,116 51,125 47.9,132.8 45.3,139.4 43.4,144.8 42.2,148.8 41.8,151.4" fill="black"/><path d="M 74,58 L 186,58 186,62 74,62" fill="black"/><path d="M 186,58 L 162,60 174,48" fill="black"/><path d="M 145,16 L 145,77 133,77 133,14" fill="black"/><path d="M 145,16 L 148,18 143,21" fill="black"/><path d="M 133,77 L 135.4,80.6 139,83 142.6,80.6 145,77" fill="black"/><path d="M 145,77 L 143.7,94.9 140.7,111.4 135.7,126.4 128.9,140 120.3,152.1 109.8,162.6 97.7,171.4 83.8,178.6 68.3,184 51.1,187.8 50.8,186.1 67.1,180.5 81.5,173.7 94,165.9 104.7,156.9 113.6,146.8 120.8,135.5 126.3,122.9 130.2,108.9 132.4,93.6 133,77" fill="black"/><path d="M 90,80.7 L 95.1,95.7 100.8,109.4 107.4,121.7 114.8,132.8 123.2,142.6 132.5,151.1 142.8,158.5 154,164.7 166.3,169.7 179.6,173.6 176.3,186.3 161.9,181.4 148.7,175.2 136.6,167.6 125.8,158.8 116.3,148.8 108,137.6 101,125.2 95.4,111.6 91.1,96.9 88.3,81.1" fill="black"/><path d="M 176.3,186.3 L 179.6,173.6 188,175.8" fill="black"/></svg>