<svg xmlns="http://www.w3.org/2000/svg" xmlns:xlink="http://www.w3.org/1999/xlink" version="1.1" baseProfile="full" viewBox="0 0 200 200" width="96" height="96"><path d="M 11,57 L 72,57 72,61 11,61" fill="black"/><path d="M 72,57 L 52,59 62,48" fill="black"/><path d="M 51,16 L 51,183 39,189 39,14" fill="black"/><path d="M 51,16 L 54,18 49,21" fill="black"/><path d="M 48,59 L 47.9,59.9 45.8,69.7 43.4,79.3 40.6,88.7 37.6,97.8 34.2,106.6 30.5,115.2 26.4,123.5 22,131.5 17.1,139.2 11.7,146.4 10.2,145.5 13.7,137.3 17.1,129.1 20.4,120.8 23.4,112.4 26.2,103.8 28.7,95 31,86 32.9,76.9 34.6,67.5 35.8,59" fill="black"/><path d="M 45.3,83.6 L 48.3,84.9 51.4,85.9 54.3,87.2 57.1,88.7 59.9,90.4 62.4,92.2 64.9,94.3 67.3,96.5 69.5,98.8 71.6,101.3 61.3,107.5 60.2,105.1 59.1,102.8 57.7,100.5 56.3,98.2 54.7,96 53,93.7 51.1,91.5 49.1,89.3 46.9,87.1 44.4,85.2" fill="black"/><path d="M 71.6,101.3 L 72.2,105.8 69.5,109.5 65,110.1 61.3,107.5" fill="black"/><path d="M 74,25 L 126,25 126,29 74,29" fill="black"/><path d="M 126,25 L 106,27 116,16" fill="black"/><path d="M 105,13 L 105,47 93,47 93,11" fill="black"/><path d="M 105,13 L 108,15 103,18" fill="black"/><path d="M 70,43 L 129,43 129,47 70,47" fill="black"/><path d="M 129,43 L 109,45 119,34" fill="black"/><path d="M 74,61 L 126,61 126,65 74,65" fill="black"/><path d="M 126,61 L 106,63 116,52" fill="black"/><path d="M 105,50 L 105,84 93,84 93,48" fill="black"/><path d="M 105,50 L 108,52 103,55" fill="black"/><path d="M 70,80.9 L 75.1,80.4 80.5,79.9 86,79.3 91.6,78.8 97.5,78.2 103.6,77.7 109.8,77.1 116.3,76.6 122.9,76.3 129.8,76.1 130.1,77.8 123.6,80 117.2,81.9 110.9,83.6 104.8,85.1 98.9,86.6 93.1,88 87.6,89.3 82.1,90.5 76.9,91.6 71.9,92.7" fill="black"/><path d="M 71.9,92.7 L 70,80.9 68,81.2" fill="black"/><path d="M 71.9,92.7 L 74.3,95.4 77.3,88.9" fill="black"/><path d="M 125,35 L 187,35 187,39 125,39" fill="black"/><path d="M 187,35 L 175,37 181,29" fill="black"/><path d="M 173,13 L 173,81 161,81 161,11" fill="black"/><path d="M 173,13 L 176,15 171,18" fill="black"/><path d="M 161,81 L 163.4,84.6 167,87 170.6,84.6 173,81" fill="black"/><path d="M 173,81 L 172.8,83.5 172.4,86 171.6,88.4 170.3,90.7 168.7,92.7 166.7,94.3 164.4,95.6 162,96.4 159.5,96.8 157,97 157,85 158.2,84.9 159.1,84.7 159.7,84.5 160,84.4 160.2,84.2 160.4,84 160.5,83.7 160.7,83.1 160.9,82.2 161,81" fill="black"/><path d="M 157,91 L 157,85 137,85 137,88" fill="black"/><path d="M 129.2,46.6 L 132.3,47.9 135.4,48.8 138.3,49.8 141,51 143.5,52.3 145.8,53.7 147.9,55.2 149.9,56.9 151.6,58.7 153.2,60.7 142.2,65.7 142.1,64.4 141.6,63 140.9,61.4 140,59.7 138.7,58 137.2,56.1 135.5,54.1 133.4,52.1 131.2,50 128.4,48.2" fill="black"/><path d="M 153.2,60.7 L 153.3,65.3 150.2,68.7 145.6,68.8 142.2,65.7" fill="black"/><path d="M 135,138 L 135,181 123,187 123,136" fill="black"/><path d="M 135,138 L 138,140 133,143" fill="black"/><path d="M 93,148 L 93,176 81,182 81,142" fill="black"/><path d="M 87,148 L 170,148 170,152 87,152" fill="black"/><path d="M 176,150 L 176,167 164,167 164,150" fill="black"/><path d="M 164,148 L 170,143 181,152 176,156 164,150" fill="black"/><path d="M 164,167 L 166.4,170.6 170,173 173.6,170.6 176,167" fill="black"/><path d="M 176,167 L 175.8,169.5 175.4,172 174.6,174.4 173.3,176.7 171.7,178.7 169.7,180.3 167.4,181.6 165,182.4 162.5,182.8 160,183 160,171 161.2,170.9 162.1,170.7 162.7,170.5 163,170.4 163.2,170.2 163.4,170 163.5,169.7 163.7,169.1 163.9,168.2 164,167" fill="black"/><path d="M 160,177 L 160,171 150,171 150,174" fill="black"/><path d="M 133.2,96.4 L 132,97 130.8,97.7 129.4,98.3 128,99 126.4,99.8 124.7,100.6 122.8,101.4 120.8,102.3 118.5,103.2 116.5,104.7 115.4,103.2 117.2,101.6 118.5,99.6 119.7,97.8 120.8,96.1 121.7,94.5 122.4,93.1 123,91.9 123.4,90.8 123.6,89.8 123.6,89.1" fill="black"/><path d="M 123,89.9 L 133.2,96.4 124,88.5" fill="black"/><path d="M 133.2,96.4 L 134.4,99.8 128.6,99.2" fill="black"/><path d="M 100,102 L 100,133 88,139 88,96" fill="black"/><path d="M 94,102 L 163,102 163,106 94,106" fill="black"/><path d="M 169,104 L 169,133 157,139 157,104" fill="black"/><path d="M 157,102 L 163,97 174,106 169,110 157,104" fill="black"/><path d="M 94,116 L 163,116 163,120 94,120" fill="black"/><path d="M 94,129 L 163,129 163,133 94,133" fill="black"/></svg>