<svg xmlns="http://www.w3.org/2000/svg" xmlns:xlink="http://www.w3.org/1999/xlink" version="1.1" baseProfile="full" viewBox="0 0 200 200" width="96" height="96"><path d="M 35,22 L 35,118 23,118 23,16" fill="black"/><path d="M 23,118 L 25.4,121.6 29,124 32.6,121.6 35,118" fill="black"/><path d="M 35,118 L 34.5,128.7 33.6,138.7 32.4,147.9 30.8,156.3 28.8,164 26.4,170.7 23.6,176.7 20.4,181.7 16.7,185.7 12.5,188.6 11.4,187.3 13.7,183.4 15.8,179 17.6,174 19.2,168.4 20.6,161.9 21.7,154.8 22.4,146.8 22.9,138 23.1,128.4 23,118" fill="black"/><path d="M 29,22 L 71,22 71,26 29,26" fill="black"/><path d="M 77,24 L 77,171 65,171 65,24" fill="black"/><path d="M 65,22 L 71,17 82,26 77,30 65,24" fill="black"/><path d="M 65,171 L 67.4,174.6 71,177 74.6,174.6 77,171" fill="black"/><path d="M 77,171 L 76.8,173.5 76.4,176 75.6,178.4 74.3,180.7 72.7,182.7 70.7,184.3 68.4,185.6 66,186.4 63.5,186.8 61,187 61,175 62.2,174.9 63.1,174.7 63.7,174.5 64,174.4 64.2,174.2 64.4,174 64.5,173.7 64.7,173.1 64.9,172.2 65,171" fill="black"/><path d="M 61,181 L 61,175 45,175 45,178" fill="black"/><path d="M 29,65 L 71,65 71,69 29,69" fill="black"/><path d="M 29,110 L 71,110 71,114 29,114" fill="black"/><path d="M 96,31 L 154,31 154,35 96,35" fill="black"/><path d="M 159,34 L 152.3,99.5 139.7,104.1 147.9,33" fill="black"/><path d="M 148,31 L 154,26 165,35 160,38 148,43" fill="black"/><path d="M 148,83 L 177,83 177,87 148,87" fill="black"/><path d="M 182.9,85 L 182.6,98.4 182,110.8 181.2,122.2 180.1,132.6 178.7,142 177,150.4 175,157.9 172.7,164.5 170.1,170.1 166.9,174.9 157.5,167.4 159.6,164.3 161.6,159.9 163.6,154.4 165.3,147.8 166.8,140 168.2,131.1 169.2,121.1 170.1,110.1 170.6,98 171,84.9" fill="black"/><path d="M 171,83 L 177,78 188,87 183,90 171,95" fill="black"/><path d="M 166.9,174.9 L 165.3,176.7 163.5,178.4 161.7,179.9 159.7,181.3 157.6,182.4 155.4,183.3 153.1,184 150.8,184.6 148.4,184.9 146,185 146,173 147.4,172.9 148.8,172.7 150.1,172.4 151.3,172.1 152.4,171.6 153.5,171 154.5,170.3 155.6,169.5 156.5,168.5 157.5,167.4" fill="black"/><path d="M 146,179 L 146,173 130,173 130,176" fill="black"/><path d="M 126,33 L 125.2,55.6 123.4,76.7 120.7,96.3 117,114.3 112.3,130.7 106.5,145.5 99.8,158.7 92.1,170.2 83.3,179.9 73.5,187.6 72.4,186.3 80.5,177.3 87.7,167.1 94,155.6 99.5,142.6 104.1,128.2 107.9,112.3 110.8,94.8 112.7,75.7 113.8,55.1 114,33" fill="black"/></svg>