<svg xmlns="http://www.w3.org/2000/svg" xmlns:xlink="http://www.w3.org/1999/xlink" version="1.1" baseProfile="full" viewBox="0 0 200 200" width="96" height="96"><path d="M 31,22 L 31,118 19,118 19,16" fill="black"/><path d="M 19,118 L 21.4,121.6 25,124 28.6,121.6 31,118" fill="black"/><path d="M 31,118 L 30.5,128.7 29.8,138.6 28.8,147.8 27.5,156.2 25.9,163.7 24,170.5 21.7,176.4 19.1,181.5 16,185.5 12.6,188.5 11.3,187.4 12.8,183.6 14.2,179.2 15.5,174.3 16.6,168.6 17.5,162.2 18.3,154.9 18.8,146.9 19.1,138.1 19.1,128.4 19,118" fill="black"/><path d="M 25,22 L 59,22 59,26 25,26" fill="black"/><path d="M 65,24 L 65,171 53,171 53,24" fill="black"/><path d="M 53,22 L 59,17 70,26 65,30 53,24" fill="black"/><path d="M 53,171 L 55.4,174.6 59,177 62.6,174.6 65,171" fill="black"/><path d="M 65,171 L 64.8,173.5 64.4,176 63.6,178.4 62.3,180.7 60.7,182.7 58.7,184.3 56.4,185.6 54,186.4 51.5,186.8 49,187 49,175 50.2,174.9 51.1,174.7 51.7,174.5 52,174.4 52.2,174.2 52.4,174 52.5,173.7 52.7,173.1 52.9,172.2 53,171" fill="black"/><path d="M 49,181 L 49,175 33,175 33,178" fill="black"/><path d="M 25,65 L 59,65 59,69 25,69" fill="black"/><path d="M 25,110 L 59,110 59,114 25,114" fill="black"/><path d="M 68,59 L 117,59 117,63 68,63" fill="black"/><path d="M 117,59 L 101,61 109,52" fill="black"/><path d="M 99,16 L 99,183 87,189 87,14" fill="black"/><path d="M 99,16 L 102,18 97,21" fill="black"/><path d="M 97,61 L 96.9,61.7 95.3,71.5 93.4,81 91.3,90.4 88.9,99.4 86.3,108.3 83.4,116.9 80.3,125.2 76.8,133.2 73,141 68.8,148.3 67.1,147.6 69.5,139.5 71.8,131.4 74,123.1 76.2,114.7 78.1,106.1 79.9,97.3 81.4,88.4 82.8,79.2 84,69.8 84.9,61" fill="black"/><path d="M 95.3,85.8 L 97.7,87.1 100.3,88.2 102.8,89.5 105.1,91 107.4,92.7 109.6,94.6 111.6,96.7 113.6,98.9 115.4,101.2 117.1,103.7 106.2,108.8 105.6,106.4 104.8,104.2 103.9,101.9 102.9,99.7 101.8,97.6 100.5,95.4 99.2,93.3 97.8,91.2 96.2,89 94.3,87.3" fill="black"/><path d="M 117.1,103.7 L 117.3,108.3 114.2,111.7 109.7,111.8 106.2,108.8" fill="black"/><path d="M 154,15 L 154,57 142,57 142,13" fill="black"/><path d="M 154,15 L 157,17 152,20" fill="black"/><path d="M 142,57 L 144.4,60.6 148,63 151.6,60.6 154,57" fill="black"/><path d="M 154,57 L 153.2,78 151.4,97.3 148.8,114.9 145.1,130.9 140.5,145.1 134.8,157.6 128.1,168.3 120.5,177.2 111.8,184 102.4,188.8 101.5,187.1 109.5,181 116.5,173.5 122.7,164.7 128,154.3 132.4,142.3 136.1,128.6 138.9,113.3 140.8,96.2 141.8,77.4 142,57" fill="black"/><path d="M 160,89 L 160,166 148,166 148,87" fill="black"/><path d="M 160,89 L 163,91 158,94" fill="black"/><path d="M 148,166 L 150.4,169.6 154,172 157.6,169.6 160,166" fill="black"/><path d="M 160,166 L 160,167.2 160.2,168.1 160.4,168.7 160.5,169 160.7,169.2 160.9,169.4 161.2,169.5 161.8,169.7 162.7,169.9 164,170 164,182 161.4,181.8 158.9,181.4 156.5,180.6 154.2,179.3 152.2,177.7 150.6,175.7 149.3,173.4 148.5,171 148.1,168.5 148,166" fill="black"/><path d="M 164,170 L 168.2,171.8 170,176 168.2,180.2 164,182" fill="black"/><path d="M 164,170 L 184,170 184,182 164,182" fill="black"/><path d="M 184,170 L 187.6,172.4 190,176 187.6,179.6 184,182" fill="black"/><path d="M 184,170 L 186,145 184,145 178,170" fill="black"/><path d="M 124.9,42 L 125.5,48.1 126.1,53.8 126.5,59.1 126.7,63.9 126.8,68.3 126.7,72.2 126.5,75.7 126.2,78.9 125.6,81.8 124.6,84.5 114.3,78.3 115.1,77.5 116,76 117,73.7 117.9,70.8 118.9,67.4 119.7,63.3 120.6,58.8 121.4,53.7 122.3,48.1 123.1,42" fill="black"/><path d="M 124.6,84.5 L 120.9,87.1 116.4,86.5 113.7,82.8 114.3,78.3" fill="black"/><path d="M 124,52 L 180,52 180,56 124,56" fill="black"/><path d="M 185.7,55.5 L 184.7,57.7 183.7,60 182.5,62.4 181.3,64.9 180.1,67.5 178.8,70.2 177.4,73 175.8,76 174.2,79 172.8,82.2 171.1,81.7 171.7,78.2 171.9,74.8 172.2,71.5 172.5,68.4 172.8,65.4 173.1,62.5 173.4,59.8 173.7,57.2 173.9,54.7 174.2,52.4" fill="black"/><path d="M 174,52 L 180,47 191,56 186,59 174,64" fill="black"/></svg>