<svg xmlns="http://www.w3.org/2000/svg" xmlns:xlink="http://www.w3.org/1999/xlink" version="1.1" baseProfile="full" viewBox="0 0 200 200" width="96" height="96"><path d="M 40.8,16.7 L 39.2,25.8 37.3,34.6 35.3,42.9 33,50.9 30.5,58.4 27.7,65.5 24.7,72.3 21.4,78.5 17.7,84.2 13.7,89.4 12.2,88.5 14.4,82.5 16.5,76.3 18.6,69.8 20.5,63.1 22.4,56 24,48.5 25.5,40.8 26.8,32.6 27.9,24.1 28.9,15.2" fill="black"/><path d="M 28.7,16.2 L 40.8,16.7 29.1,13.1" fill="black"/><path d="M 40.8,16.7 L 43.5,19.1 38.2,21.4" fill="black"/><path d="M 31,37 L 95,37 95,41 31,41" fill="black"/><path d="M 95,37 L 71,39 83,27" fill="black"/><path d="M 32,60 L 89,60 89,64 32,64" fill="black"/><path d="M 89,60 L 69,62 79,51" fill="black"/><path d="M 24,83 L 80,83 80,87 24,87" fill="black"/><path d="M 85.9,85 L 85.9,101.4 86.3,116 87,128.8 88.1,139.7 89.6,148.8 91.3,155.9 93.3,161 95.1,163.9 96.2,164.9 96.6,165 97.3,176.9 90.9,175.7 86,171.7 82.5,166.2 79.8,159.4 77.8,151.1 76.2,141.2 75.1,129.7 74.3,116.5 73.9,101.5 74,84.9" fill="black"/><path d="M 74,83 L 80,78 91,87 86,90 74,95" fill="black"/><path d="M 96.6,165 L 100.9,166.5 102.9,170.6 101.4,174.9 97.3,176.9" fill="black"/><path d="M 97,166 L 99,140 97,140 91,166" fill="black"/><path d="M 24.3,94.2 L 26,95.9 28,97.5 29.8,99.2 31.6,101.1 33.2,103 34.7,105.1 36.2,107.3 37.6,109.6 38.8,112 40,114.5 28.4,117.6 28.2,115.3 27.9,113 27.5,110.8 27.1,108.5 26.6,106.3 26.1,104.1 25.4,101.8 24.8,99.6 24.1,97.3 22.9,95.3" fill="black"/><path d="M 40,114.5 L 39.3,119 35.7,121.8 31.2,121.2 28.4,117.6" fill="black"/><path d="M 71.4,96.7 L 70.2,99.1 68.9,101.5 67.5,103.9 66.1,106.3 64.6,108.7 63,111 61.2,113.4 59.4,115.7 57.4,117.9 55.7,120.4 54.2,119.5 55.2,116.8 55.8,113.9 56.5,111.1 57.1,108.4 57.7,105.7 58.2,103.1 58.7,100.5 59.2,98 59.6,95.6 59.9,93.1" fill="black"/><path d="M 59.6,94.1 L 71.4,96.7 60.4,91.6" fill="black"/><path d="M 71.4,96.7 L 73.7,99.5 68,100.9" fill="black"/><path d="M 18,125 L 76,125 76,129 18,129" fill="black"/><path d="M 76,125 L 56,127 66,116" fill="black"/><path d="M 53,92 L 53,182 41,188 41,90" fill="black"/><path d="M 53,92 L 56,94 51,97" fill="black"/><path d="M 48,127 L 47.8,128.1 46.2,134.4 44.2,140.5 41.9,146.5 39.4,152.2 36.6,157.7 33.4,163 30,168.1 26.3,172.9 22.1,177.4 17.6,181.5 16.3,180.4 19.1,175.1 21.8,169.9 24.4,164.8 26.7,159.5 28.8,154.2 30.8,148.7 32.4,143.2 33.9,137.5 35.1,131.7 35.8,127" fill="black"/><path d="M 48.3,133.8 L 51.6,135.8 55,137.6 58.1,139.7 61.1,142 63.9,144.4 66.5,147 68.9,149.8 71.2,152.6 73.3,155.6 75.2,158.8 64.2,163.6 63.3,160.8 62.2,157.9 60.9,155 59.5,152.2 57.8,149.4 56.1,146.6 54.1,143.7 52,140.9 49.8,138 47.2,135.3" fill="black"/><path d="M 75.2,158.8 L 75.3,163.3 72.2,166.7 67.6,166.8 64.2,163.6" fill="black"/><path d="M 96,26 L 188,26 188,30 96,30" fill="black"/><path d="M 188,26 L 164,28 176,16" fill="black"/><path d="M 151,28 L 149.4,30.5 147.5,33.4 145.6,36.3 143.5,39.1 141.4,41.9 139.2,44.5 136.9,47.1 134.5,49.6 131.9,52 129.2,54.2 126.6,56.5 125.3,55.4 127,52.5 128.5,49.4 129.9,46.3 131.3,43.3 132.7,40.4 134,37.4 135.2,34.4 136.4,31.4 137.5,28.4 137.6,28" fill="black"/><path d="M 119,54 L 119,147 107,153 107,48" fill="black"/><path d="M 113,54 L 170,54 170,58 113,58" fill="black"/><path d="M 176,56 L 176,144 164,150 164,56" fill="black"/><path d="M 164,54 L 170,49 181,58 176,62 164,56" fill="black"/><path d="M 113,83 L 170,83 170,87 113,87" fill="black"/><path d="M 113,111 L 170,111 170,115 113,115" fill="black"/><path d="M 113,140 L 170,140 170,144 113,144" fill="black"/><path d="M 135.5,161.9 L 131.6,165.1 127.4,168.3 122.9,171.3 118.1,174.2 113,177 107.5,179.7 101.8,182.3 95.7,184.7 89.2,186.9 82.3,188.8 81.6,187.1 87.6,183.4 93.3,179.8 98.7,176.4 103.8,173.1 108.6,169.8 113,166.5 117,163.2 120.7,159.9 124,156.6 127,153.4" fill="black"/><path d="M 126.3,154.1 L 135.5,161.9 127.3,153.1" fill="black"/><path d="M 135.5,161.9 L 136.2,165.4 130.5,164" fill="black"/><path d="M 147.2,153.5 L 151.7,154.7 156.1,155.9 160.2,157.5 164.3,159.4 168.1,161.4 171.8,163.7 175.3,166.2 178.7,168.9 181.8,171.8 184.8,174.9 175.4,182.3 173.3,179.2 171.1,176.3 168.7,173.5 166.1,170.7 163.3,168 160.4,165.3 157.2,162.7 153.8,160.2 150.3,157.6 146.5,155.2" fill="black"/><path d="M 184.8,174.9 L 186,179.3 183.8,183.3 179.4,184.5 175.4,182.3" fill="black"/></svg>