<svg xmlns="http://www.w3.org/2000/svg" xmlns:xlink="http://www.w3.org/1999/xlink" version="1.1" baseProfile="full" viewBox="0 0 200 200" width="96" height="96"><path d="M 35,26 L 35,100 23,100 23,20" fill="black"/><path d="M 23,100 L 25.4,103.6 29,106 32.6,103.6 35,100" fill="black"/><path d="M 35,100 L 34.5,112.5 33.6,124.2 32.4,135.1 30.8,145.1 28.9,154.3 26.5,162.6 23.7,170 20.5,176.6 16.8,182.1 12.7,186.5 11.2,185.4 13.5,180.2 15.6,174.4 17.5,167.9 19.2,160.7 20.5,152.6 21.6,143.8 22.4,134.1 22.9,123.5 23.1,112.2 23,100" fill="black"/><path d="M 29,26 L 93,26 93,30 29,30" fill="black"/><path d="M 99,28 L 99,169 87,169 87,28" fill="black"/><path d="M 87,26 L 93,21 104,30 99,34 87,28" fill="black"/><path d="M 87,169 L 89.4,172.6 93,175 96.6,172.6 99,169" fill="black"/><path d="M 99,169 L 98.8,171.5 98.4,174 97.6,176.4 96.3,178.7 94.7,180.7 92.7,182.3 90.4,183.6 88,184.4 85.5,184.8 83,185 83,173 84.2,172.9 85.1,172.7 85.7,172.5 86,172.4 86.2,172.2 86.4,172 86.5,171.7 86.7,171.1 86.9,170.2 87,169" fill="black"/><path d="M 83,179 L 83,173 63,173 63,176" fill="black"/><path d="M 29,69 L 93,69 93,73 29,73" fill="black"/><path d="M 29,113 L 93,113 93,117 29,117" fill="black"/><path d="M 67,26 L 67,170 55,176 55,26" fill="black"/><path d="M 106,62 L 177,62 177,66 106,66" fill="black"/><path d="M 183,64 L 182.8,80.9 182.5,96.5 182,110.7 181.3,123.6 180.4,135.1 179.2,145.2 177.9,154 176.3,161.6 174.4,167.9 172.1,173.1 161.6,167.3 163.1,163.8 164.6,158.6 166.1,151.9 167.3,143.7 168.4,133.9 169.3,122.8 170,110.2 170.5,96.2 170.8,80.8 171,64" fill="black"/><path d="M 171,62 L 177,57 188,66 183,69 171,74" fill="black"/><path d="M 172.1,173.1 L 170.7,175.3 169.2,177.2 167.6,179 165.7,180.6 163.7,181.9 161.5,183 159.3,183.9 156.9,184.5 154.4,184.8 152,185 152,173 153.3,172.9 154.6,172.7 155.7,172.4 156.7,172.1 157.6,171.6 158.5,171 159.3,170.3 160.1,169.5 160.8,168.5 161.6,167.3" fill="black"/><path d="M 152,179 L 152,173 138,173 138,176" fill="black"/><path d="M 147,19 L 147,63 135,63 135,17" fill="black"/><path d="M 147,19 L 150,21 145,24" fill="black"/><path d="M 135,63 L 137.4,66.6 141,69 144.6,66.6 147,63" fill="black"/><path d="M 147,63 L 146.2,80.6 144.7,97.2 142.3,112.6 139.1,126.9 135,140 130,151.9 124.2,162.6 117.5,172 109.9,180.1 101.5,186.6 100.4,185.3 107.2,177.5 113.2,168.9 118.5,159.4 123.1,148.9 126.9,137.4 130,124.8 132.4,111 134,96.1 134.9,80.1 135,63" fill="black"/></svg>