<svg xmlns="http://www.w3.org/2000/svg" xmlns:xlink="http://www.w3.org/1999/xlink" version="1.1" baseProfile="full" viewBox="0 0 200 200" width="96" height="96"><path d="M 68.2,19.1 L 64,28.5 59.5,37.5 54.7,46 49.7,53.9 44.4,61.3 38.8,68.2 32.9,74.5 26.8,80.3 20.3,85.3 13.5,89.7 12.4,88.2 17.8,82.5 22.9,76.5 28,70.2 32.8,63.6 37.4,56.5 41.7,49.1 45.9,41.1 49.8,32.8 53.5,24 57,14.7" fill="black"/><path d="M 56.6,15.6 L 68.2,19.1 57.5,13.4" fill="black"/><path d="M 68.2,19.1 L 70.3,22 64.5,23" fill="black"/><path d="M 19.3,16 L 33.3,30.5 43.7,47.8 51.3,66.5 56.5,85.8 59.7,104.9 61.2,123.2 61.3,140 60.2,154.6 58.3,166.5 55.6,175.4 44.7,170.4 47,163.8 49.2,153.2 50.7,139.5 51.2,123.5 50.4,105.9 48,87.5 43.8,68.8 37.4,50.7 28.8,33.5 18,17.3" fill="black"/><path d="M 55.6,175.4 L 52.2,178.5 47.6,178.3 44.6,174.9 44.7,170.4" fill="black"/><path d="M 55.6,175.4 L 54.4,177.6 53.1,179.7 51.5,181.6 49.7,183.3 47.7,184.7 45.6,185.9 43.3,186.8 40.9,187.5 38.5,187.8 36,188 36,176 37.3,175.9 38.5,175.7 39.6,175.4 40.5,175.1 41.3,174.6 42,174.1 42.7,173.4 43.4,172.6 44.1,171.6 44.7,170.4" fill="black"/><path d="M 36,182 L 36,176 22,176 22,179" fill="black"/><path d="M 57.7,86.8 L 54.7,94.4 51.5,101.8 47.9,108.9 44,115.8 39.8,122.4 35.3,128.7 30.4,134.7 25.2,140.4 19.6,145.7 13.6,150.6 12.3,149.3 16.8,143.2 21.1,137 25.2,130.8 29,124.5 32.6,118 35.9,111.4 38.9,104.6 41.6,97.6 44.1,90.5 46.2,83.1" fill="black"/><path d="M 73.2,19.5 L 76.3,20.6 79.5,21.4 82.5,22.5 85.4,23.8 88,25.3 90.6,27 92.9,28.8 95.1,30.9 97.2,33.1 99,35.6 88.2,41 87.6,39 86.8,37 85.8,35 84.6,33 83.1,31 81.5,29 79.6,26.9 77.5,24.9 75.2,22.8 72.5,21.2" fill="black"/><path d="M 99,35.6 L 99.2,40.1 96.3,43.6 91.7,43.9 88.2,41" fill="black"/><path d="M 61.2,65.5 L 64.5,66.6 67.8,67.4 70.9,68.5 73.8,69.8 76.6,71.3 79.1,73 81.5,74.9 83.6,77 85.6,79.3 87.3,81.8 76.3,86.6 75.8,84.7 75.1,82.8 74.2,80.9 73.1,78.9 71.7,77 70,75 68.1,73 65.9,70.9 63.4,68.8 60.5,67.2" fill="black"/><path d="M 87.3,81.8 L 87.3,86.4 84.1,89.7 79.6,89.7 76.3,86.6" fill="black"/><path d="M 63.2,132.5 L 67.7,133.8 71.9,136 75.6,139.3 78.8,143.3 81.4,148 83.6,153.5 85.2,159.5 86.3,166.2 86.9,173.4 87.1,181.2 75.1,180.7 75.6,173.5 75.6,167 75.3,161.1 74.6,155.8 73.5,151.1 72.1,146.9 70.3,143.2 68.2,140 65.6,137 62.5,134.2" fill="black"/><path d="M 87.1,181.2 L 85.1,185.3 80.8,186.9 76.7,184.9 75.1,180.7" fill="black"/><path d="M 72.1,148.5 L 73.3,145.3 75,141.2 77.1,135.9 79.6,129.4 82.7,121.8 86.3,113 90.3,103.1 94.9,92.1 100.2,79.9 106.1,66.6 107.8,67.3 103.8,81.2 100,93.9 96.5,105.3 93.4,115.6 90.7,124.6 88.4,132.4 86.6,139 85.2,144.4 84.2,148.6 83.8,151.4" fill="black"/><path d="M 176.1,27.6 L 170,30.7 163.6,33.5 157,36.1 150.2,38.5 143.1,40.6 135.8,42.5 128.2,44.1 120.4,45.4 112.4,46.3 104.1,46.8 103.8,45.1 111.6,42.6 119.2,40.2 126.6,37.7 133.6,35.2 140.4,32.6 146.9,29.8 153.1,26.9 159,23.8 164.7,20.6 170.1,17.3" fill="black"/><path d="M 169.2,17.8 L 176.1,27.6 177.8,26.6" fill="black"/><path d="M 177.8,26.6 L 178,30 172.2,27.6" fill="black"/><path d="M 102,76 L 188,76 188,80 102,80" fill="black"/><path d="M 188,76 L 164,78 176,66" fill="black"/><path d="M 151,34 L 151,121 139,121 139,34" fill="black"/><path d="M 124,117 L 124,183 112,189 112,111" fill="black"/><path d="M 118,117 L 172,117 172,121 118,121" fill="black"/><path d="M 178,119 L 178,177 166,183 166,119" fill="black"/><path d="M 166,117 L 172,112 183,121 178,125 166,119" fill="black"/><path d="M 118,167 L 172,167 172,171 118,171" fill="black"/></svg>