<svg xmlns="http://www.w3.org/2000/svg" xmlns:xlink="http://www.w3.org/1999/xlink" version="1.1" baseProfile="full" viewBox="0 0 200 200" width="96" height="96"><path d="M 22.2,28.5 L 24.7,32.8 27.1,37 29.3,41.1 31.3,45.1 33,49 34.6,52.8 36.1,56.5 37.3,60.1 38.5,63.6 39.4,67.1 27.6,68.9 27.4,65.8 27,62.5 26.6,58.9 26,55.3 25.3,51.4 24.5,47.3 23.6,43.1 22.7,38.7 21.7,34 20.5,29.2" fill="black"/><path d="M 39.4,67.1 L 38.3,71.5 34.4,73.9 30,72.8 27.6,68.9" fill="black"/><path d="M 78.5,32.4 L 77.1,36.2 75.6,40 74,43.9 72.2,48 70.3,52.1 68.2,56.4 65.9,60.7 63.5,65.2 60.7,69.7 57.8,74.3 56.1,73.6 57.5,68.3 58.7,63.3 60.1,58.4 61.3,53.7 62.5,49.3 63.6,45 64.6,40.8 65.5,36.8 66.2,33 66.9,29.4" fill="black"/><path d="M 66.6,30.4 L 78.5,32.4 67.3,27.7" fill="black"/><path d="M 78.5,32.4 L 80.9,35.1 75.3,36.8" fill="black"/><path d="M 16,85 L 80,85 80,89 16,89" fill="black"/><path d="M 80,85 L 56,87 68,75" fill="black"/><path d="M 54,16 L 54,181 42,187 42,14" fill="black"/><path d="M 54,16 L 57,18 52,21" fill="black"/><path d="M 51,87 L 50.9,87.9 48.8,97.7 46.5,107.1 43.8,116.1 40.9,124.7 37.7,132.9 34.2,140.7 30.4,148.1 26.2,155.1 21.6,161.5 16.7,167.5 15.2,166.4 18.4,159.6 21.5,152.6 24.4,145.3 27.2,137.8 29.7,130 32,121.9 34.1,113.4 36,104.6 37.6,95.5 38.8,87" fill="black"/><path d="M 49.3,99.8 L 52.9,101.9 56.4,104 59.8,106.4 63,108.9 65.9,111.7 68.7,114.6 71.4,117.6 73.8,120.9 76.1,124.2 78.2,127.8 67.2,132.7 66.1,129.4 64.7,126.1 63.2,122.9 61.6,119.8 59.8,116.7 57.8,113.6 55.6,110.5 53.3,107.4 50.9,104.3 48.2,101.3" fill="black"/><path d="M 78.2,127.8 L 78.3,132.3 75.2,135.7 70.6,135.8 67.2,132.7" fill="black"/><path d="M 116,119 L 116,181 104,187 104,113" fill="black"/><path d="M 110,119 L 160,119 160,123 110,123" fill="black"/><path d="M 166,121 L 166,178 154,184 154,121" fill="black"/><path d="M 154,119 L 160,114 171,123 166,127 154,121" fill="black"/><path d="M 110,170 L 160,170 160,174 110,174" fill="black"/><path d="M 126.3,17.9 L 122.7,26.6 119.1,35.1 115.3,43.3 111.3,51.3 107.2,59 102.9,66.5 98.5,73.7 93.8,80.7 88.9,87.2 83.7,93.4 82.2,92.5 85.7,85.2 89.2,77.9 92.7,70.6 96.2,63 99.6,55.3 102.8,47.4 106,39.3 109.1,31.1 112.1,22.6 115,13.9" fill="black"/><path d="M 114.6,14.8 L 126.3,17.9 115.5,12.4" fill="black"/><path d="M 126.3,17.9 L 128.4,20.8 122.7,21.9" fill="black"/><path d="M 109,40 L 158,40 158,44 109,44" fill="black"/><path d="M 163.5,44.2 L 157.6,56.9 151.1,68.6 144.1,79.4 136.4,89 128.2,97.7 119.5,105.2 110.2,111.7 100.3,116.9 90,121 79.2,123.8 78.7,122.1 88.6,117.5 97.8,112.2 106.5,106.2 114.6,99.4 122.2,91.7 129.2,83.2 135.8,73.7 141.8,63.3 147.3,52 152.4,39.7" fill="black"/><path d="M 152,40 L 158,35 169,44 164,47 152,52" fill="black"/><path d="M 108.2,42.5 L 114.8,53.4 121.4,63.3 128.3,72.1 135.5,80 142.9,86.7 150.7,92.4 158.8,97.1 167.2,100.9 176,103.6 185.1,105.5 182.8,118.4 172.4,115.6 162.6,111.7 153.3,106.8 144.7,100.7 136.7,93.6 129.3,85.6 122.5,76.5 116.4,66.4 111.1,55.3 106.5,43.2" fill="black"/><path d="M 182.8,118.4 L 185.1,105.5 194.6,107.2" fill="black"/></svg>