<svg xmlns="http://www.w3.org/2000/svg" xmlns:xlink="http://www.w3.org/1999/xlink" version="1.1" baseProfile="full" viewBox="0 0 200 200" width="96" height="96"><path d="M 36,25 L 36,92 24,98 24,19" fill="black"/><path d="M 30,25 L 89,25 89,29 30,29" fill="black"/><path d="M 95,27 L 95,89 83,95 83,27" fill="black"/><path d="M 83,25 L 89,20 100,29 95,33 83,27" fill="black"/><path d="M 30,53 L 89,53 89,57 30,57" fill="black"/><path d="M 30,81 L 89,81 89,85 30,85" fill="black"/><path d="M 28,107 L 28,182 16,188 16,101" fill="black"/><path d="M 22,107 L 97,107 97,111 22,111" fill="black"/><path d="M 103,109 L 103,171 91,171 91,109" fill="black"/><path d="M 91,107 L 97,102 108,111 103,115 91,109" fill="black"/><path d="M 91,171 L 93.4,174.6 97,177 100.6,174.6 103,171" fill="black"/><path d="M 103,171 L 102.8,173.5 102.4,176 101.6,178.4 100.3,180.7 98.7,182.7 96.7,184.3 94.4,185.6 92,186.4 89.5,186.8 87,187 87,175 88.2,174.9 89.1,174.7 89.7,174.5 90,174.4 90.2,174.2 90.4,174 90.5,173.7 90.7,173.1 90.9,172.2 91,171" fill="black"/><path d="M 87,181 L 87,175 71,175 71,178" fill="black"/><path d="M 66,25 L 66,148 54,148 54,25" fill="black"/><path d="M 32.7,147.9 L 37.1,147.2 41.6,146.5 46.2,145.8 50.8,145.1 55.4,144.3 60.1,143.6 64.9,142.9 69.7,142.2 74.7,141.6 79.7,141.1 80.2,142.8 75.7,145.1 71.1,147.2 66.6,149 62,150.8 57.5,152.5 53,154 48.5,155.5 44,156.9 39.6,158.3 35.2,159.6" fill="black"/><path d="M 35.2,159.6 L 32.7,147.9 30.7,148.3" fill="black"/><path d="M 35.2,159.6 L 37.8,162.1 40.4,155.4" fill="black"/><path d="M 69.3,119.3 L 72.1,122.4 74.9,125.7 77.5,129.2 79.8,132.8 82,136.6 83.9,140.6 85.8,144.7 87.4,149 88.9,153.3 90.2,157.8 78.5,160.2 77.9,156 77.2,151.8 76.4,147.7 75.5,143.7 74.4,139.7 73.3,135.8 72,131.9 70.7,128 69.3,124.1 67.8,120.3" fill="black"/><path d="M 90.2,157.8 L 89.3,162.3 85.5,164.9 81.1,164 78.5,160.2" fill="black"/><path d="M 142.7,17.8 L 141.3,24.6 139.6,31.5 137.7,38.6 135.5,45.7 133,52.9 130.2,60.2 127.2,67.7 123.8,75.2 120,82.7 115.8,90.3 114.1,89.6 116.5,81.3 118.8,73.3 121,65.5 123,57.9 124.8,50.5 126.5,43.2 127.9,36.2 129.1,29.3 130.1,22.6 130.9,16.1" fill="black"/><path d="M 130.7,17.1 L 142.7,17.8 131.2,14.1" fill="black"/><path d="M 142.7,17.8 L 145.4,20.2 140,22.5" fill="black"/><path d="M 131,54 L 177,54 177,58 131,58" fill="black"/><path d="M 182.8,57.1 L 181.9,59.6 180.7,62.3 179.2,65.1 177.5,68.2 175.6,71.6 173.4,75.2 170.9,79.1 168.2,83.3 165,87.6 161.7,92.4 160.2,91.5 162.2,86.2 164,81.1 165.6,76.5 167.1,72.2 168.3,68.3 169.3,64.8 170.1,61.7 170.7,58.9 171,56.6 171.1,54.8" fill="black"/><path d="M 171,54 L 177,49 188,58 183,61 171,66" fill="black"/><path d="M 151,69 L 151,75 139,75 139,67" fill="black"/><path d="M 151,69 L 154,71 149,74" fill="black"/><path d="M 139,75 L 141.4,78.6 145,81 148.6,78.6 151,75" fill="black"/><path d="M 151,75 L 150.2,91 148.6,106 146,120 142.5,133 138.2,145 132.9,155.9 126.6,165.6 119.5,174.3 111.4,181.6 102.5,187.7 101.4,186.2 108.8,178.9 115.4,170.8 121.1,162.1 126.1,152.4 130.2,141.9 133.6,130.5 136.2,118.1 137.9,104.7 138.8,90.3 139,75" fill="black"/><path d="M 148.9,88.9 L 151,101.2 153.4,112.7 156.1,123.3 159.2,133.1 162.7,141.9 166.6,149.9 170.7,157 175.1,163.3 179.7,168.7 184.5,173.1 175.4,182.8 170.2,176.8 165.5,170.1 161.1,162.5 157.3,154.3 154,145.2 151.2,135.4 149,124.9 147.5,113.7 146.8,101.7 147.1,89" fill="black"/><path d="M 175.4,182.8 L 184.5,173.1 186.2,174.8" fill="black"/></svg>