<svg xmlns="http://www.w3.org/2000/svg" xmlns:xlink="http://www.w3.org/1999/xlink" version="1.1" baseProfile="full" viewBox="0 0 200 200" width="96" height="96"><path d="M 44.6,17.1 L 43,23.1 41.1,29.2 39,35.4 36.6,41.6 33.9,47.9 30.9,54.3 27.7,60.8 24.1,67.3 20.1,73.8 15.8,80.4 14.1,79.5 16.7,72.2 19.2,65.1 21.6,58.2 23.9,51.5 25.9,45 27.8,38.6 29.4,32.4 30.8,26.4 31.9,20.5 32.9,14.8" fill="black"/><path d="M 32.7,15.7 L 44.6,17.1 33.2,12.9" fill="black"/><path d="M 44.6,17.1 L 47.2,19.7 41.7,21.6" fill="black"/><path d="M 30,44 L 84,44 84,48 30,48" fill="black"/><path d="M 84,44 L 60,46 72,34" fill="black"/><path d="M 13,87 L 89,87 89,91 13,91" fill="black"/><path d="M 89,87 L 69,89 79,78" fill="black"/><path d="M 56,44 L 56,164 44,164 44,44" fill="black"/><path d="M 30,107 L 30,176 18,182 18,105" fill="black"/><path d="M 30,107 L 33,109 28,112" fill="black"/><path d="M 24,160 L 76,160 76,164 24,164" fill="black"/><path d="M 82,107 L 82,164 70,170 70,105" fill="black"/><path d="M 82,107 L 85,109 80,112" fill="black"/><path d="M 104,22 L 104,79 92,85 92,16" fill="black"/><path d="M 98,22 L 169,22 169,26 98,26" fill="black"/><path d="M 175,24 L 175,81 163,87 163,24" fill="black"/><path d="M 163,22 L 169,17 180,26 175,30 163,24" fill="black"/><path d="M 98,49 L 169,49 169,53 98,53" fill="black"/><path d="M 98,75 L 169,75 169,79 98,79" fill="black"/><path d="M 81,95 L 124,95 124,99 81,99" fill="black"/><path d="M 130,97 L 130,171 118,171 118,97" fill="black"/><path d="M 118,95 L 124,90 135,99 130,103 118,97" fill="black"/><path d="M 118,171 L 120.4,174.6 124,177 127.6,174.6 130,171" fill="black"/><path d="M 130,171 L 129.8,173.5 129.4,176 128.6,178.4 127.3,180.7 125.7,182.7 123.7,184.3 121.4,185.6 119,186.4 116.5,186.8 114,187 114,175 115.2,174.9 116.1,174.7 116.7,174.5 117,174.4 117.2,174.2 117.4,174 117.5,173.7 117.7,173.1 117.9,172.2 118,171" fill="black"/><path d="M 114,181 L 114,175 94,175 94,178" fill="black"/><path d="M 121.2,108.3 L 118.3,111.6 115.2,114.9 111.9,117.9 108.6,120.9 105.1,123.6 101.4,126.3 97.7,128.7 93.7,130.9 89.6,132.9 85.4,134.7 84.5,133.2 87.7,130.1 90.8,127 93.8,123.9 96.7,120.8 99.5,117.7 102.2,114.5 104.7,111.3 107.1,108 109.4,104.7 111.5,101.2" fill="black"/><path d="M 110.9,102.1 L 121.2,108.3 112,100.6" fill="black"/><path d="M 121.2,108.3 L 122.5,111.7 116.7,111.2" fill="black"/><path d="M 121.3,138.2 L 118.1,142 114.8,145.7 111.3,149.2 107.6,152.5 103.7,155.7 99.6,158.8 95.4,161.6 91,164.3 86.3,166.6 81.4,168.7 80.5,167.2 84.2,163.6 87.8,160 91.4,156.6 94.7,153.1 97.9,149.6 101,146 103.8,142.5 106.6,138.8 109.1,135.1 111.5,131.3" fill="black"/><path d="M 110.9,132.1 L 121.3,138.2 111.9,130.6" fill="black"/><path d="M 121.3,138.2 L 122.6,141.6 116.8,141.2" fill="black"/><path d="M 135,95 L 176,95 176,99 135,99" fill="black"/><path d="M 182,97 L 182,171 170,171 170,97" fill="black"/><path d="M 170,95 L 176,90 187,99 182,103 170,97" fill="black"/><path d="M 170,171 L 172.4,174.6 176,177 179.6,174.6 182,171" fill="black"/><path d="M 182,171 L 181.8,173.5 181.4,176 180.6,178.4 179.3,180.7 177.7,182.7 175.7,184.3 173.4,185.6 171,186.4 168.5,186.8 166,187 166,175 167.2,174.9 168.1,174.7 168.7,174.5 169,174.4 169.2,174.2 169.4,174 169.5,173.7 169.7,173.1 169.9,172.2 170,171" fill="black"/><path d="M 166,181 L 166,175 154,175 154,178" fill="black"/><path d="M 174.2,108.3 L 171.2,111.7 168.1,114.9 164.7,118 161.2,121 157.5,123.7 153.7,126.4 149.6,128.8 145.4,131 141,133 136.4,134.7 135.5,133.2 139.2,130 142.6,126.9 145.9,123.8 149.1,120.7 152.1,117.6 154.9,114.4 157.6,111.2 160.1,107.9 162.4,104.6 164.5,101.2" fill="black"/><path d="M 163.9,102.1 L 174.2,108.3 165,100.6" fill="black"/><path d="M 174.2,108.3 L 175.5,111.7 169.7,111.2" fill="black"/><path d="M 174.2,138.3 L 171,141.9 167.6,145.5 164,148.9 160.2,152.2 156.1,155.3 151.9,158.4 147.4,161.3 142.7,164 137.7,166.5 132.4,168.7 131.5,167.2 135.6,163.3 139.6,159.6 143.4,156.1 147,152.5 150.5,149 153.7,145.4 156.7,141.9 159.6,138.4 162.1,134.8 164.5,131.2" fill="black"/><path d="M 163.9,132 L 174.2,138.3 165,130.6" fill="black"/><path d="M 174.2,138.3 L 175.4,141.7 169.6,141.2" fill="black"/></svg>