<svg xmlns="http://www.w3.org/2000/svg" xmlns:xlink="http://www.w3.org/1999/xlink" version="1.1" baseProfile="full" viewBox="0 0 200 200" width="96" height="96"><path d="M 19.2,29.5 L 21.9,33.6 24.5,37.5 26.8,41.4 28.9,45.3 30.7,49.1 32.4,52.9 33.9,56.5 35.3,60.1 36.4,63.6 37.4,67.1 25.6,68.9 25.4,65.8 25,62.6 24.5,59.1 23.9,55.5 23.1,51.7 22.2,47.8 21.2,43.7 20.1,39.4 19,34.9 17.6,30.2" fill="black"/><path d="M 37.4,67.1 L 36.3,71.5 32.4,73.9 28,72.8 25.6,68.9" fill="black"/><path d="M 79.4,32.7 L 77.8,36.4 76.1,40.2 74.3,44.1 72.3,48.1 70.2,52.3 67.9,56.5 65.5,60.9 62.8,65.3 59.9,69.8 56.8,74.3 55.1,73.6 56.7,68.3 58.2,63.2 59.7,58.3 61.1,53.6 62.5,49.1 63.8,44.8 65,40.6 66.1,36.6 67.1,32.8 67.9,29.1" fill="black"/><path d="M 67.6,30.1 L 79.4,32.7 68.4,27.6" fill="black"/><path d="M 79.4,32.7 L 81.6,35.5 76,36.9" fill="black"/><path d="M 13,85 L 81,85 81,89 13,89" fill="black"/><path d="M 81,85 L 57,87 69,75" fill="black"/><path d="M 53,16 L 53,181 41,187 41,14" fill="black"/><path d="M 53,16 L 56,18 51,21" fill="black"/><path d="M 49,87 L 48.9,87.9 46.8,97.7 44.4,107.1 41.6,116.1 38.6,124.7 35.2,133 31.4,140.8 27.3,148.2 22.9,155.2 18,161.6 12.7,167.5 11.2,166.4 14.8,159.5 18.2,152.5 21.5,145.2 24.5,137.7 27.2,129.9 29.7,121.8 32,113.3 33.9,104.6 35.6,95.4 36.8,87" fill="black"/><path d="M 48.3,99.9 L 52.1,102.3 55.9,104.7 59.5,107.2 62.8,109.8 66,112.5 69,115.3 71.9,118.2 74.6,121.2 77.1,124.2 79.5,127.3 69.3,133.5 67.7,130.4 66,127.3 64.2,124.2 62.2,121.1 60,117.9 57.7,114.7 55.3,111.4 52.7,108.1 50,104.7 47.1,101.3" fill="black"/><path d="M 79.5,127.3 L 80.2,131.8 77.5,135.5 73,136.2 69.3,133.5" fill="black"/><path d="M 91,32 L 174,32 174,36 91,36" fill="black"/><path d="M 174,32 L 150,34 162,22" fill="black"/><path d="M 137,14 L 137,61 125,61 125,12" fill="black"/><path d="M 137,14 L 140,16 135,19" fill="black"/><path d="M 79,57 L 185,57 185,61 79,61" fill="black"/><path d="M 185,57 L 165,59 175,48" fill="black"/><path d="M 85,83 L 131,83 131,87 85,87" fill="black"/><path d="M 131,83 L 115,85 123,76" fill="black"/><path d="M 114,65 L 114,111 102,111 102,63" fill="black"/><path d="M 114,65 L 117,67 112,70" fill="black"/><path d="M 83,112.9 L 87.2,111.9 91.7,110.7 96.5,109.4 101.5,108 106.8,106.6 112.4,105.1 118.2,103.6 124.4,102 130.8,100.5 137.6,99.1 138.3,100.8 132.1,104.1 126.2,107.1 120.4,109.8 114.9,112.3 109.6,114.6 104.5,116.8 99.7,118.9 95.2,120.8 90.9,122.6 86.8,124.3" fill="black"/><path d="M 86.8,124.3 L 83,112.9 81.1,113.6" fill="black"/><path d="M 86.8,124.3 L 89.6,126.5 91.5,119.6" fill="black"/><path d="M 135,83 L 179,83 179,87 135,87" fill="black"/><path d="M 179,83 L 163,85 171,76" fill="black"/><path d="M 160,65 L 160,114 148,114 148,63" fill="black"/><path d="M 160,65 L 163,67 158,70" fill="black"/><path d="M 129,110 L 184,110 184,114 129,114" fill="black"/><path d="M 184,110 L 164,112 174,101" fill="black"/><path d="M 86,128 L 179,128 179,132 86,132" fill="black"/><path d="M 179,128 L 155,130 167,118" fill="black"/><path d="M 123.7,135 L 121.4,143.9 118.4,152.1 114.6,159.5 110.2,166.2 105.1,172 99.3,177 92.8,181.2 85.8,184.4 78.2,186.6 70.1,187.8 69.8,186.1 77,183 83.5,179.5 89.3,175.6 94.3,171.3 98.8,166.4 102.5,160.9 105.7,154.9 108.4,148.2 110.4,140.9 111.9,132.9" fill="black"/><path d="M 111.7,133.9 L 123.7,135 112.2,131" fill="black"/><path d="M 123.7,135 L 126.3,137.5 120.8,139.6" fill="black"/><path d="M 149,128 L 149,168 137,168 137,128" fill="black"/><path d="M 137,168 L 139.4,171.6 143,174 146.6,171.6 149,168" fill="black"/><path d="M 149,168 L 149,169.2 149.2,170.1 149.4,170.7 149.5,171 149.7,171.2 149.9,171.4 150.2,171.5 150.8,171.7 151.7,171.9 153,172 153,184 150.4,183.8 147.9,183.4 145.5,182.6 143.2,181.3 141.2,179.7 139.6,177.7 138.3,175.4 137.5,173 137.1,170.5 137,168" fill="black"/><path d="M 153,172 L 157.2,173.8 159,178 157.2,182.2 153,184" fill="black"/><path d="M 153,172 L 181,172 181,184 153,184" fill="black"/><path d="M 181,172 L 184.6,174.4 187,178 184.6,181.6 181,184" fill="black"/><path d="M 181,172 L 183,147 181,147 175,172" fill="black"/></svg>