<svg xmlns="http://www.w3.org/2000/svg" xmlns:xlink="http://www.w3.org/1999/xlink" version="1.1" baseProfile="full" viewBox="0 0 200 200" width="96" height="96"><path d="M 23,53.8 L 24.6,60.2 25.8,66.3 26.6,72.2 27.1,77.8 27.3,83.1 27.1,88.1 26.7,92.9 26,97.5 25,101.8 23.7,105.8 12.8,100.7 14.3,97.9 15.7,94.6 16.9,91 18,86.9 18.8,82.4 19.5,77.6 20.1,72.3 20.5,66.6 20.9,60.5 21.2,54" fill="black"/><path d="M 23.7,105.8 L 20.2,108.8 15.7,108.7 12.6,105.2 12.8,100.7" fill="black"/><path d="M 67.3,55.2 L 65.3,57.5 63.1,59.9 60.8,62.5 58.4,65.2 55.8,68 53.1,70.9 50.2,73.9 47.2,77 43.9,80.1 40.7,83.5 39.2,82.4 41.5,78.3 43.5,74.3 45.5,70.4 47.4,66.8 49.3,63.3 51.1,60 52.9,56.9 54.5,53.9 56,51 57.4,48.4" fill="black"/><path d="M 56.9,49.2 L 67.3,55.2 57.9,47.7" fill="black"/><path d="M 67.3,55.2 L 68.6,58.5 62.8,58.2" fill="black"/><path d="M 46,19 L 46,95 34,95 34,17" fill="black"/><path d="M 46,19 L 49,21 44,24" fill="black"/><path d="M 34,95 L 36.4,98.6 40,101 43.6,98.6 46,95" fill="black"/><path d="M 46,95 L 45.4,107.4 44.2,119.2 42.5,130.3 40.2,140.6 37.3,150.2 33.8,159 29.7,167 24.9,174.1 19.6,180.4 13.6,185.6 12.3,184.3 16.6,178 20.4,171.3 23.8,164 26.7,156.2 29.1,147.7 31.1,138.6 32.6,128.7 33.5,118.2 34,106.9 34,95" fill="black"/><path d="M 40.3,121.2 L 43.8,124.6 47.2,128 50.3,131.4 53.2,134.9 55.7,138.5 58.1,142.1 60.2,145.7 62,149.3 63.7,152.9 65,156.6 53.4,159.5 52.9,156.3 52.1,153 51.2,149.5 50,146 48.6,142.3 47,138.6 45.3,134.7 43.3,130.7 41.2,126.5 38.9,122.3" fill="black"/><path d="M 65,156.6 L 64.3,161.1 60.7,163.9 56.2,163.1 53.4,159.5" fill="black"/><path d="M 64,38 L 131,38 131,42 64,42" fill="black"/><path d="M 131,38 L 119,40 125,32" fill="black"/><path d="M 88,16 L 88,71 76,77 76,14" fill="black"/><path d="M 88,16 L 91,18 86,21" fill="black"/><path d="M 119,16 L 119,68 107,74 107,14" fill="black"/><path d="M 119,16 L 122,18 117,21" fill="black"/><path d="M 82,60 L 113,60 113,64 82,64" fill="black"/><path d="M 103.5,60 L 103.5,182.2 92.5,187.7 92.5,60" fill="black"/><path d="M 63,143 L 132,143 132,147 63,147" fill="black"/><path d="M 132,143 L 108,145 120,133" fill="black"/><path d="M 80,86 L 80,129 68,135 68,80" fill="black"/><path d="M 74,86 L 121,86 121,90 74,90" fill="black"/><path d="M 126.5,88 L 126.5,126 115.5,131.5 115.5,88" fill="black"/><path d="M 115.5,86 L 121,81 131.5,90 126.5,93.5 115.5,88" fill="black"/><path d="M 74,118 L 121,118 121,122 74,122" fill="black"/><path d="M 126,63 L 178,63 178,67 126,67" fill="black"/><path d="M 184,65 L 183.9,81.9 183.7,97.5 183.3,111.6 182.8,124.4 182.1,135.8 181.3,145.8 180.4,154.5 179.2,161.9 177.9,168 176.3,173 165.2,168.4 166.3,164.9 167.4,159.7 168.5,152.9 169.4,144.7 170.2,135 170.8,123.8 171.3,111.2 171.7,97.2 171.9,81.8 172,65" fill="black"/><path d="M 172,63 L 178,58 189,67 184,70 172,75" fill="black"/><path d="M 176.3,173 L 175.2,175.2 173.9,177.4 172.4,179.4 170.7,181.1 168.7,182.6 166.6,183.8 164.3,184.8 161.9,185.4 159.5,185.8 157,186 157,174 158.3,173.9 159.5,173.7 160.4,173.4 161.3,173.1 162,172.7 162.7,172.1 163.4,171.5 164,170.7 164.6,169.6 165.2,168.4" fill="black"/><path d="M 157,180 L 157,174 143,174 143,177" fill="black"/><path d="M 157,20 L 157,64 145,64 145,18" fill="black"/><path d="M 157,20 L 160,22 155,25" fill="black"/><path d="M 145,64 L 147.4,67.6 151,70 154.6,67.6 157,64" fill="black"/><path d="M 157,64 L 156.3,82.5 154.9,99.8 152.8,115.7 149.9,130.3 146.3,143.6 141.9,155.5 136.7,166.1 130.8,175.2 124,182.7 116.5,188.6 115.4,187.3 121.2,180.2 126.3,172.2 130.9,163.1 134.8,152.8 138.1,141.3 140.8,128.5 142.8,114.3 144.2,98.9 144.9,82.1 145,64" fill="black"/></svg>