<svg xmlns="http://www.w3.org/2000/svg" xmlns:xlink="http://www.w3.org/1999/xlink" version="1.1" baseProfile="full" viewBox="0 0 200 200" width="96" height="96"><path d="M 31.3,17 L 34.4,19.6 37.6,22 40.5,24.5 43.1,27.1 45.5,29.9 47.7,32.7 49.6,35.5 51.4,38.5 52.8,41.5 54.1,44.7 42.4,47.4 42.1,44.9 41.6,42.3 40.9,39.6 40,36.8 38.9,33.9 37.6,31 36,27.9 34.3,24.8 32.4,21.5 30,18.3" fill="black"/><path d="M 54.1,44.7 L 53.3,49.2 49.6,51.9 45.1,51.1 42.4,47.4" fill="black"/><path d="M 13,59 L 81,59 81,63 13,63" fill="black"/><path d="M 81,59 L 57,61 69,49" fill="black"/><path d="M 26.1,73.6 L 28.9,79.5 31.3,85.4 33.4,91.2 35.2,97 36.7,102.7 38,108.3 39.1,113.9 39.9,119.3 40.5,124.7 41,130 29,130 29.2,125.1 29.2,120.1 29.1,114.9 28.8,109.6 28.3,104.2 27.7,98.5 27,92.7 26.1,86.8 25.3,80.6 24.4,74.2" fill="black"/><path d="M 29,130 L 30.8,134.2 35,136 39.2,134.2 41,130" fill="black"/><path d="M 69.7,71.8 L 68.6,77.3 67.3,83.1 65.8,89.3 64.1,95.8 62.3,102.8 60.3,110.1 58.1,117.9 55.7,125.9 52.9,134.4 49.8,143.2 48.1,142.7 49.2,133.5 50.4,124.8 51.7,116.4 52.9,108.6 54,101.1 55,94 55.9,87.4 56.7,81.2 57.3,75.4 57.9,70.1" fill="black"/><path d="M 57.7,71 L 69.7,71.8 58.2,68.1" fill="black"/><path d="M 69.7,71.8 L 72.4,74.2 67,76.5" fill="black"/><path d="M 12.4,151.9 L 18.6,150.6 25,149.2 31.6,147.7 38.4,146.2 45.5,144.6 52.8,142.9 60.4,141.1 68.2,139.4 76.3,137.7 84.7,136.1 85.2,137.8 77.4,141.3 69.8,144.5 62.3,147.4 55,150.1 47.9,152.7 41,155.1 34.3,157.4 27.8,159.6 21.5,161.6 15.4,163.5" fill="black"/><path d="M 15.4,163.5 L 12.4,151.9 10.5,152.4" fill="black"/><path d="M 15.4,163.5 L 18.1,165.9 20.5,159.1" fill="black"/><path d="M 114,27 L 114,96 102,96 102,21" fill="black"/><path d="M 108,27 L 165,27 165,31 108,31" fill="black"/><path d="M 171,29 L 171,96 159,96 159,29" fill="black"/><path d="M 159,27 L 165,22 176,31 171,35 159,29" fill="black"/><path d="M 108,55 L 135,55 135,59 108,59" fill="black"/><path d="M 141,57 L 141,96 129,96 129,57" fill="black"/><path d="M 129,55 L 135,50 146,59 141,63 129,57" fill="black"/><path d="M 101,92 L 101,183 89,189 89,86" fill="black"/><path d="M 95,92 L 179,92 179,96 95,96" fill="black"/><path d="M 185,94 L 185,172 173,172 173,94" fill="black"/><path d="M 173,92 L 179,87 190,96 185,100 173,94" fill="black"/><path d="M 173,172 L 175.4,175.6 179,178 182.6,175.6 185,172" fill="black"/><path d="M 185,172 L 184.8,174.5 184.4,177 183.6,179.4 182.3,181.7 180.7,183.7 178.7,185.3 176.4,186.6 174,187.4 171.5,187.8 169,188 169,176 170.2,175.9 171.1,175.7 171.7,175.5 172,175.4 172.2,175.2 172.4,175 172.5,174.7 172.7,174.1 172.9,173.2 173,172" fill="black"/><path d="M 169,182 L 169,176 153,176 153,179" fill="black"/><path d="M 125,116 L 125,167 113,173 113,110" fill="black"/><path d="M 119,116 L 155,116 155,120 119,120" fill="black"/><path d="M 161,118 L 161,161 149,167 149,118" fill="black"/><path d="M 149,116 L 155,111 166,120 161,124 149,118" fill="black"/><path d="M 119,151 L 155,151 155,155 119,155" fill="black"/></svg>