<svg xmlns="http://www.w3.org/2000/svg" xmlns:xlink="http://www.w3.org/1999/xlink" version="1.1" baseProfile="full" viewBox="0 0 200 200" width="96" height="96"><path d="M 29,33 L 29,161 17,167 17,27" fill="black"/><path d="M 23,33 L 65,33 65,37 23,37" fill="black"/><path d="M 70.5,35 L 70.5,155 59.5,160.5 59.5,35" fill="black"/><path d="M 59.5,33 L 65,28 75.5,37 70.5,40.5 59.5,35" fill="black"/><path d="M 23,70 L 65,70 65,74 23,74" fill="black"/><path d="M 23,106 L 65,106 65,110 23,110" fill="black"/><path d="M 23,145 L 65,145 65,149 23,149" fill="black"/><path d="M 89.5,26 L 89.5,181 78.5,186.5 78.5,20.5" fill="black"/><path d="M 84,26 L 177,26 177,30 84,30" fill="black"/><path d="M 183,28 L 183,178 171,184 171,28" fill="black"/><path d="M 171,26 L 177,21 188,30 183,34 171,28" fill="black"/><path d="M 84,170 L 177,170 177,174 84,174" fill="black"/><path d="M 94,76 L 168,76 168,80 94,80" fill="black"/><path d="M 168,76 L 144,78 156,66" fill="black"/><path d="M 135,36 L 135,73 123,73 123,34" fill="black"/><path d="M 135,36 L 138,38 133,41" fill="black"/><path d="M 123,73 L 125.4,76.6 129,79 132.6,76.6 135,73" fill="black"/><path d="M 135,73 L 134.3,86.6 132.9,99.3 130.7,111 127.8,121.7 124.2,131.5 119.7,140.2 114.5,147.9 108.5,154.4 101.8,159.7 94.4,163.7 93.5,162.2 99.4,156.8 104.6,150.8 109.1,144.2 113,136.7 116.2,128.4 118.9,119.2 120.9,109.1 122.2,98 122.9,86 123,73" fill="black"/><path d="M 130.3,101 L 134.7,104 138.8,107.5 142.8,111.6 146.6,116.1 150.2,121 153.8,126.3 157.1,131.9 160.4,137.9 163.5,144.3 166.5,151 155.3,155.3 153,148.7 150.6,142.4 148.2,136.4 145.6,130.7 143,125.4 140.3,120.3 137.5,115.5 134.7,111 131.9,106.6 129.1,102.3" fill="black"/><path d="M 166.5,151 L 166.3,155.6 163,158.8 158.4,158.6 155.3,155.3" fill="black"/></svg>