<svg xmlns="http://www.w3.org/2000/svg" xmlns:xlink="http://www.w3.org/1999/xlink" version="1.1" baseProfile="full" viewBox="0 0 200 200" width="96" height="96"><path d="M 42.3,145.9 L 40.4,149.9 38.3,153.8 36,157.6 33.4,161.3 30.5,165 27.5,168.5 24.2,172 20.6,175.3 16.7,178.5 12.6,181.6 11.3,180.3 14.2,176.2 16.8,172.1 19.3,168.1 21.6,164.2 23.7,160.4 25.6,156.6 27.2,152.9 28.7,149.2 29.9,145.5 31,141.9" fill="black"/><path d="M 30.6,142.9 L 42.3,145.9 31.5,140.5" fill="black"/><path d="M 42.3,145.9 L 44.5,148.8 38.7,149.9" fill="black"/><path d="M 52.3,140.9 L 55,142.7 57.8,144.4 60.4,146.3 62.9,148.3 65.2,150.4 67.3,152.7 69.4,155.1 71.2,157.6 73,160.3 74.5,163 63.3,167.2 62.7,164.8 62,162.3 61.2,159.8 60.2,157.4 59.1,154.9 57.8,152.4 56.4,149.9 54.9,147.3 53.2,144.6 51.1,142.3" fill="black"/><path d="M 74.5,163 L 74.3,167.6 71,170.8 66.4,170.5 63.3,167.2" fill="black"/><path d="M 30,29 L 30,136 18,142 18,23" fill="black"/><path d="M 24,29 L 65,29 65,33 24,33" fill="black"/><path d="M 71,31 L 71,133 59,139 59,31" fill="black"/><path d="M 59,29 L 65,24 76,33 71,37 59,31" fill="black"/><path d="M 24,61 L 65,61 65,65 24,65" fill="black"/><path d="M 24,93 L 65,93 65,97 24,97" fill="black"/><path d="M 24,129 L 65,129 65,133 24,133" fill="black"/><path d="M 103.3,15.2 L 106,17.7 108.8,20.4 111.3,23.3 113.6,26.4 115.8,29.8 117.8,33.2 119.6,36.9 121.3,40.7 122.8,44.6 124.2,48.7 112.4,51.3 111.9,47.5 111.3,43.8 110.5,40.1 109.6,36.6 108.6,33.1 107.5,29.6 106.2,26.3 104.9,22.9 103.6,19.5 101.9,16.3" fill="black"/><path d="M 124.2,48.7 L 123.3,53.2 119.6,55.9 115.1,55 112.4,51.3" fill="black"/><path d="M 167.2,19.9 L 165.4,24.1 163.4,28.3 161.3,32.6 159.2,36.8 157,41.1 154.6,45.3 152.2,49.6 149.6,53.9 146.8,58.1 143.8,62.3 142.1,61.6 143.5,56.6 144.8,51.7 146.3,47 147.8,42.4 149.3,37.8 150.7,33.3 152.1,28.8 153.4,24.5 154.7,20.1 156,15.8" fill="black"/><path d="M 155.6,16.8 L 167.2,19.9 156.5,14.4" fill="black"/><path d="M 167.2,19.9 L 169.4,22.8 163.7,24" fill="black"/><path d="M 79,60 L 188,60 188,64 79,64" fill="black"/><path d="M 188,60 L 164,62 176,50" fill="black"/><path d="M 126,60 L 126,177 114,177 114,60" fill="black"/><path d="M 153,60 L 153,177 141,177 141,60" fill="black"/><path d="M 87.2,84.4 L 90.5,89.2 93.5,94.2 96.1,99.5 98.5,105.1 100.6,110.8 102.5,116.8 104.1,122.9 105.5,129.3 106.7,135.8 107.7,142.5 95.7,143.5 95.4,137.1 94.9,130.9 94.2,124.8 93.4,118.8 92.4,113 91.2,107.3 89.9,101.7 88.5,96.2 87.1,90.7 85.6,85.2" fill="black"/><path d="M 107.7,142.5 L 106.2,146.8 102.2,148.9 97.9,147.5 95.7,143.5" fill="black"/><path d="M 183.3,89.9 L 180.8,95.9 178.1,102 175.3,108.2 172.4,114.4 169.3,120.6 166,126.9 162.6,133.3 158.9,139.7 155,146 150.8,152.4 149.1,151.5 151.6,144.4 154.1,137.4 156.6,130.5 159.1,123.8 161.5,117.3 163.8,110.8 166,104.4 168.1,98.1 170.1,92 172,85.9" fill="black"/><path d="M 171.6,86.8 L 183.3,89.9 172.5,84.4" fill="black"/><path d="M 183.3,89.9 L 185.4,92.8 179.7,93.9" fill="black"/><path d="M 77,173 L 190,173 190,177 77,177" fill="black"/><path d="M 190,173 L 166,175 178,163" fill="black"/></svg>