<svg xmlns="http://www.w3.org/2000/svg" xmlns:xlink="http://www.w3.org/1999/xlink" version="1.1" baseProfile="full" viewBox="0 0 200 200" width="96" height="96"><path d="M 14,40 L 83,40 83,44 14,44" fill="black"/><path d="M 83,40 L 59,42 71,30" fill="black"/><path d="M 31.5,63 L 31.5,130 20.5,135.5 20.5,57.5" fill="black"/><path d="M 26,63 L 71,63 71,67 26,67" fill="black"/><path d="M 76.5,65 L 76.5,127 65.5,132.5 65.5,65" fill="black"/><path d="M 65.5,63 L 71,58 81.5,67 76.5,70.5 65.5,65" fill="black"/><path d="M 26,90 L 71,90 71,94 26,94" fill="black"/><path d="M 26,119 L 71,119 71,123 26,123" fill="black"/><path d="M 12,146 L 84,146 84,150 12,150" fill="black"/><path d="M 84,146 L 60,148 72,136" fill="black"/><path d="M 53,15 L 53,183.5 43,188.5 43,13" fill="black"/><path d="M 53,15 L 55.5,17 51,20" fill="black"/><path d="M 98,24 L 176,24 176,28 98,28" fill="black"/><path d="M 182,26 L 182,68 170,74 170,26" fill="black"/><path d="M 170,24 L 176,19 187,28 182,32 170,26" fill="black"/><path d="M 143,24 L 143,64 131,64 131,24" fill="black"/><path d="M 98,60 L 176,60 176,64 98,64" fill="black"/><path d="M 103.5,24 L 103.5,92 92.5,92 92.5,18.5" fill="black"/><path d="M 92.5,92 L 94.7,95.3 98,97.5 101.3,95.3 103.5,92" fill="black"/><path d="M 103.5,92 L 103,103.9 102.1,115.2 100.7,126 99,136.2 96.8,145.8 94.1,154.8 91,163.2 87.4,171 83.3,178.1 78.6,184.4 77.3,183.5 80.2,176.5 82.9,169.1 85.3,161.2 87.4,152.9 89.1,144.1 90.5,134.8 91.6,124.9 92.2,114.5 92.5,103.5 92.5,92" fill="black"/><path d="M 121.5,86 L 121.5,183 110.5,188.5 110.5,80.5" fill="black"/><path d="M 116,86 L 172,86 172,90 116,90" fill="black"/><path d="M 178,88 L 178,180 166,186 166,88" fill="black"/><path d="M 166,86 L 172,81 183,90 178,94 166,88" fill="black"/><path d="M 116,114 L 172,114 172,118 116,118" fill="black"/><path d="M 116,142 L 172,142 172,146 116,146" fill="black"/><path d="M 116,172 L 172,172 172,176 116,176" fill="black"/></svg>