<svg xmlns="http://www.w3.org/2000/svg" xmlns:xlink="http://www.w3.org/1999/xlink" version="1.1" baseProfile="full" viewBox="0 0 200 200" width="96" height="96"><path d="M 27.5,53 L 27.5,124 16.5,129.5 16.5,47.5" fill="black"/><path d="M 22,53 L 64,53 64,57 22,57" fill="black"/><path d="M 69,55 L 69,112 59,117 59,55" fill="black"/><path d="M 59,53 L 64,48 74,57 69,60 59,55" fill="black"/><path d="M 22,108 L 64,108 64,112 22,112" fill="black"/><path d="M 48,15 L 48,160 38,160 38,13" fill="black"/><path d="M 48,15 L 50.5,17 46,20" fill="black"/><path d="M 12.6,167 L 17.8,165.2 22.9,163.3 28,161.3 33,159.2 37.9,157.1 42.8,154.9 47.7,152.7 52.6,150.5 57.5,148.3 62.4,146.2 63.5,147.7 59.5,151.5 55.4,155.1 51.1,158.4 46.6,161.6 41.9,164.6 37.2,167.5 32.3,170.3 27.4,173 22.3,175.6 17.1,178.1" fill="black"/><path d="M 17.1,178.1 L 12.6,167 10.8,167.8" fill="black"/><path d="M 17.1,178.1 L 20.1,180.2 21.6,173.1" fill="black"/><path d="M 54.3,125.3 L 57.3,128.6 60.2,132 62.8,135.7 65.1,139.6 67.1,143.6 68.9,147.7 70.5,152 71.8,156.4 72.9,160.9 73.7,165.5 61.7,166.4 61.6,162.3 61.4,158.3 60.9,154.2 60.3,150.2 59.4,146.3 58.4,142.3 57.3,138.3 55.9,134.4 54.5,130.3 52.8,126.3" fill="black"/><path d="M 73.7,165.5 L 72.2,169.8 68.2,171.9 63.9,170.5 61.7,166.4" fill="black"/><path d="M 97,18 L 97,53 85,53 85,16" fill="black"/><path d="M 97,18 L 100,20 95,23" fill="black"/><path d="M 71,49 L 117,49 117,53 71,53" fill="black"/><path d="M 117,49 L 101,51 109,42" fill="black"/><path d="M 87,84 L 105,84 105,88 87,88" fill="black"/><path d="M 110.9,85.9 L 111.1,98.6 111.1,110.5 111,121.3 110.9,131.3 110.6,140.3 110.1,148.4 109.6,155.5 108.9,161.8 108.1,167.1 107.2,171.7 95.6,168.8 96.3,165.1 97,160.3 97.6,154.4 98.2,147.6 98.6,139.8 98.9,131 99,121.2 99.1,110.4 99.1,98.7 99,86" fill="black"/><path d="M 99,84 L 105,79 116,88 111,91 99,96" fill="black"/><path d="M 107.2,171.7 L 106.5,174.1 105.5,176.5 104.2,178.6 102.6,180.6 100.7,182.3 98.7,183.6 96.4,184.7 94,185.4 91.5,185.8 89,186 89,174 90.2,173.9 91.3,173.7 92.2,173.5 92.8,173.2 93.4,172.8 93.8,172.4 94.3,171.8 94.8,171 95.2,170 95.6,168.8" fill="black"/><path d="M 89,180 L 89,174 69,174 69,177" fill="black"/><path d="M 92.5,55 L 92.5,80 81.5,80 81.5,53" fill="black"/><path d="M 92.5,55 L 95.2,57 90.5,60" fill="black"/><path d="M 81.5,80 L 83.7,83.3 87,85.5 90.3,83.3 92.5,80" fill="black"/><path d="M 92.5,80 L 92,93.7 91.2,106.9 90.1,119.3 88.6,131.1 86.8,142.3 84.6,152.7 82,162.5 79.1,171.5 75.6,179.8 71.7,187.3 70.2,186.6 72.4,178.6 74.3,170.1 76.2,161.1 77.8,151.4 79.1,141.1 80.2,130.2 80.9,118.6 81.4,106.4 81.6,93.5 81.5,80" fill="black"/><path d="M 139.7,15.9 L 137.9,24 135.8,31.7 133.5,39.1 130.9,46.3 128.1,53.2 125.1,59.7 121.7,66 118.1,71.9 114.1,77.4 109.7,82.4 108.2,81.5 110.8,75.4 113.3,69.4 115.8,63.2 118.1,56.8 120.2,50.2 122.1,43.4 123.8,36.4 125.4,29.2 126.7,21.7 127.9,13.9" fill="black"/><path d="M 127.7,14.9 L 139.7,15.9 128.2,12" fill="black"/><path d="M 139.7,15.9 L 142.3,18.4 136.9,20.5" fill="black"/><path d="M 125,48 L 183,48 183,52 125,52" fill="black"/><path d="M 183,48 L 159,50 171,38" fill="black"/><path d="M 109,113.2 L 171,80.2 172.9,83.7 110.9,116.7" fill="black"/><path d="M 178,82 L 178,131 166,131 166,82" fill="black"/><path d="M 166,80 L 172,75 183,84 178,88 166,82" fill="black"/><path d="M 166,131 L 168.4,134.6 172,137 175.6,134.6 178,131" fill="black"/><path d="M 178,131 L 177.8,133.5 177.4,136 176.6,138.4 175.3,140.7 173.7,142.7 171.7,144.3 169.4,145.6 167,146.4 164.5,146.8 162,147 162,135 163.2,134.9 164.1,134.7 164.7,134.5 165,134.4 165.2,134.2 165.4,134 165.5,133.7 165.7,133.1 165.9,132.2 166,131" fill="black"/><path d="M 162,141 L 162,135 154,135 154,138" fill="black"/><path d="M 153.5,57 L 153.5,151.2 142.5,156.7 142.5,55" fill="black"/><path d="M 153.5,57 L 156.2,59 151.5,62" fill="black"/><path d="M 131.5,70 L 131.5,164 120.5,164 120.5,68" fill="black"/><path d="M 131.5,70 L 134.2,72 129.5,75" fill="black"/><path d="M 120.5,164 L 122.7,167.3 126,169.5 129.3,167.3 131.5,164" fill="black"/><path d="M 131.5,164 L 131.6,165.2 131.8,166.2 132,166.8 132.3,167.2 132.5,167.4 132.8,167.5 133.2,167.7 133.8,167.8 134.7,167.9 136,168 136,180 133.4,179.8 130.9,179.3 128.5,178.4 126.3,177.2 124.4,175.5 122.8,173.5 121.7,171.3 120.9,168.9 120.5,166.5 120.5,164" fill="black"/><path d="M 136,168 L 140.2,169.8 142,174 140.2,178.2 136,180" fill="black"/><path d="M 136,168 L 181,168 181,180 136,180" fill="black"/><path d="M 181,168 L 184.6,170.4 187,174 184.6,177.6 181,180" fill="black"/><path d="M 181,168 L 183,143 181,143 175,168" fill="black"/></svg>