<svg xmlns="http://www.w3.org/2000/svg" xmlns:xlink="http://www.w3.org/1999/xlink" version="1.1" baseProfile="full" viewBox="0 0 200 200" width="96" height="96"><path d="M 28,53 L 28,124 16,130 16,47" fill="black"/><path d="M 22,53 L 72,53 72,57 22,57" fill="black"/><path d="M 78,55 L 78,112 66,118 66,55" fill="black"/><path d="M 66,53 L 72,48 83,57 78,61 66,55" fill="black"/><path d="M 22,108 L 72,108 72,112 22,112" fill="black"/><path d="M 53,15 L 53,160 41,160 41,13" fill="black"/><path d="M 53,15 L 56,17 51,20" fill="black"/><path d="M 11.9,167 L 17.9,165.1 23.8,163.2 29.6,161.2 35.4,159.1 41.2,157 46.9,154.8 52.5,152.6 58.1,150.4 63.8,148.2 69.5,146.2 70.4,147.7 65.6,151.6 60.6,155.2 55.5,158.5 50.1,161.7 44.7,164.7 39.1,167.6 33.5,170.5 27.7,173.2 21.9,175.8 15.9,178.3" fill="black"/><path d="M 15.9,178.3 L 11.9,167 10,167.6" fill="black"/><path d="M 15.9,178.3 L 18.8,180.4 20.6,173.4" fill="black"/><path d="M 60.3,125.2 L 63.7,128.4 66.9,131.9 69.8,135.5 72.3,139.4 74.6,143.4 76.6,147.5 78.3,151.8 79.7,156.3 80.8,160.8 81.7,165.5 69.7,166.4 69.6,162.4 69.3,158.4 68.8,154.4 68,150.4 67,146.4 65.8,142.5 64.4,138.5 62.7,134.5 60.9,130.4 58.9,126.3" fill="black"/><path d="M 81.7,165.5 L 80.2,169.8 76.2,171.9 71.9,170.5 69.7,166.4" fill="black"/><path d="M 84,22 L 185,22 185,26 84,26" fill="black"/><path d="M 185,22 L 161,24 173,12" fill="black"/><path d="M 117.3,24 L 116.7,25.7 114.6,31 112.2,36.2 109.6,41.2 106.7,46 103.6,50.7 100.2,55.1 96.5,59.4 92.5,63.4 88.2,67.2 83.6,70.6 82.3,69.3 85.4,64.6 88.4,60 91.2,55.4 93.9,50.9 96.3,46.2 98.5,41.6 100.5,36.8 102.3,32 103.9,27.2 104.7,24" fill="black"/><path d="M 103,42 L 130,42 130,46 103,46" fill="black"/><path d="M 135.9,44.8 L 134.1,52.6 131.4,59.9 127.9,66.7 123.5,73 118.3,78.8 112.4,84 105.7,88.6 98.3,92.7 90.2,96.1 81.3,98.8 80.6,97.1 88.5,92.6 95.6,88 101.9,83.3 107.4,78.3 112.1,73.1 115.9,67.7 119,62 121.4,56 123,49.7 124,43.1" fill="black"/><path d="M 124,42 L 130,37 141,46 136,49 124,54" fill="black"/><path d="M 98.3,52.7 L 100.5,53.8 102.9,54.5 105.1,55.3 107.2,56.1 109.1,57 110.9,57.9 112.6,58.9 114.2,60 115.6,61.2 117,62.6 106.2,67.9 106.3,67.2 106.2,66.2 105.9,65.1 105.3,63.8 104.5,62.4 103.5,60.8 102.3,59.2 100.9,57.5 99.4,55.6 97.4,54.2" fill="black"/><path d="M 117,62.6 L 117.2,67.1 114.3,70.6 109.7,70.9 106.2,68" fill="black"/><path d="M 152,22 L 152,83 140,83 140,22" fill="black"/><path d="M 140,83 L 142.4,86.6 146,89 149.6,86.6 152,83" fill="black"/><path d="M 152,83 L 151.9,84.2 152,85.1 152.1,85.8 152.2,86.2 152.3,86.6 152.5,86.9 152.9,87.2 153.6,87.5 154.6,87.8 156,88 156,98 153.5,97.9 151.1,97.6 148.8,96.9 146.6,95.8 144.6,94.3 142.9,92.5 141.6,90.3 140.7,88 140.2,85.5 140,83" fill="black"/><path d="M 156,88 L 159.5,89.5 161,93 159.5,96.5 156,98" fill="black"/><path d="M 156,88 L 185,88 185,98 156,98" fill="black"/><path d="M 185,88 L 188,90 190,93 188,96 185,98" fill="black"/><path d="M 185,88 L 187,71 185,71 180,88" fill="black"/><path d="M 183.5,44.9 L 180.9,46.9 178.1,49 175.1,51.1 171.8,53.3 168.3,55.6 164.5,57.9 160.4,60.3 156.1,62.7 151.4,65.2 146.5,67.7 145.4,66.2 149.5,62.5 153.2,58.8 156.8,55.4 160.1,52.2 163.3,49.2 166.1,46.3 168.7,43.6 171.1,41 173.2,38.7 175,36.4" fill="black"/><path d="M 174.3,37.1 L 183.5,44.9 175.3,36.1" fill="black"/><path d="M 183.5,44.9 L 184.2,48.4 178.5,47" fill="black"/><path d="M 103,109 L 103,181 91,187 91,103" fill="black"/><path d="M 97,109 L 174,109 174,113 97,113" fill="black"/><path d="M 180,111 L 180,172 168,172 168,111" fill="black"/><path d="M 168,109 L 174,104 185,113 180,117 168,111" fill="black"/><path d="M 168,172 L 170.4,175.6 174,178 177.6,175.6 180,172" fill="black"/><path d="M 180,172 L 179.8,174.5 179.4,177 178.6,179.4 177.3,181.7 175.7,183.7 173.7,185.3 171.4,186.6 169,187.4 166.5,187.8 164,188 164,176 165.2,175.9 166.1,175.7 166.7,175.5 167,175.4 167.2,175.2 167.4,175 167.5,174.7 167.7,174.1 167.9,173.2 168,172" fill="black"/><path d="M 164,182 L 164,176 148,176 148,179" fill="black"/><path d="M 142.9,97.1 L 142,105.3 140.4,113 137.9,120 134.6,126.3 130.6,132 125.8,136.8 120.4,140.9 114.2,144.1 107.5,146.4 100.2,147.8 99.7,146.1 106.1,142.9 111.7,139.4 116.4,135.6 120.5,131.5 123.8,126.9 126.4,122 128.5,116.5 129.9,110.5 130.7,104 130.9,96.8" fill="black"/><path d="M 130.9,97.8 L 142.9,97.1 131,94.5" fill="black"/><path d="M 142.9,97.1 L 145.9,99.2 140.8,102" fill="black"/><path d="M 136.2,120.5 L 139.7,121.5 143.2,122.2 146.5,123 149.6,124 152.6,125 155.4,126.1 158,127.4 160.5,128.7 162.9,130.1 165.1,131.6 156.6,140.1 155.5,138.5 154.1,136.8 152.5,135.1 150.8,133.3 148.8,131.5 146.5,129.7 144.1,127.8 141.5,125.9 138.7,123.8 135.6,122.2" fill="black"/><path d="M 165.1,131.6 L 166.8,135.8 165.1,140.1 160.8,141.8 156.6,140.1" fill="black"/><path d="M 145.1,140.1 L 142.5,145.1 139.5,149.8 136,154.1 132.2,158.1 127.9,161.6 123.3,164.8 118.3,167.5 113,169.8 107.3,171.6 101.2,172.8 100.7,171.1 105.8,168.1 110.6,165 114.9,161.9 118.8,158.6 122.3,155.3 125.4,151.7 128.1,148 130.4,144.1 132.4,140 134,135.7" fill="black"/><path d="M 133.6,136.6 L 145.1,140.1 134.5,134.3" fill="black"/><path d="M 145.1,140.1 L 147.2,143.1 141.4,144" fill="black"/><path d="M 136.2,151.5 L 139.3,152.3 142.4,152.8 145.4,153.5 148.3,154.4 151,155.3 153.7,156.3 156.2,157.5 158.6,158.7 160.9,160.1 163.1,161.6 154.6,170.1 153.5,168.4 152.2,166.8 150.7,165.1 149.1,163.4 147.3,161.7 145.3,160 143.1,158.2 140.8,156.5 138.4,154.6 135.6,153.1" fill="black"/><path d="M 163.1,161.6 L 164.8,165.8 163.1,170.1 158.8,171.8 154.6,170.1" fill="black"/></svg>