<svg xmlns="http://www.w3.org/2000/svg" xmlns:xlink="http://www.w3.org/1999/xlink" version="1.1" baseProfile="full" viewBox="0 0 200 200" width="96" height="96"><path d="M 27.5,53 L 27.5,124 16.5,129.5 16.5,47.5" fill="black"/><path d="M 22,53 L 68,53 68,57 22,57" fill="black"/><path d="M 73,55 L 73,112 63,117 63,55" fill="black"/><path d="M 63,53 L 68,48 78,57 73,60 63,55" fill="black"/><path d="M 22,108 L 68,108 68,112 22,112" fill="black"/><path d="M 50,15 L 50,160 40,160 40,13" fill="black"/><path d="M 50,15 L 52.5,17 48,20" fill="black"/><path d="M 12.8,167 L 18.3,165.1 23.8,163.2 29.2,161.2 34.5,159.2 39.8,157.1 45,154.9 50.1,152.7 55.2,150.5 60.3,148.3 65.5,146.2 66.4,147.7 62.3,151.5 57.9,155.1 53.3,158.4 48.5,161.6 43.6,164.7 38.5,167.6 33.3,170.4 28,173.1 22.6,175.7 17,178.2" fill="black"/><path d="M 17,178.2 L 12.8,167 10.9,167.7" fill="black"/><path d="M 17,178.2 L 19.9,180.3 21.6,173.3" fill="black"/><path d="M 57.3,125.2 L 60.5,128.5 63.6,131.9 66.3,135.6 68.7,139.5 70.9,143.5 72.7,147.6 74.4,151.9 75.7,156.3 76.8,160.8 77.7,165.5 65.7,166.4 65.6,162.4 65.3,158.3 64.8,154.3 64.1,150.3 63.2,146.3 62.1,142.4 60.8,138.4 59.3,134.4 57.7,130.3 55.8,126.3" fill="black"/><path d="M 77.7,165.5 L 76.2,169.8 72.2,171.9 67.9,170.5 65.7,166.4" fill="black"/><path d="M 89,26 L 187,26 187,30 89,30" fill="black"/><path d="M 187,26 L 163,28 175,16" fill="black"/><path d="M 94,26 L 94,91 84,91 84,21" fill="black"/><path d="M 84,91 L 86,94 89,96 92,94 94,91" fill="black"/><path d="M 94,91 L 93.6,105 92.9,118.1 91.9,130.3 90.6,141.6 89,152 87,161.4 84.7,169.9 82.1,177.4 79.1,183.9 75.6,189.3 74.3,188.6 76.1,182.7 77.9,176 79.4,168.6 80.8,160.2 82,151 82.9,140.8 83.5,129.7 83.9,117.7 84.1,104.8 84,91" fill="black"/><path d="M 116.5,48 L 116.5,98 105.5,103.5 105.5,42.5" fill="black"/><path d="M 111,48 L 167,48 167,52 111,52" fill="black"/><path d="M 173,50 L 173,98 161,104 161,50" fill="black"/><path d="M 161,48 L 167,43 178,52 173,56 161,50" fill="black"/><path d="M 111,71 L 167,71 167,75 111,75" fill="black"/><path d="M 111,94 L 167,94 167,98 111,98" fill="black"/><path d="M 110,112 L 162,112 162,116 110,116" fill="black"/><path d="M 166.2,118.2 L 164,119.8 161.7,121.4 159.4,122.9 156.9,124.5 154.4,126.1 151.8,127.6 149.1,129.1 146.3,130.6 143.3,132 140.5,133.7 139.4,132.2 141.7,129.9 143.7,127.4 145.7,125 147.6,122.6 149.5,120.3 151.3,118.1 153,115.9 154.7,113.8 156.2,111.7 157.7,109.7" fill="black"/><path d="M 156,112 L 162,107 173,116 168,119 156,124" fill="black"/><path d="M 145,130 L 145,171 133,171 133,128" fill="black"/><path d="M 145,130 L 148,132 143,135" fill="black"/><path d="M 133,171 L 135.4,174.6 139,177 142.6,174.6 145,171" fill="black"/><path d="M 145,171 L 144.8,173.5 144.4,176 143.6,178.4 142.3,180.7 140.7,182.7 138.7,184.3 136.4,185.6 134,186.4 131.5,186.8 129,187 129,175 130.2,174.9 131.1,174.7 131.7,174.5 132,174.4 132.2,174.2 132.4,174 132.5,173.7 132.7,173.1 132.9,172.2 133,171" fill="black"/><path d="M 129,181 L 129,175 109,175 109,178" fill="black"/><path d="M 94,143 L 185,143 185,147 94,147" fill="black"/><path d="M 185,143 L 161,145 173,133" fill="black"/></svg>