<svg xmlns="http://www.w3.org/2000/svg" xmlns:xlink="http://www.w3.org/1999/xlink" version="1.1" baseProfile="full" viewBox="0 0 200 200" width="96" height="96"><path d="M 56.4,17.6 L 53.4,26.1 50.1,34.3 46.6,42.3 42.8,50.2 38.7,57.8 34.3,65.3 29.7,72.5 24.7,79.5 19.4,86.1 13.7,92.5 12.2,91.4 16.3,84 20.2,76.6 24,69.2 27.6,61.7 31.1,54.1 34.3,46.3 37.3,38.5 40.1,30.5 42.6,22.4 44.9,14.2" fill="black"/><path d="M 44.6,15.1 L 56.4,17.6 45.4,12.6" fill="black"/><path d="M 56.4,17.6 L 58.7,20.4 53,21.9" fill="black"/><path d="M 51.3,26.7 L 55.1,28.4 58.9,30 62.4,31.8 65.7,33.7 68.8,35.8 71.6,38.1 74.3,40.5 76.8,43.1 79,45.7 81,48.6 70.2,54 69.3,51.5 68.2,49.1 66.8,46.6 65.2,44 63.4,41.5 61.3,38.9 58.9,36.2 56.4,33.6 53.6,30.8 50.4,28.2" fill="black"/><path d="M 81,48.6 L 81.2,53.1 78.3,56.6 73.7,56.9 70.2,54" fill="black"/><path d="M 32,69 L 76,69 76,73 32,73" fill="black"/><path d="M 76,69 L 56,71 66,60" fill="black"/><path d="M 18,101 L 81,101 81,105 18,105" fill="black"/><path d="M 81,101 L 57,103 69,91" fill="black"/><path d="M 56,69 L 56,166 44,166 44,69" fill="black"/><path d="M 21.3,120.1 L 23.9,122.6 26.5,125 28.9,127.6 31.1,130.4 33.1,133.4 34.8,136.5 36.4,139.8 37.7,143.2 38.8,146.7 39.6,150.4 27.7,151.6 27.7,148.5 27.5,145.4 27.2,142.4 26.7,139.4 26,136.4 25.2,133.4 24.1,130.4 23,127.4 21.7,124.2 19.9,121.3" fill="black"/><path d="M 39.6,150.4 L 38.2,154.7 34.2,156.9 29.9,155.6 27.7,151.6" fill="black"/><path d="M 78.4,121.7 L 77,124.7 75.5,127.7 73.9,130.8 72.2,133.8 70.4,136.8 68.5,139.7 66.5,142.7 64.3,145.6 61.9,148.4 59.7,151.4 58.2,150.5 59.5,147.1 60.4,143.6 61.4,140.2 62.4,136.9 63.3,133.6 64.2,130.4 65,127.3 65.7,124.2 66.4,121.1 66.9,118.1" fill="black"/><path d="M 66.6,119.1 L 78.4,121.7 67.4,116.6" fill="black"/><path d="M 78.4,121.7 L 80.6,124.5 75,125.9" fill="black"/><path d="M 15.5,170.9 L 21.7,169.6 27.9,168.3 34.1,166.9 40.4,165.4 46.7,163.8 52.9,162.3 59.3,160.7 65.6,159.1 72.1,157.5 78.6,156.1 79.3,157.8 73.4,161.1 67.5,164.1 61.4,166.9 55.3,169.5 49.2,171.9 43.1,174.3 36.9,176.5 30.8,178.6 24.6,180.6 18.4,182.5" fill="black"/><path d="M 18.4,182.5 L 15.5,170.9 13.5,171.4" fill="black"/><path d="M 18.4,182.5 L 21,185 23.5,178.2" fill="black"/><path d="M 78,27 L 188,27 188,31 78,31" fill="black"/><path d="M 188,27 L 164,29 176,17" fill="black"/><path d="M 139.3,29 L 138.7,30.6 137.1,34.8 135.4,38.9 133.6,42.9 131.7,46.7 129.7,50.5 127.6,54.2 125.3,57.7 122.9,61.1 120.3,64.3 117.7,67.4 116.2,66.5 117.5,62.7 118.7,58.9 119.9,55.1 121.1,51.2 122.2,47.4 123.3,43.5 124.4,39.5 125.4,35.5 126.3,31.4 126.8,29" fill="black"/><path d="M 98,61 L 98,178 86,184 86,55" fill="black"/><path d="M 92,61 L 175,61 175,65 92,65" fill="black"/><path d="M 181,63 L 181,172 169,178 169,63" fill="black"/><path d="M 169,61 L 175,56 186,65 181,69 169,63" fill="black"/><path d="M 125,61 L 125,166 113,166 113,61" fill="black"/><path d="M 154,61 L 154,166 142,166 142,61" fill="black"/><path d="M 119,93 L 148,93 148,97 119,97" fill="black"/><path d="M 119,127 L 148,127 148,131 119,131" fill="black"/><path d="M 92,162 L 175,162 175,166 92,166" fill="black"/></svg>