<svg xmlns="http://www.w3.org/2000/svg" xmlns:xlink="http://www.w3.org/1999/xlink" version="1.1" baseProfile="full" viewBox="0 0 200 200" width="96" height="96"><path d="M 88.8,27.7 L 83,30.3 77.2,32.8 71.4,35 65.7,37.1 60,39 54.4,40.7 48.8,42.2 43.3,43.4 37.7,44.3 32.2,44.8 31.7,43.1 36.6,40.7 41.6,38.3 46.7,36 51.8,33.6 56.9,31.1 62.1,28.6 67.3,25.9 72.6,23.1 77.9,20.1 83.3,17.1" fill="black"/><path d="M 82.4,17.5 L 88.8,27.7 91.6,26.3" fill="black"/><path d="M 91.6,26.3 L 91.7,29.6 85.6,27.1" fill="black"/><path d="M 38,42 L 38,138 26,138 26,36" fill="black"/><path d="M 12.6,139 L 18.9,136.8 25.3,134.5 31.6,132.2 38,129.8 44.5,127.5 51,125.1 57.5,122.7 64.1,120.4 70.8,118.2 77.6,116.1 78.3,117.8 72.4,121.6 66.3,125.3 60.2,128.7 54,132 47.9,135.2 41.7,138.4 35.6,141.4 29.4,144.4 23.3,147.3 17.1,150.1" fill="black"/><path d="M 17.1,150.1 L 12.6,139 10.8,139.8" fill="black"/><path d="M 17.1,150.1 L 20.1,152.2 21.6,145.1" fill="black"/><path d="M 83,55 L 83,112 71,112 71,53" fill="black"/><path d="M 83,55 L 86,57 81,60" fill="black"/><path d="M 71,112 L 73.4,115.6 77,118 80.6,115.6 83,112" fill="black"/><path d="M 83,112 L 82.1,123.7 80.1,134.6 77,144.7 72.8,153.9 67.4,162.1 61,169.4 53.5,175.6 45.1,180.8 35.6,184.9 25.2,187.8 24.7,186.1 34.1,181.4 42.3,176.2 49.4,170.5 55.5,164.2 60.5,157.3 64.5,149.7 67.5,141.4 69.6,132.4 70.8,122.6 71,112" fill="black"/><path d="M 98,28 L 168,28 168,32 98,32" fill="black"/><path d="M 174,30 L 174,97 162,103 162,30" fill="black"/><path d="M 162,28 L 168,23 179,32 174,36 162,30" fill="black"/><path d="M 106,87 L 168,87 168,91 106,91" fill="black"/><path d="M 112,87 L 112,163 100,163 100,81" fill="black"/><path d="M 100,163 L 102.4,166.6 106,169 109.6,166.6 112,163" fill="black"/><path d="M 112,163 L 112,164.2 112.2,165.1 112.4,165.7 112.5,166 112.7,166.2 112.9,166.4 113.2,166.5 113.8,166.7 114.7,166.9 116,167 116,179 113.4,178.8 110.9,178.4 108.5,177.6 106.2,176.3 104.2,174.7 102.6,172.7 101.3,170.4 100.5,168 100.1,165.5 100,163" fill="black"/><path d="M 116,167 L 120.2,168.8 122,173 120.2,177.2 116,179" fill="black"/><path d="M 116,167 L 180,167 180,179 116,179" fill="black"/><path d="M 180,167 L 183.6,169.4 186,173 183.6,176.6 180,179" fill="black"/><path d="M 180,167 L 182,142 180,142 174,167" fill="black"/></svg>