<svg xmlns="http://www.w3.org/2000/svg" xmlns:xlink="http://www.w3.org/1999/xlink" version="1.1" baseProfile="full" viewBox="0 0 200 200" width="96" height="96"><path d="M 31,28 L 31,83 19,89 19,22" fill="black"/><path d="M 25,28 L 69,28 69,32 25,32" fill="black"/><path d="M 75,30 L 75,86 63,92 63,30" fill="black"/><path d="M 63,28 L 69,23 80,32 75,36 63,30" fill="black"/><path d="M 25,76 L 69,76 69,80 25,80" fill="black"/><path d="M 55,76 L 55,164 43,164 43,76" fill="black"/><path d="M 49,117 L 78,117 78,121 49,121" fill="black"/><path d="M 78,117 L 62,119 70,110" fill="black"/><path d="M 31,103 L 31,168 19,174 19,101" fill="black"/><path d="M 31,103 L 34,105 29,108" fill="black"/><path d="M 14.2,168.9 L 20.8,167.2 27.4,165.5 33.9,163.6 40.4,161.7 46.9,159.7 53.4,157.6 59.9,155.4 66.4,153.3 72.9,151.2 79.6,149.1 80.3,150.8 74.5,154.6 68.6,158.2 62.5,161.5 56.2,164.6 50,167.6 43.6,170.4 37.2,173.1 30.7,175.7 24.2,178.1 17.6,180.4" fill="black"/><path d="M 17.6,180.4 L 14.2,168.9 12.3,169.5" fill="black"/><path d="M 17.6,180.4 L 20.4,182.7 22.5,175.9" fill="black"/><path d="M 93,18 L 130,18 130,22 93,22" fill="black"/><path d="M 135.4,22.4 L 131.6,29.6 127.4,36.5 122.9,42.9 117.9,49.1 112.6,54.8 106.9,60.1 100.9,65 94.5,69.4 87.6,73.4 80.4,76.7 79.5,75.2 85.5,70.2 91.2,65.2 96.6,60 101.6,54.7 106.3,49.1 110.6,43.3 114.6,37.3 118.2,31 121.5,24.4 124.5,17.5" fill="black"/><path d="M 124,18 L 130,13 141,22 136,25 124,30" fill="black"/><path d="M 89.2,30.5 L 91.5,31.3 94,31.8 96.3,32.5 98.6,33.3 100.7,34.4 102.8,35.7 104.8,37.1 106.6,38.8 108.4,40.6 110,42.6 99.2,48 98.8,46.3 98.3,44.7 97.7,43.1 96.9,41.4 96,39.8 94.8,38.2 93.6,36.6 92.1,35 90.5,33.3 88.5,32.2" fill="black"/><path d="M 110,42.6 L 110.2,47.1 107.3,50.6 102.7,50.9 99.2,48" fill="black"/><path d="M 172.2,23.4 L 170.7,24.6 169.1,26 167.3,27.5 165.5,29.2 163.5,30.9 161.4,32.8 159.1,34.8 156.7,36.8 154.1,39 151.7,41.5 150.2,40.4 152.1,37.5 153.6,34.4 155,31.5 156.3,28.9 157.6,26.4 158.8,24 159.9,21.8 160.9,19.8 161.8,17.9 162.6,16.2" fill="black"/><path d="M 162,17 L 172.2,23.4 163,15.5" fill="black"/><path d="M 172.2,23.4 L 173.4,26.8 167.6,26.2" fill="black"/><path d="M 139.1,13.6 L 142.8,20.3 146.5,26.7 150.5,32.6 154.7,38.1 159.3,43.2 164.3,47.9 169.6,52.2 175.3,56.2 181.4,59.8 188,63.1 181.9,74.8 174.9,70.5 168.4,65.8 162.5,60.7 157.1,55.1 152.2,49.2 147.9,42.9 144.3,36.3 141.2,29.3 138.9,21.9 137.4,14.2" fill="black"/><path d="M 181.9,74.8 L 188,63.1 193.2,65.8" fill="black"/><path d="M 184.9,36.6 L 183.3,37.7 181.6,39 179.8,40.4 177.7,41.9 175.5,43.5 173.1,45.2 170.5,47.1 167.6,49.1 164.6,51.1 161.6,53.6 160.3,52.3 162.8,49.3 164.8,46.2 166.7,43.4 168.4,40.7 170.1,38.3 171.5,36 172.9,33.9 174,32 175,30.3 175.7,28.8" fill="black"/><path d="M 175.1,29.6 L 184.9,36.6 176.1,28.4" fill="black"/><path d="M 184.9,36.6 L 185.8,40.1 180.1,39.1" fill="black"/><path d="M 108,58 L 160,58 160,62 108,62" fill="black"/><path d="M 160,58 L 136,60 148,48" fill="black"/><path d="M 109.3,102 L 111.3,103.5 113.6,104.8 115.7,106.3 117.7,107.9 119.5,109.7 121.2,111.6 122.9,113.6 124.3,115.8 125.7,118 126.9,120.4 115.4,123.7 115.2,121.7 114.9,119.7 114.5,117.7 114,115.7 113.4,113.6 112.6,111.6 111.7,109.5 110.7,107.3 109.7,105.1 108.1,103.3" fill="black"/><path d="M 126.9,120.4 L 126.3,125 122.8,127.8 118.2,127.3 115.4,123.7" fill="black"/><path d="M 160.8,107.7 L 159.1,110 157.3,112.2 155.5,114.4 153.7,116.7 151.8,118.9 149.9,121 147.9,123.2 145.8,125.2 143.6,127.2 141.7,129.4 140.2,128.5 141.5,125.9 142.4,123.1 143.4,120.3 144.4,117.6 145.4,115 146.4,112.3 147.3,109.7 148.3,107.1 149.3,104.6 150.2,102" fill="black"/><path d="M 149.7,102.9 L 160.8,107.7 150.7,101" fill="black"/><path d="M 160.8,107.7 L 162.5,110.9 156.6,111.1" fill="black"/><path d="M 83,127 L 185,127 185,131 83,131" fill="black"/><path d="M 185,127 L 165,129 175,118" fill="black"/><path d="M 112,72 L 112,99 100,105 100,66" fill="black"/><path d="M 106,72 L 160,72 160,76 106,76" fill="black"/><path d="M 166,74 L 166,99 154,105 154,74" fill="black"/><path d="M 154,72 L 160,67 171,76 166,80 154,74" fill="black"/><path d="M 106,95 L 160,95 160,99 106,99" fill="black"/><path d="M 121,140 L 121,145 109,145 109,134" fill="black"/><path d="M 109,145 L 111.4,148.6 115,151 118.6,148.6 121,145" fill="black"/><path d="M 121,145 L 120.3,151.6 118.8,157.8 116.5,163.6 113.5,168.8 109.7,173.4 105.3,177.4 100.1,180.8 94.4,183.5 88.1,185.5 81.2,186.8 80.7,185.1 86.7,182 91.9,178.7 96.4,175.3 100.2,171.8 103.2,168 105.5,164 107.3,159.7 108.4,155.2 109,150.3 109,145" fill="black"/><path d="M 115,140 L 151,140 151,144 115,144" fill="black"/><path d="M 157,142 L 157,170 145,170 145,142" fill="black"/><path d="M 145,140 L 151,135 162,144 157,148 145,142" fill="black"/><path d="M 145,170 L 147.4,173.6 151,176 154.6,173.6 157,170" fill="black"/><path d="M 157,170 L 157,171.2 157.2,172.1 157.4,172.7 157.5,173 157.7,173.2 157.9,173.4 158.2,173.5 158.8,173.7 159.7,173.9 161,174 161,186 158.4,185.8 155.9,185.4 153.5,184.6 151.2,183.3 149.2,181.7 147.6,179.7 146.3,177.4 145.5,175 145.1,172.5 145,170" fill="black"/><path d="M 161,174 L 165.2,175.8 167,180 165.2,184.2 161,186" fill="black"/><path d="M 161,174 L 185,174 185,186 161,186" fill="black"/><path d="M 185,174 L 188.6,176.4 191,180 188.6,183.6 185,186" fill="black"/><path d="M 185,174 L 187,149 185,149 179,174" fill="black"/></svg>