<svg xmlns="http://www.w3.org/2000/svg" xmlns:xlink="http://www.w3.org/1999/xlink" version="1.1" baseProfile="full" viewBox="0 0 200 200" width="96" height="96"><path d="M 31.9,12.9 L 32.6,18.6 33.1,23.9 33.2,28.9 32.9,33.6 32.1,38.1 31,42.2 29.4,46 27.3,49.6 24.7,52.7 21.7,55.4 15.3,45.3 17.3,44.2 19.3,42.8 21.1,40.9 22.9,38.5 24.5,35.5 26,32.1 27.3,28.1 28.5,23.5 29.5,18.5 30.1,13" fill="black"/><path d="M 21.7,55.4 L 17.2,56.1 13.4,53.5 12.7,49 15.3,45.3" fill="black"/><path d="M 32,22 L 176,22 176,26 32,26" fill="black"/><path d="M 181.1,27 L 179.4,29 177.5,31.1 175.5,33.3 173.3,35.5 171,37.8 168.5,40.2 165.8,42.7 162.9,45.2 159.7,47.7 156.6,50.5 155.3,49.4 157.6,45.9 159.6,42.4 161.5,39.1 163.3,36 164.9,33.1 166.4,30.3 167.7,27.7 168.9,25.3 169.9,23 170.8,20.9" fill="black"/><path d="M 170,22 L 176,17 187,26 182,29 170,34" fill="black"/><path d="M 13,60 L 187,60 187,64 13,64" fill="black"/><path d="M 187,60 L 163,62 175,50" fill="black"/><path d="M 78,46 L 78,74 66,80 66,44" fill="black"/><path d="M 78,46 L 81,48 76,51" fill="black"/><path d="M 134,46 L 134,74 122,80 122,44" fill="black"/><path d="M 134,46 L 137,48 132,51" fill="black"/><path d="M 50,97 L 150,97 150,101 50,101" fill="black"/><path d="M 150,97 L 134,99 142,90" fill="black"/><path d="M 31.9,74.9 L 32.4,79.4 32.9,83.7 33,87.8 32.7,91.7 31.9,95.3 30.7,98.8 29.1,102.1 27,105.1 24.4,107.7 21.3,110 16,99.2 17.9,98.5 19.8,97.5 21.6,96.2 23.3,94.5 24.8,92.4 26.3,89.8 27.6,86.8 28.7,83.3 29.7,79.4 30.1,75" fill="black"/><path d="M 21.3,110 L 16.8,110.2 13.3,107.3 13,102.7 16,99.2" fill="black"/><path d="M 32,82 L 176,82 176,86 32,86" fill="black"/><path d="M 180.5,87.9 L 178.8,89.1 177,90.5 175,91.9 172.9,93.5 170.6,95.1 168.1,96.8 165.5,98.6 162.6,100.5 159.5,102.3 156.6,104.6 155.3,103.3 157.8,100.5 159.8,97.5 161.8,94.8 163.6,92.2 165.3,89.8 166.8,87.5 168.2,85.4 169.4,83.5 170.5,81.7 171.4,80" fill="black"/><path d="M 170,82 L 176,77 187,86 182,89 170,94" fill="black"/><path d="M 18,113 L 182,113 182,117 18,117" fill="black"/><path d="M 182,113 L 166,115 174,106" fill="black"/><path d="M 95,113 L 110,113 110,117 95,117" fill="black"/><path d="M 117.1,115 L 105.9,120.2 100.5,122.7 94.4,125.1 87.6,127.4 80.1,129.6 71.9,131.8 63,133.8 53.4,135.8 43.1,137.7 32,139.4 20.1,140.8 19.8,139.1 31.2,135.7 41.9,132.5 51.8,129.5 61,126.5 69.5,123.6 77.2,120.8 84.1,118 90.2,115.2 90.5,115" fill="black"/><path d="M 83.2,124.5 L 98,129.8 108.7,136.2 116.1,142.8 120.7,149.8 122.6,156.9 122.2,163.6 120.2,169.3 117.2,174.1 113.9,177.7 110.6,180.3 104.7,169.8 106.5,168.8 108.8,166.9 110.9,164.2 112.5,161 113.2,157.4 112.6,153 109.9,147.7 104.4,141.4 95.3,134.4 82.5,126.2" fill="black"/><path d="M 110.6,180.3 L 106.1,180.8 102.4,178 101.9,173.4 104.7,169.8" fill="black"/><path d="M 110.6,180.3 L 108.6,181.3 106.5,182.3 104.4,183.2 102.3,183.9 100.1,184.5 98,185 95.7,185.4 93.5,185.7 91.2,185.9 89,186 89,174 90.6,173.9 92.3,173.8 93.9,173.6 95.5,173.3 97.1,172.9 98.7,172.5 100.2,171.9 101.7,171.3 103.2,170.6 104.7,169.8" fill="black"/><path d="M 89,180 L 89,174 69,174 69,177" fill="black"/><path d="M 103.5,141.4 L 96.9,144 89.8,146.4 82.3,148.6 74.2,150.7 65.8,152.6 56.8,154.3 47.4,155.8 37.4,157.1 27,158.2 16.1,158.8 15.8,157.1 26.4,154.4 36.5,151.9 46,149.4 55.1,146.9 63.6,144.3 71.7,141.7 79.1,139 86.1,136.3 92.5,133.4 98.4,130.5" fill="black"/><path d="M 117.8,153.2 L 110.1,156.8 101.9,160.1 93.1,163.2 83.8,166.1 73.9,168.8 63.5,171.2 52.5,173.3 40.9,175.2 28.8,176.7 16.1,177.8 15.8,176.1 28.1,173 39.9,170 51,166.9 61.6,163.8 71.5,160.6 80.9,157.3 89.6,153.8 97.7,150.2 105.2,146.5 112.1,142.7" fill="black"/><path d="M 166.2,130.6 L 162.7,132.2 158.8,133.8 154.6,135.4 149.9,137 144.7,138.5 139.2,140.1 133.2,141.7 126.7,143.2 119.7,144.6 112.2,145.8 111.7,144.1 118.6,141 125,138.1 131,135.5 136.6,133 141.7,130.6 146.4,128.4 150.5,126.2 154.2,124.1 157.4,122.2 160,120.3" fill="black"/><path d="M 159.1,120.8 L 166.2,130.6 167.7,129.7" fill="black"/><path d="M 167.7,129.7 L 167.9,133.1 162.1,130.7" fill="black"/><path d="M 126.3,141.1 L 130.9,144.6 135.6,147.8 140.4,150.8 145.3,153.5 150.6,156 156.1,158.3 161.9,160.2 168,161.9 174.4,163.3 181.2,164.5 178.7,177.4 171.4,175.5 164.5,173.2 158,170.5 151.9,167.6 146.1,164.3 140.9,160.6 136,156.6 131.7,152.2 127.9,147.5 124.9,142.3" fill="black"/><path d="M 178.7,177.4 L 181.2,164.5 190.5,166.3" fill="black"/></svg>