<svg xmlns="http://www.w3.org/2000/svg" xmlns:xlink="http://www.w3.org/1999/xlink" version="1.1" baseProfile="full" viewBox="0 0 200 200" width="96" height="96"><path d="M 18,35 L 182,35 182,39 18,39" fill="black"/><path d="M 182,35 L 158,37 170,25" fill="black"/><path d="M 105.2,17 L 100.8,26 95.3,34.6 88.8,42.7 81.2,50.5 72.6,57.9 63,64.9 52.4,71.5 40.8,77.8 28.1,83.5 14.3,88.8 13.6,87.1 26.4,80.1 38.1,73.1 48.9,66 58.5,58.8 67.1,51.5 74.6,44 81,36.3 86.4,28.6 90.7,20.7 94,12.7" fill="black"/><path d="M 93.6,13.7 L 105.2,17 94.5,11.4" fill="black"/><path d="M 105.2,17 L 107.3,20 101.5,21" fill="black"/><path d="M 113.3,37 L 119.7,41.7 126,46.3 132.4,50.8 139,55.1 145.7,59.3 152.7,63.2 159.8,66.9 167.2,70.4 174.7,73.8 182.5,76.9 177.4,89 169.4,85.1 161.8,80.9 154.4,76.5 147.3,71.9 140.5,67 134.1,61.9 127.9,56.4 122.1,50.8 116.8,44.7 112,38.3" fill="black"/><path d="M 177.4,89 L 182.5,76.9 188.8,79.5" fill="black"/><path d="M 26,139 L 159,139 159,143 26,143" fill="black"/><path d="M 164.9,141.7 L 164.2,146.3 163.5,150.7 162.7,154.7 161.8,158.5 160.8,162 159.6,165.3 158.4,168.3 157.1,171.1 155.6,173.7 153.9,176 144.6,168.4 145.5,167.1 146.5,165.5 147.4,163.5 148.4,161.2 149.3,158.5 150.2,155.5 151,152.1 151.7,148.5 152.4,144.5 153,140.2" fill="black"/><path d="M 153,139 L 159,134 170,143 165,146 153,151" fill="black"/><path d="M 153.9,176 L 152.3,177.8 150.6,179.5 148.7,181 146.7,182.3 144.6,183.4 142.4,184.3 140.1,185.1 137.8,185.6 135.4,185.9 133,186 133,174 134.4,173.9 135.8,173.7 137.1,173.4 138.3,173.1 139.4,172.6 140.5,172 141.6,171.3 142.6,170.5 143.6,169.5 144.6,168.4" fill="black"/><path d="M 133,180 L 133,174 113,174 113,177" fill="black"/><path d="M 105.8,127.7 L 103.4,137.4 99.6,146.4 94.3,154.4 87.7,161.6 79.7,167.9 70.5,173.2 60,177.7 48.3,181.3 35.3,184.1 21.1,185.8 20.8,184.1 34.4,180.4 46.7,176.2 57.4,171.7 66.8,166.6 74.7,161 81.1,155 86.2,148.5 90,141.6 92.5,134.2 93.9,126.2" fill="black"/><path d="M 93.7,127.2 L 105.8,127.7 94.1,124.1" fill="black"/><path d="M 105.8,127.7 L 108.5,130.1 103.2,132.4" fill="black"/><path d="M 52,76 L 52,125 40,131 40,70" fill="black"/><path d="M 46,76 L 152,76 152,80 46,80" fill="black"/><path d="M 158,78 L 158,124 146,130 146,78" fill="black"/><path d="M 146,76 L 152,71 163,80 158,84 146,78" fill="black"/><path d="M 105,76 L 105,122 93,122 93,76" fill="black"/><path d="M 46,97 L 152,97 152,101 46,101" fill="black"/><path d="M 46,118 L 152,118 152,122 46,122" fill="black"/></svg>