<svg xmlns="http://www.w3.org/2000/svg" xmlns:xlink="http://www.w3.org/1999/xlink" version="1.1" baseProfile="full" viewBox="0 0 200 200" width="96" height="96"><path d="M 16,21 L 106,21 106,25 16,25" fill="black"/><path d="M 106,21 L 86,23 96,12" fill="black"/><path d="M 62,13 L 62,38 50,38 50,11" fill="black"/><path d="M 62,13 L 65,15 60,18" fill="black"/><path d="M 23,34 L 96,34 96,38 23,38" fill="black"/><path d="M 96,34 L 80,36 88,27" fill="black"/><path d="M 23.7,42 L 23.6,43.9 23.9,45.8 24,47.7 23.9,49.6 23.6,51.5 23.1,53.4 22.3,55.2 21.4,57 20.2,58.7 18.8,60.3 12.1,50.3 13.2,50.1 14.3,49.8 15.4,49.3 16.4,48.8 17.5,48.1 18.5,47.2 19.6,46.2 20.6,44.9 21.6,43.5 22,41.9" fill="black"/><path d="M 18.8,60.3 L 14.3,61.1 10.5,58.6 9.6,54.1 12.1,50.3" fill="black"/><path d="M 21,45 L 100,45 100,49 21,49" fill="black"/><path d="M 105.1,50 L 104.1,50.8 103,51.6 101.9,52.4 100.8,53.2 99.6,54.1 98.4,54.9 97.2,55.7 95.9,56.5 94.5,57.3 93.7,58.4 92.2,57.5 92.9,56.2 93.1,54.7 93.3,53.2 93.6,51.7 93.8,50.3 94,49 94.2,47.7 94.4,46.4 94.6,45.1 94.8,43.9" fill="black"/><path d="M 94,45 L 100,40 111,49 106,52 94,57" fill="black"/><path d="M 28,57 L 90,57 90,61 28,61" fill="black"/><path d="M 90,57 L 78,59 84,51" fill="black"/><path d="M 130,15 L 130,32 118,32 118,9" fill="black"/><path d="M 118,32 L 120.4,35.6 124,38 127.6,35.6 130,32" fill="black"/><path d="M 130,32 L 129.3,36 128.1,40 126.4,43.7 124.3,47.1 121.6,50.3 118.6,53.2 115.1,55.9 111.3,58.4 107,60.6 102.4,62.7 101.5,61.2 105.3,58.1 108.5,54.8 111.2,51.7 113.5,48.6 115.3,45.6 116.6,42.7 117.5,39.9 118,37.2 118.1,34.6 118,32" fill="black"/><path d="M 124,15 L 158,15 158,19 124,19" fill="black"/><path d="M 164,17 L 164,41 152,41 152,17" fill="black"/><path d="M 152,15 L 158,10 169,19 164,23 152,17" fill="black"/><path d="M 152,41 L 154.4,44.6 158,47 161.6,44.6 164,41" fill="black"/><path d="M 164,41 L 163.9,42.2 163.9,43.2 164,43.9 164,44.4 164.2,44.7 164.4,45.1 164.8,45.5 165.5,45.9 166.6,46.2 168,46.5 168,55.5 165.5,55.5 163.2,55.2 160.9,54.6 158.7,53.6 156.7,52.2 155.1,50.3 153.7,48.2 152.8,45.9 152.2,43.5 152,41" fill="black"/><path d="M 168,46.5 L 171.1,47.8 172.5,51 171.1,54.1 168,55.5" fill="black"/><path d="M 168,46.5 L 181,46.5 181,55.5 168,55.5" fill="black"/><path d="M 181,46.5 L 183.7,48.3 185.5,51 183.7,53.7 181,55.5" fill="black"/><path d="M 181,46.5 L 183,33.5 181,33.5 176.5,46.5" fill="black"/><path d="M 111,63 L 166,63 166,67 111,67" fill="black"/><path d="M 171.5,67.2 L 167.2,75.7 162,83.5 156.1,90.6 149.4,96.9 141.9,102.4 133.8,107.1 124.9,111.1 115.3,114.2 105,116.5 94.1,117.8 93.8,116.1 104.1,112.8 113.6,109.1 122.2,105.1 130,100.5 137,95.5 143.1,90 148.6,84 153.2,77.4 157.2,70.3 160.4,62.7" fill="black"/><path d="M 160,63 L 166,58 177,67 172,70 160,75" fill="black"/><path d="M 122.1,65.7 L 125.5,72.1 129.2,77.8 133.3,82.8 137.9,87.3 143.1,91.3 148.9,94.7 155.4,97.6 162.6,100 170.4,102 179.1,103.4 176.8,116.5 167.4,114.1 158.7,111.2 150.8,107.6 143.7,103.5 137.4,98.6 132,93.2 127.5,87.2 124,80.7 121.6,73.6 120.3,66.2" fill="black"/><path d="M 176.8,116.5 L 179.1,103.4 188.7,105.1" fill="black"/><path d="M 24,68 L 85,68 85,72 24,72" fill="black"/><path d="M 91,70 L 91,84 79,90 79,70" fill="black"/><path d="M 79,68 L 85,63 96,72 91,76 79,70" fill="black"/><path d="M 31,80 L 85,80 85,84 31,84" fill="black"/><path d="M 37.3,82.1 L 31.9,96.9 18.6,98.4 28,72.4" fill="black"/><path d="M 27,91 L 88,91 88,95 27,95" fill="black"/><path d="M 93.9,93.8 L 93.4,96.7 92.9,99.3 92.4,101.8 91.7,104 91,106.2 90.2,108.1 89.2,109.9 88,111.6 86.5,113.2 84.6,114.5 78.9,103.9 78.7,104.1 78.7,104 79,103.7 79.3,102.9 79.8,101.9 80.3,100.5 80.7,98.8 81.2,96.9 81.6,94.6 82,92.1" fill="black"/><path d="M 82,91 L 88,86 99,95 94,98 82,103" fill="black"/><path d="M 84.6,114.5 L 82.6,115.5 80.5,116.4 78.4,117.3 76.3,118 74.1,118.6 71.9,119.1 69.7,119.5 67.5,119.7 65.2,119.9 63,120 63,108 64.7,107.9 66.3,107.8 68,107.6 69.6,107.3 71.2,106.9 72.8,106.5 74.3,106 75.9,105.4 77.4,104.7 78.9,103.9" fill="black"/><path d="M 63,114 L 63,108 45,108 45,111" fill="black"/><path d="M 18,124 L 182,124 182,128 18,128" fill="black"/><path d="M 182,124 L 162,126 172,115" fill="black"/><path d="M 95,124 L 110,124 110,128 95,128" fill="black"/><path d="M 117.3,126 L 105.9,131.2 100.4,133.7 94.3,136 87.5,138.2 80,140.3 71.8,142.3 62.9,144.2 53.3,145.9 43,147.5 31.9,148.8 20.1,149.8 19.8,148.1 31.2,145.1 41.9,142.2 51.9,139.5 61.1,136.8 69.6,134.1 77.2,131.4 84.1,128.7 90.2,126.1 90.3,126" fill="black"/><path d="M 83.2,135.5 L 97.9,139.9 108.4,145.6 115.7,151.8 120.1,158.5 121.8,165.3 121.3,171.8 119.2,177.3 116.3,181.8 113.3,185.2 110.6,187.6 104.1,177.5 105.6,176.6 107.8,174.7 110,172 111.6,169 112.4,165.5 112,161.6 109.6,156.7 104.3,151 95.4,144.7 82.6,137.1" fill="black"/><path d="M 110.6,187.6 L 106.1,188.3 102.3,185.8 101.6,181.3 104.1,177.5" fill="black"/><path d="M 110.6,187.6 L 108.6,188.8 106.6,189.9 104.5,190.8 102.4,191.7 100.2,192.4 98,192.9 95.8,193.4 93.6,193.7 91.3,193.9 89,194 89,182 90.6,181.9 92.2,181.8 93.8,181.5 95.3,181.2 96.9,180.8 98.4,180.4 99.8,179.8 101.3,179.1 102.7,178.4 104.1,177.5" fill="black"/><path d="M 89,188 L 89,182 69,182 69,185" fill="black"/><path d="M 103.3,150.5 L 96.7,152.8 89.7,155 82.2,157.1 74.2,159 65.7,160.8 56.8,162.5 47.3,163.9 37.4,165.2 27,166.2 16.1,166.8 15.8,165.1 26.4,162.4 36.5,159.9 46.1,157.5 55.1,155 63.7,152.6 71.7,150.1 79.2,147.5 86.2,144.9 92.7,142.2 98.6,139.4" fill="black"/><path d="M 115.7,162.3 L 108.4,165.5 100.5,168.5 92,171.3 83,173.9 73.3,176.3 63.1,178.5 52.3,180.5 40.8,182.3 28.8,183.7 16.1,184.8 15.8,183.1 28.1,180 39.8,177 50.9,174.1 61.3,171.1 71.1,168.1 80.2,165 88.7,161.8 96.5,158.5 103.7,155.1 110.2,151.6" fill="black"/><path d="M 165.9,141.7 L 162.5,143.1 158.6,144.5 154.4,145.8 149.7,147.2 144.6,148.6 139.1,150 133.1,151.3 126.6,152.6 119.6,153.8 112.2,154.8 111.7,153.1 118.6,150.1 125.1,147.5 131.1,145 136.7,142.7 141.9,140.6 146.5,138.5 150.7,136.5 154.4,134.6 157.6,132.8 160.2,131.1" fill="black"/><path d="M 159.4,131.6 L 165.9,141.7 168.4,140.4" fill="black"/><path d="M 168.4,140.4 L 168.5,143.7 162.5,141.2" fill="black"/><path d="M 126.3,151.1 L 130.9,154.1 135.5,156.9 140.2,159.6 145.2,162 150.4,164.2 155.9,166.1 161.7,167.8 167.8,169.3 174.3,170.5 181,171.4 178.9,184.5 171.6,182.7 164.7,180.7 158.2,178.3 152.1,175.6 146.3,172.6 141,169.2 136.2,165.6 131.8,161.5 128,157.1 125,152.3" fill="black"/><path d="M 178.9,184.5 L 181,171.4 190.7,173.1" fill="black"/></svg>