<svg xmlns="http://www.w3.org/2000/svg" xmlns:xlink="http://www.w3.org/1999/xlink" version="1.1" baseProfile="full" viewBox="0 0 200 200" width="96" height="96"><path d="M 29,26 L 29,87 17,93 17,20" fill="black"/><path d="M 23,26 L 53,26 53,30 23,30" fill="black"/><path d="M 59,28 L 59,79 47,85 47,28" fill="black"/><path d="M 47,26 L 53,21 64,30 59,34 47,28" fill="black"/><path d="M 23,71 L 53,71 53,75 23,75" fill="black"/><path d="M 64,36 L 116,36 116,40 64,40" fill="black"/><path d="M 121.8,39.2 L 119,48.7 115.4,57.7 111,66 105.8,73.6 99.9,80.5 93.2,86.7 85.8,92.2 77.7,96.9 68.8,100.8 59.3,103.8 58.6,102.1 67.2,97.4 74.9,92.3 81.9,86.9 88.1,81.1 93.5,74.9 98.2,68.2 102.2,61.1 105.5,53.5 108.1,45.4 110.1,36.7" fill="black"/><path d="M 110,36 L 116,31 127,40 122,43 110,48" fill="black"/><path d="M 99.2,17.9 L 80.3,70 67.6,70 88.7,12" fill="black"/><path d="M 99.2,17.9 L 101.4,20.8 96,22" fill="black"/><path d="M 72.1,69.2 L 78.5,69.1 84.5,69.3 90.3,69.9 95.8,70.7 100.9,71.8 105.7,73 110.3,74.5 114.6,76.2 118.5,78.2 122.2,80.4 114.9,89.9 112.4,87.8 109.5,85.7 106.2,83.6 102.4,81.7 98.3,79.8 93.8,78 88.9,76.2 83.6,74.5 77.9,72.8 71.8,71" fill="black"/><path d="M 122.2,80.4 L 124.5,84.3 123.3,88.8 119.4,91 114.9,89.9" fill="black"/><path d="M 120,25 L 173,25 173,29 120,29" fill="black"/><path d="M 178.8,28 L 175.8,39.9 171.7,50.8 166.7,60.9 160.8,70.1 153.9,78.3 146.1,85.5 137.4,91.7 127.8,96.8 117.4,100.9 106.2,103.8 105.7,102.1 116,97.4 125.3,92.1 133.6,86.3 141,79.8 147.5,72.6 153.1,64.8 157.9,56.2 161.8,46.9 164.8,36.8 167.1,25.9" fill="black"/><path d="M 167,25 L 173,20 184,29 179,32 167,37" fill="black"/><path d="M 133,27.8 L 135.6,37.8 138.6,47 142,55.3 146,62.9 150.4,69.7 155.4,75.7 160.8,81 166.9,85.6 173.5,89.6 180.7,92.9 175.2,105 167.1,100.4 159.8,95.1 153.2,89 147.5,82.2 142.6,74.7 138.5,66.6 135.3,57.9 132.9,48.5 131.5,38.6 131.2,28" fill="black"/><path d="M 175.2,105 L 180.7,92.9 186.6,95.6" fill="black"/><path d="M 30,110 L 170,110 170,114 30,114" fill="black"/><path d="M 170,110 L 146,112 158,100" fill="black"/><path d="M 13,144 L 187,144 187,148 13,148" fill="black"/><path d="M 187,144 L 163,146 175,134" fill="black"/><path d="M 106,110 L 106,172 94,172 94,110" fill="black"/><path d="M 94,172 L 96.4,175.6 100,178 103.6,175.6 106,172" fill="black"/><path d="M 106,172 L 105.8,174.5 105.4,177 104.6,179.4 103.3,181.7 101.7,183.7 99.7,185.3 97.4,186.6 95,187.4 92.5,187.8 90,188 90,176 91.2,175.9 92.1,175.7 92.7,175.5 93,175.4 93.2,175.2 93.4,175 93.5,174.7 93.7,174.1 93.9,173.2 94,172" fill="black"/><path d="M 90,182 L 90,176 70,176 70,179" fill="black"/></svg>