<svg xmlns="http://www.w3.org/2000/svg" xmlns:xlink="http://www.w3.org/1999/xlink" version="1.1" baseProfile="full" viewBox="0 0 200 200" width="96" height="96"><path d="M 12,25 L 89,25 89,29 12,29" fill="black"/><path d="M 89,25 L 65,27 77,15" fill="black"/><path d="M 55.1,27 L 54.9,28 52.7,37.2 50.1,46.1 47,54.5 43.5,62.5 39.5,70.1 35.1,77.3 30.2,83.9 24.8,90.1 18.9,95.7 12.6,100.6 11.3,99.3 16.2,93.1 20.6,86.7 24.8,80.2 28.5,73.4 31.9,66.3 34.9,58.9 37.5,51.2 39.8,43.1 41.6,34.7 42.8,27" fill="black"/><path d="M 41,55 L 75,55 75,59 41,59" fill="black"/><path d="M 80.9,57.7 L 78.3,71.5 74.7,84.3 70.2,96.2 64.7,107.1 58.2,117.1 50.8,126 42.5,133.9 33.3,140.7 23.2,146.3 12.3,150.8 11.6,149.1 21.4,143.1 30.2,136.4 38.1,129.1 45.1,121.1 51.2,112.3 56.4,102.8 60.8,92.4 64.4,81.2 67.1,69.1 69,56.2" fill="black"/><path d="M 69,55 L 75,50 86,59 81,62 69,67" fill="black"/><path d="M 29.2,79.4 L 32.5,80.3 35.8,81 38.9,82 41.8,83.2 44.6,84.7 47.2,86.5 49.6,88.5 51.8,90.7 53.7,93.2 55.4,95.9 44.3,100.4 43.8,98.4 43.1,96.4 42.2,94.4 41.1,92.4 39.7,90.4 38.1,88.5 36.2,86.5 34,84.6 31.5,82.6 28.6,81.1" fill="black"/><path d="M 55.4,95.9 L 55.3,100.5 52.1,103.7 47.5,103.6 44.3,100.4" fill="black"/><path d="M 80.8,41 L 183.8,32 184.1,35.9 81.1,44.9" fill="black"/><path d="M 183.8,32 L 160,36 171,23" fill="black"/><path d="M 119,12.4 L 120.5,22.1 122.9,30.9 126.4,38.9 130.9,46 136.5,52.5 143.1,58.2 150.8,63.2 159.8,67.6 169.9,71.2 181.2,74.1 178.7,85.8 166.4,82.7 155.1,78.6 144.9,73.7 135.9,67.8 128,60.9 121.3,53.2 115.8,44.5 111.6,34.9 108.7,24.6 107.1,13.5" fill="black"/><path d="M 107.2,14.5 L 119,12.4 106.9,11.3" fill="black"/><path d="M 119,12.4 L 122.2,14.1 117.5,17.6" fill="black"/><path d="M 181.2,74.1 L 184.9,76.7 185.8,81.2 183.2,84.9 178.7,85.8" fill="black"/><path d="M 180,75 L 182,49 180,49 174,75" fill="black"/><path d="M 170.5,50.5 L 163.2,54.8 155.6,58.8 147.5,62.5 139.1,65.9 130.3,69.1 121,71.9 111.4,74.5 101.4,76.7 91,78.5 80.1,79.8 79.8,78.1 90.1,74.8 100,71.5 109.5,68.2 118.6,64.7 127.2,61.1 135.4,57.4 143.2,53.4 150.5,49.3 157.3,45 163.8,40.5" fill="black"/><path d="M 162.9,41.1 L 170.5,50.5 171,50.1" fill="black"/><path d="M 171,50.1 L 171.2,53.6 165.7,51.3" fill="black"/><path d="M 132.2,12.5 L 135.1,13.4 138.1,13.9 140.9,14.7 143.7,15.6 146.3,16.6 148.8,17.8 151.2,19.1 153.5,20.6 155.6,22.1 157.7,23.8 148.4,31.4 147.5,29.7 146.4,28 145.1,26.3 143.7,24.5 142.1,22.8 140.4,21 138.4,19.3 136.4,17.5 134.1,15.6 131.5,14.2" fill="black"/><path d="M 157.7,23.8 L 159,28.2 156.8,32.3 152.5,33.5 148.4,31.4" fill="black"/><path d="M 80.8,103 L 183.8,94 184.1,97.9 81.1,106.9" fill="black"/><path d="M 183.8,94 L 160,98 171,85" fill="black"/><path d="M 119,79.4 L 120.5,89 122.9,97.7 126.4,105.4 130.9,112.3 136.3,118.3 142.9,123.6 150.6,128.1 159.4,131.9 169.5,134.9 180.8,137 179.1,148.9 166.7,146.5 155.4,143.2 145.2,138.9 136.1,133.5 128.1,127.1 121.4,119.6 115.9,111.2 111.6,101.8 108.7,91.6 107.1,80.5" fill="black"/><path d="M 107.2,81.5 L 119,79.4 106.9,78.3" fill="black"/><path d="M 119,79.4 L 122.2,81.1 117.5,84.6" fill="black"/><path d="M 180.8,137 L 184.7,139.4 185.9,143.8 183.5,147.7 179.1,148.9" fill="black"/><path d="M 180,138 L 182,112 180,112 174,138" fill="black"/><path d="M 170,112.2 L 161.6,118.3 152.7,123.8 143.4,128.8 133.6,133.3 123.3,137.3 112.6,140.8 101.4,143.7 89.8,146.1 77.6,147.8 65.1,148.8 64.8,147.1 77,144.1 88.6,140.8 99.6,137.4 110.2,133.6 120.2,129.4 129.7,124.9 138.6,120 147.1,114.7 155,109 162.4,102.9" fill="black"/><path d="M 161.6,103.6 L 170,112.2 162.5,102.9" fill="black"/><path d="M 170,112.2 L 170.3,115.8 164.8,113.8" fill="black"/><path d="M 127.2,74.5 L 130.1,75.4 133.1,75.9 135.9,76.7 138.7,77.6 141.3,78.6 143.8,79.8 146.2,81.1 148.5,82.6 150.6,84.1 152.7,85.8 143.4,93.4 142.5,91.7 141.4,90 140.1,88.3 138.7,86.5 137.1,84.8 135.4,83 133.4,81.3 131.4,79.5 129.1,77.6 126.5,76.2" fill="black"/><path d="M 152.7,85.8 L 154,90.2 151.8,94.3 147.5,95.5 143.4,93.4" fill="black"/><path d="M 43.8,150 L 44.1,154.9 44.1,159.7 43.7,164.2 42.7,168.5 41.3,172.6 39.5,176.4 37.1,179.9 34.2,183 30.9,185.8 27.1,188.2 22.2,177.2 25.1,176.2 27.7,174.8 30.1,173.2 32.3,171.1 34.4,168.7 36.3,165.9 38.1,162.6 39.6,158.8 41.1,154.6 42,149.9" fill="black"/><path d="M 27.1,188.2 L 22.6,188.3 19.2,185.2 19.1,180.6 22.2,177.2" fill="black"/><path d="M 70.3,150.1 L 73.2,152.7 76.1,155.2 78.6,157.9 80.8,160.7 82.8,163.7 84.4,166.9 85.6,170.1 86.5,173.5 87.1,177 87.2,180.6 75.3,179.3 75.9,176.9 76.2,174.5 76.3,171.9 76.1,169.3 75.6,166.6 74.9,163.7 73.9,160.7 72.6,157.6 71.1,154.4 69,151.3" fill="black"/><path d="M 87.2,180.6 L 85,184.6 80.6,185.9 76.6,183.7 75.3,179.3" fill="black"/><path d="M 108.3,149.9 L 112.2,152.4 115.9,154.8 119.3,157.3 122.3,160.1 125.1,162.9 127.5,165.9 129.5,169 131.2,172.3 132.6,175.8 133.6,179.3 121.7,180.6 121.6,178.2 121.3,175.6 120.7,173 119.8,170.2 118.6,167.3 117,164.3 115.1,161.2 112.8,157.9 110.3,154.5 107.2,151.3" fill="black"/><path d="M 133.6,179.3 L 132.3,183.7 128.3,185.9 123.9,184.6 121.7,180.6" fill="black"/><path d="M 148.3,148.8 L 153.2,151.5 157.9,154.2 162.1,157 165.9,159.9 169.4,162.9 172.6,166 175.4,169.1 177.9,172.4 180,175.7 181.7,179.2 170.3,183 169.7,180.4 168.6,177.6 167.3,174.6 165.5,171.6 163.4,168.3 160.9,165 158,161.5 154.8,157.9 151.2,154.1 147.2,150.3" fill="black"/><path d="M 181.7,179.2 L 181.3,183.8 177.9,186.8 173.3,186.4 170.3,183" fill="black"/></svg>