<svg xmlns="http://www.w3.org/2000/svg" xmlns:xlink="http://www.w3.org/1999/xlink" version="1.1" baseProfile="full" viewBox="0 0 200 200" width="96" height="96"><path d="M 56,23 L 56,89 44,95 44,17" fill="black"/><path d="M 50,23 L 150,23 150,27 50,27" fill="black"/><path d="M 156,25 L 156,81 144,87 144,25" fill="black"/><path d="M 144,23 L 150,18 161,27 156,31 144,25" fill="black"/><path d="M 50,48 L 150,48 150,52 50,52" fill="black"/><path d="M 50,73 L 150,73 150,77 50,77" fill="black"/><path d="M 100,98 L 176,98 176,102 100,102" fill="black"/><path d="M 176,98 L 156,100 166,89" fill="black"/><path d="M 106,80 L 106,126 94,126 94,78" fill="black"/><path d="M 106,80 L 109,82 104,85" fill="black"/><path d="M 41,122 L 152,122 152,126 41,126" fill="black"/><path d="M 156.5,127.8 L 147.5,137 137.2,145.4 125.8,153.1 113.2,160.2 99.5,166.6 84.5,172.3 68.4,177.3 51.2,181.6 32.7,185.1 13.1,187.8 12.8,186.1 31.9,181.4 49.8,176.4 66.5,171 81.8,165.2 95.9,158.8 108.8,152 120.3,144.7 130.6,137 139.6,128.7 147.4,120.1" fill="black"/><path d="M 146,122 L 152,117 163,126 158,129 146,134" fill="black"/><path d="M 57.2,124.4 L 63.5,131.9 70.8,138.8 79.3,145.1 89.1,150.9 100.3,156.2 112.9,160.9 126.9,165.1 142.4,168.8 159.4,171.9 177.8,174.4 176.1,187.5 157.2,184.2 139.8,180.3 123.8,175.7 109.3,170.5 96.3,164.7 84.9,158.1 75,150.9 66.7,143 60.2,134.4 55.6,125.3" fill="black"/><path d="M 176.1,187.5 L 177.8,174.4 187.9,175.8" fill="black"/></svg>