<svg xmlns="http://www.w3.org/2000/svg" xmlns:xlink="http://www.w3.org/1999/xlink" version="1.1" baseProfile="full" viewBox="0 0 200 200" width="96" height="96"><path d="M 13,30 L 187,30 187,34 13,34" fill="black"/><path d="M 187,30 L 163,32 175,20" fill="black"/><path d="M 78,13 L 78,48 66,54 66,11" fill="black"/><path d="M 78,13 L 81,15 76,18" fill="black"/><path d="M 134,13 L 134,48 122,54 122,11" fill="black"/><path d="M 134,13 L 137,15 132,18" fill="black"/><path d="M 16,79 L 88,79 88,83 16,83" fill="black"/><path d="M 88,79 L 64,81 76,69" fill="black"/><path d="M 58,55 L 58,111 46,111 46,53" fill="black"/><path d="M 58,55 L 61,57 56,60" fill="black"/><path d="M 13,107 L 90,107 90,111 13,111" fill="black"/><path d="M 90,107 L 66,109 78,97" fill="black"/><path d="M 58,112 L 58,171 46,171 46,110" fill="black"/><path d="M 58,112 L 61,114 56,117" fill="black"/><path d="M 52,137 L 89,137 89,141 52,141" fill="black"/><path d="M 89,137 L 69,139 79,128" fill="black"/><path d="M 32.9,130.2 L 32.1,138.4 31,146.1 29.6,153.4 28,160.2 26,166.5 23.8,172.4 21.3,177.8 18.5,182.7 15.3,186.9 11.7,190.5 10.2,189.4 12,184.9 13.7,180.3 15.2,175.3 16.6,170 17.8,164.4 18.9,158.3 19.7,151.8 20.3,144.8 20.7,137.5 20.9,129.7" fill="black"/><path d="M 20.9,130.7 L 32.9,130.2 21,127.4" fill="black"/><path d="M 32.9,130.2 L 35.8,132.4 30.7,135.1" fill="black"/><path d="M 28.9,146.9 L 32.1,153.4 37.3,158.7 44.9,163.3 55.3,167.3 68.5,170.7 84.6,173.2 103.6,175 125.5,175.9 150.2,176.1 177.8,175.4 178.1,188.5 150.2,188.6 125,187.7 102.7,186 83.1,183.3 66.4,179.7 52.5,175.2 41.4,169.6 33.3,163 28.4,155.3 27.2,147" fill="black"/><path d="M 178.1,188.5 L 177.8,175.4 189.3,175" fill="black"/><path d="M 107,82 L 107,157 95,157 95,76" fill="black"/><path d="M 101,82 L 186,82 186,86 101,86" fill="black"/><path d="M 186,82 L 162,84 174,72" fill="black"/><path d="M 156.2,55.4 L 159.4,56.1 162.5,56.4 165.4,56.9 168.1,57.5 170.6,58.2 173,59 175.2,60 177.2,61.2 179.1,62.7 180.7,64.4 170.2,70.2 170.3,69.5 170,68.5 169.3,67.3 168.3,65.9 167,64.5 165.4,63.1 163.4,61.5 161.2,60 158.6,58.3 155.7,57.1" fill="black"/><path d="M 180.7,64.4 L 181.2,69 178.4,72.6 173.9,73 170.2,70.2" fill="black"/><path d="M 145.9,55.1 L 146,74.6 147,92.2 148.8,107.7 151.5,121.2 155.1,132.6 159.3,141.9 164.3,149.2 169.8,154.5 176,158.1 182.9,160 181,171.9 171.3,169.1 162.6,164.1 155.1,156.9 148.9,147.8 143.8,136.8 139.9,124.1 137,109.6 135,93.2 134,74.9 133.9,54.8" fill="black"/><path d="M 133.9,55.8 L 145.9,55.1 134,52.5" fill="black"/><path d="M 145.9,55.1 L 148.9,57.1 143.8,60" fill="black"/><path d="M 182.9,160 L 186.8,162.5 187.9,166.9 185.4,170.8 181,171.9" fill="black"/><path d="M 182,161 L 184,135 182,135 176,161" fill="black"/><path d="M 180.5,102.4 L 176.8,113 172.2,122.8 166.6,131.9 160.1,140.2 152.6,147.7 144.3,154.4 135,160.3 125,165.4 114,169.6 102.2,172.8 101.7,171.1 112.6,166.1 122.5,160.6 131.5,154.8 139.6,148.5 146.7,141.7 152.9,134.3 158.2,126.4 162.6,118 166.2,109 168.9,99.4" fill="black"/><path d="M 168.6,100.4 L 180.5,102.4 169.3,97.7" fill="black"/><path d="M 180.5,102.4 L 182.9,105.1 177.3,106.8" fill="black"/><path d="M 86.8,156.2 L 91,154.2 95.2,152.1 99.5,150 103.8,147.9 108.2,145.7 112.7,143.5 117.2,141.4 121.8,139.2 126.6,137.1 131.5,135.2 132.4,136.7 128.6,140.3 124.6,143.7 120.6,146.9 116.6,150 112.6,152.9 108.6,155.8 104.6,158.6 100.7,161.4 96.7,164.1 92.8,166.7" fill="black"/><path d="M 92.8,166.7 L 86.8,156.2 85.1,157.2" fill="black"/><path d="M 92.8,166.7 L 96,168.3 96.5,161.1" fill="black"/></svg>