<svg xmlns="http://www.w3.org/2000/svg" xmlns:xlink="http://www.w3.org/1999/xlink" version="1.1" baseProfile="full" viewBox="0 0 200 200" width="96" height="96"><path d="M 56,44 L 56,79 44,85 44,38" fill="black"/><path d="M 50,44 L 150,44 150,48 50,48" fill="black"/><path d="M 156,46 L 156,79 144,85 144,46" fill="black"/><path d="M 144,44 L 150,39 161,48 156,52 144,46" fill="black"/><path d="M 50,59 L 147,59 147,63 50,63" fill="black"/><path d="M 50,75 L 150,75 150,79 50,79" fill="black"/><path d="M 18,93 L 181,93 181,97 18,97" fill="black"/><path d="M 181,93 L 161,95 171,84" fill="black"/><path d="M 96.1,83.4 L 90.4,89.7 84.3,95.6 77.6,101.3 70.4,106.6 62.7,111.7 54.5,116.4 45.7,120.8 36.5,124.9 26.6,128.6 16.3,131.8 15.6,130.1 25.1,125.1 34.1,120.1 42.6,115.1 50.5,109.9 57.9,104.6 64.7,99.2 71,93.7 76.8,87.9 82,82.1 86.6,76" fill="black"/><path d="M 86,76.8 L 96.1,83.4 87,75.5" fill="black"/><path d="M 96.1,83.4 L 97.2,86.9 91.4,86.1" fill="black"/><path d="M 128.3,95.8 L 133.6,98 138.7,100.4 143.8,102.7 148.8,105 153.9,107.2 158.9,109.4 164,111.4 169.1,113.3 174.2,115.1 179.3,116.8 174.6,129.1 169.4,126.7 164.3,124.1 159.2,121.4 154.3,118.5 149.4,115.5 144.7,112.3 140.1,108.9 135.6,105.3 131.3,101.5 127.2,97.3" fill="black"/><path d="M 174.6,129.1 L 179.3,116.8 186.1,119.4" fill="black"/><path d="M 14,25 L 185,25 185,29 14,29" fill="black"/><path d="M 185,25 L 161,27 173,15" fill="black"/><path d="M 78,14 L 78,38 66,44 66,12" fill="black"/><path d="M 78,14 L 81,16 76,19" fill="black"/><path d="M 133,14 L 133,38 121,44 121,12" fill="black"/><path d="M 133,14 L 136,16 131,19" fill="black"/><path d="M 58,122 L 58,182 46,188 46,116" fill="black"/><path d="M 52,122 L 148,122 148,126 52,126" fill="black"/><path d="M 154,124 L 154,172 142,172 142,124" fill="black"/><path d="M 142,122 L 148,117 159,126 154,130 142,124" fill="black"/><path d="M 142,172 L 144.4,175.6 148,178 151.6,175.6 154,172" fill="black"/><path d="M 154,172 L 153.8,174.5 153.4,177 152.6,179.4 151.3,181.7 149.7,183.7 147.7,185.3 145.4,186.6 143,187.4 140.5,187.8 138,188 138,176 139.2,175.9 140.1,175.7 140.7,175.5 141,175.4 141.2,175.2 141.4,175 141.5,174.7 141.7,174.1 141.9,173.2 142,172" fill="black"/><path d="M 138,182 L 138,176 120,176 120,179" fill="black"/><path d="M 52,140 L 148,140 148,144 52,144" fill="black"/><path d="M 52,158 L 148,158 148,162 52,162" fill="black"/><path d="M 106,122 L 106,177 94,183 94,122" fill="black"/></svg>