<svg xmlns="http://www.w3.org/2000/svg" xmlns:xlink="http://www.w3.org/1999/xlink" version="1.1" baseProfile="full" viewBox="0 0 200 200" width="96" height="96"><path d="M 54.5,16.4 L 52.2,23.4 49.4,30.2 46.3,36.7 42.7,43 38.8,49.2 34.4,55 29.6,60.7 24.4,66 18.7,71 12.6,75.6 11.3,74.3 16,68.3 20.4,62.5 24.4,56.6 28.2,50.7 31.5,44.7 34.5,38.7 37.2,32.5 39.4,26.3 41.3,19.9 42.9,13.4" fill="black"/><path d="M 42.6,14.4 L 54.5,16.4 43.3,11.7" fill="black"/><path d="M 54.5,16.4 L 56.9,19.1 51.3,20.8" fill="black"/><path d="M 42,35 L 106,35 106,39 42,39" fill="black"/><path d="M 106,35 L 82,37 94,25" fill="black"/><path d="M 49.3,36.6 L 53.3,38.3 57.2,40 60.8,41.8 64.2,43.9 67.4,46.1 70.3,48.5 72.9,51.1 75.4,53.8 77.5,56.8 79.4,59.9 68.3,64.5 67.5,62 66.5,59.4 65.3,56.9 63.7,54.3 61.9,51.7 59.8,49 57.4,46.3 54.7,43.6 51.8,40.8 48.4,38.2" fill="black"/><path d="M 79.4,59.9 L 79.3,64.5 76.1,67.7 71.5,67.7 68.3,64.5" fill="black"/><path d="M 133.5,16.5 L 131.2,23.2 128.4,29.7 125.2,35.9 121.6,41.9 117.7,47.5 113.3,52.9 108.5,57.9 103.3,62.6 97.6,66.9 91.5,70.7 90.4,69.2 95.1,64 99.5,58.8 103.5,53.6 107.3,48.3 110.6,42.8 113.6,37.3 116.2,31.5 118.5,25.7 120.4,19.6 121.9,13.4" fill="black"/><path d="M 121.6,14.3 L 133.5,16.5 122.3,11.7" fill="black"/><path d="M 133.5,16.5 L 135.9,19.2 130.3,20.8" fill="black"/><path d="M 120,35 L 186,35 186,39 120,39" fill="black"/><path d="M 186,35 L 162,37 174,25" fill="black"/><path d="M 128.3,36.6 L 132.3,38.3 136.2,40 139.8,41.8 143.2,43.9 146.4,46.1 149.3,48.5 151.9,51.1 154.4,53.8 156.5,56.8 158.4,59.9 147.3,64.5 146.5,62 145.5,59.4 144.3,56.9 142.7,54.3 140.9,51.7 138.8,49 136.4,46.3 133.7,43.6 130.8,40.8 127.4,38.2" fill="black"/><path d="M 158.4,59.9 L 158.3,64.5 155.1,67.7 150.5,67.7 147.3,64.5" fill="black"/><path d="M 102,78 L 102,130 90,130 90,76" fill="black"/><path d="M 102,78 L 105,80 100,83" fill="black"/><path d="M 96,98 L 172,98 172,102 96,102" fill="black"/><path d="M 172,98 L 148,100 160,88" fill="black"/><path d="M 16,126 L 184,126 184,130 16,130" fill="black"/><path d="M 184,126 L 160,128 172,116" fill="black"/><path d="M 102,131 L 102,183 90,189 90,129" fill="black"/><path d="M 102,131 L 105,133 100,136" fill="black"/><path d="M 97.1,142.3 L 105.1,142.9 112.8,143.8 120,145.1 126.8,146.5 133.2,148.1 139.2,149.8 144.9,151.7 150.2,153.7 155.1,155.9 159.6,158.3 153.2,168.4 149.6,165.9 145.5,163.4 140.9,160.9 135.9,158.5 130.4,156.1 124.6,153.8 118.2,151.4 111.5,149.1 104.3,146.6 96.8,144" fill="black"/><path d="M 159.6,158.3 L 162.2,162.1 161.5,166.6 157.7,169.1 153.2,168.4" fill="black"/></svg>