<svg xmlns="http://www.w3.org/2000/svg" xmlns:xlink="http://www.w3.org/1999/xlink" width="92.4" height="110.88000000000001" viewBox="0 -21.252000000000002 92.4 110.88000000000001"><path fill="currentColor" style="transform: scale(0.462,0.462)" d="M 113.5 129.4 L 115.5 132.5 L 111.72671699523926 133.02045278549195 L 111.1 134.3 L 108.5 139.1 L 105.8 143.9 L 103.0 148.6 L 100.1 153.4 L 97.0 158.1 L 93.7 162.8 L 90.3 167.4 L 87.5948875427246 170.78139057159424 L 94.7 170.5 L 105.2 170.0 L 116.1 169.6 L 127.5 169.1 L 139.4 168.7 L 151.7 168.4 L 158.32910928726196 168.29560461044312 L 156.8 165.9 L 153.5 161.4 L 150.0 156.9 L 146.3 152.5 L 142.5 148.1 L 138.4 143.7 L 134.2 139.3 L 135.3 137.9 L 140.8 140.8 L 146.0 144.1 L 150.9 147.7 L 155.5 151.6 L 159.9 155.8 L 164.1 160.2 L 168.0 164.8 L 171.7 169.7 L 175.1 174.7 L 178.3 180.0 L 178.7 184.5 L 175.7 188.0 L 171.2 188.4 L 167.7 185.4 L 165.3 180.4 L 162.6 175.5 L 159.9043478012085 170.78260869979857 L 152.0 172.1 L 139.8 174.0 L 128.1 175.6 L 116.8 177.1 L 105.9 178.5 L 95.4 179.7 L 85.4 180.9 L 75.8 182.0 L 66.6 183.0 L 61.867342185974124 183.48402185440062 L 60.0 186.7 L 57.8 183.9 L 55.0 172.1 L 57.0 171.9 L 65.8 171.6 L 75.0 171.3 L 82.96483516693115 170.96813182830812 L 83.4 169.9 L 85.7 164.6 L 88.1 159.5 L 90.3 154.4 L 92.6 149.4 L 96.8 139.4 L 98.8 134.5 L 100.7 129.6 L 102.12917470932007 125.70946893692016 L 102.1 125.7 L 102.41999998092652 124.91777782440185 L 102.5 124.7 L 102.50773830413819 124.70330638885498 L 102.59090909957885 124.5 L 46.5 124.5 L 46.5 120.5 L 111.5 120.5 L 111.5 89.0 L 58.9 89.0 L 58.9 85.0 L 111.5 85.0 L 111.5 59.3 L 123.5 61.3 L 126.5 63.3 L 123.5 65.1 L 123.5 85.0 L 154.0 85.0 L 164.0 75.0 L 176.0 85.0 L 176.0 89.0 L 123.5 89.0 L 123.5 120.5 L 166.4 120.5 L 176.4 110.5 L 188.4 120.5 L 188.4 124.5 L 104.779660987854 124.5 Z M 45.0 23.0 L 161.0 23.0 L 167.0 18.0 L 178.0 27.0 L 173.0 31.0 L 173.0 60.0 L 161.0 66.0 L 161.0 56.0 L 45.0 56.0 L 45.0 87.0 L 44.4 99.7 L 43.3 111.8 L 41.7 123.3 L 39.5 134.2 L 36.8 144.5 L 33.6 154.1 L 29.7 163.1 L 25.4 171.4 L 20.3 178.8 L 14.7 185.5 L 13.2 184.4 L 17.1 176.9 L 20.6 169.0 L 23.7 160.6 L 26.3 151.8 L 28.6 142.4 L 30.4 132.5 L 31.7 122.0 L 32.6 110.9 L 33.0 99.2 L 33.0 17.0 Z M 45.0 27.0 L 45.0 52.0 L 161.0 52.0 L 161.0 27.0 Z "></path></svg>
