<svg xmlns="http://www.w3.org/2000/svg" xmlns:xlink="http://www.w3.org/1999/xlink" version="1.1" baseProfile="full" viewBox="0 0 200 200" width="96" height="96"><path d="M 96.2,12.4 L 99,13.2 101.9,13.6 104.6,14.2 107.1,15 109.5,15.9 111.8,17 113.9,18.4 115.8,19.9 117.6,21.7 119.2,23.7 108.2,28.7 108.1,27.5 107.7,26.2 107.2,24.8 106.3,23.3 105.2,21.8 103.9,20.2 102.2,18.6 100.3,17 98.2,15.3 95.6,14.1" fill="black"/><path d="M 119.2,23.7 L 119.3,28.3 116.2,31.7 111.6,31.8 108.2,28.7" fill="black"/><path d="M 42,32 L 186,32 186,36 42,36" fill="black"/><path d="M 186,32 L 162,34 174,22" fill="black"/><path d="M 48,32 L 48,98 36,98 36,26" fill="black"/><path d="M 36,98 L 38.4,101.6 42,104 45.6,101.6 48,98" fill="black"/><path d="M 48,98 L 47.4,110.4 46.2,122.2 44.4,133.2 42,143.5 39,153 35.4,161.7 31.1,169.6 26.3,176.6 20.7,182.6 14.6,187.6 13.3,186.3 17.8,180.2 21.8,173.6 25.3,166.5 28.4,158.8 30.9,150.4 32.9,141.4 34.5,131.6 35.5,121.1 36,109.9 36,98" fill="black"/><path d="M 15.2,46.4 L 17.6,49.4 20.1,52.4 22.3,55.6 24.3,58.9 26.2,62.3 27.9,65.8 29.4,69.5 30.9,73.2 32.2,77 33.3,80.9 21.5,83.1 21.2,79.4 20.7,75.8 20.1,72.2 19.5,68.6 18.7,65 17.9,61.5 17,58 16,54.4 15,50.8 13.7,47.3" fill="black"/><path d="M 33.3,80.9 L 32.3,85.4 28.5,87.9 24,86.9 21.5,83.1" fill="black"/><path d="M 11.8,122.3 L 14.1,121.3 16.6,120.2 19.1,119 21.8,117.7 24.6,116.2 27.5,114.7 30.6,113 33.7,111.2 37.1,109.4 40.4,107.3 41.5,108.6 38.9,111.5 36.5,114.5 34,117.3 31.6,120 29.2,122.4 26.9,124.7 24.5,126.9 22.3,128.9 20,130.8 17.8,132.6" fill="black"/><path d="M 17.8,132.6 L 11.8,122.3 10.1,123.3" fill="black"/><path d="M 17.8,132.6 L 21.1,134.2 21.5,127" fill="black"/><path d="M 72,72 L 167,72 167,76 72,76" fill="black"/><path d="M 167,72 L 143,74 155,62" fill="black"/><path d="M 125,57 L 125,97 113,97 113,55" fill="black"/><path d="M 125,57 L 128,59 123,62" fill="black"/><path d="M 59,93 L 180,93 180,97 59,97" fill="black"/><path d="M 180,93 L 156,95 168,83" fill="black"/><path d="M 90.3,97 L 92.3,98.7 94.6,100.2 96.7,101.9 98.7,103.6 100.6,105.5 102.3,107.5 103.9,109.6 105.4,111.8 106.7,114 107.9,116.4 96.4,119.7 96.2,117.7 95.9,115.6 95.5,113.6 94.9,111.5 94.3,109.3 93.5,107.2 92.6,104.9 91.7,102.7 90.6,100.3 89,98.3" fill="black"/><path d="M 107.9,116.4 L 107.3,121 103.8,123.8 99.2,123.3 96.4,119.7" fill="black"/><path d="M 152,102.3 L 150.6,104.4 149.1,106.5 147.5,108.6 145.8,110.9 143.9,113.3 141.9,115.7 139.8,118.3 137.5,120.9 135,123.5 132.7,126.4 131.2,125.5 132.8,122.1 134,118.7 135.1,115.5 136.2,112.5 137.3,109.6 138.2,106.8 139.1,104.2 139.9,101.8 140.5,99.5 141.1,97.4" fill="black"/><path d="M 140.7,98.3 L 152,102.3 141.6,96.2" fill="black"/><path d="M 152,102.3 L 153.9,105.4 148.1,106.1" fill="black"/><path d="M 72,124 L 167,124 167,128 72,128" fill="black"/><path d="M 167,124 L 143,126 155,114" fill="black"/><path d="M 64,145 L 175,145 175,149 64,149" fill="black"/><path d="M 175,145 L 151,147 163,135" fill="black"/><path d="M 125,124 L 125,176 113,182 113,124" fill="black"/></svg>